<svg width="169" height="46" viewBox="0 0 169 46" fill="none" xmlns="http://www.w3.org/2000/svg">
<g id="backButton">
<path id="Arrow 1" d="M0.87868 20.8787C-0.292893 22.0503 -0.292893 23.9497 0.87868 25.1213L19.9706 44.2132C21.1421 45.3848 23.0416 45.3848 24.2132 44.2132C25.3848 43.0416 25.3848 41.1421 24.2132 39.9706L7.24264 23L24.2132 6.02944C25.3848 4.85786 25.3848 2.95837 24.2132 1.7868C23.0416 0.615224 21.1421 0.615224 19.9706 1.7868L0.87868 20.8787ZM42.5 20L3 20V26L42.5 26V20Z" fill="#9CAFFE"/>
<path id="back" d="M56.62 4.5C58.7 4.5 60.04 8.58 60.64 16.74L61 18.6C62.84 14.84 64.34 12.96 65.5 12.96C65.5 12.8 65.92 12.68 66.76 12.6H67C69.64 12.6 71.32 14.66 72.04 18.78V18.96C72.04 22.48 70.28 26.36 66.76 30.6C65.28 32.2 63.66 33 61.9 33C59.9 32.56 58.9 31.56 58.9 30L55.9 8.46L55 6.24C55 5.52 55.54 4.94 56.62 4.5ZM62.86 28.86H63.04C65.12 28.02 66.94 25.16 68.5 20.28V18C68.14 16.76 67.68 16.14 67.12 16.14H66.64C64.88 17.18 63.62 21.42 62.86 28.86ZM86.2858 9.84C88.0458 9.84 88.9258 10.54 88.9258 11.94L88.3858 13.08L88.0258 24.06C88.0258 29.02 89.0258 32.1 91.0258 33.3L91.1458 34.2C91.0258 35.36 90.4858 35.94 89.5258 35.94H89.1658C86.1658 33.9 84.6658 30.78 84.6658 26.58H84.2458C82.6458 31.06 80.7058 33.3 78.4258 33.3C76.3058 32.7 75.2458 31.12 75.2458 28.56C75.2458 22.92 77.5058 17.3 82.0258 11.7C83.5458 10.46 84.9658 9.84 86.2858 9.84ZM79.0258 26.16L78.7858 27.84V28.98H79.3858C82.3858 21.5 83.8858 16.94 83.8858 15.3H83.6458C81.3258 17.9 79.7858 21.52 79.0258 26.16ZM98.7053 12.66L101.165 12.3C102.165 12.3 102.725 12.92 102.845 14.16C102.845 15.24 101.545 15.94 98.9453 16.26C97.3053 17.54 96.4853 19.18 96.4853 21.18V23.16C97.2853 27.56 98.6453 29.76 100.565 29.76H101.165C102.285 29.76 103.965 28.7 106.205 26.58H106.565C107.365 26.58 108.005 27.14 108.485 28.26C107.925 29.98 106.125 31.54 103.085 32.94C102.525 33.18 101.825 33.3 100.985 33.3C96.8653 33.3 94.1853 30.06 92.9453 23.58V22.26C92.9453 17.58 94.8653 14.38 98.7053 12.66ZM114.571 1.26H114.931C115.451 1.26 115.951 1.7 116.431 2.58L116.191 6.66V8.94L116.431 19.44L116.611 20.04H116.791C118.511 18.44 120.011 15.62 121.291 11.58L122.611 11.16C123.731 11.32 124.291 11.82 124.291 12.66C124.291 15.26 122.431 18.76 118.711 23.16V23.58C123.631 29.3 126.871 32.16 128.431 32.16H128.791L130.291 31.26H130.831C131.671 31.26 132.291 31.82 132.691 32.94C132.691 34.22 131.271 35.1 128.431 35.58C125.591 35.58 121.891 32.7 117.331 26.94H116.791L116.971 30.18V33.3C116.731 34.54 116.111 35.16 115.111 35.16C113.991 34.92 113.431 34.3 113.431 33.3V32.94L113.191 26.04C112.751 26.04 112.451 25.42 112.291 24.18L113.071 22.68L112.711 9.18V6.54C112.711 3.02 113.331 1.26 114.571 1.26Z" fill="#9CAFFE"/>
</g>
</svg>
