<svg width="1245" height="700" viewBox="0 0 1245 700" fill="none" xmlns="http://www.w3.org/2000/svg">
<g id="Initial Background(Desk Page)" clip-path="url(#clip0_245_829)">
<rect width="1245" height="700" fill="#020001"/>
<path id="Vector" opacity="0.2" d="M9.98294 9V862.083M78.0677 9V862.083M149.344 9V862.083M220.939 9V862.083M292.215 9V862.083M364.555 9V862.083M425.64 9V862.083M496.916 9V862.083M573.512 9V862.083M639.788 9V862.083M711.064 9V862.083M779.149 9V862.083M843.361 9V862.083M919.957 9V862.083M992.297 9V862.083M1057.64 9V862.083M1125.72 9V862.083M1195.93 9V862.083M1267.53 9V862.083M1339.87 9V862.083M1453.88 50.1768L-49.0247 51.5292M1454.16 102.461L-48.7451 103.814M1454.45 157.196L-48.4524 158.549M1454.76 216.016L-48.1378 217.369M1455.06 270.752L-47.8459 272.104M1455.35 325.487L-47.5533 326.839M1455.63 377.771L-47.2738 379.124M1455.92 431.69L-46.986 433.042M1456.23 490.51L-46.672 491.862M1456.53 546.062L-46.3749 547.414M1456.82 601.614L-46.0781 602.966M1457.1 653.898L-45.7986 655.251M1457.39 707.817L-45.5103 709.169M1457.71 766.637L-45.1963 767.989M1458 822.189L-44.8994 823.541" stroke="#F5F5F5"/>
</g>
<defs>
<clipPath id="clip0_245_829">
<rect width="1245" height="700" fill="white"/>
</clipPath>
</defs>
</svg>
