<svg width="1347" height="702" viewBox="0 0 1347 702" fill="none" xmlns="http://www.w3.org/2000/svg">
<path d="M0 667H1347M0 593H1347M0 519H1347M0 445H1347M0 371H1347M0 297H1347M0 223H1347M0 149H1347M0 75H1347M0 1H1347M108.5 0.996826V702.003M182.5 0.996826V702.003M256.5 0.996826V702.003M330.5 0.996826V702.003M404.5 0.996826V702.003M478.5 0.996826V702.003M552.5 0.996826V702.003M626.5 0.996826V702.003M700.5 0.996826V702.003M774.5 0.996826V702.003M848.5 0.996826V702.003M922.5 0.996826V702.003M996.5 0.996826V702.003M1070.5 0.996826V702.003M1144.5 0.996826V702.003M1218.5 0.996826V702.003M1292.5 0.996826V702.003" stroke="#D9D9D9"/>
</svg>
