<svg width="103" height="91" viewBox="0 0 103 91" fill="none" xmlns="http://www.w3.org/2000/svg">
<g filter="url(#filter0_d_495_281)">
<path d="M66.4254 42.0981C64.828 41.4527 64.1936 39.8775 67.455 40.1657C70.5293 40.4125 69.5318 40.1572 72.8768 40.5955C76.2219 41.0339 75.1025 42.9757 73.6446 42.9603C71.9038 42.9418 68.0228 42.7435 66.4254 42.0981Z" fill="#F5F5F5" stroke="#F5F5F5" stroke-width="2"/>
<path d="M30.3404 39.1177C28.8452 38.2257 29.6522 36.8674 30.6011 37.0783C31.348 37.1987 33.6534 37.6799 36.9003 38.6414C40.1472 39.603 38.9563 41.1856 37.6342 40.9604C35.9179 40.6681 31.8357 40.0098 30.3404 39.1177Z" fill="#F5F5F5" stroke="#F5F5F5" stroke-width="2"/>
<path d="M72.7929 53.5621L73.5058 55.0227M73.9429 52.9274L74.5482 53.9282" stroke="#F5F5F5" stroke-width="2"/>
<path d="M71.4981 49.9981C69.8663 52.2706 68.6896 50.7429 68.3051 49.695L69.6195 50.332L69.7645 49.6365C69.7457 49.1487 70.066 48.5382 71.4981 49.9981Z" fill="#F5F5F5" stroke="#F5F5F5" stroke-width="2"/>
<path d="M30.6264 46.0817C31.2136 48.817 32.903 47.8872 33.6743 47.0803L32.2149 47.1388L32.36 46.4433C32.5723 46.0037 32.5228 45.316 30.6264 46.0817Z" fill="#F5F5F5" stroke="#F5F5F5" stroke-width="2"/>
<path d="M62.1124 10.0201C40.8543 3.08214 24.6168 18.2888 20.0522 26.3813C21.7557 27.4073 22.4285 27.4302 23.5563 28.8026C26.753 21.9435 38.1539 9.2251 58.1839 13.2244C78.214 17.2237 84.5945 32.0695 84.1744 38.9862C84.2954 38.0045 87.4814 39.887 87.854 40.8589C88.2789 32.0803 82.3967 13.536 62.1124 10.0201Z" fill="#F5F5F5"/>
<path d="M18.5695 31.5383C18.6539 30.2146 19.6988 26.4495 20.0522 26.3813M20.0522 26.3813C24.6168 18.2888 40.8543 3.08214 62.1124 10.0201C82.3967 13.536 88.2789 32.0803 87.854 40.8589M20.0522 26.3813C21.7557 27.4073 22.4285 27.4302 23.5563 28.8026M87.854 40.8589C87.4814 39.887 84.2954 38.0045 84.1744 38.9862M87.854 40.8589L87.0905 44.5194M84.1744 38.9862C83.8007 42.0184 83.7686 42.1608 83.8647 42.9259L84.1214 44.1187M84.1744 38.9862C84.5945 32.0695 78.214 17.2237 58.1839 13.2244C38.1539 9.2251 26.753 21.9435 23.5563 28.8026M23.5563 28.8026L22.6011 31.7233" stroke="#F5F5F5" stroke-width="2"/>
<path d="M16.2726 52.9393C16.5887 54.0256 17.6722 55.9862 19.4771 55.1383C19.5073 50.1156 18.0378 47.404 24.1101 32.9279" stroke="#F5F5F5" stroke-width="2"/>
<path d="M79.9142 63.4871C79.1075 64.2927 77.167 65.4965 75.8587 63.8666C78.1795 59.4139 80.5276 58.9816 81.5626 43.2278" stroke="#F5F5F5" stroke-width="2"/>
<path d="M93.4202 58.0839C96.2721 46.3633 87.243 44.5293 83.9474 43.7924C85.3696 52.0615 81.7546 61.4517 79.7694 65.1132C81.3939 66.3303 91.0915 67.6545 93.4202 58.0839Z" stroke="#F5F5F5" stroke-width="2"/>
<path d="M7.26568 41.3704C9.33742 29.4871 18.3468 31.4158 21.6621 32.0579C17.0526 39.0689 16.612 49.1212 16.9679 53.2711C14.9923 53.7372 5.57397 51.074 7.26568 41.3704Z" stroke="#F5F5F5" stroke-width="2"/>
<path d="M21.1022 48.6682C15.8554 34.5484 39.9776 25.8583 53.1516 23.6651C64.6878 26.5553 87.553 39.3074 79.1251 55.2077C72.6598 67.4053 27.6607 66.3179 21.1022 48.6682Z" stroke="#F5F5F5" stroke-width="2"/>
<path d="M48.7812 49.6467L51.8781 51.3859L55.0018 50.0697" stroke="#F5F5F5" stroke-width="2"/>
<path d="M48.6138 48.0821C48.9155 48.7109 49.1707 50.0812 47.7783 50.5316" stroke="#F5F5F5" stroke-width="2"/>
<path d="M27.824 26.0368C25.6585 26.658 24.3093 33.023 23.8974 35.2731L25.8629 33.7828L28.0016 32.7282L32.1334 30.1724L33.9881 28.8506L32.2799 26.3078C31.6348 25.2158 29.9895 25.4155 27.824 26.0368Z" fill="#F5F5F5"/>
<path d="M35.0506 28.635L31.8998 23.8398C31.3001 21.2486 35.6293 22.4527 36.8159 23.158C36.6702 22.7114 36.989 21.7567 39.4296 21.5103C41.8701 21.2638 43.3 22.1538 43.7098 22.6296L42.3257 25.7047L37.7307 27.1331L35.0506 28.635Z" fill="#F5F5F5"/>
<path d="M45.3357 24.1008C45.8415 22.6072 44.5849 21.5069 43.8934 21.1434C44.8328 20.0421 46.7499 20.2399 47.591 20.4765L51.8333 23.5286L45.7465 25.6528C45.3988 25.7578 44.8298 25.5944 45.3357 24.1008Z" fill="#F5F5F5"/>
<path d="M53.6159 24.2934L52.6833 23.1298C52.1217 21.9195 54.2466 21.2694 56.2419 20.3578C58.2396 19.445 60.799 20.8621 62.0548 22.0772L58.8089 24.9837L53.6159 24.2934Z" fill="#F5F5F5"/>
<path d="M59.6251 25.9494L64.8286 22.3841C68.4743 22.7876 68.5426 25.3778 68.1211 26.6224L65.7055 28.2921L65.0944 28.9984C64.404 29.9704 61.6713 27.8471 61.13 27.5155C60.7191 27.2639 59.6435 26.8841 59.6251 25.9494Z" fill="#F5F5F5"/>
<path d="M76.6647 32.0678C73.6417 35.1974 67.2923 33.3316 67.649 30.4441C67.9215 28.2377 68.9736 27.3155 69.8122 27.0108C74.0239 24.8803 73.4707 27.2144 75.7171 28.5391C77.9362 28.7847 77.095 30.7524 76.6647 32.0678C80.0657 30.5503 81.2389 35.0831 81.1437 36.9378L80.3544 43.6486L76.5444 38.1003L74.1378 34.8209L76.6647 32.0678Z" fill="#F5F5F5"/>
<path d="M17.0426 51.5306L20.1429 47.5694C25.8187 58.5279 31.8029 61.8895 50.1497 63.4886C68.1551 65.058 77.1865 56.884 79.2989 55.5754C79.9734 56.8823 81.04 59.8743 79.9103 61.3878C82.0669 62.7123 81.2663 64.9504 80.5963 65.9039C81.4034 67.4998 81.7857 65.5825 82.753 69.133C83.5268 71.9734 81.8011 73.0451 80.8415 73.2258C81.3747 73.787 82.3303 75.1554 81.8874 76.1394C81.3338 77.3694 82.4701 77.9256 79.3932 78.446C79.0365 81.3335 76.0745 79.2983 74.638 77.9197C74.0708 78.7178 72.5051 79.5776 70.7802 76.632C69.5798 78.2208 68.7085 78.7701 66.3164 76.9988C64.9294 76.8453 65.1421 78.3754 62.5518 76.5822C60.2395 78.3924 58.7523 76.4487 58.2978 75.2506C58.2366 75.746 57.5961 76.3781 55.5239 74.9436C52.9691 77.4156 50.6366 74.4027 49.7897 72.5873C49.6848 73.4365 45.2383 74.651 43.7976 73.5333C41.1954 71.5147 39.7319 75.4628 38.3902 74.0897C37.8241 74.5174 36.6593 74.9728 35.3288 74.2152C33.5969 75.2287 32.3616 74.389 31.9605 73.8424C31.4195 74.4282 30.0864 75.3567 29.0817 74.3847C28.4803 75.3512 27.2461 74.612 26.7041 74.1216L24.0905 75.7693C23.5582 76.2843 22.1394 76.9308 20.7222 75.3965C19.4448 76.6325 18.6127 74.5892 18.3563 73.413C18.1989 74.6868 12.3781 75.1346 12.7348 72.2471C10.8001 70.9999 12.2981 69.2754 14.3892 69.1481C13.8249 68.2965 13.702 67.5174 16.4479 66.0996C13.4993 62.3298 16.1771 58.537 17.5495 57.1824C16.5029 56.55 16.7755 53.151 17.0426 51.5306Z" fill="#F5F5F5"/>
<path d="M70.4987 26.8855C70.3097 26.8815 70.0711 26.9168 69.8122 27.0108M76.6647 32.0678C73.6417 35.1974 67.2923 33.3316 67.649 30.4441C67.9215 28.2377 68.9736 27.3155 69.8122 27.0108M76.6647 32.0678C77.095 30.7524 77.9362 28.7847 75.7171 28.5391C73.4707 27.2144 74.0239 24.8803 69.8122 27.0108M76.6647 32.0678C80.0657 30.5503 81.2389 35.0831 81.1437 36.9378L80.3544 43.6486L76.5444 38.1003L74.1378 34.8209L76.6647 32.0678ZM38.5776 73.9291C38.1202 74.3806 36.8299 75.07 35.3288 74.2152C33.5969 75.2287 32.3616 74.389 31.9605 73.8424C31.4195 74.4282 30.0864 75.3567 29.0817 74.3847C28.4803 75.3512 27.2461 74.612 26.7041 74.1216L24.0905 75.7693C23.5582 76.2843 22.1394 76.9308 20.7222 75.3965C19.4448 76.6325 18.6127 74.5892 18.3563 73.413C18.1989 74.6868 12.3781 75.1346 12.7348 72.2471C10.8001 70.9999 12.2981 69.2754 14.3892 69.1481C13.8249 68.2965 13.702 67.5174 16.4479 66.0996C13.4993 62.3298 16.1771 58.537 17.5495 57.1824C16.5029 56.55 16.7755 53.151 17.0426 51.5306L20.1429 47.5694C25.8187 58.5279 31.8029 61.8895 50.1497 63.4886C68.1551 65.058 77.1865 56.884 79.2989 55.5754C79.9734 56.8823 81.04 59.8743 79.9103 61.3878C82.0669 62.7123 81.2663 64.9504 80.5963 65.9039C81.4034 67.4998 81.7857 65.5825 82.753 69.133C83.5268 71.9734 81.8011 73.0451 80.8415 73.2258C81.3747 73.787 82.3303 75.1554 81.8874 76.1394C81.3338 77.3694 82.4701 77.9256 79.3932 78.446C79.0365 81.3335 76.0745 79.2983 74.638 77.9197C74.0708 78.7178 72.5051 79.5776 70.7802 76.632C69.5798 78.2208 68.7085 78.7701 66.3164 76.9988C64.9295 76.8453 65.1421 78.3754 62.5518 76.5822C60.2395 78.3924 58.7523 76.4487 58.2978 75.2506C58.2366 75.746 57.5961 76.3781 55.5239 74.9436C52.9691 77.4156 50.6366 74.4027 49.7897 72.5873C49.6848 73.4365 45.2383 74.651 43.7975 73.5333C41.1954 71.5147 39.7319 75.4628 38.3902 74.0897M23.8974 35.2731C24.3093 33.023 25.6585 26.658 27.824 26.0368C29.9895 25.4155 31.6348 25.2158 32.2799 26.3078L33.9881 28.8506L32.1334 30.1724L28.0016 32.7282L25.8629 33.7828L23.8974 35.2731ZM31.8998 23.8398L35.0506 28.635L37.7307 27.1331L42.3257 25.7047L43.7098 22.6296C43.3 22.1538 41.8701 21.2638 39.4296 21.5103C36.989 21.7567 36.6702 22.7114 36.8159 23.158C35.6293 22.4527 31.3001 21.2486 31.8998 23.8398ZM43.8934 21.1434C44.5849 21.5069 45.8415 22.6072 45.3357 24.1008C44.8298 25.5944 45.3988 25.7578 45.7465 25.6528L51.8333 23.5286L47.591 20.4765C46.7499 20.2399 44.8328 20.0421 43.8934 21.1434ZM52.6833 23.1298L53.6159 24.2934L58.8089 24.9837L62.0548 22.0772C60.799 20.8621 58.2396 19.445 56.2419 20.3578C54.2466 21.2694 52.1217 21.9195 52.6833 23.1298ZM64.8286 22.3841L59.6251 25.9494C59.6435 26.8841 60.7191 27.2639 61.13 27.5155C61.6713 27.8471 64.404 29.9704 65.0944 28.9984L65.7055 28.2921L68.1211 26.6224C68.5426 25.3778 68.4743 22.7876 64.8286 22.3841Z" stroke="#F5F5F5" stroke-width="2"/>
<path d="M22.8311 31.5951L23.7037 33.2652" stroke="#F5F5F5" stroke-width="2"/>
<path d="M83.4912 43.1122L81.4131 43.9019" stroke="#F5F5F5" stroke-width="2"/>
</g>
<defs>
<filter id="filter0_d_495_281" x="2.06152" y="7.25488" width="96.9033" height="81.6557" filterUnits="userSpaceOnUse" color-interpolation-filters="sRGB">
<feFlood flood-opacity="0" result="BackgroundImageFix"/>
<feColorMatrix in="SourceAlpha" type="matrix" values="0 0 0 0 0 0 0 0 0 0 0 0 0 0 0 0 0 0 127 0" result="hardAlpha"/>
<feOffset dy="4"/>
<feGaussianBlur stdDeviation="2"/>
<feComposite in2="hardAlpha" operator="out"/>
<feColorMatrix type="matrix" values="0 0 0 0 0 0 0 0 0 0 0 0 0 0 0 0 0 0 0.12 0"/>
<feBlend mode="normal" in2="BackgroundImageFix" result="effect1_dropShadow_495_281"/>
<feBlend mode="normal" in="SourceGraphic" in2="effect1_dropShadow_495_281" result="shape"/>
</filter>
</defs>
</svg>
