<svg width="198" height="240" viewBox="0 0 198 240" fill="none" xmlns="http://www.w3.org/2000/svg">
<g filter="url(#filter0_d_95_32)">
<path d="M128.911 66.8328C125.335 66.1884 123.348 63.2101 130.204 62.4008C136.656 61.5864 134.487 61.4889 141.581 60.9534C148.674 60.418 147.2 64.9083 144.184 65.5042C140.582 66.2156 132.486 67.4772 128.911 66.8328Z" fill="#F14D08" stroke="#F14D08" stroke-width="3"/>
<path d="M53.1435 76.2174C49.673 75.0199 50.7539 71.8687 52.8035 71.8955C54.397 71.8224 59.3629 71.8229 66.4793 72.4097C73.5956 72.9964 71.8187 76.7761 68.9927 76.8806C65.324 77.0162 56.6141 77.4149 53.1435 76.2174Z" fill="#F14D08" stroke="#F14D08" stroke-width="3"/>
<path d="M146.989 87.7554L149.089 90.4634M149.089 85.9501L150.769 87.7554" stroke="#F14D08" stroke-width="2"/>
<path d="M142.788 80.955C140.398 86.3484 137.311 83.7017 136.066 81.7041L139.054 82.4532V80.955C138.805 79.9562 139.203 78.5579 142.788 80.955Z" fill="#F5F5F5" stroke="#F5F5F5" stroke-width="3"/>
<path d="M56.7378 90.4684C59.1276 95.8619 62.2144 93.2151 63.4591 91.2175L60.4718 91.9666V90.4684C60.7208 89.4697 60.3225 88.0714 56.7378 90.4684Z" fill="#F5F5F5" stroke="#F5F5F5" stroke-width="3"/>
<path d="M25.5841 65.6402C25.1883 62.8716 25.7241 54.6499 26.4243 54.3569M26.4243 54.3569C32.3619 35.687 59.3316 -2.69391 106.2 2.47413C149.584 0.997564 169.711 36.744 172.614 55.0474M26.4243 54.3569C30.3823 55.7412 31.7809 55.4988 34.6999 57.846M172.614 55.0474C171.426 53.2017 164.039 50.6878 164.212 52.7662M172.614 55.0474V62.9323M164.212 52.7662C164.746 59.1862 164.741 59.4939 165.269 61.032L166.312 63.3836M164.212 52.7662C162.101 38.308 142.538 10.4108 99.4702 10.7799C56.4024 11.1491 38.3451 42.3111 34.6999 57.846M34.6999 57.846L33.9858 64.2862" stroke="#F5F5F5" stroke-width="3"/>
<path d="M30.0582 110.805C31.1785 112.911 34.2591 116.491 37.6197 113.964C35.5193 103.583 31.3185 98.6187 37.6197 66.1228" stroke="#F5F5F5" stroke-width="3"/>
<path d="M165.963 105.176C164.645 107.186 161.157 110.507 157.755 107.706C160.628 97.5151 165.289 95.6117 160.642 62.6473" stroke="#F5F5F5" stroke-width="3"/>
<path d="M191.517 88.2069C192.358 62.7853 172.93 62.8874 165.81 62.7853C172.306 79.242 168.887 100.182 166.366 108.594C170.243 110.407 190.831 108.965 191.517 88.2069Z" stroke="#F5F5F5" stroke-width="3"/>
<path d="M6.48269 90.8029C5.64246 65.3814 25.0701 65.4835 32.1899 65.3813C25.6938 81.838 29.1126 102.778 31.6341 111.191C27.7567 113.003 7.1688 111.561 6.48269 90.8029Z" stroke="#F5F5F5" stroke-width="3"/>
<path d="M38.1866 99.909C21.2765 73.0223 67.3275 44.6978 93.5768 34.4983C118.634 35.4969 171.323 51.9744 160.773 88.4246C152.679 116.386 59.3242 133.517 38.1866 99.909Z" stroke="#F14D08" stroke-width="3"/>
<path d="M95.7381 90.0122L102.88 92.2689L108.761 88.2069" stroke="#F14D08" stroke-width="3"/>
<path d="M94.7281 86.8527C95.6215 88.0208 96.7383 90.7394 94.058 92.2686" stroke="#F14D08" stroke-width="3"/>
<path d="M42.3149 50.3C38.1123 52.5147 38.0679 66.2343 38.1865 71.0562L41.602 67.1336L45.5626 64.0359L52.9908 56.9812L56.2502 53.4543L51.6292 48.9409C49.8276 46.9645 46.5174 48.0853 42.3149 50.3Z" fill="#F14D08"/>
<path d="M58.3506 52.5516L49.782 44.0102C47.4284 38.9197 56.8832 39.5411 59.6362 40.4859C59.1432 39.6269 59.3902 37.5189 64.3218 35.9594C69.2535 34.3998 72.5882 35.6212 73.6391 36.4269L72.1061 43.3704L63.2362 48.2975L58.3506 52.5516Z" fill="#F14D08"/>
<path d="M77.6286 38.7637C78.0297 35.4629 74.9621 33.7326 73.3781 33.28C74.8431 30.6023 78.8854 30.1852 80.7234 30.3114L90.7946 34.7848L79.1448 41.7904C78.4723 42.1569 77.2275 42.0646 77.6286 38.7637Z" fill="#F14D08"/>
<path d="M94.8034 35.5961L92.3774 33.5957C90.6971 31.3391 94.8034 29.0824 98.5294 26.3415C102.26 23.5971 108.153 25.4203 111.269 27.3877L105.82 34.7848L94.8034 35.5961Z" fill="#F14D08"/>
<path d="M107.921 36.4269L117.127 26.8269C124.826 26.09 126.082 31.4072 125.748 34.1579L121.481 38.6444L120.523 40.3657C119.517 42.6692 112.962 39.463 111.701 39.0117C110.745 38.6692 108.361 38.3482 107.921 36.4269Z" fill="#F14D08"/>
<path d="M145.728 41.7196C140.836 49.4813 126.926 48.3637 126.419 42.2498C126.031 37.578 127.806 35.2215 129.406 34.2315C137.182 28.0203 137.045 33.0765 142.253 34.8437C146.939 34.3951 146.05 38.8191 145.728 41.7196C152.095 37.1227 156.468 45.9742 157.07 49.8436L158.331 64.0359L148.077 54.2235L141.697 48.4905L145.728 41.7196Z" fill="#F14D08"/>
<path d="M31.0371 107.566L35.7311 98.0546C52.1653 118.231 65.9653 122.594 104.525 117.995C142.367 113.481 157.491 92.7202 161.287 89.1095C163.242 91.5167 166.732 97.2335 165.052 100.844C170.074 102.65 169.385 107.614 168.413 109.871C170.766 112.817 170.729 108.695 174.255 115.608C177.075 121.138 173.974 124.093 172.071 124.879C173.414 125.808 175.976 128.221 175.485 130.443C174.872 133.22 177.457 133.879 171.33 136.278C171.837 142.392 164.846 139.466 161.287 137.239C160.46 139.131 157.599 141.58 152.77 136.242C150.976 140.039 149.414 141.548 143.713 138.921C140.784 139.202 141.882 142.269 135.763 139.682C131.77 144.415 127.863 141.043 126.409 138.765C126.496 139.814 125.446 141.395 120.551 139.326C116.342 145.529 110.23 140.314 107.7 136.931C107.849 138.729 99.1933 143.151 95.7381 141.464C89.4976 138.418 88.1766 147.197 84.8159 144.941C83.8314 146.067 81.6232 147.509 78.5506 146.518C75.412 149.356 72.5007 148.154 71.4373 147.199C70.5728 148.641 68.2208 151.132 65.7285 149.558C64.9032 151.812 62.0372 150.817 60.7073 150.038L56.0217 154.565C55.1448 155.857 52.4944 157.803 48.9084 155.246C46.8038 158.347 44.2064 154.488 43.1707 152.17C43.3944 154.867 31.5719 158.298 31.0649 152.184C26.5344 150.443 28.8839 146.238 33.1455 145.075C31.6141 143.56 31.0249 142.005 36.0825 137.896C28.3728 131.384 32.2672 122.402 34.5168 119.014C32.0842 118.16 31.1834 111.026 31.0371 107.566Z" fill="#F14D08"/>
<path d="M130.769 33.6773C130.377 33.7504 129.9 33.9259 129.406 34.2315M145.728 41.7196C140.836 49.4813 126.926 48.3637 126.419 42.2498C126.031 37.578 127.806 35.2215 129.406 34.2315M145.728 41.7196C146.05 38.8191 146.939 34.3951 142.253 34.8437C137.045 33.0765 137.182 28.0203 129.406 34.2315M145.728 41.7196C152.095 37.1227 156.468 45.9742 157.07 49.8436L158.331 64.0359L148.077 54.2235L141.697 48.4905L145.728 41.7196ZM85.1336 144.529C84.3837 145.658 82.0173 147.636 78.5506 146.518C75.412 149.356 72.5007 148.154 71.4373 147.199C70.5728 148.641 68.2208 151.132 65.7285 149.558C64.9032 151.812 62.0372 150.817 60.7073 150.038L56.0217 154.565C55.1448 155.857 52.4944 157.803 48.9084 155.246C46.8038 158.347 44.2064 154.488 43.1707 152.17C43.3944 154.867 31.5719 158.298 31.0649 152.184C26.5344 150.443 28.8839 146.238 33.1455 145.075C31.6141 143.56 31.0249 142.005 36.0825 137.896C28.3728 131.384 32.2672 122.402 34.5168 119.014C32.0842 118.16 31.1834 111.026 31.0371 107.566L35.7311 98.0547C52.1653 118.231 65.9654 122.594 104.525 117.995C142.367 113.481 157.491 92.7202 161.287 89.1096C163.242 91.5167 166.732 97.2335 165.052 100.844C170.074 102.65 169.385 107.614 168.413 109.871C170.766 112.817 170.729 108.695 174.255 115.608C177.075 121.138 173.974 124.093 172.071 124.879C173.414 125.808 175.976 128.221 175.485 130.443C174.872 133.22 177.457 133.879 171.33 136.278C171.837 142.392 164.846 139.466 161.287 137.239C160.46 139.131 157.599 141.58 152.77 136.242C150.976 140.039 149.414 141.548 143.713 138.921C140.784 139.202 141.882 142.269 135.763 139.682C131.77 144.415 127.863 141.043 126.409 138.765C126.496 139.814 125.446 141.395 120.551 139.326C116.342 145.529 110.23 140.314 107.7 136.931C107.849 138.729 99.1933 143.151 95.7381 141.464C89.4976 138.418 88.1766 147.197 84.8159 144.941M38.1865 71.0562C38.0679 66.2343 38.1123 52.5147 42.3149 50.3C46.5174 48.0853 49.8276 46.9645 51.6292 48.9409L56.2502 53.4543L52.9908 56.9812L45.5626 64.0359L41.602 67.1336L38.1865 71.0562ZM49.782 44.0102L58.3506 52.5516L63.2362 48.2975L72.1061 43.3704L73.6391 36.4269C72.5882 35.6212 69.2535 34.3998 64.3218 35.9594C59.3902 37.5189 59.1432 39.6269 59.6362 40.4859C56.8832 39.5411 47.4284 38.9197 49.782 44.0102ZM73.3781 33.28C74.9621 33.7326 78.0297 35.4629 77.6286 38.7637C77.2275 42.0646 78.4723 42.1569 79.1448 41.7904L90.7946 34.7848L80.7234 30.3114C78.8854 30.1852 74.8431 30.6023 73.3781 33.28ZM92.3774 33.5957L94.8034 35.5961L105.82 34.7848L111.269 27.3877C108.153 25.4203 102.26 23.5971 98.5294 26.3415C94.8034 29.0824 90.6971 31.3391 92.3774 33.5957ZM117.127 26.8269L107.921 36.4269C108.361 38.3482 110.745 38.6692 111.701 39.0117C112.962 39.463 119.517 42.6692 120.523 40.3657L121.481 38.6444L125.748 34.1579C126.082 31.4072 124.826 26.09 117.127 26.8269Z" stroke="#F14D08" stroke-width="3"/>
<path d="M34.4058 63.9226L36.9263 66.9943" stroke="#F5F5F5" stroke-width="3"/>
<path d="M164.573 61.5782L160.623 64.1031" stroke="#F5F5F5" stroke-width="3"/>
</g>
<g filter="url(#filter1_d_95_32)">
<path d="M66.64 195.56C67.28 195.56 67.6933 196.56 67.88 198.56L68.04 200.72C68.04 202.347 67.7467 206.587 67.16 213.44H67.4V213.56L67.56 213.44H67.88L72.56 213.8H72.88L74.88 213.2H75.16C75.5867 213.467 75.88 213.84 76.04 214.32C76.04 215.333 74.9067 215.96 72.64 216.2L68.56 215.8H67.8L65.88 216.32C65.16 216.053 64.8 215.627 64.8 215.04L65.64 201.32V200.72L65.4 196.72C65.4 196.053 65.8133 195.667 66.64 195.56ZM83.7772 200.92C85.7505 200.92 87.2439 202.387 88.2572 205.32L88.4172 206.16C88.4172 209.013 87.0839 211.933 84.4172 214.92C83.3505 215.907 82.2705 216.4 81.1772 216.4C79.5772 216.4 78.4439 215.48 77.7772 213.64C77.5372 212.787 77.4172 212.04 77.4172 211.4V210.92C77.4172 206.707 78.9505 203.507 82.0172 201.32C82.5505 201.053 83.1372 200.92 83.7772 200.92ZM79.7772 211.32C79.7772 213.133 80.2439 214.04 81.1772 214.04C83.1239 214.04 84.7372 211.547 86.0172 206.56V205.8C85.5639 204.147 84.7239 203.32 83.4972 203.32C83.0172 203.32 82.7772 203.653 82.7772 204.32C82.7772 204.773 82.2439 205.133 81.1772 205.4C80.2439 206.973 79.7772 208.947 79.7772 211.32ZM97.6697 200.56C98.843 200.56 99.4297 201.027 99.4297 201.96L99.0697 202.72L98.8297 210.04C98.8297 213.347 99.4964 215.4 100.83 216.2L100.91 216.8C100.83 217.573 100.47 217.96 99.8297 217.96H99.5897C97.5897 216.6 96.5897 214.52 96.5897 211.72H96.3097C95.243 214.707 93.9497 216.2 92.4297 216.2C91.0164 215.8 90.3097 214.747 90.3097 213.04C90.3097 209.28 91.8164 205.533 94.8297 201.8C95.843 200.973 96.7897 200.56 97.6697 200.56ZM92.8297 211.44L92.6697 212.56V213.32H93.0697C95.0697 208.333 96.0697 205.293 96.0697 204.2H95.9097C94.363 205.933 93.3364 208.347 92.8297 211.44ZM111.269 194.04C111.723 194.04 112.136 194.467 112.509 195.32L110.749 206.44V209.56C110.749 212.813 111.256 214.44 112.269 214.44C112.936 214.76 113.269 215.187 113.269 215.72C113.269 216.333 112.736 216.693 111.669 216.8C110.496 216.8 109.576 215.72 108.909 213.56H108.509C107.523 215.72 106.323 216.8 104.909 216.8C103.256 216.8 102.256 215.547 101.909 213.04C101.909 210.133 103.856 207.053 107.749 203.8C108.523 203.8 108.909 202.72 108.909 200.56C109.496 196.213 110.283 194.04 111.269 194.04ZM104.269 212.72V213.8L104.909 214.44H105.149C106.003 214.44 107.003 211.867 108.149 206.72H107.909C105.483 209.147 104.269 211.147 104.269 212.72ZM115.162 195.16C116.175 195.373 116.682 195.827 116.682 196.52C116.415 197.267 115.989 197.64 115.402 197.64C114.415 197.453 113.922 196.96 113.922 196.16C114.189 195.493 114.602 195.16 115.162 195.16ZM116.682 200.76C117.109 200.76 117.469 201.147 117.762 201.92L117.402 204.76V206.64C117.402 208.827 117.775 211.693 118.522 215.24C118.255 215.747 117.802 216 117.162 216C116.069 216 115.349 212.8 115.002 206.4V205C115.002 202.173 115.562 200.76 116.682 200.76ZM125.78 202.52C128.047 202.707 129.18 203.813 129.18 205.84L129.26 206.36L129.18 212.6C129.18 213.32 129.594 214.293 130.42 215.52V215.6C130.207 216.373 129.82 216.76 129.26 216.76C127.607 216.067 126.78 214.6 126.78 212.36V211.84L126.66 211.76L126.78 211.6V211.52L126.9 206C126.9 205.227 126.567 204.84 125.9 204.84H125.42C124.087 205.373 123.42 208.293 123.42 213.6C123.42 215.44 122.954 216.36 122.02 216.36C121.3 216.36 120.927 215.907 120.9 215V211C120.9 205.827 121.354 203.24 122.26 203.24L122.66 203.12L123.5 203.24C124.22 202.76 124.98 202.52 125.78 202.52ZM138.114 200.64C139.341 200.64 139.954 201.227 139.954 202.4C140.114 202.4 140.194 202.6 140.194 203H140.354L140.194 204.16L140.354 212.24L140.114 218.64C142.514 218.64 144.127 220.4 144.954 223.92C144.954 224.64 144.461 225.053 143.474 225.16C143.021 225.16 142.514 224.16 141.954 222.16C141.421 221.387 140.807 221 140.114 221H139.954C139.101 226.68 138.354 229.52 137.714 229.52C136.941 230.933 135.821 231.64 134.354 231.64C132.194 231.133 131.114 230.053 131.114 228.4V228.16C131.114 225.653 132.901 222.933 136.474 220L137.714 219.24L137.874 214.92V213.92H137.714C136.807 215.067 135.941 215.64 135.114 215.64H134.874C133.034 215.64 131.981 214.227 131.714 211.4V210.52C131.714 207.107 132.967 204.147 135.474 201.64C136.247 200.973 137.127 200.64 138.114 200.64ZM134.114 210V211.92C134.221 212.8 134.421 213.24 134.714 213.24H135.114C135.861 213.24 136.781 210.493 137.874 205V203C136.274 203 135.021 205.333 134.114 210ZM133.474 228.24C133.581 228.907 133.954 229.24 134.594 229.24C135.874 229.24 136.794 226.96 137.354 222.4H137.114C134.687 224.507 133.474 226.453 133.474 228.24ZM145.695 213.64C146.255 213.64 146.589 214.093 146.695 215C146.535 215.933 146.069 216.4 145.295 216.4C144.762 216.4 144.389 215.933 144.175 215C144.495 214.093 145.002 213.64 145.695 213.64ZM152.961 213.64C153.521 213.64 153.854 214.093 153.961 215C153.801 215.933 153.334 216.4 152.561 216.4C152.028 216.4 151.654 215.933 151.441 215C151.761 214.093 152.268 213.64 152.961 213.64ZM160.227 213.64C160.787 213.64 161.12 214.093 161.227 215C161.067 215.933 160.6 216.4 159.827 216.4C159.293 216.4 158.92 215.933 158.707 215C159.027 214.093 159.533 213.64 160.227 213.64Z" fill="#F5F5F5"/>
</g>
<defs>
<filter id="filter0_d_95_32" x="0.957886" y="0.499878" width="196.084" height="165.499" filterUnits="userSpaceOnUse" color-interpolation-filters="sRGB">
<feFlood flood-opacity="0" result="BackgroundImageFix"/>
<feColorMatrix in="SourceAlpha" type="matrix" values="0 0 0 0 0 0 0 0 0 0 0 0 0 0 0 0 0 0 127 0" result="hardAlpha"/>
<feOffset dy="4"/>
<feGaussianBlur stdDeviation="2"/>
<feComposite in2="hardAlpha" operator="out"/>
<feColorMatrix type="matrix" values="0 0 0 0 0 0 0 0 0 0 0 0 0 0 0 0 0 0 0.12 0"/>
<feBlend mode="normal" in2="BackgroundImageFix" result="effect1_dropShadow_95_32"/>
<feBlend mode="normal" in="SourceGraphic" in2="effect1_dropShadow_95_32" result="shape"/>
</filter>
<filter id="filter1_d_95_32" x="60.8" y="194.04" width="104.427" height="45.5999" filterUnits="userSpaceOnUse" color-interpolation-filters="sRGB">
<feFlood flood-opacity="0" result="BackgroundImageFix"/>
<feColorMatrix in="SourceAlpha" type="matrix" values="0 0 0 0 0 0 0 0 0 0 0 0 0 0 0 0 0 0 127 0" result="hardAlpha"/>
<feOffset dy="4"/>
<feGaussianBlur stdDeviation="2"/>
<feComposite in2="hardAlpha" operator="out"/>
<feColorMatrix type="matrix" values="0 0 0 0 0.00784314 0 0 0 0 0 0 0 0 0 0.00392157 0 0 0 0.12 0"/>
<feBlend mode="normal" in2="BackgroundImageFix" result="effect1_dropShadow_95_32"/>
<feBlend mode="normal" in="SourceGraphic" in2="effect1_dropShadow_95_32" result="shape"/>
</filter>
</defs>
</svg>
