<svg width="35" height="34" viewBox="0 0 35 34" fill="none" xmlns="http://www.w3.org/2000/svg">
<g id="mail">
<path id="Vector" fill-rule="evenodd" clip-rule="evenodd" d="M34.0362 4.75721C34.362 5.0825 34.5451 5.52417 34.5451 5.98469V15.257C34.5601 18.7342 34.5897 23.1715 34.6386 29.2331C34.6423 29.6966 34.4605 30.1422 34.1335 30.4708C33.8067 30.7994 33.3619 30.9834 32.8984 30.9818L32.375 30.9802C32.2876 30.9818 32.207 30.9818 32.1529 30.9818H32.15L32.1152 30.9815L31.9712 30.9787C26.3567 30.8672 24.2775 30.8839 19.9316 30.9189H19.9243C19.3296 30.9237 18.6925 30.9289 17.998 30.9341C14.8714 30.9574 10.0479 30.9818 3.27121 30.9818C3.07268 30.9818 2.64536 30.9673 2.20854 30.7528C1.96505 30.6332 1.67244 30.4284 1.44452 30.0905C1.21555 29.7507 1.12044 29.3777 1.11525 29.0334L1.03017 25.3888L0.985727 23.6778L0.942148 22.0109L0.940592 21.9575L0.93696 21.8188C0.799132 16.5525 0.632944 10.2043 0.638824 8.58803L0.638997 8.4566V8.454C0.639861 7.89577 0.640899 7.1717 0.825418 6.53825C1.08586 5.64332 1.65325 5.00987 2.45721 4.56353C2.71177 4.42224 2.9978 4.34719 3.28885 4.34546L14.604 4.27836L14.6116 4.27819L32.8078 4.25C33.2683 4.24931 33.7102 4.43175 34.0362 4.75721ZM19.7621 16.3541L4.88865 8.5V12.1715L18.9901 19.9504C19.6215 20.3376 20.4294 20.2809 21.001 19.8096L21.0032 19.8077L21.0136 19.7993L21.057 19.7636L21.2298 19.6232C21.3112 19.5573 21.4127 19.4754 21.5324 19.3796C21.6356 19.2969 21.7524 19.2037 21.8812 19.1017C22.4375 18.6607 23.2159 18.0545 24.1036 17.3939C25.9071 16.0518 28.0608 14.5615 29.7087 13.7376C30.5656 13.3091 30.9128 12.2672 30.4845 11.4101C30.0559 10.5532 29.014 10.206 28.1571 10.6343C26.2132 11.6064 23.8488 13.2589 22.0324 14.6106C21.129 15.283 20.3362 15.8996 19.7621 16.3541Z" fill="#020001"/>
</g>
</svg>
