<svg width="186" height="225" viewBox="0 0 186 225" fill="none" xmlns="http://www.w3.org/2000/svg">
<path id="thirdDottedLine" d="M48.9193 218.013C49.1885 218.797 48.7716 219.65 47.9881 219.919L35.2207 224.306C34.4373 224.575 33.5839 224.158 33.3147 223.375C33.0455 222.591 33.4624 221.738 34.2459 221.469L45.5947 217.569L41.6954 206.221C41.4262 205.437 41.8432 204.584 42.6266 204.315C43.4101 204.045 44.2635 204.462 44.5326 205.246L48.9193 218.013ZM185.965 3.4271C185.007 3.73862 184.054 4.052 183.103 4.36723L182.159 1.51968C183.115 1.2027 184.074 0.887591 185.036 0.574358L185.965 3.4271ZM177.438 6.28052C175.563 6.92553 173.701 7.57774 171.852 8.23694L170.844 5.4112C172.704 4.74822 174.576 4.09231 176.462 3.44366L177.438 6.28052ZM166.228 10.279C164.354 10.9717 162.494 11.6716 160.648 12.3786L159.575 9.57714C161.432 8.86594 163.303 8.16185 165.188 7.46507L166.228 10.279ZM155.142 14.5253C153.271 15.2677 151.415 16.0173 149.575 16.774L148.434 13.9993C150.286 13.2379 152.153 12.4836 154.036 11.7367L155.142 14.5253ZM144.099 19.0648C142.262 19.8468 140.442 20.6358 138.637 21.4315L137.427 18.6865C139.243 17.8856 141.075 17.0915 142.924 16.3046L144.099 19.0648ZM133.186 23.8777C131.386 24.6999 129.603 25.5289 127.836 26.3644L126.553 23.6524C128.332 22.8112 130.128 21.9765 131.94 21.1488L133.186 23.8777ZM122.425 28.9694C120.637 29.8456 118.868 30.7285 117.116 31.6178L115.758 28.9428C117.522 28.0471 119.304 27.1579 121.105 26.2755L122.425 28.9694ZM111.826 34.3523C110.054 35.2848 108.302 36.2239 106.569 37.1694L105.132 34.5359C106.878 33.5832 108.644 32.637 110.429 31.6975L111.826 34.3523ZM101.402 40.0406C99.6496 41.032 97.9188 42.0299 96.2095 43.0339L94.69 40.4472C96.4134 39.4349 98.1582 38.4289 99.9243 37.4296L101.402 40.0406ZM91.1465 46.064C89.4267 47.1128 87.73 48.1677 86.0566 49.2284L84.4504 46.6946C86.1386 45.6245 87.8501 44.5604 89.5846 43.5027L91.1465 46.064ZM81.0861 52.4413C79.4103 53.546 77.7595 54.6564 76.1338 55.7723L74.4361 53.2989C76.0774 52.1723 77.7437 51.0514 79.4349 49.9366L81.0861 52.4413ZM71.2766 59.1758C69.6477 60.3412 68.0459 61.512 66.4715 62.6877L64.6765 60.2839C66.2675 59.0958 67.8858 57.913 69.5311 56.7359L71.2766 59.1758ZM61.7531 66.2896C60.1751 67.5215 58.6268 68.7581 57.1087 69.9992L55.2099 67.6765C56.7458 66.421 58.3116 65.1703 59.9072 63.9248L61.7531 66.2896ZM52.5606 73.8071C51.0394 75.112 49.5513 76.4211 48.0966 77.7339L46.0867 75.5067C47.5604 74.1767 49.0674 72.851 50.6073 71.5301L52.5606 73.8071ZM43.7576 81.7543C42.302 83.1397 40.8836 84.5285 39.5027 85.9201L37.3732 83.807C38.7747 82.3947 40.2135 80.986 41.6892 79.5813L43.7576 81.7543ZM35.4206 90.1579C34.0435 91.6319 32.7084 93.1083 31.4159 94.5861L29.1577 92.6111C30.4724 91.1079 31.8295 89.6073 33.2285 88.1099L35.4206 90.1579ZM27.6179 99.0826C26.3489 100.64 25.1273 102.198 23.9537 103.756L21.5574 101.952C22.7546 100.362 23.9997 98.7738 25.2922 97.1876L27.6179 99.0826ZM20.491 108.554C19.3641 110.186 18.2902 111.818 17.27 113.447L14.7274 111.855C15.7721 110.186 16.8706 108.518 18.0222 106.85L20.491 108.554ZM14.2394 118.56C13.2651 120.303 12.3532 122.043 11.5041 123.777L8.8097 122.458C9.6835 120.673 10.6208 118.886 11.6208 117.097L14.2394 118.56ZM9.08703 129.103C8.31663 130.948 7.61893 132.785 6.99447 134.613L4.15552 133.643C4.80221 131.75 5.52366 129.851 6.31882 127.947L9.08703 129.103ZM5.29772 140.236C4.79701 142.15 4.37908 144.053 4.04454 145.943L1.09048 145.42C1.43951 143.448 1.87489 141.467 2.39531 139.477L5.29772 140.236ZM3.27867 151.717C3.10751 153.674 3.02929 155.615 3.04479 157.537L0.0448876 157.561C0.0286038 155.541 0.110826 153.505 0.290082 151.456L3.27867 151.717ZM3.38473 163.353C3.59736 165.285 3.90956 167.197 4.32238 169.086L1.39154 169.726C0.955925 167.733 0.626778 165.717 0.402732 163.681L3.38473 163.353ZM5.86254 174.68C6.47168 176.505 7.1809 178.306 7.99153 180.083L5.26219 181.328C4.40785 179.456 3.65976 177.555 3.01692 175.63L5.86254 174.68ZM10.6794 185.252C11.6479 186.904 12.711 188.532 13.8701 190.135L11.4393 191.893C10.2251 190.214 9.10932 188.506 8.09125 186.769L10.6794 185.252ZM17.4838 194.687C18.7335 196.128 20.0675 197.545 21.4868 198.937L19.3862 201.079C17.911 199.632 16.5216 198.156 15.2174 196.652L17.4838 194.687ZM25.8423 202.9C27.3029 204.136 28.8369 205.349 30.4451 206.538L28.6617 208.95C27.0024 207.724 25.4168 206.47 23.9045 205.19L25.8423 202.9ZM35.251 209.874C36.8735 210.932 38.5605 211.969 40.3124 212.982L38.8101 215.579C37.0134 214.539 35.2808 213.475 33.6121 212.387L35.251 209.874ZM45.4559 215.794C46.3423 216.253 47.2434 216.705 48.1592 217.153L46.8423 219.848C45.9065 219.391 44.9852 218.928 44.0783 218.459L45.4559 215.794Z" fill="#9CAFFE"/>
</svg>
