<svg width="137" height="29" viewBox="0 0 137 29" fill="none" xmlns="http://www.w3.org/2000/svg">
<g id="viewProjectButton">
<g id="View Project">
<mask id="path-1-outside-1_423_127" maskUnits="userSpaceOnUse" x="-1" y="3" width="99" height="26" fill="black">
<rect fill="white" x="-1" y="3" width="99" height="26"/>
<path d="M10.55 5.075C10.8667 5.075 11.075 5.33333 11.175 5.85C11.175 6.15 10.6583 6.54167 9.625 7.025C8.725 7.59167 7.925 8.95 7.225 11.1C6.39167 14.5833 5.975 17.6583 5.975 20.325C5.69167 20.575 5.425 20.7 5.175 20.7C4.75833 20.7 4.36667 19.8667 4 18.2C1.45 11.8333 0.175 8.31667 0.175 7.65C0.175 7.31667 0.441667 7.10833 0.975 7.025C1.40833 7.025 1.825 7.88333 2.225 9.6L4.625 15.775H4.725C4.825 15.775 4.975 14.9417 5.175 13.275C5.80833 10.6417 6.43333 8.825 7.05 7.825C8.43333 5.99167 9.6 5.075 10.55 5.075ZM10.2721 6.975C10.9054 7.10833 11.2221 7.39167 11.2221 7.825C11.0554 8.29167 10.7887 8.525 10.4221 8.525C9.8054 8.40833 9.49707 8.1 9.49707 7.6C9.66374 7.18333 9.92207 6.975 10.2721 6.975ZM11.2221 10.475C11.4887 10.475 11.7137 10.7167 11.8971 11.2L11.6721 12.975V14.15C11.6721 15.5167 11.9054 17.3083 12.3721 19.525C12.2054 19.8417 11.9221 20 11.5221 20C10.8387 20 10.3887 18 10.1721 14V13.125C10.1721 11.3583 10.5221 10.475 11.2221 10.475ZM15.9086 11.025C16.5753 11.0417 17.7003 12.2083 19.2836 14.525L19.3336 14.95C19.3336 15.4167 18.1919 15.775 15.9086 16.025L15.8336 16.1V16.2C16.1836 17.7 16.5503 18.45 16.9336 18.45H17.2336C17.7669 18.45 18.5753 17.875 19.6586 16.725H19.8086C20.1419 16.725 20.4003 16.9667 20.5836 17.45C20.5836 17.85 19.8836 18.5417 18.4836 19.525C18.1169 19.7417 17.6753 19.9 17.1586 20C15.8086 20 14.8669 18.7333 14.3336 16.2C13.5669 16.0833 13.1836 15.7667 13.1836 15.25C13.1836 14.8833 13.4669 14.6417 14.0336 14.525V14.625L14.2836 14.525V13.9C14.2836 11.9833 14.8253 11.025 15.9086 11.025ZM16.0586 12.825H15.8336L15.7336 13.75V14.525H15.8336C16.7669 14.4917 17.2336 14.3917 17.2336 14.225C16.8003 13.575 16.4086 13.1083 16.0586 12.825ZM28.6193 12.15C29.7693 12.9167 30.3443 14.1 30.3443 15.7C30.3443 17.8667 29.6193 19.3417 28.1693 20.125L27.2193 20.275C26.6527 20.275 26.0527 20 25.4193 19.45H25.2443C24.7277 20.1167 24.2443 20.45 23.7943 20.45C22.611 20.45 21.9277 19.3333 21.7443 17.1V15.75C21.861 13.6333 22.3027 12.575 23.0693 12.575C23.486 12.575 23.7277 12.8333 23.7943 13.35C23.411 14.0167 23.2193 14.95 23.2193 16.15V16.625C23.286 18.125 23.4443 18.875 23.6943 18.875C23.9443 18.875 24.2027 18.4417 24.4693 17.575L24.4193 15.85C24.4193 14.7 24.6943 14.125 25.2443 14.125C25.8777 14.125 26.1943 14.75 26.1943 16H26.2943L26.0443 17.575C26.3277 18.4083 26.7193 18.825 27.2193 18.825H27.3693C28.1027 18.825 28.5777 18.0417 28.7943 16.475V15.075C28.7943 14.5417 28.4777 13.8833 27.8443 13.1L27.7443 12.875C27.7443 12.525 28.036 12.2833 28.6193 12.15ZM45.6029 3.575H46.0029C48.7196 3.575 50.4613 4.55833 51.2279 6.525L51.3029 7.325V7.575C51.3029 9.50833 50.1279 11.3 47.7779 12.95C47.2113 13.1167 46.9279 13.3 46.9279 13.5C47.5946 16.05 47.9279 18.1333 47.9279 19.75V20.075C47.9279 20.7417 47.6529 21.075 47.1029 21.075C46.6863 21.025 46.4779 20.8167 46.4779 20.45V19.825C46.4779 17.9083 46.1279 15.825 45.4279 13.575C44.0779 13.4583 43.3279 13.0917 43.1779 12.475V12.325C43.1779 12.025 43.4113 11.7917 43.8779 11.625L44.9779 12V11.95C44.4113 9.48333 44.1279 7.81667 44.1279 6.95C44.1279 6.46667 44.4113 6.225 44.9779 6.225C45.4946 6.225 45.7529 7.10833 45.7529 8.875L46.4779 11.85C47.6779 11.45 48.6113 10.6667 49.2779 9.5C49.6279 8.83333 49.8029 8.24167 49.8029 7.725V7.4C49.8029 6.03333 48.6363 5.25833 46.3029 5.075H45.2779C42.9946 5.325 41.8529 5.86667 41.8529 6.7V6.85C41.8529 7.1 41.9863 7.49167 42.2529 8.025C42.2529 8.39167 41.9613 8.625 41.3779 8.725C40.7113 8.40833 40.3779 7.75833 40.3779 6.775C40.3779 4.94167 42.1196 3.875 45.6029 3.575ZM55.6549 10.15C56.7049 10.15 57.3299 10.8833 57.5299 12.35V12.575C57.5299 14.1917 56.6965 15.675 55.0299 17.025C55.9965 17.975 57.6882 18.45 60.1049 18.45C60.4715 18.5667 60.6549 18.825 60.6549 19.225C60.6549 19.675 60.3632 19.9 59.7799 19.9C58.1465 19.9 56.4299 19.4833 54.6299 18.65V19.375C54.6299 21.0917 54.2632 21.95 53.5299 21.95C53.0132 21.95 52.7549 20.9583 52.7549 18.975V17.025L52.6799 16.325L52.8549 15.525L52.6799 13.125V13.025C52.6799 12.575 52.9132 12.2667 53.3799 12.1C54.0299 10.8 54.7882 10.15 55.6549 10.15ZM54.4049 15.625C54.8882 15.625 55.4299 14.7583 56.0299 13.025V11.95L55.7299 11.625H55.5049C54.7715 12.125 54.4049 13.4583 54.4049 15.625ZM65.4857 10.575C66.7191 10.575 67.6524 11.4917 68.2857 13.325L68.3857 13.85C68.3857 15.6333 67.5524 17.4583 65.8857 19.325C65.2191 19.9417 64.5441 20.25 63.8607 20.25C62.8607 20.25 62.1524 19.675 61.7357 18.525C61.5857 17.9917 61.5107 17.525 61.5107 17.125V16.825C61.5107 14.1917 62.4691 12.1917 64.3857 10.825C64.7191 10.6583 65.0857 10.575 65.4857 10.575ZM62.9857 17.075C62.9857 18.2083 63.2774 18.775 63.8607 18.775C65.0774 18.775 66.0857 17.2167 66.8857 14.1V13.625C66.6024 12.5917 66.0774 12.075 65.3107 12.075C65.0107 12.075 64.8607 12.2833 64.8607 12.7C64.8607 12.9833 64.5274 13.2083 63.8607 13.375C63.2774 14.3583 62.9857 15.5917 62.9857 17.075ZM70.7936 11.45C71.3102 11.6167 71.5686 12 71.5686 12.6C71.5686 12.95 71.3352 13.1583 70.8686 13.225H70.7936C70.3102 13.225 70.0519 12.9083 70.0186 12.275V12.125C70.0186 11.6917 70.2769 11.4667 70.7936 11.45ZM70.9436 14.1C71.1769 14.1 71.4436 14.325 71.7436 14.775C71.5769 15.225 71.4936 15.8333 71.4936 16.6L72.1186 22.9V23.625C72.1186 25.8083 71.5936 27.1833 70.5436 27.75L70.0186 27.85C68.8686 27.85 67.9852 26.7 67.3686 24.4L67.1936 23.075V23C67.1936 22.4167 67.4602 22.125 67.9936 22.125C68.4436 22.125 68.6686 22.5833 68.6686 23.5C68.6686 24.4333 69.0686 25.3583 69.8686 26.275L70.0686 26.35C70.4519 25.6667 70.6436 24.8667 70.6436 23.95V22.9L70.0186 16.65C70.0186 14.95 70.3269 14.1 70.9436 14.1ZM75.4301 11.025C76.0967 11.0417 77.2217 12.2083 78.8051 14.525L78.8551 14.95C78.8551 15.4167 77.7134 15.775 75.4301 16.025L75.3551 16.1V16.2C75.7051 17.7 76.0717 18.45 76.4551 18.45H76.7551C77.2884 18.45 78.0967 17.875 79.1801 16.725H79.3301C79.6634 16.725 79.9217 16.9667 80.1051 17.45C80.1051 17.85 79.4051 18.5417 78.0051 19.525C77.6384 19.7417 77.1967 19.9 76.6801 20C75.3301 20 74.3884 18.7333 73.8551 16.2C73.0884 16.0833 72.7051 15.7667 72.7051 15.25C72.7051 14.8833 72.9884 14.6417 73.5551 14.525V14.625L73.8051 14.525V13.9C73.8051 11.9833 74.3467 11.025 75.4301 11.025ZM75.5801 12.825H75.3551L75.2551 13.75V14.525H75.3551C76.2884 14.4917 76.7551 14.3917 76.7551 14.225C76.3217 13.575 75.9301 13.1083 75.5801 12.825ZM83.6158 11.525L84.6408 11.375C85.0575 11.375 85.2908 11.6333 85.3408 12.15C85.3408 12.6 84.7992 12.8917 83.7158 13.025C83.0325 13.5583 82.6908 14.2417 82.6908 15.075V15.9C83.0242 17.7333 83.5908 18.65 84.3908 18.65H84.6408C85.1075 18.65 85.8075 18.2083 86.7408 17.325H86.8908C87.2242 17.325 87.4908 17.5583 87.6908 18.025C87.4575 18.7417 86.7075 19.3917 85.4408 19.975C85.2075 20.075 84.9158 20.125 84.5658 20.125C82.8492 20.125 81.7325 18.775 81.2158 16.075V15.525C81.2158 13.575 82.0158 12.2417 83.6158 11.525ZM91.9016 4.825C92.3682 4.925 92.6016 5.15833 92.6016 5.525L92.4516 6.625V6.95C92.4516 7.68333 92.5349 8.45833 92.7016 9.275H92.7516C94.6849 8.69167 95.8849 8.4 96.3516 8.4C96.8349 8.53333 97.0766 8.775 97.0766 9.125C97.0766 9.69167 96.5016 9.975 95.3516 9.975L92.7516 10.9C92.7516 13.15 92.9932 16.2083 93.4766 20.075C93.3766 20.525 93.1349 20.75 92.7516 20.75H92.7016C92.1182 20.75 91.8266 20 91.8266 18.5C91.6099 17.3833 91.4266 14.9583 91.2766 11.225H90.8266C89.2599 11.125 88.4766 10.7583 88.4766 10.125C88.4766 9.94167 88.6516 9.71667 89.0016 9.45H89.2516L90.4016 9.75H91.2016L90.9766 6.625C90.9766 5.425 91.2849 4.825 91.9016 4.825Z"/>
</mask>
<path d="M10.55 5.075C10.8667 5.075 11.075 5.33333 11.175 5.85C11.175 6.15 10.6583 6.54167 9.625 7.025C8.725 7.59167 7.925 8.95 7.225 11.1C6.39167 14.5833 5.975 17.6583 5.975 20.325C5.69167 20.575 5.425 20.7 5.175 20.7C4.75833 20.7 4.36667 19.8667 4 18.2C1.45 11.8333 0.175 8.31667 0.175 7.65C0.175 7.31667 0.441667 7.10833 0.975 7.025C1.40833 7.025 1.825 7.88333 2.225 9.6L4.625 15.775H4.725C4.825 15.775 4.975 14.9417 5.175 13.275C5.80833 10.6417 6.43333 8.825 7.05 7.825C8.43333 5.99167 9.6 5.075 10.55 5.075ZM10.2721 6.975C10.9054 7.10833 11.2221 7.39167 11.2221 7.825C11.0554 8.29167 10.7887 8.525 10.4221 8.525C9.8054 8.40833 9.49707 8.1 9.49707 7.6C9.66374 7.18333 9.92207 6.975 10.2721 6.975ZM11.2221 10.475C11.4887 10.475 11.7137 10.7167 11.8971 11.2L11.6721 12.975V14.15C11.6721 15.5167 11.9054 17.3083 12.3721 19.525C12.2054 19.8417 11.9221 20 11.5221 20C10.8387 20 10.3887 18 10.1721 14V13.125C10.1721 11.3583 10.5221 10.475 11.2221 10.475ZM15.9086 11.025C16.5753 11.0417 17.7003 12.2083 19.2836 14.525L19.3336 14.95C19.3336 15.4167 18.1919 15.775 15.9086 16.025L15.8336 16.1V16.2C16.1836 17.7 16.5503 18.45 16.9336 18.45H17.2336C17.7669 18.45 18.5753 17.875 19.6586 16.725H19.8086C20.1419 16.725 20.4003 16.9667 20.5836 17.45C20.5836 17.85 19.8836 18.5417 18.4836 19.525C18.1169 19.7417 17.6753 19.9 17.1586 20C15.8086 20 14.8669 18.7333 14.3336 16.2C13.5669 16.0833 13.1836 15.7667 13.1836 15.25C13.1836 14.8833 13.4669 14.6417 14.0336 14.525V14.625L14.2836 14.525V13.9C14.2836 11.9833 14.8253 11.025 15.9086 11.025ZM16.0586 12.825H15.8336L15.7336 13.75V14.525H15.8336C16.7669 14.4917 17.2336 14.3917 17.2336 14.225C16.8003 13.575 16.4086 13.1083 16.0586 12.825ZM28.6193 12.15C29.7693 12.9167 30.3443 14.1 30.3443 15.7C30.3443 17.8667 29.6193 19.3417 28.1693 20.125L27.2193 20.275C26.6527 20.275 26.0527 20 25.4193 19.45H25.2443C24.7277 20.1167 24.2443 20.45 23.7943 20.45C22.611 20.45 21.9277 19.3333 21.7443 17.1V15.75C21.861 13.6333 22.3027 12.575 23.0693 12.575C23.486 12.575 23.7277 12.8333 23.7943 13.35C23.411 14.0167 23.2193 14.95 23.2193 16.15V16.625C23.286 18.125 23.4443 18.875 23.6943 18.875C23.9443 18.875 24.2027 18.4417 24.4693 17.575L24.4193 15.85C24.4193 14.7 24.6943 14.125 25.2443 14.125C25.8777 14.125 26.1943 14.75 26.1943 16H26.2943L26.0443 17.575C26.3277 18.4083 26.7193 18.825 27.2193 18.825H27.3693C28.1027 18.825 28.5777 18.0417 28.7943 16.475V15.075C28.7943 14.5417 28.4777 13.8833 27.8443 13.1L27.7443 12.875C27.7443 12.525 28.036 12.2833 28.6193 12.15ZM45.6029 3.575H46.0029C48.7196 3.575 50.4613 4.55833 51.2279 6.525L51.3029 7.325V7.575C51.3029 9.50833 50.1279 11.3 47.7779 12.95C47.2113 13.1167 46.9279 13.3 46.9279 13.5C47.5946 16.05 47.9279 18.1333 47.9279 19.75V20.075C47.9279 20.7417 47.6529 21.075 47.1029 21.075C46.6863 21.025 46.4779 20.8167 46.4779 20.45V19.825C46.4779 17.9083 46.1279 15.825 45.4279 13.575C44.0779 13.4583 43.3279 13.0917 43.1779 12.475V12.325C43.1779 12.025 43.4113 11.7917 43.8779 11.625L44.9779 12V11.95C44.4113 9.48333 44.1279 7.81667 44.1279 6.95C44.1279 6.46667 44.4113 6.225 44.9779 6.225C45.4946 6.225 45.7529 7.10833 45.7529 8.875L46.4779 11.85C47.6779 11.45 48.6113 10.6667 49.2779 9.5C49.6279 8.83333 49.8029 8.24167 49.8029 7.725V7.4C49.8029 6.03333 48.6363 5.25833 46.3029 5.075H45.2779C42.9946 5.325 41.8529 5.86667 41.8529 6.7V6.85C41.8529 7.1 41.9863 7.49167 42.2529 8.025C42.2529 8.39167 41.9613 8.625 41.3779 8.725C40.7113 8.40833 40.3779 7.75833 40.3779 6.775C40.3779 4.94167 42.1196 3.875 45.6029 3.575ZM55.6549 10.15C56.7049 10.15 57.3299 10.8833 57.5299 12.35V12.575C57.5299 14.1917 56.6965 15.675 55.0299 17.025C55.9965 17.975 57.6882 18.45 60.1049 18.45C60.4715 18.5667 60.6549 18.825 60.6549 19.225C60.6549 19.675 60.3632 19.9 59.7799 19.9C58.1465 19.9 56.4299 19.4833 54.6299 18.65V19.375C54.6299 21.0917 54.2632 21.95 53.5299 21.95C53.0132 21.95 52.7549 20.9583 52.7549 18.975V17.025L52.6799 16.325L52.8549 15.525L52.6799 13.125V13.025C52.6799 12.575 52.9132 12.2667 53.3799 12.1C54.0299 10.8 54.7882 10.15 55.6549 10.15ZM54.4049 15.625C54.8882 15.625 55.4299 14.7583 56.0299 13.025V11.95L55.7299 11.625H55.5049C54.7715 12.125 54.4049 13.4583 54.4049 15.625ZM65.4857 10.575C66.7191 10.575 67.6524 11.4917 68.2857 13.325L68.3857 13.85C68.3857 15.6333 67.5524 17.4583 65.8857 19.325C65.2191 19.9417 64.5441 20.25 63.8607 20.25C62.8607 20.25 62.1524 19.675 61.7357 18.525C61.5857 17.9917 61.5107 17.525 61.5107 17.125V16.825C61.5107 14.1917 62.4691 12.1917 64.3857 10.825C64.7191 10.6583 65.0857 10.575 65.4857 10.575ZM62.9857 17.075C62.9857 18.2083 63.2774 18.775 63.8607 18.775C65.0774 18.775 66.0857 17.2167 66.8857 14.1V13.625C66.6024 12.5917 66.0774 12.075 65.3107 12.075C65.0107 12.075 64.8607 12.2833 64.8607 12.7C64.8607 12.9833 64.5274 13.2083 63.8607 13.375C63.2774 14.3583 62.9857 15.5917 62.9857 17.075ZM70.7936 11.45C71.3102 11.6167 71.5686 12 71.5686 12.6C71.5686 12.95 71.3352 13.1583 70.8686 13.225H70.7936C70.3102 13.225 70.0519 12.9083 70.0186 12.275V12.125C70.0186 11.6917 70.2769 11.4667 70.7936 11.45ZM70.9436 14.1C71.1769 14.1 71.4436 14.325 71.7436 14.775C71.5769 15.225 71.4936 15.8333 71.4936 16.6L72.1186 22.9V23.625C72.1186 25.8083 71.5936 27.1833 70.5436 27.75L70.0186 27.85C68.8686 27.85 67.9852 26.7 67.3686 24.4L67.1936 23.075V23C67.1936 22.4167 67.4602 22.125 67.9936 22.125C68.4436 22.125 68.6686 22.5833 68.6686 23.5C68.6686 24.4333 69.0686 25.3583 69.8686 26.275L70.0686 26.35C70.4519 25.6667 70.6436 24.8667 70.6436 23.95V22.9L70.0186 16.65C70.0186 14.95 70.3269 14.1 70.9436 14.1ZM75.4301 11.025C76.0967 11.0417 77.2217 12.2083 78.8051 14.525L78.8551 14.95C78.8551 15.4167 77.7134 15.775 75.4301 16.025L75.3551 16.1V16.2C75.7051 17.7 76.0717 18.45 76.4551 18.45H76.7551C77.2884 18.45 78.0967 17.875 79.1801 16.725H79.3301C79.6634 16.725 79.9217 16.9667 80.1051 17.45C80.1051 17.85 79.4051 18.5417 78.0051 19.525C77.6384 19.7417 77.1967 19.9 76.6801 20C75.3301 20 74.3884 18.7333 73.8551 16.2C73.0884 16.0833 72.7051 15.7667 72.7051 15.25C72.7051 14.8833 72.9884 14.6417 73.5551 14.525V14.625L73.8051 14.525V13.9C73.8051 11.9833 74.3467 11.025 75.4301 11.025ZM75.5801 12.825H75.3551L75.2551 13.75V14.525H75.3551C76.2884 14.4917 76.7551 14.3917 76.7551 14.225C76.3217 13.575 75.9301 13.1083 75.5801 12.825ZM83.6158 11.525L84.6408 11.375C85.0575 11.375 85.2908 11.6333 85.3408 12.15C85.3408 12.6 84.7992 12.8917 83.7158 13.025C83.0325 13.5583 82.6908 14.2417 82.6908 15.075V15.9C83.0242 17.7333 83.5908 18.65 84.3908 18.65H84.6408C85.1075 18.65 85.8075 18.2083 86.7408 17.325H86.8908C87.2242 17.325 87.4908 17.5583 87.6908 18.025C87.4575 18.7417 86.7075 19.3917 85.4408 19.975C85.2075 20.075 84.9158 20.125 84.5658 20.125C82.8492 20.125 81.7325 18.775 81.2158 16.075V15.525C81.2158 13.575 82.0158 12.2417 83.6158 11.525ZM91.9016 4.825C92.3682 4.925 92.6016 5.15833 92.6016 5.525L92.4516 6.625V6.95C92.4516 7.68333 92.5349 8.45833 92.7016 9.275H92.7516C94.6849 8.69167 95.8849 8.4 96.3516 8.4C96.8349 8.53333 97.0766 8.775 97.0766 9.125C97.0766 9.69167 96.5016 9.975 95.3516 9.975L92.7516 10.9C92.7516 13.15 92.9932 16.2083 93.4766 20.075C93.3766 20.525 93.1349 20.75 92.7516 20.75H92.7016C92.1182 20.75 91.8266 20 91.8266 18.5C91.6099 17.3833 91.4266 14.9583 91.2766 11.225H90.8266C89.2599 11.125 88.4766 10.7583 88.4766 10.125C88.4766 9.94167 88.6516 9.71667 89.0016 9.45H89.2516L90.4016 9.75H91.2016L90.9766 6.625C90.9766 5.425 91.2849 4.825 91.9016 4.825Z" fill="#020001"/>
<path d="M11.175 5.85H11.375V5.83082L11.3714 5.81199L11.175 5.85ZM9.625 7.025L9.54026 6.84384L9.52898 6.84911L9.51844 6.85575L9.625 7.025ZM7.225 11.1L7.03483 11.0381L7.03235 11.0457L7.03049 11.0535L7.225 11.1ZM5.975 20.325L6.10732 20.475L6.175 20.4153V20.325H5.975ZM4 18.2L4.19533 18.157L4.19179 18.1409L4.18566 18.1256L4 18.2ZM0.975 7.025V6.825H0.959469L0.944124 6.8274L0.975 7.025ZM2.225 9.6L2.03022 9.64539L2.03344 9.65922L2.03858 9.67245L2.225 9.6ZM4.625 15.775L4.43858 15.8475L4.48816 15.975H4.625V15.775ZM5.175 13.275L4.98055 13.2282L4.97782 13.2396L4.97643 13.2512L5.175 13.275ZM7.05 7.825L6.89035 7.70454L6.88469 7.71203L6.87977 7.72002L7.05 7.825ZM10.55 5.275C10.6446 5.275 10.7198 5.3096 10.7881 5.3943C10.8631 5.48737 10.9316 5.64485 10.9786 5.888L11.3714 5.81199C11.3184 5.53849 11.2327 5.30846 11.0994 5.1432C10.9594 4.96956 10.7721 4.875 10.55 4.875V5.275ZM10.975 5.85C10.975 5.86659 10.9676 5.90596 10.9179 5.9725C10.8686 6.03845 10.7876 6.1177 10.6667 6.20937C10.4249 6.39262 10.0522 6.60437 9.54026 6.84384L9.70974 7.20616C10.2311 6.96229 10.6334 6.73655 10.9083 6.52813C11.0457 6.42396 11.1585 6.31884 11.2384 6.21188C11.3178 6.1055 11.375 5.9834 11.375 5.85H10.975ZM9.51844 6.85575C9.03154 7.16232 8.58667 7.67281 8.17767 8.36725C7.76789 9.06303 7.38756 9.95469 7.03483 11.0381L7.41517 11.1619C7.76244 10.0953 8.13211 9.23281 8.52233 8.57025C8.91333 7.90636 9.31846 7.45434 9.73156 7.19425L9.51844 6.85575ZM7.03049 11.0535C6.19467 14.5472 5.775 17.6384 5.775 20.325H6.175C6.175 17.6783 6.58867 14.6195 7.41951 11.1465L7.03049 11.0535ZM5.84268 20.175C5.5778 20.4087 5.35661 20.5 5.175 20.5V20.9C5.49339 20.9 5.80553 20.7413 6.10732 20.475L5.84268 20.175ZM5.175 20.5C5.14337 20.5 5.08925 20.4854 5.01075 20.4045C4.93141 20.3227 4.84311 20.1886 4.74976 19.9899C4.56349 19.5936 4.37768 18.9859 4.19533 18.157L3.80467 18.243C3.98898 19.0808 4.18234 19.723 4.38775 20.1601C4.49022 20.3781 4.60089 20.5565 4.72363 20.683C4.84721 20.8104 4.9983 20.9 5.175 20.9V20.5ZM4.18566 18.1256C2.91093 14.943 1.95564 12.4745 1.31927 10.7193C1.001 9.84149 0.763278 9.14416 0.605374 8.62607C0.526389 8.36691 0.468046 8.15478 0.429629 7.98856C0.390276 7.81829 0.375 7.70915 0.375 7.65H-0.025C-0.025 7.75751 -0.000432515 7.90411 0.0399023 8.07863C0.0811723 8.2572 0.142361 8.47892 0.222751 8.74268C0.383597 9.27043 0.623996 9.97518 0.943226 10.8557C1.58186 12.6171 2.53907 15.0904 3.81434 18.2744L4.18566 18.1256ZM0.375 7.65C0.375 7.54599 0.412448 7.46829 0.498129 7.40135C0.593189 7.32709 0.754825 7.26183 1.00588 7.2226L0.944124 6.8274C0.661841 6.8715 0.423478 6.95208 0.251871 7.08614C0.0708853 7.22754 -0.025 7.42068 -0.025 7.65H0.375ZM0.975 7.225C1.0118 7.225 1.07102 7.2421 1.15477 7.32667C1.23928 7.41201 1.33311 7.55119 1.43258 7.75609C1.63109 8.16502 1.83127 8.79155 2.03022 9.64539L2.41978 9.55461C2.21873 8.69178 2.01058 8.03081 1.79242 7.58141C1.68355 7.35714 1.56697 7.17445 1.43898 7.04521C1.31023 6.91519 1.15487 6.825 0.975 6.825V7.225ZM2.03858 9.67245L4.43858 15.8475L4.81142 15.7025L2.41142 9.52755L2.03858 9.67245ZM4.625 15.975H4.725V15.575H4.625V15.975ZM4.725 15.975C4.80436 15.975 4.85835 15.9335 4.88435 15.908C4.91119 15.8817 4.92919 15.8525 4.94083 15.831C4.96462 15.7869 4.98407 15.7324 5.00094 15.6762C5.03554 15.5609 5.0715 15.3956 5.10934 15.1854C5.18541 14.7628 5.27347 14.1331 5.37358 13.2988L4.97643 13.2512C4.87653 14.0836 4.78959 14.7039 4.71566 15.1146C4.6785 15.321 4.64571 15.4683 4.61781 15.5613C4.60343 15.6092 4.5932 15.6329 4.58886 15.6409C4.58643 15.6454 4.59076 15.6357 4.60432 15.6224C4.61704 15.61 4.65814 15.575 4.725 15.575V15.975ZM5.36946 13.3218C6.0026 10.6892 6.62183 8.90037 7.22023 7.92998L6.87977 7.72002C6.24484 8.74963 5.61407 10.5941 4.98055 13.2282L5.36946 13.3218ZM7.20965 7.94546C7.89594 7.03593 8.52157 6.3633 9.08606 5.91976C9.65278 5.47449 10.1388 5.275 10.55 5.275V4.875C10.0112 4.875 9.43889 5.13384 8.83894 5.60524C8.23677 6.07837 7.5874 6.78074 6.89035 7.70454L7.20965 7.94546ZM10.2721 6.975L10.3133 6.77929L10.2929 6.775H10.2721V6.975ZM11.2221 7.825L11.4104 7.89227L11.4221 7.85964V7.825H11.2221ZM10.4221 8.525L10.3849 8.72151L10.4033 8.725H10.4221V8.525ZM9.49707 7.6L9.31137 7.52572L9.29707 7.56148V7.6H9.49707ZM11.8971 11.2L12.0955 11.2252L12.1018 11.1757L12.0841 11.1291L11.8971 11.2ZM11.6721 12.975L11.4737 12.9498L11.4721 12.9624V12.975H11.6721ZM12.3721 19.525L12.5491 19.6181L12.5826 19.5543L12.5678 19.4838L12.3721 19.525ZM10.1721 14H9.97178L9.97236 14.0108L10.1721 14ZM10.2309 7.17071C10.5298 7.23363 10.7292 7.32737 10.8512 7.43655C10.9662 7.53942 11.0221 7.66395 11.0221 7.825H11.4221C11.4221 7.55272 11.3196 7.31891 11.1179 7.13845C10.9233 6.9643 10.6477 6.8497 10.3133 6.77929L10.2309 7.17071ZM11.0337 7.75773C10.9575 7.97107 10.8648 8.11246 10.7654 8.19948C10.6699 8.28305 10.5588 8.325 10.4221 8.325V8.725C10.652 8.725 10.8576 8.65028 11.0288 8.50051C11.196 8.3542 11.3199 8.14559 11.4104 7.89227L11.0337 7.75773ZM10.4592 8.32849C10.1738 8.27449 9.98553 8.18061 9.86974 8.06483C9.75866 7.95375 9.69707 7.8054 9.69707 7.6H9.29707C9.29707 7.8946 9.38965 8.15042 9.5869 8.34767C9.77945 8.54022 10.0536 8.65884 10.3849 8.72151L10.4592 8.32849ZM9.68277 7.67428C9.75767 7.48702 9.84667 7.3633 9.94137 7.28693C10.0329 7.21309 10.1401 7.175 10.2721 7.175V6.775C10.0541 6.775 9.85704 6.84108 9.69027 6.97557C9.52664 7.10753 9.40314 7.29631 9.31137 7.52572L9.68277 7.67428ZM11.2221 10.675C11.2871 10.675 11.3601 10.702 11.4444 10.7925C11.5322 10.8868 11.623 11.0413 11.7101 11.2709L12.0841 11.1291C11.9878 10.8754 11.8745 10.6674 11.7372 10.52C11.5965 10.3689 11.4237 10.275 11.2221 10.275V10.675ZM11.6987 11.1748L11.4737 12.9498L11.8705 13.0002L12.0955 11.2252L11.6987 11.1748ZM11.4721 12.975V14.15H11.8721V12.975H11.4721ZM11.4721 14.15C11.4721 15.5366 11.7084 17.3436 12.1764 19.5662L12.5678 19.4838C12.1024 17.2731 11.8721 15.4968 11.8721 14.15H11.4721ZM12.1951 19.4319C12.1279 19.5596 12.0414 19.6483 11.937 19.7067C11.8313 19.7657 11.6958 19.8 11.5221 19.8V20.2C11.7484 20.2 11.9545 20.1551 12.1321 20.0558C12.311 19.9559 12.4496 19.8071 12.5491 19.6181L12.1951 19.4319ZM11.5221 19.8C11.4628 19.8 11.3586 19.7581 11.2273 19.5264C11.1001 19.3019 10.9782 18.9494 10.8672 18.4561C10.646 17.4729 10.48 15.9864 10.3718 13.9892L9.97236 14.0108C10.0808 16.0136 10.2482 17.5271 10.4769 18.5439C10.5909 19.0506 10.7232 19.4481 10.8793 19.7236C11.0314 19.9919 11.2397 20.2 11.5221 20.2V19.8ZM10.3721 14V13.125H9.97207V14H10.3721ZM10.3721 13.125C10.3721 12.249 10.4597 11.6171 10.6205 11.2112C10.7003 11.0099 10.7934 10.8762 10.8914 10.7937C10.9859 10.7142 11.0931 10.675 11.2221 10.675V10.275C11.001 10.275 10.802 10.3462 10.6339 10.4876C10.4695 10.6259 10.3439 10.8234 10.2486 11.0638C10.0595 11.5412 9.97207 12.2343 9.97207 13.125H10.3721ZM15.9086 11.025L15.9136 10.825H15.9086V11.025ZM19.2836 14.525L19.4822 14.5016L19.4765 14.4528L19.4487 14.4121L19.2836 14.525ZM19.3336 14.95H19.5336V14.9383L19.5322 14.9266L19.3336 14.95ZM15.9086 16.025L15.8868 15.8262L15.8169 15.8338L15.7672 15.8836L15.9086 16.025ZM15.8336 16.1L15.6922 15.9586L15.6336 16.0172V16.1H15.8336ZM15.8336 16.2H15.6336V16.223L15.6388 16.2454L15.8336 16.2ZM19.6586 16.725V16.525H19.5722L19.513 16.5879L19.6586 16.725ZM20.5836 17.45H20.7836V17.4133L20.7706 17.3791L20.5836 17.45ZM18.4836 19.525L18.5853 19.6972L18.5921 19.6932L18.5985 19.6887L18.4836 19.525ZM17.1586 20V20.2H17.1778L17.1966 20.1964L17.1586 20ZM14.3336 16.2L14.5293 16.1588L14.5007 16.0231L14.3637 16.0023L14.3336 16.2ZM14.0336 14.525H14.2336V14.2796L13.9933 14.3291L14.0336 14.525ZM14.0336 14.625H13.8336V14.9204L14.1079 14.8107L14.0336 14.625ZM14.2836 14.525L14.3579 14.7107L14.4836 14.6604V14.525H14.2836ZM16.0586 12.825L16.1844 12.6696L16.1294 12.625H16.0586V12.825ZM15.8336 12.825V12.625H15.6541L15.6348 12.8035L15.8336 12.825ZM15.7336 13.75L15.5348 13.7285L15.5336 13.7392V13.75H15.7336ZM15.7336 14.525H15.5336V14.725H15.7336V14.525ZM15.8336 14.525V14.7251L15.8407 14.7249L15.8336 14.525ZM17.2336 14.225H17.4336V14.1644L17.4 14.1141L17.2336 14.225ZM15.9036 11.2249C16.0164 11.2278 16.1743 11.2813 16.3843 11.42C16.5915 11.5569 16.8327 11.7655 17.1084 12.0513C17.6595 12.6229 18.3293 13.4831 19.1185 14.6379L19.4487 14.4121C18.6546 13.2502 17.9702 12.3688 17.3963 11.7737C17.1095 11.4762 16.8455 11.2452 16.6048 11.0862C16.3668 10.9291 16.1341 10.8306 15.9136 10.8251L15.9036 11.2249ZM19.085 14.5484L19.135 14.9734L19.5322 14.9266L19.4822 14.5016L19.085 14.5484ZM19.1336 14.95C19.1336 14.9747 19.1206 15.0321 19.0024 15.1176C18.8851 15.2023 18.6946 15.2909 18.4175 15.3779C17.8657 15.5511 17.0251 15.7016 15.8868 15.8262L15.9304 16.2238C17.0755 16.0984 17.9474 15.9447 18.5372 15.7596C18.8309 15.6674 19.0685 15.5633 19.2367 15.4418C19.4038 15.321 19.5336 15.1586 19.5336 14.95H19.1336ZM15.7672 15.8836L15.6922 15.9586L15.975 16.2414L16.05 16.1664L15.7672 15.8836ZM15.6336 16.1V16.2H16.0336V16.1H15.6336ZM15.6388 16.2454C15.8149 17 15.9981 17.5799 16.1914 17.9753C16.2879 18.1727 16.3921 18.3351 16.5078 18.4508C16.6244 18.5674 16.7671 18.65 16.9336 18.65V18.25C16.9085 18.25 16.8615 18.2389 16.7906 18.168C16.7188 18.0961 16.6376 17.9773 16.5508 17.7997C16.3774 17.4451 16.2023 16.9 16.0284 16.1546L15.6388 16.2454ZM16.9336 18.65H17.2336V18.25H16.9336V18.65ZM17.2336 18.65C17.5646 18.65 17.9428 18.4755 18.3558 18.1817C18.775 17.8835 19.2581 17.4418 19.8042 16.8621L19.513 16.5879C18.9757 17.1582 18.513 17.579 18.1239 17.8558C17.7285 18.137 17.436 18.25 17.2336 18.25V18.65ZM19.6586 16.925H19.8086V16.525H19.6586V16.925ZM19.8086 16.925C20.0162 16.925 20.224 17.0658 20.3966 17.5209L20.7706 17.3791C20.5765 16.8675 20.2677 16.525 19.8086 16.525V16.925ZM20.3836 17.45C20.3836 17.4948 20.3624 17.5744 20.284 17.6967C20.2074 17.8161 20.0873 17.9592 19.918 18.1265C19.5797 18.4608 19.0651 18.8721 18.3686 19.3613L18.5985 19.6887C19.3021 19.1945 19.8375 18.7684 20.1992 18.411C20.3799 18.2325 20.5223 18.0662 20.6207 17.9126C20.7172 17.7621 20.7836 17.6052 20.7836 17.45H20.3836ZM18.3818 19.3528C18.0389 19.5555 17.6199 19.707 17.1206 19.8036L17.1966 20.1964C17.7306 20.093 18.1949 19.9279 18.5853 19.6972L18.3818 19.3528ZM17.1586 19.8C16.5581 19.8 16.0407 19.523 15.6003 18.9307C15.1544 18.3308 14.7934 17.4131 14.5293 16.1588L14.1379 16.2412C14.4072 17.5202 14.7837 18.5026 15.2793 19.1693C15.7807 19.8437 16.4091 20.2 17.1586 20.2V19.8ZM14.3637 16.0023C13.9978 15.9466 13.7508 15.8466 13.5985 15.7208C13.4548 15.6021 13.3836 15.4514 13.3836 15.25H12.9836C12.9836 15.5653 13.104 15.8312 13.3437 16.0292C13.5747 16.22 13.9027 16.3367 14.3035 16.3977L14.3637 16.0023ZM13.3836 15.25C13.3836 15.1263 13.428 15.0294 13.5259 14.9459C13.6315 14.8558 13.807 14.7758 14.0739 14.7209L13.9933 14.3291C13.6935 14.3908 13.444 14.49 13.2663 14.6416C13.0809 14.7997 12.9836 15.0071 12.9836 15.25H13.3836ZM13.8336 14.525V14.625H14.2336V14.525H13.8336ZM14.1079 14.8107L14.3579 14.7107L14.2093 14.3393L13.9593 14.4393L14.1079 14.8107ZM14.4836 14.525V13.9H14.0836V14.525H14.4836ZM14.4836 13.9C14.4836 12.954 14.6184 12.2766 14.864 11.8422C15.1 11.4245 15.4405 11.225 15.9086 11.225V10.825C15.2934 10.825 14.8213 11.1047 14.5157 11.6453C14.2196 12.1693 14.0836 12.9294 14.0836 13.9H14.4836ZM16.0586 12.625H15.8336V13.025H16.0586V12.625ZM15.6348 12.8035L15.5348 13.7285L15.9324 13.7715L16.0324 12.8465L15.6348 12.8035ZM15.5336 13.75V14.525H15.9336V13.75H15.5336ZM15.7336 14.725H15.8336V14.325H15.7336V14.725ZM15.8407 14.7249C16.3103 14.7081 16.6745 14.6743 16.9255 14.6206C17.0492 14.594 17.1604 14.5597 17.2453 14.5111C17.3257 14.4652 17.4336 14.3752 17.4336 14.225H17.0336C17.0336 14.1582 17.0832 14.1431 17.0469 14.1639C17.0151 14.182 16.9513 14.206 16.8417 14.2294C16.626 14.2757 16.2903 14.3086 15.8265 14.3251L15.8407 14.7249ZM17.4 14.1141C16.9624 13.4577 16.5575 12.9716 16.1844 12.6696L15.9328 12.9804C16.2596 13.2451 16.6381 13.6923 17.0672 14.3359L17.4 14.1141ZM28.6193 12.15L28.7303 11.9836L28.6587 11.9359L28.5748 11.955L28.6193 12.15ZM28.1693 20.125L28.2005 20.3226L28.2343 20.3172L28.2644 20.301L28.1693 20.125ZM27.2193 20.275V20.475H27.235L27.2505 20.4726L27.2193 20.275ZM25.4193 19.45L25.5505 19.299L25.4941 19.25H25.4193V19.45ZM25.2443 19.45V19.25H25.1463L25.0863 19.3275L25.2443 19.45ZM21.7443 17.1H21.5443V17.1082L21.545 17.1164L21.7443 17.1ZM21.7443 15.75L21.5443 15.739V15.75H21.7443ZM23.7943 13.35L23.9677 13.4497L24.0013 13.3913L23.9927 13.3244L23.7943 13.35ZM23.2193 16.625H23.0191L23.0195 16.6339L23.2193 16.625ZM24.4693 17.575L24.6605 17.6338L24.6702 17.6022L24.6693 17.5692L24.4693 17.575ZM24.4193 15.85H24.2193L24.2194 15.8558L24.4193 15.85ZM26.1943 16H25.9943V16.2H26.1943V16ZM26.2943 16L26.4919 16.0314L26.5286 15.8H26.2943V16ZM26.0443 17.575L25.8468 17.5436L25.8391 17.5925L25.855 17.6394L26.0443 17.575ZM28.7943 16.475L28.9925 16.5024L28.9943 16.4888V16.475H28.7943ZM27.8443 13.1L27.6616 13.1812L27.6723 13.2053L27.6888 13.2257L27.8443 13.1ZM27.7443 12.875H27.5443V12.9174L27.5616 12.9562L27.7443 12.875ZM28.5084 12.3164C29.5933 13.0397 30.1443 14.1546 30.1443 15.7H30.5443C30.5443 14.0454 29.9454 12.7937 28.7303 11.9836L28.5084 12.3164ZM30.1443 15.7C30.1443 17.82 29.4391 19.2117 28.0743 19.949L28.2644 20.301C29.7996 19.4716 30.5443 17.9134 30.5443 15.7H30.1443ZM28.1381 19.9274L27.1881 20.0774L27.2505 20.4726L28.2005 20.3226L28.1381 19.9274ZM27.2193 20.075C26.7194 20.075 26.1644 19.8322 25.5505 19.299L25.2882 19.601C25.9409 20.1678 26.5859 20.475 27.2193 20.475V20.075ZM25.4193 19.25H25.2443V19.65H25.4193V19.25ZM25.0863 19.3275C24.5766 19.9851 24.1453 20.25 23.7943 20.25V20.65C24.3433 20.65 24.8788 20.2482 25.4024 19.5725L25.0863 19.3275ZM23.7943 20.25C23.2807 20.25 22.8749 20.0146 22.5649 19.5081C22.2473 18.9891 22.0344 18.1884 21.9437 17.0836L21.545 17.1164C21.6377 18.245 21.858 19.1192 22.2237 19.7169C22.5971 20.3271 23.1246 20.65 23.7943 20.65V20.25ZM21.9443 17.1V15.75H21.5443V17.1H21.9443ZM21.944 15.761C22.002 14.7095 22.1401 13.9431 22.3477 13.4458C22.5552 12.9484 22.8046 12.775 23.0693 12.775V12.375C22.5674 12.375 22.2126 12.7307 21.9785 13.2917C21.7444 13.8527 21.6033 14.6738 21.5446 15.739L21.944 15.761ZM23.0693 12.775C23.233 12.775 23.3408 12.8238 23.417 12.9054C23.4986 12.9925 23.5656 13.1401 23.596 13.3756L23.9927 13.3244C23.9564 13.0432 23.8693 12.8033 23.7091 12.6321C23.5437 12.4553 23.3223 12.375 23.0693 12.375V12.775ZM23.621 13.2503C23.213 13.9597 23.0193 14.9329 23.0193 16.15H23.4193C23.4193 14.9671 23.609 14.0736 23.9677 13.4497L23.621 13.2503ZM23.0193 16.15V16.625H23.4193V16.15H23.0193ZM23.0195 16.6339C23.053 17.3865 23.1097 17.9623 23.1924 18.3538C23.2333 18.5478 23.2835 18.7108 23.3484 18.83C23.4087 18.9408 23.5172 19.075 23.6943 19.075V18.675C23.7465 18.675 23.7414 18.7154 23.6997 18.6387C23.6625 18.5705 23.622 18.4522 23.5838 18.2712C23.5081 17.9127 23.4524 17.3635 23.4191 16.6161L23.0195 16.6339ZM23.6943 19.075C23.8183 19.075 23.9257 19.0205 24.0131 18.946C24.0995 18.8723 24.1767 18.7709 24.2474 18.6524C24.3887 18.4153 24.5256 18.0724 24.6605 17.6338L24.2782 17.5162C24.1465 17.9443 24.0208 18.2514 23.9038 18.4476C23.8453 18.5457 23.7944 18.6069 23.7537 18.6415C23.714 18.6753 23.6953 18.675 23.6943 18.675V19.075ZM24.6693 17.5692L24.6193 15.8442L24.2194 15.8558L24.2694 17.5808L24.6693 17.5692ZM24.6193 15.85C24.6193 15.2846 24.688 14.8894 24.806 14.6425C24.8638 14.5218 24.9296 14.4444 24.9978 14.3969C25.0642 14.3506 25.1437 14.325 25.2443 14.325V13.925C25.07 13.925 24.9089 13.9713 24.769 14.0687C24.6309 14.165 24.5249 14.3032 24.4452 14.47C24.2882 14.7981 24.2193 15.2654 24.2193 15.85H24.6193ZM25.2443 14.325C25.3682 14.325 25.4676 14.355 25.55 14.4093C25.6336 14.4643 25.7114 14.5518 25.7784 14.6841C25.9154 14.9545 25.9943 15.3854 25.9943 16H26.3943C26.3943 15.3646 26.3149 14.858 26.1352 14.5034C26.044 14.3232 25.9238 14.1764 25.7699 14.0751C25.6148 13.9731 25.4371 13.925 25.2443 13.925V14.325ZM26.1943 16.2H26.2943V15.8H26.1943V16.2ZM26.0968 15.9686L25.8468 17.5436L26.2419 17.6064L26.4919 16.0314L26.0968 15.9686ZM25.855 17.6394C26.1427 18.4855 26.5789 19.025 27.2193 19.025V18.625C26.8598 18.625 26.5127 18.3312 26.2337 17.5106L25.855 17.6394ZM27.2193 19.025H27.3693V18.625H27.2193V19.025ZM27.3693 19.025C27.8239 19.025 28.1833 18.7755 28.4466 18.3412C28.705 17.9151 28.8827 17.2959 28.9925 16.5024L28.5962 16.4476C28.4893 17.2207 28.3212 17.7766 28.1046 18.1338C27.8929 18.4829 27.6481 18.625 27.3693 18.625V19.025ZM28.9943 16.475V15.075H28.5943V16.475H28.9943ZM28.9943 15.075C28.9943 14.47 28.6398 13.7657 27.9999 12.9743L27.6888 13.2257C28.3156 14.0009 28.5943 14.6133 28.5943 15.075H28.9943ZM28.0271 13.0188L27.9271 12.7938L27.5616 12.9562L27.6616 13.1812L28.0271 13.0188ZM27.9443 12.875C27.9443 12.7649 27.9864 12.6716 28.0907 12.5853C28.2024 12.4927 28.3869 12.4083 28.6639 12.345L28.5748 11.955C28.2685 12.025 28.0154 12.1282 27.8355 12.2772C27.6481 12.4325 27.5443 12.6351 27.5443 12.875H27.9443ZM45.6029 3.575V3.375H45.5943L45.5858 3.37574L45.6029 3.575ZM51.2279 6.525L51.4271 6.50633L51.4244 6.47845L51.4143 6.45236L51.2279 6.525ZM51.3029 7.325H51.5029V7.31564L51.5021 7.30633L51.3029 7.325ZM47.7779 12.95L47.8344 13.1419L47.8659 13.1326L47.8929 13.1137L47.7779 12.95ZM46.9279 13.5H46.7279V13.5257L46.7344 13.5506L46.9279 13.5ZM47.1029 21.075L47.0791 21.2736L47.091 21.275H47.1029V21.075ZM45.4279 13.575L45.6189 13.5156L45.579 13.3873L45.4451 13.3757L45.4279 13.575ZM43.1779 12.475H42.9779V12.499L42.9836 12.5223L43.1779 12.475ZM43.8779 11.625L43.9425 11.4357L43.8764 11.4132L43.8107 11.4367L43.8779 11.625ZM44.9779 12L44.9134 12.1893L45.1779 12.2795V12H44.9779ZM44.9779 11.95H45.1779V11.9273L45.1729 11.9052L44.9779 11.95ZM45.7529 8.875H45.5529V8.89902L45.5586 8.92235L45.7529 8.875ZM46.4779 11.85L46.2836 11.8974L46.3351 12.1084L46.5412 12.0397L46.4779 11.85ZM49.2779 9.5L49.4517 9.59929L49.455 9.59297L49.2779 9.5ZM46.3029 5.075L46.3186 4.87561L46.3108 4.875H46.3029V5.075ZM45.2779 5.075V4.875H45.267L45.2562 4.87619L45.2779 5.075ZM42.2529 8.025H42.4529V7.97779L42.4318 7.93556L42.2529 8.025ZM41.3779 8.725L41.2921 8.90565L41.3493 8.93282L41.4117 8.92212L41.3779 8.725ZM45.6029 3.775H46.0029V3.375H45.6029V3.775ZM46.0029 3.775C47.3386 3.775 48.4164 4.01693 49.2484 4.48666C50.0767 4.95433 50.674 5.65472 51.0416 6.59764L51.4143 6.45236C51.0152 5.42862 50.3583 4.654 49.445 4.13834C48.5353 3.62474 47.3839 3.375 46.0029 3.375V3.775ZM51.0288 6.54367L51.1038 7.34367L51.5021 7.30633L51.4271 6.50633L51.0288 6.54367ZM51.1029 7.325V7.575H51.5029V7.325H51.1029ZM51.1029 7.575C51.1029 9.41578 49.9869 11.1546 47.663 12.7863L47.8929 13.1137C50.2689 11.4454 51.5029 9.60088 51.5029 7.575H51.1029ZM47.7215 12.7581C47.4313 12.8435 47.1973 12.9375 47.0318 13.0446C46.8728 13.1475 46.7279 13.2956 46.7279 13.5H47.1279C47.1279 13.4991 47.128 13.4974 47.1293 13.4938C47.1307 13.4899 47.134 13.4826 47.1419 13.472C47.1584 13.4497 47.1907 13.4182 47.2491 13.3804C47.3669 13.3042 47.5579 13.2232 47.8344 13.1419L47.7215 12.7581ZM46.7344 13.5506C47.3991 16.093 47.7279 18.1577 47.7279 19.75H48.1279C48.1279 18.109 47.7901 16.007 47.1214 13.4494L46.7344 13.5506ZM47.7279 19.75V20.075H48.1279V19.75H47.7279ZM47.7279 20.075C47.7279 20.3859 47.663 20.5818 47.5674 20.6977C47.4779 20.8063 47.3359 20.875 47.1029 20.875V21.275C47.42 21.275 47.6905 21.1771 47.876 20.9523C48.0553 20.7349 48.1279 20.4308 48.1279 20.075H47.7279ZM47.1268 20.8764C46.9445 20.8546 46.8371 20.8013 46.7756 20.7398C46.7176 20.6819 46.6779 20.594 46.6779 20.45H46.2779C46.2779 20.6727 46.3424 20.8723 46.4928 21.0227C46.6396 21.1695 46.8447 21.2454 47.0791 21.2736L47.1268 20.8764ZM46.6779 20.45V19.825H46.2779V20.45H46.6779ZM46.6779 19.825C46.6779 17.8842 46.3236 15.7806 45.6189 13.5156L45.237 13.6344C45.9323 15.8694 46.2779 17.9325 46.2779 19.825H46.6779ZM45.4451 13.3757C44.7813 13.3184 44.2841 13.2007 43.9408 13.0328C43.6012 12.8668 43.4291 12.6613 43.3723 12.4277L42.9836 12.5223C43.0768 12.9054 43.3547 13.1915 43.7651 13.3922C44.1717 13.591 44.7245 13.715 45.4107 13.7743L45.4451 13.3757ZM43.3779 12.475V12.325H42.9779V12.475H43.3779ZM43.3779 12.325C43.3779 12.1584 43.4993 11.9726 43.9452 11.8133L43.8107 11.4367C43.3232 11.6107 42.9779 11.8916 42.9779 12.325H43.3779ZM43.8134 11.8143L44.9134 12.1893L45.0425 11.8107L43.9425 11.4357L43.8134 11.8143ZM45.1779 12V11.95H44.7779V12H45.1779ZM45.1729 11.9052C44.6054 9.43519 44.3279 7.79036 44.3279 6.95H43.9279C43.9279 7.84298 44.2171 9.53148 44.783 11.9948L45.1729 11.9052ZM44.3279 6.95C44.3279 6.74822 44.3856 6.63061 44.4702 6.55842C44.5609 6.48103 44.7183 6.425 44.9779 6.425V6.025C44.6709 6.025 44.4032 6.0898 44.2106 6.25408C44.0119 6.42356 43.9279 6.66845 43.9279 6.95H44.3279ZM44.9779 6.425C45.0413 6.425 45.102 6.44879 45.1667 6.52253C45.2365 6.60211 45.3067 6.73659 45.3672 6.94364C45.4882 7.35725 45.5529 7.99661 45.5529 8.875H45.9529C45.9529 7.98672 45.8885 7.30108 45.7511 6.83136C45.6825 6.59674 45.5913 6.39997 45.4673 6.25872C45.3383 6.11163 45.1729 6.025 44.9779 6.025V6.425ZM45.5586 8.92235L46.2836 11.8974L46.6722 11.8026L45.9472 8.82765L45.5586 8.92235ZM46.5412 12.0397C47.7909 11.6231 48.7622 10.8057 49.4516 9.59923L49.1043 9.40077C48.4604 10.5276 47.5649 11.2768 46.4147 11.6603L46.5412 12.0397ZM49.455 9.59297C49.8137 8.90981 50.0029 8.28547 50.0029 7.725H49.6029C49.6029 8.19786 49.4422 8.75686 49.1009 9.40703L49.455 9.59297ZM50.0029 7.725V7.4H49.6029V7.725H50.0029ZM50.0029 7.4C50.0029 6.6477 49.6761 6.05061 49.0386 5.62716C48.4138 5.21214 47.4991 4.96837 46.3186 4.87561L46.2873 5.27439C47.4401 5.36497 48.2754 5.60036 48.8173 5.96034C49.3465 6.31188 49.6029 6.78563 49.6029 7.4H50.0029ZM46.3029 4.875H45.2779V5.275H46.3029V4.875ZM45.2562 4.87619C44.1074 5.00197 43.2246 5.20282 42.6234 5.48806C42.0233 5.77282 41.6529 6.16963 41.6529 6.7H42.0529C42.0529 6.39703 42.2534 6.10635 42.7949 5.84944C43.3354 5.59302 44.1652 5.39803 45.2997 5.27381L45.2562 4.87619ZM41.6529 6.7V6.85H42.0529V6.7H41.6529ZM41.6529 6.85C41.6529 7.15201 41.8077 7.58171 42.074 8.11444L42.4318 7.93556C42.1648 7.40162 42.0529 7.04798 42.0529 6.85H41.6529ZM42.0529 8.025C42.0529 8.14627 42.0087 8.23929 41.9092 8.31883C41.8009 8.40546 41.62 8.48058 41.3441 8.52787L41.4117 8.92212C41.7191 8.86942 41.9757 8.77787 42.1591 8.63117C42.3514 8.47738 42.4529 8.2704 42.4529 8.025H42.0529ZM41.4637 8.54434C40.8906 8.27208 40.5779 7.71143 40.5779 6.775H40.1779C40.1779 7.80523 40.532 8.54458 41.2921 8.90565L41.4637 8.54434ZM40.5779 6.775C40.5779 5.93692 40.9691 5.27249 41.7886 4.77055C42.6204 4.26113 43.8903 3.92324 45.6201 3.77426L45.5858 3.37574C43.8323 3.52676 42.4896 3.87221 41.5797 4.42944C40.6576 4.99418 40.1779 5.77975 40.1779 6.775H40.5779ZM57.5299 12.35H57.7299V12.3364L57.728 12.323L57.5299 12.35ZM55.0299 17.025L54.904 16.8696L54.7299 17.0106L54.8897 17.1676L55.0299 17.025ZM60.1049 18.45L60.1655 18.2594L60.1359 18.25H60.1049V18.45ZM54.6299 18.65L54.7139 18.4685L54.4299 18.337V18.65H54.6299ZM52.7549 17.025H52.9549V17.0143L52.9537 17.0037L52.7549 17.025ZM52.6799 16.325L52.4845 16.2823L52.4776 16.314L52.481 16.3463L52.6799 16.325ZM52.8549 15.525L53.0503 15.5677L53.0565 15.5394L53.0544 15.5105L52.8549 15.525ZM52.6799 13.125H52.4799V13.1323L52.4804 13.1395L52.6799 13.125ZM53.3799 12.1L53.4472 12.2883L53.5228 12.2613L53.5588 12.1894L53.3799 12.1ZM54.4049 15.625H54.2049V15.825H54.4049V15.625ZM56.0299 13.025L56.2189 13.0904L56.2299 13.0586V13.025H56.0299ZM56.0299 11.95H56.2299V11.8718L56.1768 11.8143L56.0299 11.95ZM55.7299 11.625L55.8768 11.4893L55.8174 11.425H55.7299V11.625ZM55.5049 11.625V11.425H55.4432L55.3922 11.4598L55.5049 11.625ZM55.6549 10.35C56.1272 10.35 56.4881 10.512 56.7589 10.8297C57.0366 11.1556 57.2343 11.6628 57.3317 12.377L57.728 12.323C57.6254 11.5705 57.4107 10.9778 57.0634 10.5703C56.7092 10.1547 56.2325 9.95 55.6549 9.95V10.35ZM57.3299 12.35V12.575H57.7299V12.35H57.3299ZM57.3299 12.575C57.3299 14.113 56.5402 15.5443 54.904 16.8696L55.1558 17.1804C56.8529 15.8057 57.7299 14.2704 57.7299 12.575H57.3299ZM54.8897 17.1676C55.914 18.1743 57.6733 18.65 60.1049 18.65V18.25C57.7031 18.25 56.0791 17.7757 55.1701 16.8824L54.8897 17.1676ZM60.0442 18.6406C60.1953 18.6887 60.2928 18.7603 60.3543 18.847C60.4163 18.9344 60.4549 19.0555 60.4549 19.225H60.8549C60.8549 18.9945 60.8018 18.7864 60.6805 18.6155C60.5587 18.4439 60.3811 18.328 60.1655 18.2594L60.0442 18.6406ZM60.4549 19.225C60.4549 19.4033 60.3998 19.5067 60.314 19.5729C60.2183 19.6467 60.0514 19.7 59.7799 19.7V20.1C60.0917 20.1 60.3623 20.0408 60.5583 19.8896C60.7642 19.7308 60.8549 19.4967 60.8549 19.225H60.4549ZM59.7799 19.7C58.1811 19.7 56.4931 19.2922 54.7139 18.4685L54.5459 18.8315C56.3667 19.6745 58.112 20.1 59.7799 20.1V19.7ZM54.4299 18.65V19.375H54.8299V18.65H54.4299ZM54.4299 19.375C54.4299 20.2252 54.3382 20.8362 54.171 21.2277C54.0883 21.4213 53.9914 21.5507 53.8881 21.6314C53.7876 21.7098 53.6711 21.75 53.5299 21.75V22.15C53.7553 22.15 53.9596 22.0829 54.1342 21.9467C54.3058 21.8128 54.4382 21.6204 54.5388 21.3848C54.7382 20.9179 54.8299 20.2415 54.8299 19.375H54.4299ZM53.5299 21.75C53.4758 21.75 53.4166 21.7281 53.3484 21.6409C53.2757 21.5478 53.2037 21.3919 53.1422 21.1558C53.0196 20.6854 52.9549 19.9624 52.9549 18.975H52.5549C52.5549 19.971 52.6193 20.7354 52.7551 21.2567C52.8228 21.5164 52.9122 21.7324 53.0332 21.8872C53.1588 22.0479 53.3257 22.15 53.5299 22.15V21.75ZM52.9549 18.975V17.025H52.5549V18.975H52.9549ZM52.9537 17.0037L52.8787 16.3037L52.481 16.3463L52.556 17.0463L52.9537 17.0037ZM52.8753 16.3677L53.0503 15.5677L52.6595 15.4823L52.4845 16.2823L52.8753 16.3677ZM53.0544 15.5105L52.8794 13.1105L52.4804 13.1395L52.6554 15.5395L53.0544 15.5105ZM52.8799 13.125V13.025H52.4799V13.125H52.8799ZM52.8799 13.025C52.8799 12.8362 52.9281 12.6909 53.0144 12.5769C53.1017 12.4615 53.2402 12.3622 53.4472 12.2883L53.3126 11.9117C53.0529 12.0044 52.8414 12.1427 52.6954 12.3356C52.5483 12.53 52.4799 12.7638 52.4799 13.025H52.8799ZM53.5588 12.1894C54.1993 10.9085 54.9063 10.35 55.6549 10.35V9.95C54.6701 9.95 53.8605 10.6915 53.201 12.0106L53.5588 12.1894ZM54.4049 15.825C54.5885 15.825 54.7572 15.7423 54.9075 15.6152C55.0574 15.4884 55.2019 15.3071 55.3432 15.081C55.626 14.6286 55.9172 13.962 56.2189 13.0904L55.8409 12.9596C55.5426 13.8213 55.263 14.4547 55.004 14.869C54.8745 15.0763 54.7555 15.2199 54.6492 15.3098C54.5432 15.3994 54.4629 15.425 54.4049 15.425V15.825ZM56.2299 13.025V11.95H55.8299V13.025H56.2299ZM56.1768 11.8143L55.8768 11.4893L55.5829 11.7607L55.8829 12.0857L56.1768 11.8143ZM55.7299 11.425H55.5049V11.825H55.7299V11.425ZM55.3922 11.4598C54.9697 11.7479 54.6763 12.2588 54.487 12.947C54.2971 13.6378 54.2049 14.5327 54.2049 15.625H54.6049C54.6049 14.5507 54.696 13.6955 54.8727 13.053C55.0502 12.4078 55.3068 12.0021 55.6176 11.7902L55.3922 11.4598ZM68.2857 13.325L68.4822 13.2876L68.4795 13.2734L68.4748 13.2597L68.2857 13.325ZM68.3857 13.85H68.5857V13.8311L68.5822 13.8126L68.3857 13.85ZM65.8857 19.325L66.0216 19.4718L66.0286 19.4653L66.0349 19.4582L65.8857 19.325ZM61.7357 18.525L61.5432 18.5791L61.5452 18.5862L61.5477 18.5931L61.7357 18.525ZM64.3857 10.825L64.2963 10.6461L64.2823 10.6531L64.2696 10.6622L64.3857 10.825ZM66.8857 14.1L67.0795 14.1497L67.0857 14.1253V14.1H66.8857ZM66.8857 13.625H67.0857V13.5981L67.0786 13.5721L66.8857 13.625ZM63.8607 13.375L63.8122 13.181L63.7313 13.2012L63.6887 13.273L63.8607 13.375ZM65.4857 10.775C66.5882 10.775 67.4726 11.5837 68.0967 13.3903L68.4748 13.2597C67.8322 11.3996 66.85 10.375 65.4857 10.375V10.775ZM68.0893 13.3624L68.1893 13.8874L68.5822 13.8126L68.4822 13.2876L68.0893 13.3624ZM68.1857 13.85C68.1857 15.5675 67.3837 17.347 65.7366 19.1918L66.0349 19.4582C67.7212 17.5696 68.5857 15.6992 68.5857 13.85H68.1857ZM65.7499 19.1782C65.1078 19.7722 64.479 20.05 63.8607 20.05V20.45C64.6091 20.45 65.3304 20.1112 66.0216 19.4718L65.7499 19.1782ZM63.8607 20.05C63.4019 20.05 63.0206 19.9192 62.7055 19.6635C62.3876 19.4054 62.1238 19.009 61.9238 18.4569L61.5477 18.5931C61.7643 19.191 62.063 19.6571 62.4534 19.974C62.8467 20.2933 63.3195 20.45 63.8607 20.45V20.05ZM61.9283 18.4709C61.7815 17.9489 61.7107 17.5012 61.7107 17.125H61.3107C61.3107 17.5488 61.39 18.0344 61.5432 18.5791L61.9283 18.4709ZM61.7107 17.125V16.825H61.3107V17.125H61.7107ZM61.7107 16.825C61.7107 14.2474 62.6447 12.3121 64.5019 10.9878L64.2696 10.6622C62.2935 12.0712 61.3107 14.1359 61.3107 16.825H61.7107ZM64.4752 11.0039C64.7787 10.8521 65.1145 10.775 65.4857 10.775V10.375C65.057 10.375 64.6594 10.4646 64.2963 10.6461L64.4752 11.0039ZM62.7857 17.075C62.7857 17.6523 62.8589 18.1157 63.0267 18.4415C63.112 18.6074 63.2247 18.743 63.3692 18.8366C63.5147 18.9309 63.6811 18.975 63.8607 18.975V18.575C63.7487 18.575 63.6599 18.5483 63.5866 18.5009C63.5124 18.4528 63.4428 18.376 63.3823 18.2585C63.2584 18.0177 63.1857 17.631 63.1857 17.075H62.7857ZM63.8607 18.975C64.5675 18.975 65.1769 18.5194 65.6974 17.7149C66.2189 16.909 66.6774 15.716 67.0795 14.1497L66.692 14.0503C66.2941 15.6007 65.8485 16.7451 65.3616 17.4976C64.8738 18.2515 64.3706 18.575 63.8607 18.575V18.975ZM67.0857 14.1V13.625H66.6857V14.1H67.0857ZM67.0786 13.5721C66.9316 13.0359 66.7163 12.6118 66.4198 12.32C66.1182 12.0232 65.7442 11.875 65.3107 11.875V12.275C65.644 12.275 65.9158 12.3852 66.1392 12.605C66.3677 12.8299 66.5565 13.1807 66.6929 13.6779L67.0786 13.5721ZM65.3107 11.875C65.1088 11.875 64.9302 11.9487 64.8109 12.1144C64.7004 12.2679 64.6607 12.4737 64.6607 12.7H65.0607C65.0607 12.5097 65.0961 12.4029 65.1355 12.3481C65.1663 12.3054 65.2127 12.275 65.3107 12.275V11.875ZM64.6607 12.7C64.6607 12.7499 64.6354 12.8233 64.4988 12.9155C64.3605 13.0089 64.1366 13.0999 63.8122 13.181L63.9092 13.569C64.2515 13.4835 64.5277 13.3786 64.7226 13.247C64.9194 13.1142 65.0607 12.9334 65.0607 12.7H64.6607ZM63.6887 13.273C63.0824 14.2951 62.7857 15.5662 62.7857 17.075H63.1857C63.1857 15.6171 63.4724 14.4216 64.0328 13.477L63.6887 13.273ZM70.7936 11.45L70.855 11.2597L70.8219 11.249L70.7871 11.2501L70.7936 11.45ZM70.8686 13.225V13.425H70.8828L70.8968 13.423L70.8686 13.225ZM70.0186 12.275H69.8183L69.8188 12.2855L70.0186 12.275ZM71.7436 14.775L71.9311 14.8445L71.9665 14.7489L71.91 14.6641L71.7436 14.775ZM71.4936 16.6H71.2936V16.6099L71.2945 16.6197L71.4936 16.6ZM72.1186 22.9H72.3186V22.8901L72.3176 22.8803L72.1186 22.9ZM70.5436 27.75L70.581 27.9465L70.6113 27.9407L70.6385 27.926L70.5436 27.75ZM70.0186 27.85V28.05H70.0374L70.056 28.0465L70.0186 27.85ZM67.3686 24.4L67.1703 24.4262L67.172 24.4392L67.1754 24.4518L67.3686 24.4ZM67.1936 23.075H66.9936V23.0882L66.9953 23.1012L67.1936 23.075ZM69.8686 26.275L69.7179 26.4065L69.7511 26.4445L69.7983 26.4623L69.8686 26.275ZM70.0686 26.35L69.9983 26.5373L70.159 26.5975L70.243 26.4479L70.0686 26.35ZM70.6436 22.9H70.8436V22.89L70.8426 22.8801L70.6436 22.9ZM70.0186 16.65H69.8186V16.66L69.8195 16.6699L70.0186 16.65ZM70.7322 11.6403C70.9556 11.7124 71.109 11.826 71.209 11.9743C71.3101 12.1244 71.3686 12.3281 71.3686 12.6H71.7686C71.7686 12.2719 71.6979 11.984 71.5407 11.7507C71.3823 11.5157 71.1482 11.3542 70.855 11.2597L70.7322 11.6403ZM71.3686 12.6C71.3686 12.7256 71.3292 12.8081 71.2604 12.8696C71.1845 12.9373 71.0531 12.9966 70.8403 13.027L70.8968 13.423C71.1507 13.3867 71.3693 13.3085 71.5268 13.1679C71.6912 13.0211 71.7686 12.8244 71.7686 12.6H71.3686ZM70.8686 13.025H70.7936V13.425H70.8686V13.025ZM70.7936 13.025C70.5998 13.025 70.4764 12.9641 70.3923 12.8611C70.3011 12.7493 70.2339 12.5606 70.2183 12.2645L69.8188 12.2855C69.8366 12.6227 69.9152 12.909 70.0823 13.1139C70.2566 13.3275 70.504 13.425 70.7936 13.425V13.025ZM70.2186 12.275V12.125H69.8186V12.275H70.2186ZM70.2186 12.125C70.2186 11.9497 70.2692 11.847 70.3437 11.7821C70.4243 11.7119 70.5653 11.6575 70.8 11.6499L70.7871 11.2501C70.5052 11.2592 70.2587 11.3256 70.0809 11.4804C69.8971 11.6405 69.8186 11.867 69.8186 12.125H70.2186ZM70.9436 14.3C70.9945 14.3 71.0751 14.325 71.1896 14.4216C71.3029 14.5172 71.4325 14.669 71.5771 14.8859L71.91 14.6641C71.7546 14.431 71.6009 14.2453 71.4475 14.1159C71.2954 13.9875 71.1259 13.9 70.9436 13.9V14.3ZM71.556 14.7055C71.3777 15.187 71.2936 15.8221 71.2936 16.6H71.6936C71.6936 15.8446 71.7761 15.263 71.9311 14.8445L71.556 14.7055ZM71.2945 16.6197L71.9195 22.9197L72.3176 22.8803L71.6926 16.5803L71.2945 16.6197ZM71.9186 22.9V23.625H72.3186V22.9H71.9186ZM71.9186 23.625C71.9186 25.7961 71.3936 27.064 70.4486 27.574L70.6385 27.926C71.7935 27.3027 72.3186 25.8205 72.3186 23.625H71.9186ZM70.5061 27.5535L69.9811 27.6535L70.056 28.0465L70.581 27.9465L70.5061 27.5535ZM70.0186 27.65C69.5216 27.65 69.0669 27.4055 68.6522 26.8657C68.2335 26.3207 67.8671 25.487 67.5617 24.3482L67.1754 24.4518C67.4867 25.613 67.8702 26.5043 68.3349 27.1093C68.8036 27.7195 69.3655 28.05 70.0186 28.05V27.65ZM67.5668 24.3738L67.3918 23.0488L66.9953 23.1012L67.1703 24.4262L67.5668 24.3738ZM67.3936 23.075V23H66.9936V23.075H67.3936ZM67.3936 23C67.3936 22.7349 67.4545 22.5735 67.5412 22.4787C67.6247 22.3873 67.7626 22.325 67.9936 22.325V21.925C67.6912 21.925 67.4291 22.0085 67.2459 22.2088C67.0659 22.4057 66.9936 22.6817 66.9936 23H67.3936ZM67.9936 22.325C68.0703 22.325 68.1287 22.3439 68.1765 22.3764C68.2258 22.4099 68.2755 22.4657 68.3203 22.5569C68.4125 22.7447 68.4686 23.0516 68.4686 23.5H68.8686C68.8686 23.0317 68.8121 22.6511 68.6793 22.3806C68.6116 22.2426 68.5207 22.1266 68.4012 22.0455C68.2803 21.9634 68.1418 21.925 67.9936 21.925V22.325ZM68.4686 23.5C68.4686 24.4948 68.8959 25.4647 69.7179 26.4065L70.0192 26.1435C69.2412 25.252 68.8686 24.3718 68.8686 23.5H68.4686ZM69.7983 26.4623L69.9983 26.5373L70.1388 26.1627L69.9388 26.0877L69.7983 26.4623ZM70.243 26.4479C70.6457 25.7299 70.8436 24.8951 70.8436 23.95H70.4436C70.4436 24.8383 70.258 25.6034 69.8941 26.2521L70.243 26.4479ZM70.8436 23.95V22.9H70.4436V23.95H70.8436ZM70.8426 22.8801L70.2176 16.6301L69.8195 16.6699L70.4445 22.9199L70.8426 22.8801ZM70.2186 16.65C70.2186 15.8065 70.2958 15.1973 70.4378 14.8057C70.5084 14.611 70.5903 14.4837 70.6742 14.4066C70.7537 14.3336 70.8405 14.3 70.9436 14.3V13.9C70.7382 13.9 70.5553 13.9726 70.4035 14.1121C70.2562 14.2475 70.1453 14.439 70.0618 14.6693C69.8955 15.1277 69.8186 15.7935 69.8186 16.65H70.2186ZM75.4301 11.025L75.4351 10.825H75.4301V11.025ZM78.8051 14.525L79.0037 14.5016L78.998 14.4528L78.9702 14.4121L78.8051 14.525ZM78.8551 14.95H79.0551V14.9383L79.0537 14.9266L78.8551 14.95ZM75.4301 16.025L75.4083 15.8262L75.3384 15.8338L75.2887 15.8836L75.4301 16.025ZM75.3551 16.1L75.2137 15.9586L75.1551 16.0172V16.1H75.3551ZM75.3551 16.2H75.1551V16.223L75.1603 16.2454L75.3551 16.2ZM79.1801 16.725V16.525H79.0937L79.0345 16.5879L79.1801 16.725ZM80.1051 17.45H80.3051V17.4133L80.2921 17.3791L80.1051 17.45ZM78.0051 19.525L78.1068 19.6972L78.1136 19.6932L78.12 19.6887L78.0051 19.525ZM76.6801 20V20.2H76.6993L76.7181 20.1964L76.6801 20ZM73.8551 16.2L74.0508 16.1588L74.0222 16.0231L73.8852 16.0023L73.8551 16.2ZM73.5551 14.525H73.7551V14.2796L73.5147 14.3291L73.5551 14.525ZM73.5551 14.625H73.3551V14.9204L73.6294 14.8107L73.5551 14.625ZM73.8051 14.525L73.8794 14.7107L74.0051 14.6604V14.525H73.8051ZM75.5801 12.825L75.7059 12.6696L75.6509 12.625H75.5801V12.825ZM75.3551 12.825V12.625H75.1755L75.1562 12.8035L75.3551 12.825ZM75.2551 13.75L75.0562 13.7285L75.0551 13.7392V13.75H75.2551ZM75.2551 14.525H75.0551V14.725H75.2551V14.525ZM75.3551 14.525V14.7251L75.3622 14.7249L75.3551 14.525ZM76.7551 14.225H76.9551V14.1644L76.9215 14.1141L76.7551 14.225ZM75.4251 11.2249C75.5379 11.2278 75.6958 11.2813 75.9058 11.42C76.113 11.5569 76.3542 11.7655 76.6299 12.0513C77.181 12.6229 77.8508 13.4831 78.64 14.6379L78.9702 14.4121C78.1761 13.2502 77.4917 12.3688 76.9178 11.7737C76.631 11.4762 76.3669 11.2452 76.1262 11.0862C75.8883 10.9291 75.6556 10.8306 75.4351 10.8251L75.4251 11.2249ZM78.6064 14.5484L78.6564 14.9734L79.0537 14.9266L79.0037 14.5016L78.6064 14.5484ZM78.6551 14.95C78.6551 14.9747 78.6421 15.0321 78.5239 15.1176C78.4066 15.2023 78.2161 15.2909 77.9389 15.3779C77.3872 15.5511 76.5465 15.7016 75.4083 15.8262L75.4518 16.2238C76.597 16.0984 77.4688 15.9447 78.0587 15.7596C78.3524 15.6674 78.59 15.5633 78.7582 15.4418C78.9253 15.321 79.0551 15.1586 79.0551 14.95H78.6551ZM75.2887 15.8836L75.2137 15.9586L75.4965 16.2414L75.5715 16.1664L75.2887 15.8836ZM75.1551 16.1V16.2H75.5551V16.1H75.1551ZM75.1603 16.2454C75.3364 17 75.5196 17.5799 75.7129 17.9753C75.8094 18.1727 75.9136 18.3351 76.0293 18.4508C76.1459 18.5674 76.2886 18.65 76.4551 18.65V18.25C76.4299 18.25 76.383 18.2389 76.3121 18.168C76.2403 18.0961 76.1591 17.9773 76.0723 17.7997C75.8989 17.4451 75.7238 16.9 75.5498 16.1546L75.1603 16.2454ZM76.4551 18.65H76.7551V18.25H76.4551V18.65ZM76.7551 18.65C77.086 18.65 77.4643 18.4755 77.8773 18.1817C78.2965 17.8835 78.7796 17.4418 79.3257 16.8621L79.0345 16.5879C78.4972 17.1582 78.0345 17.579 77.6454 17.8558C77.25 18.137 76.9574 18.25 76.7551 18.25V18.65ZM79.1801 16.925H79.3301V16.525H79.1801V16.925ZM79.3301 16.925C79.5377 16.925 79.7455 17.0658 79.9181 17.5209L80.2921 17.3791C80.098 16.8675 79.7891 16.525 79.3301 16.525V16.925ZM79.9051 17.45C79.9051 17.4948 79.8839 17.5744 79.8055 17.6967C79.7289 17.8161 79.6088 17.9592 79.4395 18.1265C79.1012 18.4608 78.5866 18.8721 77.8901 19.3613L78.12 19.6887C78.8235 19.1945 79.359 18.7684 79.7207 18.411C79.9013 18.2325 80.0438 18.0662 80.1422 17.9126C80.2387 17.7621 80.3051 17.6052 80.3051 17.45H79.9051ZM77.9033 19.3528C77.5604 19.5555 77.1414 19.707 76.6421 19.8036L76.7181 20.1964C77.2521 20.093 77.7164 19.9279 78.1068 19.6972L77.9033 19.3528ZM76.6801 19.8C76.0796 19.8 75.5622 19.523 75.1218 18.9307C74.6758 18.3308 74.3149 17.4131 74.0508 16.1588L73.6594 16.2412C73.9286 17.5202 74.3051 18.5026 74.8008 19.1693C75.3021 19.8437 75.9306 20.2 76.6801 20.2V19.8ZM73.8852 16.0023C73.5193 15.9466 73.2723 15.8466 73.12 15.7208C72.9763 15.6021 72.9051 15.4514 72.9051 15.25H72.5051C72.5051 15.5653 72.6255 15.8312 72.8652 16.0292C73.0962 16.22 73.4242 16.3367 73.825 16.3977L73.8852 16.0023ZM72.9051 15.25C72.9051 15.1263 72.9494 15.0294 73.0474 14.9459C73.153 14.8558 73.3285 14.7758 73.5954 14.7209L73.5147 14.3291C73.215 14.3908 72.9655 14.49 72.7878 14.6416C72.6024 14.7997 72.5051 15.0071 72.5051 15.25H72.9051ZM73.3551 14.525V14.625H73.7551V14.525H73.3551ZM73.6294 14.8107L73.8794 14.7107L73.7308 14.3393L73.4808 14.4393L73.6294 14.8107ZM74.0051 14.525V13.9H73.6051V14.525H74.0051ZM74.0051 13.9C74.0051 12.954 74.1399 12.2766 74.3854 11.8422C74.6215 11.4245 74.962 11.225 75.4301 11.225V10.825C74.8149 10.825 74.3428 11.1047 74.0372 11.6453C73.7411 12.1693 73.6051 12.9294 73.6051 13.9H74.0051ZM75.5801 12.625H75.3551V13.025H75.5801V12.625ZM75.1562 12.8035L75.0562 13.7285L75.4539 13.7715L75.5539 12.8465L75.1562 12.8035ZM75.0551 13.75V14.525H75.4551V13.75H75.0551ZM75.2551 14.725H75.3551V14.325H75.2551V14.725ZM75.3622 14.7249C75.8317 14.7081 76.196 14.6743 76.447 14.6206C76.5707 14.594 76.6819 14.5597 76.7668 14.5111C76.8472 14.4652 76.9551 14.3752 76.9551 14.225H76.5551C76.5551 14.1582 76.6047 14.1431 76.5684 14.1639C76.5366 14.182 76.4728 14.206 76.3632 14.2294C76.1475 14.2757 75.8118 14.3086 75.3479 14.3251L75.3622 14.7249ZM76.9215 14.1141C76.4839 13.4577 76.079 12.9716 75.7059 12.6696L75.4542 12.9804C75.7811 13.2451 76.1596 13.6923 76.5887 14.3359L76.9215 14.1141ZM83.6158 11.525L83.5869 11.3271L83.5594 11.3311L83.5341 11.3425L83.6158 11.525ZM84.6408 11.375V11.175H84.6263L84.6119 11.1771L84.6408 11.375ZM85.3408 12.15H85.5408V12.1403L85.5399 12.1307L85.3408 12.15ZM83.7158 13.025L83.6914 12.8265L83.6364 12.8333L83.5928 12.8673L83.7158 13.025ZM82.6908 15.9H82.4908V15.918L82.494 15.9358L82.6908 15.9ZM86.7408 17.325V17.125H86.6612L86.6033 17.1797L86.7408 17.325ZM87.6908 18.025L87.881 18.0869L87.9043 18.0154L87.8746 17.9462L87.6908 18.025ZM85.4408 19.975L85.5196 20.1589L85.5245 20.1567L85.4408 19.975ZM81.2158 16.075H81.0158V16.094L81.0194 16.1126L81.2158 16.075ZM83.6448 11.7229L84.6698 11.5729L84.6119 11.1771L83.5869 11.3271L83.6448 11.7229ZM84.6408 11.575C84.8047 11.575 84.9086 11.6239 84.9799 11.7028C85.0568 11.7879 85.119 11.9337 85.1418 12.1693L85.5399 12.1307C85.5127 11.8497 85.4332 11.6079 85.2767 11.4347C85.1147 11.2553 84.8936 11.175 84.6408 11.175V11.575ZM85.1408 12.15C85.1408 12.275 85.073 12.4046 84.8398 12.5302C84.6016 12.6584 84.2245 12.7609 83.6914 12.8265L83.7403 13.2235C84.2905 13.1558 84.7259 13.0457 85.0294 12.8823C85.3378 12.7163 85.5408 12.475 85.5408 12.15H85.1408ZM83.5928 12.8673C82.8631 13.4368 82.4908 14.1772 82.4908 15.075H82.8908C82.8908 14.3061 83.2018 13.6799 83.8389 13.1827L83.5928 12.8673ZM82.4908 15.075V15.9H82.8908V15.075H82.4908ZM82.494 15.9358C82.6624 16.8618 82.893 17.578 83.1957 18.0677C83.5013 18.562 83.8983 18.85 84.3908 18.85V18.45C84.0834 18.45 83.797 18.2796 83.5359 17.8573C83.272 17.4304 83.0526 16.7716 82.8876 15.8642L82.494 15.9358ZM84.3908 18.85H84.6408V18.45H84.3908V18.85ZM84.6408 18.85C84.9311 18.85 85.2621 18.7153 85.6225 18.4879C85.9878 18.2574 86.4067 17.9165 86.8783 17.4703L86.6033 17.1797C86.1416 17.6168 85.7438 17.9384 85.4091 18.1496C85.0695 18.3638 84.8172 18.45 84.6408 18.45V18.85ZM86.7408 17.525H86.8908V17.125H86.7408V17.525ZM86.8908 17.525C87.1053 17.525 87.3197 17.6668 87.507 18.1038L87.8746 17.9462C87.6619 17.4499 87.343 17.125 86.8908 17.125V17.525ZM87.5006 17.9631C87.2945 18.5963 86.6125 19.2152 85.3572 19.7933L85.5245 20.1567C86.8025 19.5681 87.6205 18.8871 87.881 18.0869L87.5006 17.9631ZM85.362 19.7912C85.1611 19.8773 84.8983 19.925 84.5658 19.925V20.325C84.9333 20.325 85.2539 20.2727 85.5196 20.1588L85.362 19.7912ZM84.5658 19.925C83.7685 19.925 83.1162 19.6152 82.5949 18.985C82.0669 18.3466 81.6675 17.3714 81.4123 16.0374L81.0194 16.1126C81.2808 17.4786 81.6981 18.5284 82.2867 19.24C82.8821 19.9598 83.6465 20.325 84.5658 20.325V19.925ZM81.4158 16.075V15.525H81.0158V16.075H81.4158ZM81.4158 15.525C81.4158 14.5771 81.6102 13.794 81.9873 13.1654C82.3636 12.5382 82.93 12.0513 83.6976 11.7075L83.5341 11.3425C82.7017 11.7153 82.068 12.2535 81.6443 12.9596C81.2215 13.6643 81.0158 14.5229 81.0158 15.525H81.4158ZM91.9016 4.825L91.9435 4.62944L91.9228 4.625H91.9016V4.825ZM92.6016 5.525L92.7997 5.55202L92.8016 5.53857V5.525H92.6016ZM92.4516 6.625L92.2534 6.59798L92.2516 6.61143V6.625H92.4516ZM92.7016 9.275L92.5056 9.31499L92.5383 9.475H92.7016V9.275ZM92.7516 9.275V9.475H92.7811L92.8093 9.46647L92.7516 9.275ZM96.3516 8.4L96.4047 8.2072L96.3786 8.2H96.3516V8.4ZM95.3516 9.975V9.775H95.317L95.2845 9.78657L95.3516 9.975ZM92.7516 10.9L92.6845 10.7116L92.5516 10.7589V10.9H92.7516ZM93.4766 20.075L93.6718 20.1184L93.6793 20.0846L93.675 20.0502L93.4766 20.075ZM91.8266 18.5H92.0266V18.4808L92.0229 18.4619L91.8266 18.5ZM91.2766 11.225L91.4764 11.217L91.4687 11.025H91.2766V11.225ZM90.8266 11.225L90.8138 11.425H90.8266V11.225ZM89.0016 9.45V9.25H88.9341L88.8804 9.29091L89.0016 9.45ZM89.2516 9.45L89.302 9.25648L89.2772 9.25H89.2516V9.45ZM90.4016 9.75L90.3511 9.94352L90.3759 9.95H90.4016V9.75ZM91.2016 9.75V9.95H91.4165L91.401 9.73564L91.2016 9.75ZM90.9766 6.625H90.7766V6.63219L90.7771 6.63936L90.9766 6.625ZM91.8597 5.02056C92.0713 5.0659 92.2053 5.13663 92.2851 5.21642C92.36 5.29125 92.4016 5.38825 92.4016 5.525H92.8016C92.8016 5.29508 92.7265 5.09209 92.568 4.93358C92.4144 4.78004 92.1985 4.6841 91.9435 4.62944L91.8597 5.02056ZM92.4034 5.49798L92.2534 6.59798L92.6497 6.65202L92.7997 5.55202L92.4034 5.49798ZM92.2516 6.625V6.95H92.6516V6.625H92.2516ZM92.2516 6.95C92.2516 7.69844 92.3366 8.48691 92.5056 9.31499L92.8975 9.23501C92.7332 8.42975 92.6516 7.66823 92.6516 6.95H92.2516ZM92.7016 9.475H92.7516V9.075H92.7016V9.475ZM92.8093 9.46647C93.7744 9.17529 94.5538 8.9577 95.1488 8.81309C95.7506 8.66682 96.1454 8.6 96.3516 8.6V8.2C96.0911 8.2 95.6525 8.27901 95.0543 8.42441C94.4493 8.57147 93.6621 8.79138 92.6938 9.08353L92.8093 9.46647ZM96.2984 8.5928C96.5212 8.65427 96.6663 8.73512 96.7539 8.82267C96.8362 8.905 96.8766 9.00161 96.8766 9.125H97.2766C97.2766 8.89839 97.1961 8.69917 97.0367 8.53983C96.8826 8.38571 96.6653 8.27906 96.4047 8.2072L96.2984 8.5928ZM96.8766 9.125C96.8766 9.23106 96.8503 9.31507 96.8031 9.38481C96.755 9.45595 96.6772 9.52384 96.5569 9.5831C96.3108 9.70435 95.9166 9.775 95.3516 9.775V10.175C95.9366 10.175 96.4048 10.104 96.7337 9.9419C96.901 9.85949 97.0388 9.7503 97.1344 9.60894C97.231 9.46618 97.2766 9.30227 97.2766 9.125H96.8766ZM95.2845 9.78657L92.6845 10.7116L92.8186 11.0884L95.4186 10.1634L95.2845 9.78657ZM92.5516 10.9C92.5516 13.1622 92.7944 16.2299 93.2781 20.0998L93.675 20.0502C93.1921 16.1867 92.9516 13.1378 92.9516 10.9H92.5516ZM93.2813 20.0316C93.2367 20.2322 93.1656 20.3589 93.084 20.4349C93.0061 20.5074 92.9014 20.55 92.7516 20.55V20.95C92.9851 20.95 93.1928 20.8801 93.3566 20.7276C93.5167 20.5786 93.6164 20.3678 93.6718 20.1184L93.2813 20.0316ZM92.7516 20.55H92.7016V20.95H92.7516V20.55ZM92.7016 20.55C92.6028 20.55 92.5215 20.5198 92.4489 20.4575C92.3725 20.392 92.2972 20.2833 92.2317 20.115C92.0996 19.7753 92.0266 19.2428 92.0266 18.5H91.6266C91.6266 19.2572 91.6994 19.8497 91.8589 20.26C91.9393 20.4667 92.0463 20.6393 92.1886 20.7612C92.3347 20.8865 92.5086 20.95 92.7016 20.95V20.55ZM92.0229 18.4619C91.8097 17.3629 91.6265 14.9539 91.4764 11.217L91.0767 11.233C91.2266 14.9628 91.4101 17.4037 91.6302 18.5381L92.0229 18.4619ZM91.2766 11.025H90.8266V11.425H91.2766V11.025ZM90.8393 11.0254C90.064 10.9759 89.5064 10.8612 89.1489 10.6939C88.7973 10.5293 88.6766 10.3355 88.6766 10.125H88.2766C88.2766 10.5478 88.5475 10.854 88.9793 11.0561C89.4051 11.2555 90.0225 11.3741 90.8138 11.4246L90.8393 11.0254ZM88.6766 10.125C88.6766 10.0965 88.6912 10.0373 88.7657 9.94154C88.8385 9.84794 88.9549 9.73697 89.1228 9.60909L88.8804 9.29091C88.6982 9.4297 88.5521 9.56456 88.4499 9.69596C88.3494 9.82524 88.2766 9.97018 88.2766 10.125H88.6766ZM89.0016 9.65H89.2516V9.25H89.0016V9.65ZM89.2011 9.64352L90.3511 9.94352L90.452 9.55648L89.302 9.25648L89.2011 9.64352ZM90.4016 9.95H91.2016V9.55H90.4016V9.95ZM91.401 9.73564L91.176 6.61064L90.7771 6.63936L91.0021 9.76436L91.401 9.73564ZM91.1766 6.625C91.1766 6.03564 91.2534 5.62394 91.3857 5.36641C91.4504 5.24056 91.5253 5.15747 91.6057 5.10529C91.6852 5.05375 91.7813 5.025 91.9016 5.025V4.625C91.7135 4.625 91.5398 4.67125 91.388 4.76971C91.2372 4.86752 91.1194 5.00944 91.0299 5.18359C90.8539 5.52606 90.7766 6.01436 90.7766 6.625H91.1766Z" fill="#020001" mask="url(#path-1-outside-1_423_127)"/>
</g>
<path id="Arrow 4" d="M136.707 14.7071C137.098 14.3166 137.098 13.6834 136.707 13.2929L130.343 6.92893C129.953 6.53841 129.319 6.53841 128.929 6.92893C128.538 7.31946 128.538 7.95262 128.929 8.34315L134.586 14L128.929 19.6569C128.538 20.0474 128.538 20.6805 128.929 21.0711C129.319 21.4616 129.953 21.4616 130.343 21.0711L136.707 14.7071ZM107 15H108.812V13H107V15ZM112.438 15H116.062V13H112.438V15ZM119.688 15H123.312V13H119.688V15ZM126.938 15H130.562V13H126.938V15ZM134.188 15H136V13H134.188V15ZM136.707 14.7071C137.098 14.3166 137.098 13.6834 136.707 13.2929L130.343 6.92893C129.953 6.53841 129.319 6.53841 128.929 6.92893C128.538 7.31946 128.538 7.95262 128.929 8.34315L134.586 14L128.929 19.6569C128.538 20.0474 128.538 20.6805 128.929 21.0711C129.319 21.4616 129.953 21.4616 130.343 21.0711L136.707 14.7071ZM107 15H108.812V13H107V15ZM112.438 15H116.062V13H112.438V15ZM119.688 15H123.312V13H119.688V15ZM126.938 15H130.562V13H126.938V15ZM134.188 15H136V13H134.188V15Z" fill="#9CAFFE"/>
</g>
</svg>
