<svg width="157" height="52" viewBox="0 0 157 52" fill="none" xmlns="http://www.w3.org/2000/svg">
<g id="close button">
<g id="Group 281">
<rect id="Rectangle 162" x="122.133" y="18" width="23.0543" height="3.95217" rx="1.97609" transform="rotate(45.8699 122.133 18)" fill="#9CAFFE"/>
<rect id="Rectangle 163" width="23.0543" height="3.95217" rx="1.97609" transform="matrix(-0.727365 0.686251 0.686251 0.727365 135.769 18.3018)" fill="#9CAFFE"/>
</g>
<g id="close">
<mask id="path-3-outside-1_495_131" maskUnits="userSpaceOnUse" x="54" y="17" width="49" height="21" fill="black">
<rect fill="white" x="54" y="17" width="49" height="21"/>
<path d="M57.8009 25.135L59.2359 24.925C59.8193 24.925 60.1459 25.2867 60.2159 26.01C60.2159 26.64 59.4576 27.0483 57.9409 27.235C56.9843 27.9817 56.5059 28.9383 56.5059 30.105V31.26C56.9726 33.8267 57.7659 35.11 58.8859 35.11H59.2359C59.8893 35.11 60.8693 34.4917 62.1759 33.255H62.3859C62.8526 33.255 63.2259 33.5817 63.5059 34.235C63.1793 35.2383 62.1293 36.1483 60.3559 36.965C60.0293 37.105 59.6209 37.175 59.1309 37.175C56.7276 37.175 55.1643 35.285 54.4409 31.505V30.735C54.4409 28.005 55.5609 26.1383 57.8009 25.135ZM67.266 17.715C67.9193 17.9483 68.246 18.31 68.246 18.8L68.596 32.135V36.44C68.596 37.2333 68.2576 37.63 67.581 37.63H67.126C66.706 37.35 66.496 37.0233 66.496 36.65V32.59L66.181 18.73C66.181 18.1467 66.5426 17.8083 67.266 17.715ZM76.7157 23.805C78.4424 23.805 79.749 25.0883 80.6357 27.655L80.7757 28.39C80.7757 30.8867 79.609 33.4417 77.2757 36.055C76.3424 36.9183 75.3974 37.35 74.4407 37.35C73.0407 37.35 72.049 36.545 71.4657 34.935C71.2557 34.1883 71.1507 33.535 71.1507 32.975V32.555C71.1507 28.8683 72.4924 26.0683 75.1757 24.155C75.6424 23.9217 76.1557 23.805 76.7157 23.805ZM73.2157 32.905C73.2157 34.4917 73.624 35.285 74.4407 35.285C76.144 35.285 77.5557 33.1033 78.6757 28.74V28.075C78.279 26.6283 77.544 25.905 76.4707 25.905C76.0507 25.905 75.8407 26.1967 75.8407 26.78C75.8407 27.1767 75.374 27.4917 74.4407 27.725C73.624 29.1017 73.2157 30.8283 73.2157 32.905ZM89.3616 22.825C89.9916 22.825 90.4233 23.8867 90.6566 26.01C90.4233 26.5933 90.0383 26.885 89.5016 26.885C89.1283 26.815 88.755 26.3833 88.3816 25.59L87.7516 25.38C86.655 25.38 85.6633 26.1033 84.7766 27.55V27.865C84.7766 28.215 86.4216 28.7983 89.7116 29.615C91.0883 30.4317 91.7766 31.4233 91.7766 32.59C91.7766 34.5033 90.2366 36.1367 87.1566 37.49L85.8616 37.7C83.9016 37.49 82.9216 36.51 82.9216 34.76V34.655C82.9216 34.095 83.2833 33.7683 84.0066 33.675C84.5666 33.675 84.94 34.2583 85.1266 35.425L85.4066 35.635H86.0016C87.3316 35.635 88.5683 34.725 89.7116 32.905V32.45C89.7116 31.75 88.1833 31.0967 85.1266 30.49C83.5166 29.8367 82.7116 28.9267 82.7116 27.76C82.7116 26.2433 83.9833 24.82 86.5266 23.49C87.6466 23.35 88.5916 23.1283 89.3616 22.825ZM96.209 24.435C97.1424 24.4583 98.7174 26.0917 100.934 29.335L101.004 29.93C101.004 30.5833 99.4057 31.085 96.209 31.435L96.104 31.54V31.68C96.594 33.78 97.1074 34.83 97.644 34.83H98.064C98.8107 34.83 99.9424 34.025 101.459 32.415H101.669C102.136 32.415 102.497 32.7533 102.754 33.43C102.754 33.99 101.774 34.9583 99.814 36.335C99.3007 36.6383 98.6824 36.86 97.959 37C96.069 37 94.7507 35.2267 94.004 31.68C92.9307 31.5167 92.394 31.0733 92.394 30.35C92.394 29.8367 92.7907 29.4983 93.584 29.335V29.475L93.934 29.335V28.46C93.934 25.7767 94.6924 24.435 96.209 24.435ZM96.419 26.955H96.104L95.964 28.25V29.335H96.104C97.4107 29.2883 98.064 29.1483 98.064 28.915C97.4574 28.005 96.909 27.3517 96.419 26.955Z"/>
</mask>
<path d="M57.8009 25.135L59.2359 24.925C59.8193 24.925 60.1459 25.2867 60.2159 26.01C60.2159 26.64 59.4576 27.0483 57.9409 27.235C56.9843 27.9817 56.5059 28.9383 56.5059 30.105V31.26C56.9726 33.8267 57.7659 35.11 58.8859 35.11H59.2359C59.8893 35.11 60.8693 34.4917 62.1759 33.255H62.3859C62.8526 33.255 63.2259 33.5817 63.5059 34.235C63.1793 35.2383 62.1293 36.1483 60.3559 36.965C60.0293 37.105 59.6209 37.175 59.1309 37.175C56.7276 37.175 55.1643 35.285 54.4409 31.505V30.735C54.4409 28.005 55.5609 26.1383 57.8009 25.135ZM67.266 17.715C67.9193 17.9483 68.246 18.31 68.246 18.8L68.596 32.135V36.44C68.596 37.2333 68.2576 37.63 67.581 37.63H67.126C66.706 37.35 66.496 37.0233 66.496 36.65V32.59L66.181 18.73C66.181 18.1467 66.5426 17.8083 67.266 17.715ZM76.7157 23.805C78.4424 23.805 79.749 25.0883 80.6357 27.655L80.7757 28.39C80.7757 30.8867 79.609 33.4417 77.2757 36.055C76.3424 36.9183 75.3974 37.35 74.4407 37.35C73.0407 37.35 72.049 36.545 71.4657 34.935C71.2557 34.1883 71.1507 33.535 71.1507 32.975V32.555C71.1507 28.8683 72.4924 26.0683 75.1757 24.155C75.6424 23.9217 76.1557 23.805 76.7157 23.805ZM73.2157 32.905C73.2157 34.4917 73.624 35.285 74.4407 35.285C76.144 35.285 77.5557 33.1033 78.6757 28.74V28.075C78.279 26.6283 77.544 25.905 76.4707 25.905C76.0507 25.905 75.8407 26.1967 75.8407 26.78C75.8407 27.1767 75.374 27.4917 74.4407 27.725C73.624 29.1017 73.2157 30.8283 73.2157 32.905ZM89.3616 22.825C89.9916 22.825 90.4233 23.8867 90.6566 26.01C90.4233 26.5933 90.0383 26.885 89.5016 26.885C89.1283 26.815 88.755 26.3833 88.3816 25.59L87.7516 25.38C86.655 25.38 85.6633 26.1033 84.7766 27.55V27.865C84.7766 28.215 86.4216 28.7983 89.7116 29.615C91.0883 30.4317 91.7766 31.4233 91.7766 32.59C91.7766 34.5033 90.2366 36.1367 87.1566 37.49L85.8616 37.7C83.9016 37.49 82.9216 36.51 82.9216 34.76V34.655C82.9216 34.095 83.2833 33.7683 84.0066 33.675C84.5666 33.675 84.94 34.2583 85.1266 35.425L85.4066 35.635H86.0016C87.3316 35.635 88.5683 34.725 89.7116 32.905V32.45C89.7116 31.75 88.1833 31.0967 85.1266 30.49C83.5166 29.8367 82.7116 28.9267 82.7116 27.76C82.7116 26.2433 83.9833 24.82 86.5266 23.49C87.6466 23.35 88.5916 23.1283 89.3616 22.825ZM96.209 24.435C97.1424 24.4583 98.7174 26.0917 100.934 29.335L101.004 29.93C101.004 30.5833 99.4057 31.085 96.209 31.435L96.104 31.54V31.68C96.594 33.78 97.1074 34.83 97.644 34.83H98.064C98.8107 34.83 99.9424 34.025 101.459 32.415H101.669C102.136 32.415 102.497 32.7533 102.754 33.43C102.754 33.99 101.774 34.9583 99.814 36.335C99.3007 36.6383 98.6824 36.86 97.959 37C96.069 37 94.7507 35.2267 94.004 31.68C92.9307 31.5167 92.394 31.0733 92.394 30.35C92.394 29.8367 92.7907 29.4983 93.584 29.335V29.475L93.934 29.335V28.46C93.934 25.7767 94.6924 24.435 96.209 24.435ZM96.419 26.955H96.104L95.964 28.25V29.335H96.104C97.4107 29.2883 98.064 29.1483 98.064 28.915C97.4574 28.005 96.909 27.3517 96.419 26.955Z" fill="#9CAFFE"/>
<path d="M57.8009 25.135L57.772 24.9371L57.7445 24.9411L57.7192 24.9525L57.8009 25.135ZM59.2359 24.925V24.725H59.2214L59.207 24.7271L59.2359 24.925ZM60.2159 26.01H60.4159V26.0003L60.415 25.9907L60.2159 26.01ZM57.9409 27.235L57.9165 27.0365L57.8615 27.0433L57.8179 27.0773L57.9409 27.235ZM56.5059 31.26H56.3059V31.278L56.3091 31.2958L56.5059 31.26ZM62.1759 33.255V33.055H62.0963L62.0384 33.1097L62.1759 33.255ZM63.5059 34.235L63.6961 34.2969L63.7194 34.2254L63.6897 34.1562L63.5059 34.235ZM60.3559 36.965L60.4347 37.1489L60.4396 37.1467L60.3559 36.965ZM54.4409 31.505H54.2409V31.524L54.2445 31.5426L54.4409 31.505ZM57.8299 25.3329L59.2649 25.1229L59.207 24.7271L57.772 24.9371L57.8299 25.3329ZM59.2359 25.125C59.4831 25.125 59.652 25.1997 59.77 25.3303C59.8935 25.4671 59.9841 25.6903 60.0168 26.0293L60.415 25.9907C60.3778 25.6063 60.27 25.2871 60.0668 25.0622C59.8582 24.8311 59.572 24.725 59.2359 24.725V25.125ZM60.0159 26.01C60.0159 26.225 59.8939 26.4287 59.5523 26.6127C59.2058 26.7992 58.6662 26.9442 57.9165 27.0365L57.9653 27.4335C58.7323 27.3391 59.3302 27.1866 59.742 26.9648C60.1588 26.7404 60.4159 26.425 60.4159 26.01H60.0159ZM57.8179 27.0773C56.8149 27.8601 56.3059 28.8739 56.3059 30.105H56.7059C56.7059 29.0028 57.1536 28.1032 58.064 27.3927L57.8179 27.0773ZM56.3059 30.105V31.26H56.7059V30.105H56.3059ZM56.3091 31.2958C56.5442 32.5884 56.8647 33.5796 57.2808 34.2527C57.6997 34.9304 58.2334 35.31 58.8859 35.31V34.91C58.4185 34.91 57.9954 34.648 57.621 34.0423C57.2438 33.432 56.9343 32.4982 56.7027 31.2242L56.3091 31.2958ZM58.8859 35.31H59.2359V34.91H58.8859V35.31ZM59.2359 35.31C59.6196 35.31 60.0672 35.1312 60.5676 34.8154C61.0729 34.4966 61.6552 34.0232 62.3134 33.4003L62.0384 33.1097C61.39 33.7235 60.8289 34.1776 60.3542 34.4771C59.8746 34.7797 59.5056 34.91 59.2359 34.91V35.31ZM62.1759 33.455H62.3859V33.055H62.1759V33.455ZM62.3859 33.455C62.7338 33.455 63.0548 33.6901 63.3221 34.3138L63.6897 34.1562C63.397 33.4732 62.9714 33.055 62.3859 33.055V33.455ZM63.3157 34.1731C63.0163 35.0929 62.0342 35.9719 60.2723 36.7833L60.4396 37.1467C62.2243 36.3248 63.3422 35.3837 63.6961 34.2969L63.3157 34.1731ZM60.2771 36.7812C59.9829 36.9073 59.6034 36.975 59.1309 36.975V37.375C59.6384 37.375 60.0756 37.3027 60.4347 37.1488L60.2771 36.7812ZM59.1309 36.975C57.9903 36.975 57.0546 36.5302 56.31 35.63C55.5587 34.7216 54.996 33.3414 54.6374 31.4674L54.2445 31.5426C54.6092 33.4486 55.1898 34.9034 56.0018 35.885C56.8206 36.8748 57.8682 37.375 59.1309 37.375V36.975ZM54.6409 31.505V30.735H54.2409V31.505H54.6409ZM54.6409 30.735C54.6409 29.3971 54.9153 28.2857 55.4524 27.3904C55.9887 26.4965 56.7951 25.8047 57.8827 25.3175L57.7192 24.9525C56.5668 25.4687 55.6931 26.2118 55.1094 27.1846C54.5266 28.156 54.2409 29.3429 54.2409 30.735H54.6409ZM67.266 17.715L67.3332 17.5267L67.288 17.5105L67.2404 17.5166L67.266 17.715ZM68.246 18.8H68.0459L68.046 18.8052L68.246 18.8ZM68.596 32.135H68.796L68.7959 32.1298L68.596 32.135ZM67.126 37.63L67.015 37.7964L67.0654 37.83H67.126V37.63ZM66.496 32.59H66.696L66.6959 32.5855L66.496 32.59ZM66.181 18.73H65.9809L65.981 18.7345L66.181 18.73ZM67.1987 17.9033C67.5066 18.0133 67.7187 18.1472 67.8525 18.2953C67.9825 18.4392 68.046 18.6042 68.046 18.8H68.446C68.446 18.5058 68.3461 18.245 68.1494 18.0272C67.9565 17.8137 67.6786 17.65 67.3332 17.5267L67.1987 17.9033ZM68.046 18.8052L68.396 32.1402L68.7959 32.1298L68.4459 18.7948L68.046 18.8052ZM68.396 32.135V36.44H68.796V32.135H68.396ZM68.396 36.44C68.396 36.8129 68.3158 37.0553 68.19 37.2027C68.0695 37.344 67.8794 37.43 67.581 37.43V37.83C67.9592 37.83 68.2766 37.7177 68.4944 37.4623C68.707 37.213 68.796 36.8604 68.796 36.44H68.396ZM67.581 37.43H67.126V37.83H67.581V37.43ZM67.2369 37.4636C66.8509 37.2063 66.696 36.9341 66.696 36.65H66.296C66.296 37.1126 66.561 37.4937 67.015 37.7964L67.2369 37.4636ZM66.696 36.65V32.59H66.296V36.65H66.696ZM66.6959 32.5855L66.3809 18.7255L65.981 18.7345L66.296 32.5945L66.6959 32.5855ZM66.381 18.73C66.381 18.483 66.4556 18.3094 66.5888 18.1848C66.7277 18.0549 66.9527 17.9571 67.2915 17.9134L67.2404 17.5166C66.8558 17.5663 66.5384 17.6842 66.3156 17.8927C66.0871 18.1064 65.981 18.3937 65.981 18.73H66.381ZM80.6357 27.655L80.8322 27.6176L80.8294 27.6034L80.8247 27.5897L80.6357 27.655ZM80.7757 28.39H80.9757V28.3711L80.9722 28.3526L80.7757 28.39ZM77.2757 36.055L77.4115 36.2018L77.4185 36.1953L77.4249 36.1882L77.2757 36.055ZM71.4657 34.935L71.2732 34.9891L71.2751 34.9962L71.2776 35.0031L71.4657 34.935ZM75.1757 24.155L75.0862 23.9761L75.0723 23.9831L75.0596 23.9922L75.1757 24.155ZM78.6757 28.74L78.8694 28.7897L78.8757 28.7653V28.74H78.6757ZM78.6757 28.075H78.8757V28.0481L78.8686 28.0221L78.6757 28.075ZM74.4407 27.725L74.3922 27.531L74.3112 27.5512L74.2687 27.623L74.4407 27.725ZM76.7157 24.005C78.3114 24.005 79.5692 25.1804 80.4466 27.7203L80.8247 27.5897C79.9288 24.9963 78.5733 23.605 76.7157 23.605V24.005ZM80.4392 27.6924L80.5792 28.4274L80.9722 28.3526L80.8322 27.6176L80.4392 27.6924ZM80.5757 28.39C80.5757 30.8208 79.4403 33.3304 77.1265 35.9218L77.4249 36.1882C79.7778 33.553 80.9757 30.9525 80.9757 28.39H80.5757ZM77.1399 35.9082C76.2311 36.7488 75.3323 37.15 74.4407 37.15V37.55C75.4624 37.55 76.4536 37.0878 77.4115 36.2018L77.1399 35.9082ZM74.4407 37.15C73.7819 37.15 73.2297 36.9617 72.773 36.591C72.3134 36.2179 71.9371 35.649 71.6537 34.8669L71.2776 35.0031C71.5776 35.831 71.9888 36.4696 72.5209 36.9015C73.0558 37.3358 73.6995 37.55 74.4407 37.55V37.15ZM71.6582 34.8809C71.4514 34.1456 71.3507 33.5112 71.3507 32.975H70.9507C70.9507 33.5588 71.06 34.2311 71.2732 34.9891L71.6582 34.8809ZM71.3507 32.975V32.555H70.9507V32.975H71.3507ZM71.3507 32.555C71.3507 28.9241 72.6679 26.1888 75.2918 24.3178L75.0596 23.9922C72.3167 25.9479 70.9507 28.8126 70.9507 32.555H71.3507ZM75.2651 24.3339C75.702 24.1154 76.1844 24.005 76.7157 24.005V23.605C76.127 23.605 75.5827 23.7279 75.0862 23.9761L75.2651 24.3339ZM73.0157 32.905C73.0157 33.709 73.1181 34.3423 73.3441 34.7815C73.4586 35.004 73.6077 35.1822 73.796 35.3041C73.9853 35.4267 74.2027 35.485 74.4407 35.485V35.085C74.2703 35.085 74.1304 35.0441 74.0135 34.9684C73.8955 34.892 73.7894 34.7726 73.6998 34.5985C73.5175 34.2443 73.4157 33.6877 73.4157 32.905H73.0157ZM74.4407 35.485C75.3908 35.485 76.2226 34.8735 76.9448 33.7574C77.668 32.6399 78.3074 30.9793 78.8694 28.7897L78.482 28.6903C77.924 30.864 77.2976 32.476 76.609 33.5401C75.9196 34.6056 75.1939 35.085 74.4407 35.085V35.485ZM78.8757 28.74V28.075H78.4757V28.74H78.8757ZM78.8686 28.0221C78.6649 27.2793 78.3687 26.7001 77.9672 26.305C77.5606 25.9048 77.0575 25.705 76.4707 25.705V26.105C76.9572 26.105 77.3582 26.2668 77.6866 26.59C78.0201 26.9182 78.2898 27.4241 78.4828 28.1279L78.8686 28.0221ZM76.4707 25.705C76.2087 25.705 75.9852 25.7996 75.8359 26.0069C75.6953 26.2021 75.6407 26.4703 75.6407 26.78H76.0407C76.0407 26.5063 76.091 26.3371 76.1605 26.2406C76.2212 26.1563 76.3126 26.105 76.4707 26.105V25.705ZM75.6407 26.78C75.6407 26.8866 75.582 27.0108 75.3788 27.148C75.1738 27.2864 74.8499 27.4165 74.3922 27.531L74.4892 27.919C74.9648 27.8001 75.3409 27.6561 75.6026 27.4795C75.8661 27.3017 76.0407 27.0701 76.0407 26.78H75.6407ZM74.2687 27.623C73.429 29.0384 73.0157 30.8029 73.0157 32.905H73.4157C73.4157 30.8538 73.819 29.1649 74.6127 27.827L74.2687 27.623ZM89.3616 22.825V22.625H89.3236L89.2883 22.6389L89.3616 22.825ZM90.6566 26.01L90.8423 26.0843L90.8609 26.0379L90.8554 25.9882L90.6566 26.01ZM89.5016 26.885L89.4648 27.0816L89.483 27.085H89.5016V26.885ZM88.3816 25.59L88.5626 25.5048L88.5261 25.4273L88.4449 25.4003L88.3816 25.59ZM87.7516 25.38L87.8149 25.1903L87.7841 25.18H87.7516V25.38ZM84.7766 27.55L84.6061 27.4455L84.5766 27.4936V27.55H84.7766ZM89.7116 29.615L89.8137 29.443L89.7884 29.428L89.7598 29.4209L89.7116 29.615ZM87.1566 37.49L87.1886 37.6874L87.2138 37.6833L87.2371 37.6731L87.1566 37.49ZM85.8616 37.7L85.8403 37.8989L85.8671 37.9017L85.8936 37.8974L85.8616 37.7ZM84.0066 33.675V33.475H83.9938L83.981 33.4766L84.0066 33.675ZM85.1266 35.425L84.9291 35.4566L84.9419 35.5365L85.0066 35.585L85.1266 35.425ZM85.4066 35.635L85.2866 35.795L85.34 35.835H85.4066V35.635ZM89.7116 32.905L89.881 33.0114L89.9116 32.9626V32.905H89.7116ZM85.1266 30.49L85.0514 30.6753L85.069 30.6825L85.0877 30.6862L85.1266 30.49ZM86.5266 23.49L86.5018 23.2915L86.466 23.296L86.4339 23.3128L86.5266 23.49ZM89.3616 23.025C89.5424 23.025 89.7608 23.1758 89.9726 23.6966C90.1779 24.2014 90.3418 24.9756 90.4578 26.0318L90.8554 25.9882C90.7382 24.921 90.5695 24.1028 90.3431 23.5459C90.1232 23.0051 89.8108 22.625 89.3616 22.625V23.025ZM90.4709 25.9357C90.3638 26.2036 90.2281 26.3886 90.0721 26.5068C89.9182 26.6234 89.7315 26.685 89.5016 26.685V27.085C89.8085 27.085 90.0825 27.0008 90.3136 26.8257C90.5426 26.6522 90.7161 26.3998 90.8423 26.0843L90.4709 25.9357ZM89.5385 26.6884C89.4138 26.665 89.2642 26.576 89.0929 26.3779C88.9227 26.1812 88.7452 25.8928 88.5626 25.5048L88.2007 25.6752C88.3914 26.0805 88.5872 26.4047 88.7904 26.6396C88.9924 26.8732 89.2161 27.035 89.4648 27.0816L89.5385 26.6884ZM88.4449 25.4003L87.8149 25.1903L87.6884 25.5697L88.3184 25.7797L88.4449 25.4003ZM87.7516 25.18C86.5528 25.18 85.508 25.9739 84.6061 27.4455L84.9471 27.6545C85.8186 26.2327 86.7571 25.58 87.7516 25.58V25.18ZM84.5766 27.55V27.865H84.9766V27.55H84.5766ZM84.5766 27.865C84.5766 27.9879 84.6471 28.0839 84.7128 28.1491C84.7822 28.218 84.8765 28.2829 84.9864 28.3452C85.2073 28.4706 85.5288 28.6064 85.9435 28.7535C86.7755 29.0485 88.0168 29.4004 89.6634 29.8091L89.7598 29.4209C88.1164 29.013 86.8903 28.6648 86.0772 28.3765C85.6694 28.2319 85.374 28.1053 85.1838 27.9973C85.088 27.943 85.0281 27.8985 84.9946 27.8653C84.9575 27.8284 84.9766 27.8296 84.9766 27.865H84.5766ZM89.6096 29.787C90.9508 30.5827 91.5766 31.5191 91.5766 32.59H91.9766C91.9766 31.3276 91.2257 30.2807 89.8137 29.443L89.6096 29.787ZM91.5766 32.59C91.5766 34.3754 90.1421 35.9598 87.0762 37.3069L87.2371 37.6731C90.3312 36.3136 91.9766 34.6313 91.9766 32.59H91.5766ZM87.1246 37.2926L85.8296 37.5026L85.8936 37.8974L87.1886 37.6874L87.1246 37.2926ZM85.8829 37.5011C84.9296 37.399 84.2445 37.1126 83.798 36.6661C83.3548 36.2228 83.1216 35.5966 83.1216 34.76H82.7216C82.7216 35.6734 82.9785 36.4122 83.5152 36.9489C84.0487 37.4824 84.8337 37.791 85.8403 37.8989L85.8829 37.5011ZM83.1216 34.76V34.655H82.7216V34.76H83.1216ZM83.1216 34.655C83.1216 34.4223 83.1945 34.258 83.3269 34.1384C83.4659 34.0129 83.692 33.9173 84.0322 33.8734L83.981 33.4766C83.5979 33.5261 83.2815 33.6405 83.0588 33.8416C82.8296 34.0486 82.7216 34.3277 82.7216 34.655H83.1216ZM84.0066 33.875C84.2018 33.875 84.3783 33.9705 84.5382 34.2203C84.7031 34.478 84.8375 34.8839 84.9291 35.4566L85.3241 35.3934C85.2291 34.7994 85.0835 34.3303 84.8751 34.0047C84.6616 33.6712 84.3715 33.475 84.0066 33.475V33.875ZM85.0066 35.585L85.2866 35.795L85.5266 35.475L85.2466 35.265L85.0066 35.585ZM85.4066 35.835H86.0016V35.435H85.4066V35.835ZM86.0016 35.835C87.4351 35.835 88.7244 34.8524 89.881 33.0114L89.5423 32.7986C88.4122 34.5976 87.2281 35.435 86.0016 35.435V35.835ZM89.9116 32.905V32.45H89.5116V32.905H89.9116ZM89.9116 32.45C89.9116 32.1956 89.7715 31.9734 89.5576 31.784C89.3437 31.5945 89.035 31.4183 88.644 31.2511C87.8604 30.9161 86.6979 30.598 85.1656 30.2938L85.0877 30.6862C86.612 30.9887 87.742 31.3005 88.4868 31.6189C88.8599 31.7784 89.1244 31.9346 89.2925 32.0835C89.4607 32.2324 89.5116 32.3544 89.5116 32.45H89.9116ZM85.2018 30.3047C83.6244 29.6645 82.9116 28.8072 82.9116 27.76H82.5116C82.5116 29.0461 83.4089 30.0088 85.0514 30.6753L85.2018 30.3047ZM82.9116 27.76C82.9116 26.3663 84.0834 24.9933 86.6193 23.6672L86.4339 23.3128C83.8831 24.6467 82.5116 26.1204 82.5116 27.76H82.9116ZM86.5514 23.6885C87.6825 23.5471 88.6449 23.3223 89.4349 23.0111L89.2883 22.6389C88.5384 22.9343 87.6108 23.1529 86.5018 23.2915L86.5514 23.6885ZM96.209 24.435L96.214 24.235H96.209V24.435ZM100.934 29.335L101.133 29.3116L101.127 29.2628L101.099 29.2221L100.934 29.335ZM101.004 29.93H101.204V29.9183L101.203 29.9066L101.004 29.93ZM96.209 31.435L96.1873 31.2362L96.1174 31.2438L96.0676 31.2936L96.209 31.435ZM96.104 31.54L95.9626 31.3986L95.904 31.4572V31.54H96.104ZM96.104 31.68H95.904V31.703L95.9093 31.7254L96.104 31.68ZM101.459 32.415V32.215H101.373L101.313 32.2779L101.459 32.415ZM102.754 33.43H102.954V33.3933L102.941 33.3591L102.754 33.43ZM99.814 36.335L99.9158 36.5072L99.9226 36.5032L99.929 36.4987L99.814 36.335ZM97.959 37V37.2H97.9782L97.997 37.1964L97.959 37ZM94.004 31.68L94.1998 31.6388L94.1712 31.5031L94.0341 31.4823L94.004 31.68ZM93.584 29.335H93.784V29.0896L93.5437 29.1391L93.584 29.335ZM93.584 29.475H93.384V29.7704L93.6583 29.6607L93.584 29.475ZM93.934 29.335L94.0083 29.5207L94.134 29.4704V29.335H93.934ZM96.419 26.955L96.5449 26.7996L96.4898 26.755H96.419V26.955ZM96.104 26.955V26.755H95.9245L95.9052 26.9335L96.104 26.955ZM95.964 28.25L95.7652 28.2285L95.764 28.2392V28.25H95.964ZM95.964 29.335H95.764V29.535H95.964V29.335ZM96.104 29.335V29.5351L96.1112 29.5349L96.104 29.335ZM98.064 28.915H98.264V28.8544L98.2305 28.8041L98.064 28.915ZM96.204 24.6349C96.3835 24.6394 96.6196 24.7234 96.9191 24.9213C97.2159 25.1173 97.5582 25.4138 97.9463 25.8163C98.7224 26.6212 99.663 27.8298 100.769 29.4479L101.099 29.2221C99.9884 27.5969 99.0331 26.3671 98.2343 25.5387C97.8349 25.1245 97.4699 24.8056 97.1396 24.5875C96.812 24.3712 96.5012 24.2422 96.214 24.2351L96.204 24.6349ZM100.735 29.3584L100.805 29.9534L101.203 29.9066L101.133 29.3116L100.735 29.3584ZM100.804 29.93C100.804 30.0014 100.763 30.1028 100.587 30.2295C100.413 30.3555 100.137 30.4826 99.7454 30.6054C98.9653 30.8503 97.7822 31.0616 96.1873 31.2362L96.2308 31.6338C97.8326 31.4584 99.047 31.2439 99.8652 30.9871C100.273 30.8591 100.596 30.7164 100.821 30.5537C101.046 30.3916 101.204 30.1853 101.204 29.93H100.804ZM96.0676 31.2936L95.9626 31.3986L96.2455 31.6814L96.3505 31.5764L96.0676 31.2936ZM95.904 31.54V31.68H96.304V31.54H95.904ZM95.9093 31.7254C96.1553 32.78 96.4102 33.5849 96.6769 34.1303C96.81 34.4027 96.9513 34.6214 97.1045 34.7745C97.2586 34.9286 97.4392 35.03 97.644 35.03V34.63C97.5806 34.63 97.4957 34.6001 97.3873 34.4917C97.278 34.3824 97.1598 34.2073 97.0362 33.9547C96.7895 33.4501 96.5427 32.68 96.2988 31.6346L95.9093 31.7254ZM97.644 35.03H98.064V34.63H97.644V35.03ZM98.064 35.03C98.5017 35.03 99.0141 34.798 99.5887 34.3892C100.17 33.976 100.842 33.3618 101.605 32.5521L101.313 32.2779C100.56 33.0782 99.9076 33.6715 99.3569 34.0633C98.7998 34.4595 98.3731 34.63 98.064 34.63V35.03ZM101.459 32.615H101.669V32.215H101.459V32.615ZM101.669 32.615C102.01 32.615 102.321 32.8525 102.567 33.5009L102.941 33.3591C102.674 32.6542 102.261 32.215 101.669 32.215V32.615ZM102.554 33.43C102.554 33.5148 102.515 33.6417 102.402 33.8186C102.29 33.9926 102.118 34.1975 101.878 34.434C101.4 34.9066 100.676 35.4855 99.6991 36.1713L99.929 36.4987C100.913 35.8079 101.658 35.2142 102.16 34.7185C102.41 34.4708 102.605 34.2426 102.739 34.0345C102.87 33.8294 102.954 33.6252 102.954 33.43H102.554ZM99.7123 36.1628C99.2227 36.4521 98.627 36.667 97.921 36.8036L97.997 37.1964C98.7378 37.053 99.3787 36.8245 99.9158 36.5072L99.7123 36.1628ZM97.959 36.8C97.0885 36.8 96.342 36.3963 95.7133 35.5507C95.079 34.6974 94.5705 33.3998 94.1998 31.6388L93.8083 31.7212C94.1843 33.5069 94.7083 34.8692 95.3923 35.7893C96.0819 36.717 96.9396 37.2 97.959 37.2V36.8ZM94.0341 31.4823C93.5149 31.4033 93.1529 31.26 92.9239 31.0708C92.7036 30.8888 92.594 30.6547 92.594 30.35H92.194C92.194 30.7686 92.3528 31.1179 92.6692 31.3792C92.9769 31.6334 93.4198 31.7934 93.974 31.8777L94.0341 31.4823ZM92.594 30.35C92.594 30.1529 92.6667 29.9953 92.8213 29.8634C92.9836 29.725 93.2441 29.6092 93.6244 29.5309L93.5437 29.1391C93.1306 29.2242 92.7961 29.3592 92.5618 29.5591C92.3197 29.7656 92.194 30.0337 92.194 30.35H92.594ZM93.384 29.335V29.475H93.784V29.335H93.384ZM93.6583 29.6607L94.0083 29.5207L93.8598 29.1493L93.5098 29.2893L93.6583 29.6607ZM94.134 29.335V28.46H93.734V29.335H94.134ZM94.134 28.46C94.134 27.1306 94.323 26.1657 94.6769 25.5397C95.0213 24.9303 95.5243 24.635 96.209 24.635V24.235C95.3772 24.235 94.7426 24.6105 94.3287 25.3428C93.9242 26.0584 93.734 27.106 93.734 28.46H94.134ZM96.419 26.755H96.104V27.155H96.419V26.755ZM95.9052 26.9335L95.7652 28.2285L96.1629 28.2715L96.3029 26.9765L95.9052 26.9335ZM95.764 28.25V29.335H96.164V28.25H95.764ZM95.964 29.535H96.104V29.135H95.964V29.535ZM96.1112 29.5349C96.7674 29.5114 97.2716 29.4643 97.616 29.3906C97.7864 29.354 97.9325 29.308 98.0408 29.2461C98.1445 29.1869 98.264 29.0818 98.264 28.915H97.864C97.864 28.8648 97.902 28.8648 97.8423 28.8989C97.7873 28.9303 97.6884 28.966 97.5321 28.9994C97.2232 29.0657 96.7474 29.1119 96.0969 29.1351L96.1112 29.5349ZM98.2305 28.8041C97.6195 27.8877 97.058 27.2149 96.5449 26.7996L96.2932 27.1104C96.7601 27.4884 97.2952 28.1223 97.8976 29.0259L98.2305 28.8041Z" fill="#9CAFFE" mask="url(#path-3-outside-1_495_131)"/>
</g>
</g>
</svg>
