<svg width="782" height="57" viewBox="0 0 782 57" fill="none" xmlns="http://www.w3.org/2000/svg">
<g id="informationArchitecture Label">
<g id="Rectangle 27" filter="url(#filter0_d_325_128)">
<rect x="4" width="632" height="49" rx="10" fill="#EFAD92"/>
</g>
<g id="Final Prototype" filter="url(#filter1_d_325_128)">
<path d="M229.84 5.96C231.2 5.96 232 6.45333 232.24 7.44C232.24 7.84 231.853 8.26667 231.08 8.72L229.76 8.36H229.6C228.107 8.36 226.4 10.48 224.48 14.72C224.213 15.76 224.08 16.76 224.08 17.72V19.36H224.24C227.493 18.5867 229.573 18.2 230.48 18.2C231.653 18.4133 232.24 18.88 232.24 19.6C232 20.3467 231.613 20.72 231.08 20.72L230.36 20.6C227.64 20.84 225.64 21.2533 224.36 21.84V22.12L224.84 28.6C224.84 31.6667 224.227 33.2 223 33.2C222.573 33.2 222.187 32.8667 221.84 32.2C222.267 31.1067 222.48 29.7333 222.48 28.08C222.48 26.4 222.32 24.4933 222 22.36L220.08 22.6C218.347 22.44 217.48 21.8933 217.48 20.96C217.747 20.2133 218.173 19.84 218.76 19.84L219.76 20.12H220.48L221.76 19.96V17.72C221.76 13.5867 223.587 9.96 227.24 6.84C228.067 6.25333 228.933 5.96 229.84 5.96ZM234.529 10.16C235.542 10.3733 236.049 10.8267 236.049 11.52C235.782 12.2667 235.356 12.64 234.769 12.64C233.782 12.4533 233.289 11.96 233.289 11.16C233.556 10.4933 233.969 10.16 234.529 10.16ZM236.049 15.76C236.476 15.76 236.836 16.1467 237.129 16.92L236.769 19.76V21.64C236.769 23.8267 237.142 26.6933 237.889 30.24C237.622 30.7467 237.169 31 236.529 31C235.436 31 234.716 27.8 234.369 21.4V20C234.369 17.1733 234.929 15.76 236.049 15.76ZM245.148 17.52C247.414 17.7067 248.548 18.8133 248.548 20.84L248.628 21.36L248.548 27.6C248.548 28.32 248.961 29.2933 249.788 30.52V30.6C249.574 31.3733 249.188 31.76 248.628 31.76C246.974 31.0667 246.148 29.6 246.148 27.36V26.84L246.028 26.76L246.148 26.6V26.52L246.268 21C246.268 20.2267 245.934 19.84 245.268 19.84H244.788C243.454 20.3733 242.788 23.2933 242.788 28.6C242.788 30.44 242.321 31.36 241.388 31.36C240.668 31.36 240.294 30.9067 240.268 30V26C240.268 20.8267 240.721 18.24 241.628 18.24L242.028 18.12L242.868 18.24C243.588 17.76 244.348 17.52 245.148 17.52ZM258.521 15.56C259.695 15.56 260.281 16.0267 260.281 16.96L259.921 17.72L259.681 25.04C259.681 28.3467 260.348 30.4 261.681 31.2L261.761 31.8C261.681 32.5733 261.321 32.96 260.681 32.96H260.441C258.441 31.6 257.441 29.52 257.441 26.72H257.161C256.095 29.7067 254.801 31.2 253.281 31.2C251.868 30.8 251.161 29.7467 251.161 28.04C251.161 24.28 252.668 20.5333 255.681 16.8C256.695 15.9733 257.641 15.56 258.521 15.56ZM253.681 26.44L253.521 27.56V28.32H253.921C255.921 23.3333 256.921 20.2933 256.921 19.2H256.761C255.215 20.9333 254.188 23.3467 253.681 26.44ZM265.001 8.96C265.748 9.22667 266.121 9.64 266.121 10.2L266.521 25.44V30.36C266.521 31.2667 266.134 31.72 265.361 31.72H264.841C264.361 31.4 264.121 31.0267 264.121 30.6V25.96L263.761 10.12C263.761 9.45333 264.174 9.06667 265.001 8.96ZM291.879 4.72H292.519C296.865 4.72 299.652 6.29333 300.879 9.44L300.999 10.72V11.12C300.999 14.2133 299.119 17.08 295.359 19.72C294.452 19.9867 293.999 20.28 293.999 20.6C295.065 24.68 295.599 28.0133 295.599 30.6V31.12C295.599 32.1867 295.159 32.72 294.279 32.72C293.612 32.64 293.279 32.3067 293.279 31.72V30.72C293.279 27.6533 292.719 24.32 291.599 20.72C289.439 20.5333 288.239 19.9467 287.999 18.96V18.72C287.999 18.24 288.372 17.8667 289.119 17.6L290.879 18.2V18.12C289.972 14.1733 289.519 11.5067 289.519 10.12C289.519 9.34667 289.972 8.96 290.879 8.96C291.705 8.96 292.119 10.3733 292.119 13.2L293.279 17.96C295.199 17.32 296.692 16.0667 297.759 14.2C298.319 13.1333 298.599 12.1867 298.599 11.36V10.84C298.599 8.65333 296.732 7.41333 292.999 7.12H291.359C287.705 7.52 285.879 8.38667 285.879 9.72V9.96C285.879 10.36 286.092 10.9867 286.519 11.84C286.519 12.4267 286.052 12.8 285.119 12.96C284.052 12.4533 283.519 11.4133 283.519 9.84C283.519 6.90666 286.305 5.2 291.879 4.72ZM307.962 15.24C309.642 15.24 310.642 16.4133 310.962 18.76V19.12C310.962 21.7067 309.629 24.08 306.962 26.24C308.509 27.76 311.215 28.52 315.082 28.52C315.669 28.7067 315.962 29.12 315.962 29.76C315.962 30.48 315.495 30.84 314.562 30.84C311.949 30.84 309.202 30.1733 306.322 28.84V30C306.322 32.7467 305.735 34.12 304.562 34.12C303.735 34.12 303.322 32.5333 303.322 29.36V26.24L303.202 25.12L303.482 23.84L303.202 20V19.84C303.202 19.12 303.575 18.6267 304.322 18.36C305.362 16.28 306.575 15.24 307.962 15.24ZM305.962 24C306.735 24 307.602 22.6133 308.562 19.84V18.12L308.082 17.6H307.722C306.549 18.4 305.962 20.5333 305.962 24ZM323.691 15.92C325.665 15.92 327.158 17.3867 328.171 20.32L328.331 21.16C328.331 24.0133 326.998 26.9333 324.331 29.92C323.265 30.9067 322.185 31.4 321.091 31.4C319.491 31.4 318.358 30.48 317.691 28.64C317.451 27.7867 317.331 27.04 317.331 26.4V25.92C317.331 21.7067 318.865 18.5067 321.931 16.32C322.465 16.0533 323.051 15.92 323.691 15.92ZM319.691 26.32C319.691 28.1333 320.158 29.04 321.091 29.04C323.038 29.04 324.651 26.5467 325.931 21.56V20.8C325.478 19.1467 324.638 18.32 323.411 18.32C322.931 18.32 322.691 18.6533 322.691 19.32C322.691 19.7733 322.158 20.1333 321.091 20.4C320.158 21.9733 319.691 23.9467 319.691 26.32ZM334.824 6.72C335.57 6.88 335.944 7.25333 335.944 7.84L335.704 9.6V10.12C335.704 11.2933 335.837 12.5333 336.104 13.84H336.184C339.277 12.9067 341.197 12.44 341.944 12.44C342.717 12.6533 343.104 13.04 343.104 13.6C343.104 14.5067 342.184 14.96 340.344 14.96L336.184 16.44C336.184 20.04 336.57 24.9333 337.344 31.12C337.184 31.84 336.797 32.2 336.184 32.2H336.104C335.17 32.2 334.704 31 334.704 28.6C334.357 26.8133 334.064 22.9333 333.824 16.96H333.104C330.597 16.8 329.344 16.2133 329.344 15.2C329.344 14.9067 329.624 14.5467 330.184 14.12H330.584L332.424 14.6H333.704L333.344 9.6C333.344 7.68 333.837 6.72 334.824 6.72ZM350.723 15.92C352.696 15.92 354.189 17.3867 355.203 20.32L355.363 21.16C355.363 24.0133 354.029 26.9333 351.363 29.92C350.296 30.9067 349.216 31.4 348.123 31.4C346.523 31.4 345.389 30.48 344.723 28.64C344.483 27.7867 344.363 27.04 344.363 26.4V25.92C344.363 21.7067 345.896 18.5067 348.963 16.32C349.496 16.0533 350.083 15.92 350.723 15.92ZM346.723 26.32C346.723 28.1333 347.189 29.04 348.123 29.04C350.069 29.04 351.683 26.5467 352.963 21.56V20.8C352.509 19.1467 351.669 18.32 350.443 18.32C349.963 18.32 349.723 18.6533 349.723 19.32C349.723 19.7733 349.189 20.1333 348.123 20.4C347.189 21.9733 346.723 23.9467 346.723 26.32ZM361.855 6.72C362.602 6.88 362.975 7.25333 362.975 7.84L362.735 9.6V10.12C362.735 11.2933 362.868 12.5333 363.135 13.84H363.215C366.308 12.9067 368.228 12.44 368.975 12.44C369.748 12.6533 370.135 13.04 370.135 13.6C370.135 14.5067 369.215 14.96 367.375 14.96L363.215 16.44C363.215 20.04 363.602 24.9333 364.375 31.12C364.215 31.84 363.828 32.2 363.215 32.2H363.135C362.202 32.2 361.735 31 361.735 28.6C361.388 26.8133 361.095 22.9333 360.855 16.96H360.135C357.628 16.8 356.375 16.2133 356.375 15.2C356.375 14.9067 356.655 14.5467 357.215 14.12H357.615L359.455 14.6H360.735L360.375 9.6C360.375 7.68 360.868 6.72 361.855 6.72ZM372.634 19C373.567 19 374.207 21.0533 374.554 25.16C375.007 27.0533 375.34 28 375.554 28H375.794C376.46 26.32 376.794 24.6533 376.794 23L376.554 20.24C376.847 19.52 377.26 19.16 377.794 19.16C378.78 19.16 379.274 20.9067 379.274 24.4C379.86 28.0267 380.154 31.4 380.154 34.52V36.4C380.154 42.1333 378.527 46 375.274 48L374.394 48.16C372.874 48.16 371.46 46.7467 370.154 43.92L369.794 41.52V41.4C369.794 39.64 370.287 38.76 371.274 38.76L372.274 39.4L372.154 41.92C372.154 43.1467 372.78 44.3867 374.034 45.64H374.554C376.02 45.64 377.1 42.84 377.794 37.24L377.874 34.92C377.847 32.2267 377.74 30.5067 377.554 29.76C376.487 30.6933 375.647 31.16 375.034 31.16C373.674 31.16 372.46 27.52 371.394 20.24L371.274 20.16C371.274 19.5467 371.727 19.16 372.634 19ZM386.86 19.12C389.686 19.12 391.353 20.8933 391.86 24.44C391.86 27.5867 390.393 29.84 387.46 31.2C387.14 31.36 386.7 31.44 386.14 31.44H385.86L384.98 31.36V31.44L385.14 42.12C384.953 42.9467 384.526 43.36 383.86 43.36C383.113 43.12 382.74 42.7333 382.74 42.2L382.38 20.44C382.38 19.7467 382.793 19.3867 383.62 19.36L384.46 19.72C385.206 19.32 386.006 19.12 386.86 19.12ZM384.86 23.36L384.74 24.6L384.86 28.84L385.98 29.12C387.766 29.12 388.926 27.8133 389.46 25.2V24.6C389.273 22.4933 388.526 21.44 387.22 21.44H386.62C385.446 21.44 384.86 22.08 384.86 23.36ZM397.337 16.64C398.403 16.6667 400.203 18.5333 402.737 22.24L402.817 22.92C402.817 23.6667 400.99 24.24 397.337 24.64L397.217 24.76V24.92C397.777 27.32 398.363 28.52 398.977 28.52H399.457C400.31 28.52 401.603 27.6 403.337 25.76H403.577C404.11 25.76 404.523 26.1467 404.817 26.92C404.817 27.56 403.697 28.6667 401.457 30.24C400.87 30.5867 400.163 30.84 399.337 31C397.177 31 395.67 28.9733 394.817 24.92C393.59 24.7333 392.977 24.2267 392.977 23.4C392.977 22.8133 393.43 22.4267 394.337 22.24V22.4L394.737 22.24V21.24C394.737 18.1733 395.603 16.64 397.337 16.64ZM397.577 19.52H397.217L397.057 21V22.24H397.217C398.71 22.1867 399.457 22.0267 399.457 21.76C398.763 20.72 398.137 19.9733 397.577 19.52Z" fill="#AF371C"/>
</g>
</g>
<defs>
<filter id="filter0_d_325_128" x="0" y="0" width="640" height="57" filterUnits="userSpaceOnUse" color-interpolation-filters="sRGB">
<feFlood flood-opacity="0" result="BackgroundImageFix"/>
<feColorMatrix in="SourceAlpha" type="matrix" values="0 0 0 0 0 0 0 0 0 0 0 0 0 0 0 0 0 0 127 0" result="hardAlpha"/>
<feOffset dy="4"/>
<feGaussianBlur stdDeviation="2"/>
<feComposite in2="hardAlpha" operator="out"/>
<feColorMatrix type="matrix" values="0 0 0 0 0 0 0 0 0 0 0 0 0 0 0 0 0 0 0.1 0"/>
<feBlend mode="normal" in2="BackgroundImageFix" result="effect1_dropShadow_325_128"/>
<feBlend mode="normal" in="SourceGraphic" in2="effect1_dropShadow_325_128" result="shape"/>
</filter>
<filter id="filter1_d_325_128" x="213.48" y="4.72021" width="195.336" height="51.4399" filterUnits="userSpaceOnUse" color-interpolation-filters="sRGB">
<feFlood flood-opacity="0" result="BackgroundImageFix"/>
<feColorMatrix in="SourceAlpha" type="matrix" values="0 0 0 0 0 0 0 0 0 0 0 0 0 0 0 0 0 0 127 0" result="hardAlpha"/>
<feOffset dy="4"/>
<feGaussianBlur stdDeviation="2"/>
<feComposite in2="hardAlpha" operator="out"/>
<feColorMatrix type="matrix" values="0 0 0 0 0 0 0 0 0 0 0 0 0 0 0 0 0 0 0.1 0"/>
<feBlend mode="normal" in2="BackgroundImageFix" result="effect1_dropShadow_325_128"/>
<feBlend mode="normal" in="SourceGraphic" in2="effect1_dropShadow_325_128" result="shape"/>
</filter>
</defs>
</svg>
