<svg width="139" height="123" viewBox="0 0 139 123" fill="none" xmlns="http://www.w3.org/2000/svg">
<g id="lightBulb">
<path id="Vector 4362" d="M107.372 108.568L12.4999 122L4.99991 118.111L0.999908 105.612L39.9999 101.171L114.482 101.172L107.372 108.568Z" fill="#D9D9D9" fill-opacity="0.5"/>
<g id="Group 280">
<path id="Vector 4362_2" d="M83.8682 51.6174C89.411 58.823 94.7229 71.2481 96.686 76.56C96.686 76.7909 96.6167 77.3221 96.3395 77.5993C94.261 77.9457 95.3002 81.0635 95.3002 82.4492C94.1917 83.0035 94.6074 83.8349 94.9538 84.1814V87.2992C93.8453 88.4077 94.4919 89.1468 94.9538 89.3777V92.4956C93.8453 93.6041 94.4919 94.3432 94.9538 94.5741V97.6919C94.1224 98.5234 94.6074 99.1931 94.9538 99.4241V101.156L101.882 107.045C102.806 108.316 105.139 110.787 107.079 110.51C109.573 111.064 111.813 108.2 112.622 106.699L119.204 101.849V97.3455C120.866 96.237 119.896 95.267 119.204 94.9205V92.4956C119.435 92.4956 119.896 92.357 119.896 91.8027C120.174 90.6942 119.55 90.417 119.204 90.417V87.2992C120.035 85.9135 119.55 85.3361 119.204 85.2206C119.435 84.0659 120.381 81.5485 119.55 80.7171C120.104 78.7771 118.225 77.9457 117.532 77.5993C116.839 74.4814 123.846 65.4744 132.714 51.6174C143.8 34.2961 142.414 2.7714 105.693 0C65.8541 9.00706 76.9397 42.6103 83.8682 51.6174Z" fill="#DADFF5"/>
<g id="Vector 4363">
<path d="M106.433 48.2353L106.793 47.9352L106.447 37.196H108.871L108.525 47.9352L110.604 49.3209V60.2781C112.266 61.6638 112.913 68.2588 113.029 71.8385H102.636C101.804 67.6814 103.675 62.2541 104.714 60.06V49.6673L106.433 48.2353Z" fill="#8693CB"/>
<path d="M109.564 48.2817C112.567 38.3508 120.234 17.8654 125.5 19.5283M106.447 48.2815C103.444 38.1198 95.2916 17.5883 89.4717 19.5283M106.793 47.9352L104.714 49.6673V60.06C103.675 62.2541 101.804 67.6814 102.636 71.8385C106.793 71.8385 111.296 71.8385 113.029 71.8385C112.913 68.2588 112.266 61.6638 110.604 60.2781C110.604 58.061 110.604 51.7458 110.604 49.3209L108.525 47.9352L108.871 37.196H106.447L106.793 47.9352Z" stroke="#8693CB" stroke-width="2"/>
</g>
<path id="Vector 4364" d="M95.707 82.103C100.326 83.0268 111.227 84.1123 119.264 82.4495" stroke="#8693CB"/>
<path id="Vector 4365" d="M95.707 88.6851C100.326 89.6089 111.227 90.6943 119.264 89.0315" stroke="#8693CB"/>
<path id="Vector 4366" d="M95.707 94.9204C100.326 95.8442 111.227 96.9297 119.264 95.2668" stroke="#8693CB"/>
</g>
</g>
</svg>
