<svg width="107" height="129" viewBox="0 0 107 129" fill="none" xmlns="http://www.w3.org/2000/svg">
<g id="plant">
<path id="Vector 257" d="M58.1619 48.0218C51.843 46.7192 50.4615 36.9268 62.5108 35.6851L72.4926 34.5695C74.539 34.3408 76.4885 37.963 75.3448 39.6765C72.0483 44.6154 67.9208 50.0335 58.1619 48.0218Z" fill="#DADFF5" stroke="#DADFF5" stroke-width="2"/>
<path id="Vector 258" d="M99.6236 38.2229C103.273 43.567 97.5047 51.5807 87.9718 44.0725L80.0085 37.9103C78.3801 36.6502 79.5018 32.6805 81.5151 32.2434C87.2937 30.989 93.9955 29.982 99.6236 38.2229Z" fill="#DADFF5"/>
<path id="Vector 259" d="M88.3212 9.92045C94.6266 8.55347 99.8189 16.9558 89.2897 22.972L80.603 28.0348C78.8215 29.0731 75.5834 26.5511 75.9425 24.5208C76.9783 18.6648 78.5808 12.0321 88.3212 9.92045Z" fill="#DADFF5" stroke="#DADFF5" stroke-width="2"/>
<path id="Vector 260" d="M67.4493 5.68588C70.0467 -0.246952 79.8647 0.457244 78.5366 12.5545L77.5202 22.6012C77.3123 24.6562 73.365 25.792 71.935 24.3035C67.8285 20.0291 63.4434 14.836 67.4493 5.68588Z" fill="#DADFF5" stroke="#DADFF5" stroke-width="2"/>
<path id="Vector 261" d="M53.1653 29.368C48.3827 25.0187 52.1471 15.8803 63.1517 20.9655L72.3169 25.1055C74.1925 25.9528 74.0234 30.0732 72.1675 30.9662C66.8336 33.5328 60.5437 36.0779 53.1653 29.368Z" fill="#DADFF5"/>
<path id="Vector 262" d="M102.34 56.2119C106.672 61.0143 102.028 69.7347 91.5771 63.5831L82.8624 58.5537C81.0796 57.5249 81.6558 53.4406 83.5912 52.7357C89.1504 50.7111 95.6582 48.8046 102.34 56.2119Z" fill="#DADFF5" stroke="#DADFF5" stroke-width="2"/>
<path id="Vector 263" d="M62.1535 63.9938C55.7318 63.3817 53.3102 53.7954 65.1566 51.2587L74.9606 49.0711C76.9709 48.6225 79.2979 52.0114 78.3445 53.838C75.5956 59.105 72.0724 64.9394 62.1535 63.9938Z" fill="#DADFF5"/>
<path id="Vector 264" d="M74.8916 23.9369C79.1411 37.4349 82.0157 71.2428 80.8909 90.5437" stroke="#DADFF5" stroke-width="4"/>
<path id="Vector 4359" opacity="0.5" d="M1 120.204L20.7739 128.01L33.2627 125.408L42.1089 118.643L78.5345 113.96H61.3624H33.2627L27.5386 111.879L22.8554 113.96L11.4073 111.879L1 120.204Z" fill="#D9D9D9" stroke="#D9D9D9"/>
<g id="Vector 256">
<path d="M66.729 109.989L59.2812 88.7113C61.6684 86.6796 99.2657 87.2337 101.951 89.0834C101.564 91.7231 98.2483 98.195 94.766 110.281C94.5918 110.886 94.1514 111.385 93.5413 111.54C88.0268 112.935 73.204 112.505 67.9331 111.149C67.3566 111.001 66.9256 110.551 66.729 109.989Z" fill="#8693CB"/>
<path d="M59.2812 88.7113L66.729 109.989C66.9256 110.551 67.3566 111.001 67.9331 111.149C73.204 112.505 88.0268 112.935 93.5413 111.54C94.1514 111.385 94.5918 110.886 94.766 110.281C98.2483 98.195 101.564 91.7231 101.951 89.0834M59.2812 88.7113C63.1603 90.5584 98.6689 91.1125 101.951 89.0834M59.2812 88.7113C61.6684 86.6796 99.2657 87.2337 101.951 89.0834" stroke="#8693CB" stroke-width="4"/>
</g>
</g>
</svg>
