<svg width="225" height="49" viewBox="0 0 225 49" fill="none" xmlns="http://www.w3.org/2000/svg">
<g id="UI/UX label">
<g id="Rectangle 27" filter="url(#filter0_d_306_60)">
<rect x="4" width="216" height="41" rx="10" fill="#EFAD92"/>
</g>
<path id="The Problem" d="M40.56 5.15477L52.56 4.39477C52.9067 4.39477 53.24 4.72811 53.56 5.39478C53.56 6.40811 52.3867 6.91477 50.04 6.91477L43.04 7.31477L42.88 7.39477C43.5467 11.7414 43.88 19.9948 43.88 32.1548C43.7467 33.3281 43.32 33.9148 42.6 33.9148C41.9067 33.9148 41.5067 33.3814 41.4 32.3148V23.0348C41.4 16.8481 41.12 11.6881 40.56 7.55477C35.7867 8.00811 33.4 8.54144 33.4 9.15477L33.04 9.31477C32.2133 9.07477 31.8 8.64811 31.8 8.03477C31.8 6.56811 34.72 5.60811 40.56 5.15477ZM51.4322 8.31477C52.1789 8.31477 52.5522 9.22144 52.5522 11.0348L53.0322 17.9148H53.1922L55.1922 17.1548C57.4322 17.1548 58.7922 19.4481 59.2722 24.0348C59.4589 25.3414 59.5522 27.2614 59.5522 29.7948V33.0348C59.5522 34.0481 59.1789 34.5548 58.4322 34.5548H58.2722C57.5522 34.4481 57.1922 34.0614 57.1922 33.3948V29.6348C57.1922 23.6081 56.6055 20.2748 55.4322 19.6348H55.1922C54.3922 19.6348 53.8055 20.8614 53.4322 23.3148V25.5548C53.4322 29.5548 53.0989 31.5548 52.4322 31.5548L51.6722 31.6348C50.9255 31.6348 50.5522 30.5281 50.5522 28.3148C50.6322 25.9681 50.7922 24.0481 51.0322 22.5548L50.1922 9.39477C50.1922 8.70144 50.6055 8.34144 51.4322 8.31477ZM65.0319 16.0348C66.0985 16.0614 67.8985 17.9281 70.4319 21.6348L70.5119 22.3148C70.5119 23.0614 68.6852 23.6348 65.0319 24.0348L64.9119 24.1548V24.3148C65.4719 26.7148 66.0585 27.9148 66.6719 27.9148H67.1519C68.0052 27.9148 69.2985 26.9948 71.0319 25.1548H71.2719C71.8052 25.1548 72.2185 25.5414 72.5119 26.3148C72.5119 26.9548 71.3919 28.0614 69.1519 29.6348C68.5652 29.9814 67.8585 30.2348 67.0319 30.3948C64.8719 30.3948 63.3652 28.3681 62.5119 24.3148C61.2852 24.1281 60.6719 23.6214 60.6719 22.7948C60.6719 22.2081 61.1252 21.8214 62.0319 21.6348V21.7948L62.4319 21.6348V20.6348C62.4319 17.5681 63.2985 16.0348 65.0319 16.0348ZM65.2719 18.9148H64.9119L64.7519 20.3948V21.6348H64.9119C66.4052 21.5814 67.1519 21.4214 67.1519 21.1548C66.4585 20.1148 65.8319 19.3681 65.2719 18.9148ZM96.5272 4.11478H97.1672C101.514 4.11478 104.301 5.68811 105.527 8.83477L105.647 10.1148V10.5148C105.647 13.6081 103.767 16.4748 100.007 19.1148C99.1005 19.3814 98.6472 19.6748 98.6472 19.9948C99.7139 24.0748 100.247 27.4081 100.247 29.9948V30.5148C100.247 31.5814 99.8072 32.1148 98.9272 32.1148C98.2605 32.0348 97.9272 31.7014 97.9272 31.1148V30.1148C97.9272 27.0481 97.3672 23.7148 96.2472 20.1148C94.0872 19.9281 92.8872 19.3414 92.6472 18.3548V18.1148C92.6472 17.6348 93.0205 17.2614 93.7672 16.9948L95.5272 17.5948V17.5148C94.6205 13.5681 94.1672 10.9014 94.1672 9.51477C94.1672 8.74144 94.6205 8.35478 95.5272 8.35478C96.3539 8.35478 96.7672 9.76811 96.7672 12.5948L97.9272 17.3548C99.8472 16.7148 101.341 15.4614 102.407 13.5948C102.967 12.5281 103.247 11.5814 103.247 10.7548V10.2348C103.247 8.04811 101.381 6.80811 97.6472 6.51478H96.0072C92.3539 6.91477 90.5272 7.78144 90.5272 9.11478V9.35477C90.5272 9.75477 90.7405 10.3814 91.1672 11.2348C91.1672 11.8214 90.7005 12.1948 89.7672 12.3548C88.7005 11.8481 88.1672 10.8081 88.1672 9.23477C88.1672 6.30144 90.9539 4.59477 96.5272 4.11478ZM112.61 14.6348C114.29 14.6348 115.29 15.8081 115.61 18.1548V18.5148C115.61 21.1014 114.277 23.4748 111.61 25.6348C113.157 27.1548 115.864 27.9148 119.73 27.9148C120.317 28.1014 120.61 28.5148 120.61 29.1548C120.61 29.8748 120.144 30.2348 119.21 30.2348C116.597 30.2348 113.85 29.5681 110.97 28.2348V29.3948C110.97 32.1414 110.384 33.5148 109.21 33.5148C108.384 33.5148 107.97 31.9281 107.97 28.7548V25.6348L107.85 24.5148L108.13 23.2348L107.85 19.3948V19.2348C107.85 18.5148 108.224 18.0214 108.97 17.7548C110.01 15.6748 111.224 14.6348 112.61 14.6348ZM110.61 23.3948C111.384 23.3948 112.25 22.0081 113.21 19.2348V17.5148L112.73 16.9948H112.37C111.197 17.7948 110.61 19.9281 110.61 23.3948ZM128.34 15.3148C130.313 15.3148 131.806 16.7814 132.82 19.7148L132.98 20.5548C132.98 23.4081 131.646 26.3281 128.98 29.3148C127.913 30.3014 126.833 30.7948 125.74 30.7948C124.14 30.7948 123.006 29.8748 122.34 28.0348C122.1 27.1814 121.98 26.4348 121.98 25.7948V25.3148C121.98 21.1014 123.513 17.9014 126.58 15.7148C127.113 15.4481 127.7 15.3148 128.34 15.3148ZM124.34 25.7148C124.34 27.5281 124.806 28.4348 125.74 28.4348C127.686 28.4348 129.3 25.9414 130.58 20.9548V20.1948C130.126 18.5414 129.286 17.7148 128.06 17.7148C127.58 17.7148 127.34 18.0481 127.34 18.7148C127.34 19.1681 126.806 19.5281 125.74 19.7948C124.806 21.3681 124.34 23.3414 124.34 25.7148ZM135.072 11.3948C136.459 11.3948 137.352 14.1148 137.752 19.5548L137.992 20.7948C139.219 18.2881 140.219 17.0348 140.992 17.0348C140.992 16.9281 141.272 16.8481 141.832 16.7948H141.992C143.752 16.7948 144.872 18.1681 145.352 20.9148V21.0348C145.352 23.3814 144.179 25.9681 141.832 28.7948C140.846 29.8614 139.766 30.3948 138.592 30.3948C137.259 30.1014 136.592 29.4348 136.592 28.3948L134.592 14.0348L133.992 12.5548C133.992 12.0748 134.352 11.6881 135.072 11.3948ZM139.232 27.6348H139.352C140.739 27.0748 141.952 25.1681 142.992 21.9148V20.3948C142.752 19.5681 142.446 19.1548 142.072 19.1548H141.752C140.579 19.8481 139.739 22.6748 139.232 27.6348ZM149.649 8.35478C150.396 8.62144 150.769 9.03477 150.769 9.59477L151.169 24.8348V29.7548C151.169 30.6614 150.783 31.1148 150.009 31.1148H149.489C149.009 30.7948 148.769 30.4214 148.769 29.9948V25.3548L148.409 9.51477C148.409 8.84811 148.823 8.46144 149.649 8.35478ZM157.649 16.0348C158.716 16.0614 160.516 17.9281 163.049 21.6348L163.129 22.3148C163.129 23.0614 161.302 23.6348 157.649 24.0348L157.529 24.1548V24.3148C158.089 26.7148 158.676 27.9148 159.289 27.9148H159.769C160.622 27.9148 161.916 26.9948 163.649 25.1548H163.889C164.422 25.1548 164.836 25.5414 165.129 26.3148C165.129 26.9548 164.009 28.0614 161.769 29.6348C161.182 29.9814 160.476 30.2348 159.649 30.3948C157.489 30.3948 155.982 28.3681 155.129 24.3148C153.902 24.1281 153.289 23.6214 153.289 22.7948C153.289 22.2081 153.742 21.8214 154.649 21.6348V21.7948L155.049 21.6348V20.6348C155.049 17.5681 155.916 16.0348 157.649 16.0348ZM157.889 18.9148H157.529L157.369 20.3948V21.6348H157.529C159.022 21.5814 159.769 21.4214 159.769 21.1548C159.076 20.1148 158.449 19.3681 157.889 18.9148ZM167.306 16.3948C167.493 15.7281 167.92 15.3948 168.586 15.3948C169.253 15.3948 169.693 16.0614 169.906 17.3948H170.066L171.906 16.9948C172.76 16.9948 173.586 17.7948 174.386 19.3948H174.546C175.72 17.5548 176.92 16.6348 178.146 16.6348C180.76 17.1148 182.066 18.8214 182.066 21.7548L182.146 23.1548L181.786 31.2348V31.9948C181.786 32.6614 181.373 33.0481 180.546 33.1548C179.72 33.1548 179.306 32.1814 179.306 30.2348L179.786 22.9948C179.786 20.3281 179.16 18.9948 177.906 18.9948C177.186 18.9948 176.32 20.7414 175.306 24.2348C174.8 28.2348 174.386 30.2348 174.066 30.2348C173.613 30.2348 173.386 30.3281 173.386 30.5148C172.56 30.4081 172.146 29.9814 172.146 29.2348L172.666 24.3948C172.586 21.0614 172.253 19.3948 171.666 19.3948H171.546C170.88 19.9014 170.546 20.9014 170.546 22.3948V24.5148L170.386 30.6348C170.2 31.3014 169.786 31.6348 169.146 31.6348C168.586 31.6348 168.226 31.1681 168.066 30.2348L167.906 25.5148L168.146 21.6348C167.986 19.6348 167.706 17.8881 167.306 16.3948Z" fill="#AF371C"/>
</g>
<defs>
<filter id="filter0_d_306_60" x="0" y="0" width="224" height="49" filterUnits="userSpaceOnUse" color-interpolation-filters="sRGB">
<feFlood flood-opacity="0" result="BackgroundImageFix"/>
<feColorMatrix in="SourceAlpha" type="matrix" values="0 0 0 0 0 0 0 0 0 0 0 0 0 0 0 0 0 0 127 0" result="hardAlpha"/>
<feOffset dy="4"/>
<feGaussianBlur stdDeviation="2"/>
<feComposite in2="hardAlpha" operator="out"/>
<feColorMatrix type="matrix" values="0 0 0 0 0 0 0 0 0 0 0 0 0 0 0 0 0 0 0.1 0"/>
<feBlend mode="normal" in2="BackgroundImageFix" result="effect1_dropShadow_306_60"/>
<feBlend mode="normal" in="SourceGraphic" in2="effect1_dropShadow_306_60" result="shape"/>
</filter>
</defs>
</svg>
