<svg width="315" height="43" viewBox="0 0 315 43" fill="none" xmlns="http://www.w3.org/2000/svg">
<g id="UI/UX label">
<g id="Rectangle 27" filter="url(#filter0_d_322_968)">
<rect width="301" height="42.6626" rx="10" fill="#E3EADB"/>
</g>
<path id="User Testing" d="M74.88 12C74.88 8.16 75.4667 6.24 76.64 6.24C77.8133 6.24 78.4 8.41333 78.4 12.76L77.88 18.64C77.88 23.6533 78.5467 27.52 79.88 30.24V30.4C79.88 30.9333 79.52 31.2667 78.8 31.4H78.64C77.6533 31.3467 76.7867 29.4667 76.04 25.76H75.88C74.4933 29.92 72.72 32 70.56 32C68.4 32 67.0133 30.2533 66.4 26.76L66.28 24.4V23.64L66.88 14.52V12.76C66.88 12.2267 67.1867 11.8133 67.8 11.52H68.16C68.9067 11.52 69.28 12.0133 69.28 13V13.24L68.64 23.92V25.4C68.64 27.5333 69.1467 28.9467 70.16 29.64H70.88C72.24 28.8133 73.5467 26.0133 74.8 21.24L75.4 18.52L74.88 12ZM90.0891 13.8C90.8091 13.8 91.3024 15.0133 91.5691 17.44C91.3024 18.1067 90.8624 18.44 90.2491 18.44C89.8224 18.36 89.3957 17.8667 88.9691 16.96L88.2491 16.72C86.9957 16.72 85.8624 17.5467 84.8491 19.2V19.56C84.8491 19.96 86.7291 20.6267 90.4891 21.56C92.0624 22.4933 92.8491 23.6267 92.8491 24.96C92.8491 27.1467 91.0891 29.0133 87.5691 30.56L86.0891 30.8C83.8491 30.56 82.7291 29.44 82.7291 27.44V27.32C82.7291 26.68 83.1424 26.3067 83.9691 26.2C84.6091 26.2 85.0357 26.8667 85.2491 28.2L85.5691 28.44H86.2491C87.7691 28.44 89.1824 27.4 90.4891 25.32V24.8C90.4891 24 88.7424 23.2533 85.2491 22.56C83.4091 21.8133 82.4891 20.7733 82.4891 19.44C82.4891 17.7067 83.9424 16.08 86.8491 14.56C88.1291 14.4 89.2091 14.1467 90.0891 13.8ZM97.9147 15.64C98.9814 15.6667 100.781 17.5333 103.315 21.24L103.395 21.92C103.395 22.6667 101.568 23.24 97.9147 23.64L97.7947 23.76V23.92C98.3547 26.32 98.9414 27.52 99.5547 27.52H100.035C100.888 27.52 102.181 26.6 103.915 24.76H104.155C104.688 24.76 105.101 25.1467 105.395 25.92C105.395 26.56 104.275 27.6667 102.035 29.24C101.448 29.5867 100.741 29.84 99.9147 30C97.7547 30 96.248 27.9733 95.3947 23.92C94.168 23.7333 93.5547 23.2267 93.5547 22.4C93.5547 21.8133 94.008 21.4267 94.9147 21.24V21.4L95.3147 21.24V20.24C95.3147 17.1733 96.1814 15.64 97.9147 15.64ZM98.1547 18.52H97.7947L97.6347 20V21.24H97.7947C99.288 21.1867 100.035 21.0267 100.035 20.76C99.3414 19.72 98.7147 18.9733 98.1547 18.52ZM112.212 14.24C113.892 14.24 114.892 15.4133 115.212 17.76V18.12C115.212 20.7067 113.879 23.08 111.212 25.24C112.759 26.76 115.465 27.52 119.332 27.52C119.919 27.7067 120.212 28.12 120.212 28.76C120.212 29.48 119.745 29.84 118.812 29.84C116.199 29.84 113.452 29.1733 110.572 27.84V29C110.572 31.7467 109.985 33.12 108.812 33.12C107.985 33.12 107.572 31.5333 107.572 28.36V25.24L107.452 24.12L107.732 22.84L107.452 19V18.84C107.452 18.12 107.825 17.6267 108.572 17.36C109.612 15.28 110.825 14.24 112.212 14.24ZM110.212 23C110.985 23 111.852 21.6133 112.812 18.84V17.12L112.332 16.6H111.972C110.799 17.4 110.212 19.5333 110.212 23ZM144.419 4.76L156.419 4C156.766 4 157.099 4.33333 157.419 5C157.419 6.01333 156.246 6.52 153.899 6.52L146.899 6.92L146.739 7C147.406 11.3467 147.739 19.6 147.739 31.76C147.606 32.9333 147.179 33.52 146.459 33.52C145.766 33.52 145.366 32.9867 145.259 31.92V22.64C145.259 16.4533 144.979 11.2933 144.419 7.16C139.646 7.61333 137.259 8.14667 137.259 8.76L136.899 8.92C136.073 8.68 135.659 8.25333 135.659 7.64C135.659 6.17333 138.579 5.21333 144.419 4.76ZM157.212 15.64C158.278 15.6667 160.078 17.5333 162.612 21.24L162.692 21.92C162.692 22.6667 160.865 23.24 157.212 23.64L157.092 23.76V23.92C157.652 26.32 158.238 27.52 158.852 27.52H159.332C160.185 27.52 161.478 26.6 163.212 24.76H163.452C163.985 24.76 164.398 25.1467 164.692 25.92C164.692 26.56 163.572 27.6667 161.332 29.24C160.745 29.5867 160.038 29.84 159.212 30C157.052 30 155.545 27.9733 154.692 23.92C153.465 23.7333 152.852 23.2267 152.852 22.4C152.852 21.8133 153.305 21.4267 154.212 21.24V21.4L154.612 21.24V20.24C154.612 17.1733 155.478 15.64 157.212 15.64ZM157.452 18.52H157.092L156.932 20V21.24H157.092C158.585 21.1867 159.332 21.0267 159.332 20.76C158.638 19.72 158.012 18.9733 157.452 18.52ZM174.269 13.8C174.989 13.8 175.482 15.0133 175.749 17.44C175.482 18.1067 175.042 18.44 174.429 18.44C174.002 18.36 173.575 17.8667 173.149 16.96L172.429 16.72C171.175 16.72 170.042 17.5467 169.029 19.2V19.56C169.029 19.96 170.909 20.6267 174.669 21.56C176.242 22.4933 177.029 23.6267 177.029 24.96C177.029 27.1467 175.269 29.0133 171.749 30.56L170.269 30.8C168.029 30.56 166.909 29.44 166.909 27.44V27.32C166.909 26.68 167.322 26.3067 168.149 26.2C168.789 26.2 169.215 26.8667 169.429 28.2L169.749 28.44H170.429C171.949 28.44 173.362 27.4 174.669 25.32V24.8C174.669 24 172.922 23.2533 169.429 22.56C167.589 21.8133 166.669 20.7733 166.669 19.44C166.669 17.7067 168.122 16.08 171.029 14.56C172.309 14.4 173.389 14.1467 174.269 13.8ZM183.214 5.72C183.961 5.88 184.334 6.25333 184.334 6.84L184.094 8.6V9.12C184.094 10.2933 184.228 11.5333 184.494 12.84H184.574C187.668 11.9067 189.588 11.44 190.334 11.44C191.108 11.6533 191.494 12.04 191.494 12.6C191.494 13.5067 190.574 13.96 188.734 13.96L184.574 15.44C184.574 19.04 184.961 23.9333 185.734 30.12C185.574 30.84 185.188 31.2 184.574 31.2H184.494C183.561 31.2 183.094 30 183.094 27.6C182.748 25.8133 182.454 21.9333 182.214 15.96H181.494C178.988 15.8 177.734 15.2133 177.734 14.2C177.734 13.9067 178.014 13.5467 178.574 13.12H178.974L180.814 13.6H182.094L181.734 8.6C181.734 6.68 182.228 5.72 183.214 5.72ZM193.193 9.16C194.206 9.37333 194.713 9.82667 194.713 10.52C194.446 11.2667 194.02 11.64 193.433 11.64C192.446 11.4533 191.953 10.96 191.953 10.16C192.22 9.49333 192.633 9.16 193.193 9.16ZM194.713 14.76C195.14 14.76 195.5 15.1467 195.793 15.92L195.433 18.76V20.64C195.433 22.8267 195.806 25.6933 196.553 29.24C196.286 29.7467 195.833 30 195.193 30C194.1 30 193.38 26.8 193.033 20.4V19C193.033 16.1733 193.593 14.76 194.713 14.76ZM203.812 16.52C206.078 16.7067 207.212 17.8133 207.212 19.84L207.292 20.36L207.212 26.6C207.212 27.32 207.625 28.2933 208.452 29.52V29.6C208.238 30.3733 207.852 30.76 207.292 30.76C205.638 30.0667 204.812 28.6 204.812 26.36V25.84L204.692 25.76L204.812 25.6V25.52L204.932 20C204.932 19.2267 204.598 18.84 203.932 18.84H203.452C202.118 19.3733 201.452 22.2933 201.452 27.6C201.452 29.44 200.985 30.36 200.052 30.36C199.332 30.36 198.958 29.9067 198.932 29V25C198.932 19.8267 199.385 17.24 200.292 17.24L200.692 17.12L201.532 17.24C202.252 16.76 203.012 16.52 203.812 16.52ZM216.145 14.64C217.372 14.64 217.985 15.2267 217.985 16.4C218.145 16.4 218.225 16.6 218.225 17H218.385L218.225 18.16L218.385 26.24L218.145 32.64C220.545 32.64 222.159 34.4 222.985 37.92C222.985 38.64 222.492 39.0533 221.505 39.16C221.052 39.16 220.545 38.16 219.985 36.16C219.452 35.3867 218.839 35 218.145 35H217.985C217.132 40.68 216.385 43.52 215.745 43.52C214.972 44.9333 213.852 45.64 212.385 45.64C210.225 45.1333 209.145 44.0533 209.145 42.4V42.16C209.145 39.6533 210.932 36.9333 214.505 34L215.745 33.24L215.905 28.92V27.92H215.745C214.839 29.0667 213.972 29.64 213.145 29.64H212.905C211.065 29.64 210.012 28.2267 209.745 25.4V24.52C209.745 21.1067 210.999 18.1467 213.505 15.64C214.279 14.9733 215.159 14.64 216.145 14.64ZM212.145 24V25.92C212.252 26.8 212.452 27.24 212.745 27.24H213.145C213.892 27.24 214.812 24.4933 215.905 19V17C214.305 17 213.052 19.3333 212.145 24ZM211.505 42.24C211.612 42.9067 211.985 43.24 212.625 43.24C213.905 43.24 214.825 40.96 215.385 36.4H215.145C212.719 38.5067 211.505 40.4533 211.505 42.24Z" fill="#63734E"/>
</g>
<defs>
<filter id="filter0_d_322_968" x="-4" y="0" width="309" height="50.6626" filterUnits="userSpaceOnUse" color-interpolation-filters="sRGB">
<feFlood flood-opacity="0" result="BackgroundImageFix"/>
<feColorMatrix in="SourceAlpha" type="matrix" values="0 0 0 0 0 0 0 0 0 0 0 0 0 0 0 0 0 0 127 0" result="hardAlpha"/>
<feOffset dy="4"/>
<feGaussianBlur stdDeviation="2"/>
<feComposite in2="hardAlpha" operator="out"/>
<feColorMatrix type="matrix" values="0 0 0 0 0 0 0 0 0 0 0 0 0 0 0 0 0 0 0.1 0"/>
<feBlend mode="normal" in2="BackgroundImageFix" result="effect1_dropShadow_322_968"/>
<feBlend mode="normal" in="SourceGraphic" in2="effect1_dropShadow_322_968" result="shape"/>
</filter>
</defs>
</svg>
