<svg width="351" height="214" viewBox="0 0 351 214" fill="none" xmlns="http://www.w3.org/2000/svg">
<g id="Fan Blowing Hair">
<g id="fanCenter">
<g id="Vector">
<path d="M100.572 85.5212C100.572 75.4586 89.9179 71.2658 85.0752 72.1043C81.0396 72.5236 72.7748 75.9617 72 86.3597C72.7748 97.7641 83.6224 99.7766 88.9493 99.3573C92.8235 98.938 100.572 95.5838 100.572 85.5212Z" fill="#020001"/>
<path d="M98.1504 85.3815C98.1504 77.6847 90.2052 74.4777 86.5937 75.1191C83.5841 75.4398 77.4205 78.0695 76.8427 86.0229C77.4205 94.7459 85.5102 96.2852 89.4829 95.9645C92.372 95.6438 98.1504 93.0782 98.1504 85.3815Z" fill="#020001"/>
<path d="M100.572 85.5212C100.572 75.4586 89.9179 71.2658 85.0752 72.1043C81.0396 72.5236 72.7748 75.9617 72 86.3597C72.7748 97.7641 83.6224 99.7766 88.9493 99.3573C92.8235 98.938 100.572 95.5838 100.572 85.5212Z" stroke="#9CAFFE" stroke-width="2"/>
<path d="M98.1504 85.3815C98.1504 77.6847 90.2052 74.4777 86.5937 75.1191C83.5841 75.4398 77.4205 78.0695 76.8427 86.0229C77.4205 94.7459 85.5102 96.2852 89.4829 95.9645C92.372 95.6438 98.1504 93.0782 98.1504 85.3815Z" stroke="#9CAFFE" stroke-width="2"/>
</g>
</g>
<g id="fanBody">
<path id="Ellipse 25" d="M126 81.5V81.5474L126.004 81.5947C127.002 92.0831 122.915 104.357 115.773 114.314C108.629 124.275 98.5673 131.729 87.79 132.837C75.6287 134.087 62.9418 127.733 53.1093 117.958C43.2863 108.191 36.5067 95.1968 36 83.4787C36.0063 72.5435 40.8306 61.2842 48.53 52.7524C56.2327 44.217 66.729 38.5 78 38.5C89.3258 38.5 101.35 43.7653 110.553 51.8343C119.762 59.9081 126 70.6554 126 81.5Z" stroke="#9CAFFE" stroke-width="2"/>
<path id="Vector 166" d="M70.1803 129C70.3469 136.167 70.3803 150.7 69.1803 151.5C67.6803 152.5 55.1803 157.5 52.6803 159.5C50.5777 161.182 39.1803 173 87.1803 173C129.18 169.5 106.68 157.5 98.1803 155.5C90.9803 150.3 86.5136 149 85.1803 149L83 133" stroke="#9CAFFE" stroke-width="2"/>
</g>
<g id="blades">
<path id="Vector 170" d="M74.6851 99C66.7584 104.043 56.2555 115.901 77.6577 122.986C98.5843 123.282 101.834 118.681 100.843 116.344C97.0782 113.392 89.5478 107.045 89.5478 105.273" stroke="#9CAFFE" stroke-width="2"/>
<path id="Vector 169" d="M76 69.377C74.7722 62.8675 69.4516 50.2823 58.4011 55.056C46.1227 63.7354 46.532 66.7732 47.3505 78.0565C49.3969 81.9622 57.9918 83.6981 60.0382 84.1321L68.633 85" stroke="#9CAFFE" stroke-width="2"/>
<path id="Vector 171" d="M93.9111 66.5576C95.1912 62.6066 98.5999 55.1492 101.994 56.9275C106.236 59.1503 128.764 68.3683 114.912 85.6329C110.275 87.5078 106.405 87.6594 105.049 87.5008" stroke="#9CAFFE" stroke-width="2"/>
</g>
<g id="buttons">
<path id="Vector 172" d="M77 155.985V160H70V157.77V155.985C72.4 154.201 75.6667 155.242 77 155.985Z" fill="#020001" stroke="#020001" stroke-width="2"/>
<g id="Vector 173">
<path d="M87 156.788V160H80.4667V158.216V156.788C82.7067 155.361 85.7556 156.193 87 156.788Z" fill="#9CAFFE"/>
<path d="M80 160H80.4667M80.4667 160H87V156.788C85.7556 156.193 82.7067 155.361 80.4667 156.788C80.4667 158.787 80.4667 158.573 80.4667 158.216V160Z" stroke="#9CAFFE"/>
</g>
</g>
<g id="headphones">
<g id="Vector 49">
<path d="M243.736 29.0325C209.551 27.0191 191.219 54.6425 187.514 67.8369C190.432 68.6666 191.439 68.4506 193.634 69.9856C195.776 59.0506 207.873 36.7525 239.121 35.0404C270.369 33.3284 285.472 52.0832 287.473 62.0745C287.28 60.6338 292.723 62.1338 293.645 63.3783C290.945 50.7376 275.178 26.539 243.736 29.0325Z" fill="#020001"/>
<path d="M187.27 75.7182C186.893 73.8047 187.015 68.0645 187.514 67.8369M187.514 67.8369C191.219 54.6425 209.551 27.0191 243.736 29.0325C275.178 26.539 290.945 50.7376 293.645 63.3783M187.514 67.8369C190.432 68.6666 191.439 68.4506 193.634 69.9856M293.645 63.3783C292.723 62.1338 287.28 60.6338 287.473 62.0745M293.645 63.3783L293.9 68.8659M287.473 62.0745C288.068 66.5245 288.075 66.7389 288.508 67.7915L289.341 69.3929M287.473 62.0745C285.472 52.0832 270.369 33.3284 239.121 35.0404C207.873 36.7525 195.776 59.0506 193.634 69.9856M193.634 69.9856L193.324 74.492" stroke="#020001" stroke-width="4"/>
</g>
<path id="Vector 52" d="M304.305 86.0102C304.091 68.2891 289.993 69.0165 284.822 69.186C290.07 80.42 288.267 95.109 286.71 101.049C289.583 102.18 304.479 100.481 304.305 86.0102Z" stroke="#020001" stroke-width="3"/>
<path id="Vector 53" d="M174.221 93.8761C172.787 76.2117 186.892 75.6264 192.056 75.3147C187.874 86.9877 191.034 101.446 193.137 107.216C190.381 108.608 175.391 108.3 174.221 93.8761Z" stroke="#020001" stroke-width="3"/>
</g>
<g id="smile">
<path id="Vector 55" d="M241.643 92.2343L247.187 93.1145L251.867 90.4599" stroke="#9CAFFE" stroke-width="2"/>
<path id="Vector 56" d="M241.292 89.7029C241.961 90.5168 242.797 92.4109 240.791 93.4763" stroke="#9CAFFE" stroke-width="2"/>
</g>
<g id="brows">
<path id="rightBRow" d="M260.35 78.2556C258.654 77.9568 257.757 76.6595 261.044 76.3495C264.138 76.035 263.104 75.9804 266.499 75.7901C269.894 75.5997 269.113 77.5299 267.663 77.7698C265.932 78.0563 262.045 78.5544 260.35 78.2556Z" fill="#020001" stroke="#020001" stroke-width="3"/>
<g id="leftBrow">
<path id="Vector 62" d="M225.169 80.0033C226.635 79.3908 227.146 77.9612 224.099 78.2856C221.225 78.5688 222.148 78.3193 219.03 78.7803C215.912 79.2414 217.067 80.9659 218.435 80.9229C220.069 80.8716 223.703 80.6157 225.169 80.0033Z" fill="#020001" stroke="#020001" stroke-width="3"/>
</g>
</g>
<g id="hair">
<g id="Vector 59">
<path d="M197.932 63.6521C194.787 65.1951 194.753 74.7539 194.842 78.1135L197.399 75.3805L200.363 73.2222L205.924 68.307L208.364 65.8497L204.905 62.7052C203.556 61.3282 201.078 62.109 197.932 63.6521Z" fill="#9CAFFE"/>
<path d="M209.936 65.2208L203.522 59.2697C201.76 55.7231 208.838 56.156 210.898 56.8143C210.529 56.2158 210.714 54.7471 214.406 53.6605C218.097 52.574 220.594 53.425 221.38 53.9863L220.233 58.824L213.593 62.2568L209.936 65.2208Z" fill="#9CAFFE"/>
<path d="M224.367 55.6144C224.667 53.3146 222.371 52.1091 221.185 51.7938C222.281 49.9281 225.307 49.6375 226.683 49.7254L234.222 52.8422L225.502 57.7232C224.998 57.9785 224.066 57.9142 224.367 55.6144Z" fill="#9CAFFE"/>
<path d="M237.223 53.4074L235.407 52.0137C234.149 50.4414 237.223 48.8691 240.012 46.9595C242.805 45.0474 247.216 46.3177 249.548 47.6884L245.469 52.8422L237.223 53.4074Z" fill="#9CAFFE"/>
<path d="M247.042 53.9863L253.933 47.2977C259.696 46.7843 260.637 50.4889 260.386 52.4054L257.192 55.5313L256.475 56.7306C255.722 58.3355 250.815 56.1016 249.872 55.7872C249.156 55.5485 247.371 55.3249 247.042 53.9863Z" fill="#9CAFFE"/>
<path d="M275.343 57.6739C271.68 63.0817 260.766 60.9903 260.386 56.7306C260.096 53.4756 261.927 53.1465 263.125 52.4567C268.946 48.1292 268.843 51.652 272.741 52.8832C276.249 52.5707 275.584 55.653 275.343 57.6739C280.109 54.4711 283.382 60.6381 283.833 63.3341L284.776 73.2222L277.101 66.3857L272.326 62.3913L275.343 57.6739Z" fill="#9CAFFE"/>
<path d="M264.145 52.0706C263.852 52.1215 263.494 52.2437 263.125 52.4567M275.343 57.6739C271.68 63.0817 260.766 60.9903 260.386 56.7306C260.096 53.4756 261.927 53.1465 263.125 52.4567M275.343 57.6739C275.584 55.653 276.249 52.5707 272.741 52.8832C268.843 51.652 268.946 48.1292 263.125 52.4567M275.343 57.6739C280.109 54.4711 283.382 60.6381 283.833 63.3341L284.776 73.2222L277.101 66.3857L272.326 62.3913L275.343 57.6739ZM193.004 96.9241C205.306 110.982 215.636 114.021 244.5 110.817M194.842 78.1135C194.753 74.7539 194.787 65.1951 197.932 63.6521C201.078 62.109 203.556 61.3282 204.905 62.7052L208.364 65.8497L205.924 68.307L200.363 73.2222L197.399 75.3805L194.842 78.1135ZM203.522 59.2697L209.936 65.2208L213.593 62.2568L220.233 58.824L221.38 53.9863C220.594 53.425 218.097 52.574 214.406 53.6605C210.714 54.7471 210.529 56.2158 210.898 56.8143C208.838 56.156 201.76 55.7231 203.522 59.2697ZM221.185 51.7938C222.371 52.1091 224.667 53.3146 224.367 55.6144C224.066 57.9142 224.998 57.9785 225.502 57.7232L234.222 52.8422L226.683 49.7254C225.307 49.6375 222.281 49.9281 221.185 51.7938ZM235.407 52.0137L237.223 53.4074L245.469 52.8422L249.548 47.6884C247.216 46.3177 242.805 45.0474 240.012 46.9595C237.223 48.8691 234.149 50.4414 235.407 52.0137ZM253.933 47.2977L247.042 53.9863C247.371 55.3249 249.156 55.5485 249.872 55.7872C250.815 56.1016 255.722 58.3355 256.475 56.7306L257.192 55.5313L260.386 52.4054C260.637 50.4889 259.696 46.7843 253.933 47.2977Z" stroke="#9CAFFE"/>
</g>
</g>
<g id="hair-bottom">
<path id="Vector 174" d="M194.412 99.3088L198.022 94.2828C208.005 105.21 221.591 107.611 242.863 105.456C257.354 107.851 279.052 93.6937 283.564 87.1612C287.553 89.5321 286.746 93.1378 285.844 94.6443C287.506 95.4655 290.469 97.9106 289.027 101.121C295.555 105.473 292.97 110.258 290.862 112.107C291.918 111.933 293.849 111.985 293.129 113.591C294.501 120.08 292.235 119.097 290.881 120.607C290.885 122.606 286.359 123.139 283.64 121.659C282.739 123.666 278.663 122.695 277.302 121.705C275.859 124.116 272.476 122.74 270.965 121.751C271.72 122.246 272.237 123.742 268.258 125.771C267.54 128.976 263.133 128.475 261.019 127.823C261.023 129.657 259.853 132.932 255.142 131.366C252.612 133.784 248.353 131.749 246.539 130.428C246.391 131.929 245.009 134.639 240.661 133.471C236.322 136.702 231.305 133.539 229.339 131.553C227.984 132.73 224.367 134.789 220.743 133.616C218.211 135.234 215.46 132.988 214.401 131.662C212.594 133.342 208.617 136.404 207.166 135.214C206.082 136.422 203.392 134.742 202.183 133.751C200.223 134.598 195.94 135.396 194.483 131.807C191.581 129.428 193.869 127.145 195.376 126.301C195.074 125.803 194.828 124.105 196.271 121.294C193.542 115.314 194.446 114.808 196.241 107.795C194.788 105.806 194.416 101.309 194.412 99.3088Z" fill="#9CAFFE"/>
</g>
<g id="face">
<path id="Vector 54" d="M194.842 98.2161C182.184 79.4834 216.656 59.7489 236.305 52.6426C255.061 53.3384 294.502 64.8187 286.604 90.2146C280.546 109.696 210.665 121.632 194.842 98.2161Z" fill="#F5F5F5" stroke="#9CAFFE" stroke-width="4"/>
</g>
<g id="eyes">
<path id="Vector 152" d="M208.13 91.1333C211.611 95.658 220.598 99.1988 227.833 90.2846C227.902 83.0264 203.958 85.711 208.13 91.1333Z" stroke="black" stroke-width="2"/>
<path id="Vector 153" d="M278.892 85.3098C276.315 90.4041 268.146 95.5578 259.376 88.1482C257.955 81.03 281.98 79.205 278.892 85.3098Z" stroke="black" stroke-width="2"/>
<line id="Line 9" x1="273.757" y1="93.1353" x2="275.161" y2="94.4259" stroke="black"/>
<line id="Line 10" x1="274.79" y1="91.9831" x2="277.554" y2="94.1567" stroke="black"/>
</g>
<g id="pupils">
<ellipse id="Ellipse 17" cx="220.451" cy="92.7173" rx="4.69094" ry="2.55869" transform="rotate(-17.7523 220.451 92.7173)" fill="#020001"/>
<ellipse id="Ellipse 19" cx="217.762" cy="92.2616" rx="2.55869" ry="0.852898" fill="#F5F5F5"/>
<ellipse id="Ellipse 18" cx="270.772" cy="88.4526" rx="4.69094" ry="2.55869" transform="rotate(-17.7523 270.772 88.4526)" fill="#020001"/>
<ellipse id="Ellipse 20" cx="268.083" cy="87.997" rx="2.55869" ry="0.852898" fill="#F5F5F5"/>
</g>
<g id="smile_2">
<path id="Vector 55_2" d="M241.643 92.2343L247.187 93.1145L251.867 90.4599" stroke="#9CAFFE" stroke-width="2"/>
<path id="Vector 56_2" d="M241.292 89.7029C241.961 90.5168 242.797 92.4109 240.791 93.4763" stroke="#9CAFFE" stroke-width="2"/>
</g>
<g id="brows_2">
<path id="rightBRow_2" d="M260.35 78.2556C258.654 77.9568 257.757 76.6595 261.044 76.3495C264.138 76.035 263.104 75.9804 266.499 75.7901C269.894 75.5997 269.113 77.5299 267.663 77.7698C265.932 78.0563 262.045 78.5544 260.35 78.2556Z" fill="#020001" stroke="#020001" stroke-width="3"/>
<g id="leftBrow_2">
<path id="Vector 62_2" d="M225.169 80.0033C226.635 79.3908 227.146 77.9612 224.099 78.2856C221.225 78.5688 222.148 78.3193 219.03 78.7803C215.912 79.2414 217.067 80.9659 218.435 80.9229C220.069 80.8716 223.703 80.6157 225.169 80.0033Z" fill="#020001" stroke="#020001" stroke-width="3"/>
</g>
</g>
<g id="eyes_2">
<path id="Vector 152_2" d="M208.13 91.1333C211.611 95.658 220.598 99.1988 227.833 90.2846C227.902 83.0264 203.958 85.711 208.13 91.1333Z" stroke="black" stroke-width="2"/>
<path id="Vector 153_2" d="M278.892 85.3098C276.315 90.4041 268.146 95.5578 259.376 88.1482C257.955 81.03 281.98 79.205 278.892 85.3098Z" stroke="black" stroke-width="2"/>
<line id="Line 9_2" x1="273.757" y1="93.1353" x2="275.161" y2="94.4259" stroke="black"/>
<line id="Line 10_2" x1="274.79" y1="91.9831" x2="277.554" y2="94.1567" stroke="black"/>
</g>
<g id="pupils_2">
<ellipse id="Ellipse 17_2" cx="220.451" cy="92.7173" rx="4.69094" ry="2.55869" transform="rotate(-17.7523 220.451 92.7173)" fill="#020001"/>
<ellipse id="Ellipse 19_2" cx="217.762" cy="92.2616" rx="2.55869" ry="0.852898" fill="#F5F5F5"/>
<ellipse id="Ellipse 18_2" cx="270.772" cy="88.4526" rx="4.69094" ry="2.55869" transform="rotate(-17.7523 270.772 88.4526)" fill="#020001"/>
<ellipse id="Ellipse 20_2" cx="268.083" cy="87.997" rx="2.55869" ry="0.852898" fill="#F5F5F5"/>
</g>
<g id="neck">
<path id="Vector 150" d="M240 125.352V110H250.661V125.352H240Z" fill="#F5F5F5" stroke="#9CAFFE"/>
</g>
<g id="shirt">
<path id="shirt_2" d="M308 189.75C290.691 190.317 243.683 191.96 194.128 194C183.704 150.104 213.766 128.07 236.735 122.012C240.885 125.605 249.958 130.232 253.049 120C284.044 121.754 303.06 167.636 308 189.75Z" fill="#F14D08"/>
<path id="Vector 155" d="M236.106 150.071C233.872 153.31 233.497 160.343 250.169 162C267.804 159.857 264.088 149.643 262.703 149" stroke="#F5F5F5" stroke-width="2"/>
<path id="Vector 157" d="M251.385 148.262C251.513 148.064 251.938 147.788 252.615 148.262M251 155C251.359 154.679 252.262 154.215 253 154.926" stroke="#F5F5F5"/>
<path id="Vector 158" d="M263.072 148.19C264.058 146.944 263.193 145.027 262.637 144.225C263.623 143.998 263.869 141.581 263.869 140.401C264.038 140.731 264.522 141.605 265.101 142.454C265.464 140.259 265.101 139.976 263.072 137.073C265.391 137.752 265.971 137.025 265.971 136.577C266.551 136.577 265.246 136.634 261.767 134.877C259.158 132.158 254.833 132.092 252.997 132.399L255.389 131.549C255.027 131.384 253.461 131.379 250.098 132.682C251.2 130.983 250.992 129.519 250.75 129C250.557 129.614 249.619 131.365 247.416 133.461C246.952 131.478 243.695 130.652 242.125 130.487C242.222 130.699 242.951 131.592 245.097 133.461C238.834 132.668 235.577 137.804 234.732 140.472L235.457 140.684C234.998 141.038 234.022 142.199 233.79 144.012C232.485 144.791 232.412 148.119 232.412 149.465C231.18 149.323 223.787 151.164 224.005 152.014C224.222 152.864 226.614 154.917 230.238 156.617C229.006 160.087 231.18 160.37 232.702 161.432C231.978 163.486 231.543 163.415 232.702 166.318C234.514 169.221 239.661 168.584 242.995 168.301C243.937 170.284 245.676 172.549 249.663 172.974C252.852 173.314 254.471 170.189 254.882 168.584C254.737 168.49 254.606 168.386 255.244 168.726C260.39 169.505 263.072 166.885 262.71 165.822C262.347 164.76 263.072 163.061 263.362 161.786C263.594 160.766 263.024 160.087 262.71 159.874C262.83 159.685 263.072 158.812 263.072 156.829C272.132 151.377 272.06 148.898 271.987 148.19C271.915 147.482 268.073 147.553 263.072 148.19Z" stroke="#F5F5F5" stroke-width="2"/>
<path id="Ellipse 21" d="M244 148C244 148.966 243.031 150 241.5 150C239.969 150 239 148.966 239 148C239 147.034 239.969 146 241.5 146C243.031 146 244 147.034 244 148Z" fill="#F5F5F5" stroke="#F5F5F5" stroke-width="2"/>
<ellipse id="Ellipse 22" cx="242" cy="147.5" rx="1" ry="1.5" fill="#F14D08"/>
<path id="Ellipse 23" d="M262 147C262 147.966 261.031 149 259.5 149C257.969 149 257 147.966 257 147C257 146.034 257.969 145 259.5 145C261.031 145 262 146.034 262 147Z" fill="#F5F5F5" stroke="#F5F5F5" stroke-width="2"/>
<ellipse id="Ellipse 24" cx="260" cy="146.5" rx="1" ry="1.5" fill="#F14D08"/>
<path id="Vector 160" d="M213.965 171.356C212.281 166.074 209.725 154.04 216.225 150.15" stroke="#F5F5F5" stroke-width="2"/>
<path id="Vector 161" d="M281.721 181.92C282.709 177.685 279.698 156.906 275.518 153.671" stroke="#F5F5F5" stroke-width="2"/>
<path id="Vector 163" d="M263.732 140.18C262.124 139.035 260.516 137.868 259.067 136.557C258.432 135.983 257.874 135.108 257.161 134.642C255.859 133.794 259.389 136.859 260.859 137.434C261.219 137.575 261.585 137.552 261.94 137.667C262.477 137.842 261.297 137.019 261.2 136.96C260.456 136.507 259.681 135.994 258.882 135.629C257.479 134.989 258.921 136.206 259.323 136.622C260.014 137.339 260.822 138.121 261.399 138.92C261.798 139.473 261.568 139.045 261.328 138.765C260.59 137.902 259.139 136.963 258.071 136.493C257.857 136.398 256.079 135.629 256.001 135.882C255.733 136.766 257.04 138.25 257.587 138.894C257.651 138.97 260.859 140.165 260.859 139.686C260.859 138.335 257.467 136.958 256.947 135.74C256.328 134.285 255.611 134.781 254.06 134.805C253.835 134.808 253.301 134.681 253.377 135.012C253.633 136.122 254.346 137.002 255.127 137.843C255.47 138.212 256.367 139.163 256.307 139.712C256.256 140.18 253.029 142.166 254.544 140.647C254.412 139.75 254.903 138.607 255.056 137.726C255.213 136.818 255.718 135.701 255.532 134.766C255.514 134.675 253.862 134.796 253.747 134.824C252.712 135.082 252.82 136.765 253.057 137.486C253.211 137.954 253.614 138.312 253.875 138.726C254.126 139.124 254.283 138.648 254.174 138.395C253.982 137.948 251.686 134.924 251.471 136.467C251.399 136.989 251.276 137.9 251.464 138.414C251.595 138.773 252.283 138.774 252.595 138.894C252.807 138.976 254.291 138.998 253.79 139.505C253.252 140.048 252.913 140.89 252.282 141.329C251.998 141.526 251.583 141.415 251.315 141.634C251.109 141.802 251.044 141.893 250.902 141.634C250.841 141.522 250.894 141.624 250.902 141.66C250.951 141.881 250.77 142.027 250.561 142.095C250.095 142.246 250.942 140.945 250.959 140.92C251.773 139.714 252.514 138.323 253.029 136.986C253.308 136.26 253.572 135.473 252.666 135.097C252.26 134.928 251.888 134.904 251.528 134.597C251.368 134.461 250.601 133.917 251.158 133.877C252.55 133.775 253.916 134.021 255.283 134.104C256.007 134.148 253.841 134.262 253.128 134.389C251.739 134.637 250.319 134.571 248.911 134.571C248.455 134.571 247.986 134.544 247.531 134.578C247.206 134.601 246.776 134.787 246.45 134.662C246.187 134.561 245.971 134.255 245.817 134.045C245.697 133.881 246.262 134.558 246.521 134.714C247.296 135.179 248.07 135.636 248.854 136.09C249.165 136.27 250.801 136.625 250.881 136.953C250.954 137.253 247.814 136.285 247.617 136.194C246.506 135.684 245.154 135.02 244.231 134.234C244.116 134.135 243.789 134.098 243.89 134.104C244.002 134.11 244.064 134.156 244.146 134.221C244.47 134.474 244.863 134.511 245.27 134.584C246.563 134.816 247.775 135.456 249.11 135.506C250.046 135.541 248.436 134.779 248.25 134.681C247.188 134.128 245.704 133.493 244.48 133.299C244.419 133.289 243.854 133.265 244.018 133.286C244.99 133.407 246.189 134.056 247.062 134.454C247.816 134.799 248.611 135.242 249.281 135.714C249.6 135.938 249.377 135.978 249.181 136.168C248.167 137.155 247.811 138.438 247.674 139.745C247.645 140.016 247.304 141.633 248.029 141.387C248.854 141.108 249.889 140.533 250.518 139.959C250.892 139.617 250.162 139.38 249.871 139.316C249.376 139.207 248.88 139.158 248.392 139.018C248.344 139.004 247.507 138.867 247.517 138.894C247.532 138.934 248.211 139.21 248.271 139.245C248.656 139.468 249.102 139.647 249.437 139.933C249.636 140.103 249.536 139.961 249.402 139.875C248.801 139.489 247.952 139.385 247.247 139.271C246.722 139.186 245.173 138.841 244.751 139.355C244.68 139.442 246.478 139.668 246.692 139.686C246.763 139.693 248.12 139.789 247.631 139.881C246.405 140.111 244.988 139.899 243.819 139.531C243.714 139.497 243.033 139.269 243.278 139.245C244.195 139.155 245.27 138.338 245.981 137.856C246.053 137.807 247.29 137.12 247.29 137.051C247.29 137.051 244.738 137.53 244.601 137.551C243.491 137.717 242.513 137.87 241.486 138.258C240.769 138.53 242.983 137.878 243.727 137.674C244.21 137.542 245.481 137.293 245.81 136.882C246.324 136.24 245.283 135.5 244.736 135.305C243.788 134.965 242.95 135.238 242.169 135.714C241.702 135.998 241.103 136.028 240.626 136.33C240.203 136.598 239.829 137.083 239.339 137.233C239.04 137.324 239.171 137.669 239.004 137.908C238.819 138.172 238.547 138.365 238.336 138.609C238.141 138.833 238.083 139.179 237.845 139.362C237.545 139.592 237.609 139.886 237.404 140.206C236.993 140.849 236.546 141.5 236.181 142.166C236.003 142.49 235.953 142.929 235.953 143.289C235.953 143.888 235.935 144.489 235.953 145.087C235.96 145.306 236.086 145.377 235.896 145.081C235.736 144.83 235.72 143.932 235.889 143.685C236.062 143.433 235.632 143.479 235.754 143.334C236.46 142.501 237.026 141.525 237.689 140.654C238.288 139.865 238.965 139.164 239.509 138.336C239.629 138.154 240.24 137.53 239.808 137.661C238.795 137.969 238.334 138.526 237.646 139.154C237.634 139.165 237.605 138.417 237.632 138.252C237.673 137.998 237.987 137.531 238.258 137.401C239.106 136.994 239.494 136.184 240.306 135.649C240.947 135.226 241.92 135.742 242.482 136.045C243.777 136.743 243.296 137.362 242.368 138.304C242.004 138.673 241.545 138.807 241.173 139.154C240.737 139.561 240.455 140.103 240.121 140.582C240.014 140.735 240.12 140.993 239.922 141.088C239.642 141.224 239.355 141.245 239.097 141.465C238.91 141.624 238.697 141.958 238.464 142.043C238.021 142.205 239.191 141.468 239.609 141.257C240.358 140.879 240.921 140.454 241.778 140.245C242.425 140.086 243.1 139.968 243.734 139.803C243.918 139.755 245.354 139.552 244.985 139.972C244.683 140.317 243.651 140.428 243.193 140.582C242.926 140.672 242.634 140.647 242.354 140.647" stroke="#F5F5F5" stroke-width="3" stroke-linecap="round"/>
</g>
</g>
</svg>
