<svg width="120" height="100" viewBox="0 0 120 100" fill="none" xmlns="http://www.w3.org/2000/svg">
<g id="hands">
<g id="orangeGroup">
<g id="orange1" opacity="0.8">
<path d="M52.1324 50.4023L55.4305 49.6977C58.7521 48.9881 59.3741 44.5167 56.3724 42.9274C34.8758 31.3556 23.3954 38.6188 18.3224 47.2687C17.3424 48.9397 16.7273 51.2154 18.263 52.3961C18.622 52.6721 19.0289 52.8952 19.4453 53.0725C20.8293 53.6618 22.3416 53.9273 23.73 54.5061L27.3512 56.0157C30.753 57.4338 34.5577 57.5498 38.0396 56.3417L43.5822 54.4187L46.4171 54.1535C48.8263 53.9281 50.9672 52.523 52.1324 50.4023Z" fill="#F14D08"/>
<path d="M52.1324 50.4023L55.4305 49.6977C58.7521 48.9881 59.3741 44.5167 56.3724 42.9274V42.9274C34.8758 31.3556 23.3954 38.6188 18.3224 47.2687C17.3424 48.9397 16.7273 51.2154 18.263 52.3961C18.622 52.6721 19.0289 52.8952 19.4453 53.0725C20.8293 53.6618 22.3416 53.9273 23.73 54.5061L27.3512 56.0157C30.753 57.4338 34.5577 57.5498 38.0396 56.3417L43.5822 54.4187M52.1324 50.4023L45.4104 46.622M52.1324 50.4023V50.4023C50.9672 52.523 48.8263 53.9281 46.4171 54.1535L43.5822 54.4187M43.5822 54.4187L37.465 50.2513" stroke="#020001" stroke-width="3"/>
</g>
</g>
<g id="purpleGroup">
<g id="purple1" opacity="0.8">
<path d="M53.6284 50.7065L57.1482 49.9546C60.693 49.1972 61.3569 44.4252 58.1534 42.7291C35.0701 30.3032 22.8087 38.2275 17.4462 47.5335C16.479 49.2119 15.8466 51.4633 17.3287 52.7107C17.7863 53.0958 18.3313 53.3923 18.8853 53.6145C20.2813 54.1746 21.7876 54.4487 23.176 55.0274L27.5364 56.8452C30.9382 58.2633 34.743 58.3793 38.2249 57.1712L44.5034 54.9928L47.5289 54.7098C50.1001 54.4693 52.3848 52.9698 53.6284 50.7065Z" fill="#9CAFFE"/>
<path d="M53.6284 50.7065L57.1482 49.9546C60.693 49.1972 61.3569 44.4252 58.1534 42.7291V42.7291C35.0701 30.3032 22.8087 38.2275 17.4462 47.5335C16.479 49.2119 15.8466 51.4633 17.3287 52.7107C17.7863 53.0958 18.3313 53.3923 18.8853 53.6145C20.2813 54.1746 21.7876 54.4487 23.176 55.0274L27.5364 56.8452C30.9382 58.2633 34.743 58.3793 38.2249 57.1712L44.5034 54.9928M53.6284 50.7065L46.4545 46.6721M53.6284 50.7065V50.7065C52.3848 52.9698 50.1001 54.4693 47.5289 54.7098L44.5034 54.9928M44.5034 54.9928L37.975 50.5453" stroke="#020001" stroke-width="2"/>
</g>
<g id="purple2" opacity="0.8">
<path d="M69.2448 53.7825L72.7645 53.0305C76.3094 52.2732 76.9732 47.5012 73.7697 45.8051C50.6864 33.3791 38.4251 41.3035 33.0625 50.6094C32.0953 52.2879 31.4629 54.5393 32.9451 55.7867C33.4026 56.1718 33.9477 56.4682 34.5016 56.6905C35.8976 57.2506 37.4039 57.5246 38.7923 58.1034L43.1528 59.9211C46.5546 61.3392 50.3594 61.4553 53.8413 60.2472L60.1198 58.0688L63.1452 57.7858C65.7164 57.5453 68.0012 56.0457 69.2448 53.7825Z" fill="#9CAFFE"/>
<path d="M69.2448 53.7825L72.7646 53.0305C76.3094 52.2732 76.9732 47.5012 73.7697 45.8051V45.8051C50.6864 33.3791 38.4251 41.3035 33.0625 50.6094C32.0953 52.2879 31.4629 54.5393 32.9451 55.7867C33.4026 56.1718 33.9477 56.4682 34.5016 56.6905C35.8976 57.2506 37.4039 57.5246 38.7923 58.1034L43.1528 59.9211C46.5546 61.3392 50.3594 61.4553 53.8413 60.2472L60.1198 58.0688M69.2448 53.7825L62.0708 49.7481M69.2448 53.7825V53.7825C68.0012 56.0457 65.7164 57.5453 63.1452 57.7858L60.1198 58.0688M60.1198 58.0688L53.5914 53.6213" stroke="#020001" stroke-width="2"/>
</g>
</g>
</g>
</svg>
