<svg width="106" height="91" viewBox="0 0 106 91" fill="none" xmlns="http://www.w3.org/2000/svg">
<g filter="url(#filter0_d_50_923)">
<path d="M68.2735 35.1062C66.4479 34.7771 65.4329 33.2562 68.934 32.843C72.2286 32.4271 71.1211 32.3773 74.7433 32.1039C78.3656 31.8305 77.6126 34.1234 76.0725 34.4277C74.2335 34.791 70.0991 35.4352 68.2735 35.1062Z" fill="#F14D08" stroke="#F14D08" stroke-width="3"/>
<path d="M29.5839 39.8982C27.8117 39.2867 28.3637 37.6776 29.4103 37.6913C30.224 37.654 32.7598 37.6542 36.3937 37.9539C40.0275 38.2535 39.1202 40.1835 37.6771 40.2369C35.8038 40.3061 31.3562 40.5097 29.5839 39.8982Z" fill="#F14D08" stroke="#F14D08" stroke-width="3"/>
<path d="M77.5048 45.79L78.5773 47.1728M78.5773 44.8682L79.4354 45.79" stroke="#F14D08" stroke-width="2"/>
<path d="M75.3597 42.3175C74.1394 45.0715 72.5631 43.72 71.9275 42.7L73.4529 43.0825V42.3175C73.3258 41.8074 73.5292 41.0934 75.3597 42.3175Z" fill="#F14D08" stroke="#F14D08" stroke-width="3"/>
<path d="M31.4192 47.1754C32.6396 49.9295 34.2158 48.5779 34.8514 47.5579L33.326 47.9404V47.1754C33.4531 46.6654 33.2497 45.9513 31.4192 47.1754Z" fill="#F14D08" stroke="#F14D08" stroke-width="3"/>
<path d="M15.511 34.4971C15.3089 33.0834 15.5825 28.8851 15.9401 28.7355M15.9401 28.7355C18.9721 19.2019 32.7438 -0.396892 56.6764 2.24211C78.8302 1.48812 89.1077 19.7416 90.59 29.0881M15.9401 28.7355C17.9612 29.4423 18.6753 29.3185 20.1659 30.5171M90.59 29.0881C89.9836 28.1456 86.2114 26.8618 86.2997 27.9232M90.59 29.0881V33.1143M86.2997 27.9232C86.5725 31.2015 86.5699 31.3586 86.8394 32.144L87.3723 33.3448M86.2997 27.9232C85.2217 20.5403 75.2322 6.29487 53.2401 6.48337C31.248 6.67187 22.0273 22.5844 20.1659 30.5171M20.1659 30.5171L19.8013 33.8057" stroke="#F14D08" stroke-width="3"/>
<path d="M17.7958 57.5598C18.3678 58.6353 19.9409 60.4637 21.657 59.1731C20.5844 53.8723 18.4393 51.3372 21.657 34.7435" stroke="#F14D08" stroke-width="3"/>
<path d="M87.1938 54.6856C86.5206 55.7121 84.7399 57.4076 83.0025 55.9773C84.4697 50.7736 86.8497 49.8017 84.4769 32.9688" stroke="#F14D08" stroke-width="3"/>
<path d="M100.243 46.0205C100.672 33.0393 90.7514 33.0914 87.1158 33.0393C90.4329 41.4427 88.6872 52.1353 87.3996 56.4312C89.3795 57.3569 99.8925 56.6205 100.243 46.0205Z" stroke="#F14D08" stroke-width="3"/>
<path d="M5.75712 47.3462C5.32807 34.3649 15.2486 34.4171 18.8842 34.3649C15.5671 42.7684 17.3128 53.461 18.6004 57.7569C16.6205 58.6826 6.10747 57.9462 5.75712 47.3462Z" stroke="#F14D08" stroke-width="3"/>
<path d="M21.9463 51.9961C13.3114 38.2667 36.8268 23.8031 50.2307 18.5948C63.026 19.1048 89.931 27.5188 84.5435 46.1317C80.4106 60.4101 32.74 69.1578 21.9463 51.9961Z" stroke="#F14D08" stroke-width="3"/>
<path d="M51.3343 46.9424L54.981 48.0947L57.9842 46.0205" stroke="#F14D08" stroke-width="3"/>
<path d="M50.8185 45.329C51.2748 45.9255 51.845 47.3137 50.4764 48.0946" stroke="#F14D08" stroke-width="3"/>
<path d="M24.0543 26.6639C21.9084 27.7948 21.8856 34.8005 21.9463 37.2628L23.6903 35.2598L25.7128 33.6779L29.5059 30.0755L31.1702 28.2745L28.8106 25.9699C27.8906 24.9606 26.2003 25.5329 24.0543 26.6639Z" fill="#F14D08"/>
<path d="M32.2428 27.8136L27.8673 23.452C26.6655 20.8526 31.4935 21.17 32.8993 21.6524C32.6475 21.2137 32.7736 20.1373 35.2919 19.341C37.8102 18.5446 39.5131 19.1683 40.0497 19.5797L39.2669 23.1254L34.7376 25.6413L32.2428 27.8136Z" fill="#F14D08"/>
<path d="M42.0869 20.773C42.2917 19.0875 40.7252 18.2039 39.9164 17.9728C40.6645 16.6055 42.7287 16.3925 43.6672 16.4569L48.8099 18.7412L42.8611 22.3186C42.5177 22.5057 41.8821 22.4585 42.0869 20.773Z" fill="#F14D08"/>
<path d="M50.857 19.1555L49.6182 18.134C48.7602 16.9817 50.857 15.8293 52.7596 14.4297C54.6646 13.0284 57.6739 13.9593 59.2648 14.9639L56.4826 18.7412L50.857 19.1555Z" fill="#F14D08"/>
<path d="M57.5551 19.5797L62.2561 14.6776C66.1875 14.3013 66.829 17.0165 66.6584 18.4211L64.4794 20.7121L63.9905 21.591C63.4765 22.7673 60.1293 21.1301 59.4857 20.8996C58.9973 20.7247 57.78 20.5608 57.5551 19.5797Z" fill="#F14D08"/>
<path d="M76.8611 22.2824C74.3628 26.2458 67.2599 25.6751 67.001 22.5531C66.8032 20.1675 67.7093 18.9642 68.5263 18.4587C72.4972 15.287 72.4273 17.8689 75.0865 18.7713C77.4795 18.5422 77.0255 20.8013 76.8611 22.2824C80.1123 19.935 82.3455 24.4549 82.6529 26.4308L83.2965 33.6779L78.0607 28.6673L74.8029 25.7398L76.8611 22.2824Z" fill="#F14D08"/>
<path d="M18.2955 55.9062L20.6924 51.0492C29.0843 61.3522 36.1312 63.5798 55.8213 61.2314C75.145 58.9267 82.8674 48.3252 84.8063 46.4815C85.8046 47.7107 87.5867 50.6299 86.7286 52.4737C89.2931 53.3955 88.9412 55.9307 88.4447 57.083C89.6463 58.5877 89.6277 56.4827 91.4279 60.0125C92.8681 62.8363 91.2847 64.3453 90.313 64.7468C90.9984 65.2211 92.3066 66.4533 92.0561 67.5879C91.743 69.0061 93.063 69.3426 89.9342 70.5676C90.1931 73.6895 86.6234 72.1956 84.8063 71.0584C84.3838 72.0243 82.9226 73.2748 80.4568 70.5492C79.5408 72.4879 78.7432 73.2584 75.8323 71.9173C74.3367 72.0605 74.8973 73.6265 71.7727 72.3059C69.7333 74.7224 67.7384 73.0006 66.9959 71.8376C67.0403 72.3733 66.5042 73.1804 64.0046 72.1239C61.8552 75.2913 58.7342 72.6284 57.4424 70.901C57.5185 71.8193 53.0987 74.077 51.3343 73.2157C48.1477 71.6601 47.4731 76.1434 45.757 74.9911C45.2543 75.5664 44.1267 76.3025 42.5577 75.7964C40.955 77.2456 39.4684 76.632 38.9254 76.1441C38.4839 76.8805 37.2829 78.1524 36.0102 77.3487C35.5888 78.4996 34.1253 77.9918 33.4462 77.5941L31.0536 79.9055C30.6058 80.5654 29.2524 81.5588 27.4213 80.2532C26.3466 81.8369 25.0202 79.866 24.4914 78.6826C24.6056 80.0599 18.5686 81.8117 18.3097 78.6897C15.9962 77.8005 17.196 75.6534 19.3721 75.0594C18.5901 74.2859 18.2892 73.4917 20.8719 71.3935C16.935 68.0682 18.9236 63.4817 20.0724 61.7521C18.8302 61.3156 18.3702 57.673 18.2955 55.9062Z" fill="#F14D08"/>
<path d="M69.2223 18.1757C69.0222 18.213 68.7785 18.3026 68.5263 18.4587M76.8611 22.2824C74.3628 26.2458 67.2599 25.6751 67.001 22.5531C66.8032 20.1675 67.7093 18.9642 68.5263 18.4587M76.8611 22.2824C77.0255 20.8013 77.4795 18.5422 75.0865 18.7713C72.4273 17.8689 72.4972 15.287 68.5263 18.4587M76.8611 22.2824C80.1123 19.935 82.3455 24.4549 82.6529 26.4308L83.2965 33.6779L78.0607 28.6673L74.8029 25.7398L76.8611 22.2824ZM45.9192 74.7805C45.5363 75.3571 44.3279 76.3674 42.5577 75.7964C40.955 77.2456 39.4684 76.632 38.9254 76.1441C38.4839 76.8805 37.2829 78.1524 36.0102 77.3487C35.5888 78.4996 34.1253 77.9918 33.4462 77.5941L31.0536 79.9055C30.6058 80.5654 29.2524 81.5588 27.4213 80.2532C26.3466 81.8369 25.0202 79.866 24.4914 78.6826C24.6056 80.0599 18.5686 81.8117 18.3097 78.6897C15.9962 77.8005 17.196 75.6534 19.3721 75.0594C18.5901 74.2859 18.2892 73.4917 20.8719 71.3935C16.935 68.0682 18.9236 63.4817 20.0724 61.7521C18.8302 61.3156 18.3702 57.673 18.2955 55.9062L20.6924 51.0492C29.0843 61.3522 36.1312 63.5798 55.8213 61.2314C75.145 58.9267 82.8674 48.3252 84.8063 46.4815C85.8046 47.7107 87.5867 50.6299 86.7286 52.4737C89.2931 53.3955 88.9412 55.9307 88.4447 57.083C89.6463 58.5877 89.6277 56.4827 91.4279 60.0125C92.8681 62.8363 91.2847 64.3453 90.313 64.7468C90.9984 65.2211 92.3066 66.4533 92.0561 67.5879C91.743 69.0061 93.0631 69.3426 89.9342 70.5676C90.1931 73.6895 86.6234 72.1956 84.8063 71.0584C84.3839 72.0243 82.9226 73.2748 80.4568 70.5492C79.5408 72.4879 78.7432 73.2584 75.8323 71.9173C74.3367 72.0605 74.8973 73.6265 71.7727 72.3059C69.7333 74.7224 67.7384 73.0006 66.9959 71.8376C67.0403 72.3733 66.5042 73.1804 64.0046 72.1239C61.8552 75.2913 58.7342 72.6284 57.4424 70.901C57.5185 71.8193 53.0987 74.077 51.3343 73.2157C48.1477 71.6601 47.4731 76.1434 45.757 74.9911M21.9462 37.2628C21.8856 34.8005 21.9084 27.7948 24.0543 26.6639C26.2003 25.5329 27.8906 24.9606 28.8106 25.9699L31.1702 28.2745L29.5059 30.0755L25.7128 33.6779L23.6903 35.2598L21.9462 37.2628ZM27.8673 23.452L32.2428 27.8136L34.7376 25.6413L39.2669 23.1254L40.0497 19.5797C39.5131 19.1683 37.8102 18.5446 35.2919 19.341C32.7736 20.1373 32.6475 21.2137 32.8993 21.6524C31.4935 21.17 26.6655 20.8526 27.8673 23.452ZM39.9164 17.9728C40.7252 18.2039 42.2917 19.0875 42.0869 20.773C41.8821 22.4585 42.5177 22.5057 42.8611 22.3186L48.8099 18.7412L43.6672 16.4569C42.7287 16.3925 40.6645 16.6055 39.9164 17.9728ZM49.6182 18.134L50.857 19.1555L56.4826 18.7412L59.2648 14.9639C57.6739 13.9593 54.6646 13.0284 52.7596 14.4297C50.857 15.8293 48.7602 16.9817 49.6182 18.134ZM62.2561 14.6776L57.5551 19.5797C57.7801 20.5608 58.9973 20.7247 59.4857 20.8996C60.1293 21.1301 63.4765 22.7673 63.9905 21.591L64.4794 20.7121L66.6584 18.4211C66.829 17.0165 66.1875 14.3013 62.2561 14.6776Z" stroke="#F14D08" stroke-width="3"/>
<path d="M20.0157 33.6201L21.3028 35.1887" stroke="#F14D08" stroke-width="3"/>
<path d="M86.4838 32.423L84.4671 33.7122" stroke="#F14D08" stroke-width="3"/>
</g>
<defs>
<filter id="filter0_d_50_923" x="0.245255" y="0.499878" width="105.51" height="89.8944" filterUnits="userSpaceOnUse" color-interpolation-filters="sRGB">
<feFlood flood-opacity="0" result="BackgroundImageFix"/>
<feColorMatrix in="SourceAlpha" type="matrix" values="0 0 0 0 0 0 0 0 0 0 0 0 0 0 0 0 0 0 127 0" result="hardAlpha"/>
<feOffset dy="4"/>
<feGaussianBlur stdDeviation="2"/>
<feComposite in2="hardAlpha" operator="out"/>
<feColorMatrix type="matrix" values="0 0 0 0 0 0 0 0 0 0 0 0 0 0 0 0 0 0 0.12 0"/>
<feBlend mode="normal" in2="BackgroundImageFix" result="effect1_dropShadow_50_923"/>
<feBlend mode="normal" in="SourceGraphic" in2="effect1_dropShadow_50_923" result="shape"/>
</filter>
</defs>
</svg>
