<svg width="80" height="29" viewBox="0 0 52 29" fill="none" xmlns="http://www.w3.org/2000/svg">
<g id="click">
<path d="M24.0843 4.31841C15.3273 -4.35693 9.15765 2.01813 7.16743 6.29008C5.50891 5.96144 1.79384 6.68432 0.201667 12.205C-1.39051 17.7257 6.83573 19.7631 11.1479 20.0917C12.8064 23.3778 17.9146 29.3585 25.0794 26.9925C29.8559 31.7245 36.3573 26.9925 39.0109 24.035C42.9914 25.0208 51.1512 24.8237 51.9473 16.1483C52.7434 7.47299 44.3182 5.96144 40.006 6.29008C38.3475 4.31838 32.8412 1.16367 24.0843 4.31841Z" fill="#020001"/>
<path d="M13.92 10.62C14.8267 10.62 15.3533 11.2733 15.5 12.58C15.5 13.66 15.2467 14.34 14.74 14.62H14.62C14.2333 14.5933 14.04 14.4533 14.04 14.2L14.12 12.7V11.96L14 11.82H13.8C13.3733 11.82 12.8733 13.0067 12.3 15.38L12.18 16.88V17.32C12.18 18.7067 12.8 19.52 14.04 19.76H14.88C16.2667 19.76 17.9467 18.8667 19.92 17.08H20C20.36 17.08 20.5667 17.3067 20.62 17.76C20.3133 18.56 19.9533 18.96 19.54 18.96C17.6333 20.32 15.92 21 14.4 21C12.88 21 11.8067 20.1667 11.18 18.5L11 17.08V16.82C11 14.7533 11.58 12.8533 12.74 11.12C13.1133 10.7867 13.5067 10.62 13.92 10.62Z" fill="#F5F5F5"/>
<path d="M22.52 9.98C22.8933 10.1133 23.08 10.32 23.08 10.6L23.28 18.22V20.68C23.28 21.1333 23.0867 21.36 22.7 21.36H22.44C22.2 21.2 22.08 21.0133 22.08 20.8V18.48L21.9 10.56C21.9 10.2267 22.1067 10.0333 22.52 9.98Z" fill="#F5F5F5"/>
<path d="M24.9598 10.58C25.4665 10.6867 25.7198 10.9133 25.7198 11.26C25.5865 11.6333 25.3732 11.82 25.0798 11.82C24.5865 11.7267 24.3398 11.48 24.3398 11.08C24.4732 10.7467 24.6798 10.58 24.9598 10.58ZM25.7198 13.38C25.9332 13.38 26.1132 13.5733 26.2598 13.96L26.0798 15.38V16.32C26.0798 17.4133 26.2665 18.8467 26.6398 20.62C26.5065 20.8733 26.2798 21 25.9598 21C25.4132 21 25.0532 19.4 24.8798 16.2V15.5C24.8798 14.0867 25.1598 13.38 25.7198 13.38Z" fill="#F5F5F5"/>
<path d="M29.7091 14.22L30.5291 14.1C30.8624 14.1 31.0491 14.3067 31.0891 14.72C31.0891 15.08 30.6557 15.3133 29.7891 15.42C29.2424 15.8467 28.9691 16.3933 28.9691 17.06V17.72C29.2357 19.1867 29.6891 19.92 30.3291 19.92H30.5291C30.9024 19.92 31.4624 19.5667 32.2091 18.86H32.3291C32.5957 18.86 32.8091 19.0467 32.9691 19.42C32.7824 19.9933 32.1824 20.5133 31.1691 20.98C30.9824 21.06 30.7491 21.1 30.4691 21.1C29.0957 21.1 28.2024 20.02 27.7891 17.86V17.42C27.7891 15.86 28.4291 14.7933 29.7091 14.22Z" fill="#F5F5F5"/>
<path d="M34.9977 10.42H35.1177C35.291 10.42 35.4577 10.5667 35.6177 10.86L35.5377 12.22V12.98L35.6177 16.48L35.6777 16.68H35.7377C36.311 16.1467 36.811 15.2067 37.2377 13.86L37.6777 13.72C38.051 13.7733 38.2377 13.94 38.2377 14.22C38.2377 15.0867 37.6177 16.2533 36.3777 17.72V17.86C38.0177 19.7667 39.0977 20.72 39.6177 20.72H39.7377L40.2377 20.42H40.4177C40.6977 20.42 40.9043 20.6067 41.0377 20.98C41.0377 21.4067 40.5643 21.7 39.6177 21.86C38.671 21.86 37.4377 20.9 35.9177 18.98H35.7377L35.7977 20.06V21.1C35.7177 21.5133 35.511 21.72 35.1777 21.72C34.8043 21.64 34.6177 21.4333 34.6177 21.1V20.98L34.5377 18.68C34.391 18.68 34.291 18.4733 34.2377 18.06L34.4977 17.56L34.3777 13.06V12.18C34.3777 11.0067 34.5843 10.42 34.9977 10.42Z" fill="#F5F5F5"/>
<path d="M42.0953 7.42C42.4553 7.56667 42.6353 7.78 42.6353 8.06C42.742 11.8467 42.8953 14.58 43.0953 16.26C42.962 16.5933 42.7686 16.76 42.5153 16.76C42.022 16.76 41.7753 15.9667 41.7753 14.38C41.6553 13.7933 41.5553 11.6667 41.4753 8C41.4753 7.66667 41.682 7.47333 42.0953 7.42ZM42.2153 21.18C42.3353 20.7667 42.5486 20.56 42.8553 20.56C43.1753 20.56 43.3953 20.7667 43.5153 21.18C43.3686 21.5667 43.162 21.76 42.8953 21.76H42.8353C42.5686 21.76 42.362 21.5667 42.2153 21.18Z" fill="#F5F5F5"/>
</g>
</svg>
