<svg width="144" height="84" viewBox="0 0 144 84" fill="none" xmlns="http://www.w3.org/2000/svg">
<path d="M50.1642 75.3174C50.4673 75.779 51.0873 75.9075 51.549 75.6044L59.0722 70.6646C59.5339 70.3615 59.6624 69.7415 59.3592 69.2799C59.0561 68.8182 58.4361 68.6897 57.9745 68.9928L51.2872 73.3837L46.8963 66.6964C46.5931 66.2348 45.9732 66.1062 45.5115 66.4094C45.0498 66.7125 44.9213 67.3325 45.2244 67.7941L50.1642 75.3174ZM57.0208 40.797L50.0209 74.5655L51.9793 74.9715L58.9792 41.203L57.0208 40.797Z" fill="#F14D08"/>
<path d="M67.0464 82.8986C67.2128 83.4253 67.7745 83.7173 68.3012 83.551L76.8833 80.8405C77.41 80.6742 77.7021 80.1124 77.5357 79.5858C77.3694 79.0592 76.8076 78.7671 76.281 78.9334L68.6524 81.3427L66.2431 73.7141C66.0768 73.1875 65.515 72.8954 64.9884 73.0617C64.4617 73.2281 64.1696 73.7898 64.3359 74.3165L67.0464 82.8986ZM83.0221 51.5387L67.1128 82.1361L68.8872 83.0588L84.7965 52.4613L83.0221 51.5387Z" fill="#F14D08"/>
<path d="M32.042 75.2648C32.5291 75.5249 33.135 75.3408 33.3951 74.8537L37.6341 66.9145C37.8942 66.4273 37.7102 65.8215 37.223 65.5613C36.7358 65.3012 36.13 65.4853 35.8698 65.9725L32.1018 73.0295L25.0448 69.2615C24.5576 69.0014 23.9518 69.1854 23.6916 69.6726C23.4315 70.1598 23.6156 70.7656 24.1028 71.0258L32.042 75.2648ZM21.5305 41.6765L31.5561 74.6734L33.4698 74.0919L23.4441 41.095L21.5305 41.6765Z" fill="#F14D08"/>
<g filter="url(#filter0_d_93_31)">
<mask id="path-4-outside-1_93_31" maskUnits="userSpaceOnUse" x="3" y="0" width="112" height="32" fill="black">
<rect fill="white" x="3" width="112" height="32"/>
<path d="M9.84 7.24C11.6533 7.24 12.7067 8.54666 13 11.16C13 13.32 12.4933 14.68 11.48 15.24H11.24C10.4667 15.1867 10.08 14.9067 10.08 14.4L10.24 11.4V9.92L10 9.64H9.6C8.74667 9.64 7.74667 12.0133 6.6 16.76L6.36 19.76V20.64C6.36 23.4133 7.6 25.04 10.08 25.52H11.76C14.5333 25.52 17.8933 23.7333 21.84 20.16H22C22.72 20.16 23.1333 20.6133 23.24 21.52C22.6267 23.12 21.9067 23.92 21.08 23.92C17.2667 26.64 13.84 28 10.8 28C7.76 28 5.61333 26.3333 4.36 23L4 20.16V19.64C4 15.5067 5.16 11.7067 7.48 8.24C8.22667 7.57333 9.01333 7.24 9.84 7.24ZM27.04 5.96C27.7867 6.22667 28.16 6.64 28.16 7.2L28.56 22.44V27.36C28.56 28.2667 28.1733 28.72 27.4 28.72H26.88C26.4 28.4 26.16 28.0267 26.16 27.6V22.96L25.8 7.12C25.8 6.45333 26.2133 6.06667 27.04 5.96ZM31.9197 7.16C32.933 7.37333 33.4397 7.82667 33.4397 8.52C33.173 9.26667 32.7464 9.64 32.1597 9.64C31.173 9.45333 30.6797 8.96 30.6797 8.16C30.9464 7.49333 31.3597 7.16 31.9197 7.16ZM33.4397 12.76C33.8664 12.76 34.2264 13.1467 34.5197 13.92L34.1597 16.76V18.64C34.1597 20.8267 34.533 23.6933 35.2797 27.24C35.013 27.7467 34.5597 28 33.9197 28C32.8264 28 32.1064 24.8 31.7597 18.4V17C31.7597 14.1733 32.3197 12.76 33.4397 12.76ZM41.4181 14.44L43.0581 14.2C43.7248 14.2 44.0981 14.6133 44.1781 15.44C44.1781 16.16 43.3115 16.6267 41.5781 16.84C40.4848 17.6933 39.9381 18.7867 39.9381 20.12V21.44C40.4715 24.3733 41.3781 25.84 42.6581 25.84H43.0581C43.8048 25.84 44.9248 25.1333 46.4181 23.72H46.6581C47.1915 23.72 47.6181 24.0933 47.9381 24.84C47.5648 25.9867 46.3648 27.0267 44.3381 27.96C43.9648 28.12 43.4981 28.2 42.9381 28.2C40.1915 28.2 38.4048 26.04 37.5781 21.72V20.84C37.5781 17.72 38.8581 15.5867 41.4181 14.44ZM51.9953 6.84H52.2353C52.582 6.84 52.9153 7.13333 53.2353 7.72L53.0753 10.44V11.96L53.2353 18.96L53.3553 19.36H53.4753C54.622 18.2933 55.622 16.4133 56.4753 13.72L57.3553 13.44C58.102 13.5467 58.4753 13.88 58.4753 14.44C58.4753 16.1733 57.2353 18.5067 54.7553 21.44V21.72C58.0353 25.5333 60.1953 27.44 61.2353 27.44H61.4753L62.4753 26.84H62.8353C63.3953 26.84 63.8086 27.2133 64.0753 27.96C64.0753 28.8133 63.1286 29.4 61.2353 29.72C59.342 29.72 56.8753 27.8 53.8353 23.96H53.4753L53.5953 26.12V28.2C53.4353 29.0267 53.022 29.44 52.3553 29.44C51.6086 29.28 51.2353 28.8667 51.2353 28.2V27.96L51.0753 23.36C50.782 23.36 50.582 22.9467 50.4753 22.12L50.9953 21.12L50.7553 12.12V10.36C50.7553 8.01333 51.1686 6.84 51.9953 6.84ZM80.8688 14C81.0554 13.3333 81.4821 13 82.1488 13C82.8154 13 83.2554 13.6667 83.4688 15H83.6288L85.4688 14.6C86.3221 14.6 87.1488 15.4 87.9488 17H88.1088C89.2821 15.16 90.4821 14.24 91.7088 14.24C94.3221 14.72 95.6288 16.4267 95.6288 19.36L95.7088 20.76L95.3488 28.84V29.6C95.3488 30.2667 94.9354 30.6533 94.1088 30.76C93.2821 30.76 92.8688 29.7867 92.8688 27.84L93.3488 20.6C93.3488 17.9333 92.7221 16.6 91.4688 16.6C90.7488 16.6 89.8821 18.3467 88.8688 21.84C88.3621 25.84 87.9488 27.84 87.6288 27.84C87.1754 27.84 86.9488 27.9333 86.9488 28.12C86.1221 28.0133 85.7088 27.5867 85.7088 26.84L86.2288 22C86.1488 18.6667 85.8154 17 85.2288 17H85.1088C84.4421 17.5067 84.1088 18.5067 84.1088 20V22.12L83.9488 28.24C83.7621 28.9067 83.3488 29.24 82.7088 29.24C82.1488 29.24 81.7888 28.7733 81.6288 27.84L81.4688 23.12L81.7088 19.24C81.5488 17.24 81.2688 15.4933 80.8688 14ZM101.524 13.64C102.591 13.6667 104.391 15.5333 106.924 19.24L107.004 19.92C107.004 20.6667 105.177 21.24 101.524 21.64L101.404 21.76V21.92C101.964 24.32 102.551 25.52 103.164 25.52H103.644C104.497 25.52 105.791 24.6 107.524 22.76H107.764C108.297 22.76 108.711 23.1467 109.004 23.92C109.004 24.56 107.884 25.6667 105.644 27.24C105.057 27.5867 104.351 27.84 103.524 28C101.364 28 99.8574 25.9733 99.0041 21.92C97.7774 21.7333 97.1641 21.2267 97.1641 20.4C97.1641 19.8133 97.6174 19.4267 98.5241 19.24V19.4L98.9241 19.24V18.24C98.9241 15.1733 99.7907 13.64 101.524 13.64ZM101.764 16.52H101.404L101.244 18V19.24H101.404C102.897 19.1867 103.644 19.0267 103.644 18.76C102.951 17.72 102.324 16.9733 101.764 16.52ZM111.581 0.839999C112.301 1.13333 112.661 1.56 112.661 2.12C112.875 9.69333 113.181 15.16 113.581 18.52C113.315 19.1867 112.928 19.52 112.421 19.52C111.435 19.52 110.941 17.9333 110.941 14.76C110.701 13.5867 110.501 9.33333 110.341 2C110.341 1.33333 110.755 0.946666 111.581 0.839999ZM111.821 28.36C112.061 27.5333 112.488 27.12 113.101 27.12C113.741 27.12 114.181 27.5333 114.421 28.36C114.128 29.1333 113.715 29.52 113.181 29.52H113.061C112.528 29.52 112.115 29.1333 111.821 28.36Z"/>
</mask>
<path d="M9.84 7.24C11.6533 7.24 12.7067 8.54666 13 11.16C13 13.32 12.4933 14.68 11.48 15.24H11.24C10.4667 15.1867 10.08 14.9067 10.08 14.4L10.24 11.4V9.92L10 9.64H9.6C8.74667 9.64 7.74667 12.0133 6.6 16.76L6.36 19.76V20.64C6.36 23.4133 7.6 25.04 10.08 25.52H11.76C14.5333 25.52 17.8933 23.7333 21.84 20.16H22C22.72 20.16 23.1333 20.6133 23.24 21.52C22.6267 23.12 21.9067 23.92 21.08 23.92C17.2667 26.64 13.84 28 10.8 28C7.76 28 5.61333 26.3333 4.36 23L4 20.16V19.64C4 15.5067 5.16 11.7067 7.48 8.24C8.22667 7.57333 9.01333 7.24 9.84 7.24ZM27.04 5.96C27.7867 6.22667 28.16 6.64 28.16 7.2L28.56 22.44V27.36C28.56 28.2667 28.1733 28.72 27.4 28.72H26.88C26.4 28.4 26.16 28.0267 26.16 27.6V22.96L25.8 7.12C25.8 6.45333 26.2133 6.06667 27.04 5.96ZM31.9197 7.16C32.933 7.37333 33.4397 7.82667 33.4397 8.52C33.173 9.26667 32.7464 9.64 32.1597 9.64C31.173 9.45333 30.6797 8.96 30.6797 8.16C30.9464 7.49333 31.3597 7.16 31.9197 7.16ZM33.4397 12.76C33.8664 12.76 34.2264 13.1467 34.5197 13.92L34.1597 16.76V18.64C34.1597 20.8267 34.533 23.6933 35.2797 27.24C35.013 27.7467 34.5597 28 33.9197 28C32.8264 28 32.1064 24.8 31.7597 18.4V17C31.7597 14.1733 32.3197 12.76 33.4397 12.76ZM41.4181 14.44L43.0581 14.2C43.7248 14.2 44.0981 14.6133 44.1781 15.44C44.1781 16.16 43.3115 16.6267 41.5781 16.84C40.4848 17.6933 39.9381 18.7867 39.9381 20.12V21.44C40.4715 24.3733 41.3781 25.84 42.6581 25.84H43.0581C43.8048 25.84 44.9248 25.1333 46.4181 23.72H46.6581C47.1915 23.72 47.6181 24.0933 47.9381 24.84C47.5648 25.9867 46.3648 27.0267 44.3381 27.96C43.9648 28.12 43.4981 28.2 42.9381 28.2C40.1915 28.2 38.4048 26.04 37.5781 21.72V20.84C37.5781 17.72 38.8581 15.5867 41.4181 14.44ZM51.9953 6.84H52.2353C52.582 6.84 52.9153 7.13333 53.2353 7.72L53.0753 10.44V11.96L53.2353 18.96L53.3553 19.36H53.4753C54.622 18.2933 55.622 16.4133 56.4753 13.72L57.3553 13.44C58.102 13.5467 58.4753 13.88 58.4753 14.44C58.4753 16.1733 57.2353 18.5067 54.7553 21.44V21.72C58.0353 25.5333 60.1953 27.44 61.2353 27.44H61.4753L62.4753 26.84H62.8353C63.3953 26.84 63.8086 27.2133 64.0753 27.96C64.0753 28.8133 63.1286 29.4 61.2353 29.72C59.342 29.72 56.8753 27.8 53.8353 23.96H53.4753L53.5953 26.12V28.2C53.4353 29.0267 53.022 29.44 52.3553 29.44C51.6086 29.28 51.2353 28.8667 51.2353 28.2V27.96L51.0753 23.36C50.782 23.36 50.582 22.9467 50.4753 22.12L50.9953 21.12L50.7553 12.12V10.36C50.7553 8.01333 51.1686 6.84 51.9953 6.84ZM80.8688 14C81.0554 13.3333 81.4821 13 82.1488 13C82.8154 13 83.2554 13.6667 83.4688 15H83.6288L85.4688 14.6C86.3221 14.6 87.1488 15.4 87.9488 17H88.1088C89.2821 15.16 90.4821 14.24 91.7088 14.24C94.3221 14.72 95.6288 16.4267 95.6288 19.36L95.7088 20.76L95.3488 28.84V29.6C95.3488 30.2667 94.9354 30.6533 94.1088 30.76C93.2821 30.76 92.8688 29.7867 92.8688 27.84L93.3488 20.6C93.3488 17.9333 92.7221 16.6 91.4688 16.6C90.7488 16.6 89.8821 18.3467 88.8688 21.84C88.3621 25.84 87.9488 27.84 87.6288 27.84C87.1754 27.84 86.9488 27.9333 86.9488 28.12C86.1221 28.0133 85.7088 27.5867 85.7088 26.84L86.2288 22C86.1488 18.6667 85.8154 17 85.2288 17H85.1088C84.4421 17.5067 84.1088 18.5067 84.1088 20V22.12L83.9488 28.24C83.7621 28.9067 83.3488 29.24 82.7088 29.24C82.1488 29.24 81.7888 28.7733 81.6288 27.84L81.4688 23.12L81.7088 19.24C81.5488 17.24 81.2688 15.4933 80.8688 14ZM101.524 13.64C102.591 13.6667 104.391 15.5333 106.924 19.24L107.004 19.92C107.004 20.6667 105.177 21.24 101.524 21.64L101.404 21.76V21.92C101.964 24.32 102.551 25.52 103.164 25.52H103.644C104.497 25.52 105.791 24.6 107.524 22.76H107.764C108.297 22.76 108.711 23.1467 109.004 23.92C109.004 24.56 107.884 25.6667 105.644 27.24C105.057 27.5867 104.351 27.84 103.524 28C101.364 28 99.8574 25.9733 99.0041 21.92C97.7774 21.7333 97.1641 21.2267 97.1641 20.4C97.1641 19.8133 97.6174 19.4267 98.5241 19.24V19.4L98.9241 19.24V18.24C98.9241 15.1733 99.7907 13.64 101.524 13.64ZM101.764 16.52H101.404L101.244 18V19.24H101.404C102.897 19.1867 103.644 19.0267 103.644 18.76C102.951 17.72 102.324 16.9733 101.764 16.52ZM111.581 0.839999C112.301 1.13333 112.661 1.56 112.661 2.12C112.875 9.69333 113.181 15.16 113.581 18.52C113.315 19.1867 112.928 19.52 112.421 19.52C111.435 19.52 110.941 17.9333 110.941 14.76C110.701 13.5867 110.501 9.33333 110.341 2C110.341 1.33333 110.755 0.946666 111.581 0.839999ZM111.821 28.36C112.061 27.5333 112.488 27.12 113.101 27.12C113.741 27.12 114.181 27.5333 114.421 28.36C114.128 29.1333 113.715 29.52 113.181 29.52H113.061C112.528 29.52 112.115 29.1333 111.821 28.36Z" fill="#F14D08"/>
<path d="M13 11.16H13.5V11.132L13.4969 11.1042L13 11.16ZM11.48 15.24V15.74H11.609L11.7218 15.6776L11.48 15.24ZM11.24 15.24L11.2056 15.7388L11.2228 15.74H11.24V15.24ZM10.08 14.4L9.58071 14.3734L9.58 14.3867V14.4H10.08ZM10.24 11.4L10.7393 11.4266L10.74 11.4133V11.4H10.24ZM10.24 9.92H10.74V9.73504L10.6196 9.5946L10.24 9.92ZM10 9.64L10.3796 9.3146L10.23 9.14H10V9.64ZM6.6 16.76L6.11398 16.6426L6.10473 16.6809L6.10159 16.7201L6.6 16.76ZM6.36 19.76L5.86159 19.7201L5.86 19.74V19.76H6.36ZM10.08 25.52L9.98499 26.0109L10.0321 26.02H10.08V25.52ZM21.84 20.16V19.66H21.6473L21.5044 19.7894L21.84 20.16ZM23.24 21.52L23.7069 21.699L23.751 21.5839L23.7366 21.4616L23.24 21.52ZM21.08 23.92V23.42H20.92L20.7896 23.5129L21.08 23.92ZM4.36 23L3.86397 23.0629L3.87135 23.1211L3.89199 23.176L4.36 23ZM4 20.16H3.5V20.1916L3.50397 20.2229L4 20.16ZM7.48 8.24L7.14699 7.86703L7.09972 7.90924L7.06447 7.96191L7.48 8.24ZM9.84 7.74C10.6094 7.74 11.1774 8.00864 11.6007 8.5338C12.0428 9.08224 12.3615 9.95443 12.5031 11.2158L13.4969 11.1042C13.3451 9.75223 12.9905 8.66442 12.3793 7.9062C11.7493 7.12469 10.884 6.74 9.84 6.74V7.74ZM12.5 11.16C12.5 13.2942 11.9912 14.3862 11.2382 14.8024L11.7218 15.6776C12.9955 14.9738 13.5 13.3458 13.5 11.16H12.5ZM11.48 14.74H11.24V15.74H11.48V14.74ZM11.2744 14.7412C10.9285 14.7173 10.7472 14.6458 10.6633 14.585C10.6088 14.5456 10.58 14.5045 10.58 14.4H9.58C9.58 14.8021 9.74449 15.1544 10.0767 15.395C10.3795 15.6142 10.7781 15.7093 11.2056 15.7388L11.2744 14.7412ZM10.5793 14.4266L10.7393 11.4266L9.74071 11.3734L9.58071 14.3734L10.5793 14.4266ZM10.74 11.4V9.92H9.74V11.4H10.74ZM10.6196 9.5946L10.3796 9.3146L9.62037 9.96539L9.86037 10.2454L10.6196 9.5946ZM10 9.14H9.6V10.14H10V9.14ZM9.6 9.14C9.14719 9.14 8.7954 9.44818 8.53842 9.77726C8.26709 10.1247 8.00607 10.6163 7.74923 11.2259C7.23325 12.4504 6.6891 14.2619 6.11398 16.6426L7.08602 16.8774C7.65757 14.5115 8.18675 12.7629 8.67077 11.6141C8.91393 11.037 9.13458 10.6386 9.32658 10.3927C9.53293 10.1285 9.62614 10.14 9.6 10.14V9.14ZM6.10159 16.7201L5.86159 19.7201L6.85841 19.7999L7.09841 16.7999L6.10159 16.7201ZM5.86 19.76V20.64H6.86V19.76H5.86ZM5.86 20.64C5.86 22.0976 6.18587 23.3163 6.89236 24.2431C7.60318 25.1756 8.65401 25.7533 9.98499 26.0109L10.175 25.0291C9.026 24.8067 8.21682 24.3311 7.68764 23.6369C7.15413 22.937 6.86 21.9557 6.86 20.64H5.86ZM10.08 26.02H11.76V25.02H10.08V26.02ZM11.76 26.02C14.73 26.02 18.2108 24.1204 22.1756 20.5306L21.5044 19.7894C17.5758 23.3463 14.3367 25.02 11.76 25.02V26.02ZM21.84 20.66H22V19.66H21.84V20.66ZM22 20.66C22.2461 20.66 22.3852 20.7323 22.4805 20.8369C22.59 20.9569 22.6967 21.1808 22.7434 21.5784L23.7366 21.4616C23.6767 20.9525 23.5234 20.4964 23.2195 20.1631C22.9015 19.8143 22.4739 19.66 22 19.66V20.66ZM22.7731 21.341C22.477 22.1136 22.1703 22.65 21.8684 22.9855C21.5728 23.3139 21.3118 23.42 21.08 23.42V24.42C21.6749 24.42 22.1872 24.1261 22.6116 23.6545C23.0297 23.19 23.3897 22.5264 23.7069 21.699L22.7731 21.341ZM20.7896 23.5129C17.0182 26.2031 13.6934 27.5 10.8 27.5V28.5C13.9866 28.5 17.5151 27.0769 21.3703 24.3271L20.7896 23.5129ZM10.8 27.5C9.37715 27.5 8.19188 27.1122 7.21663 26.3551C6.23566 25.5934 5.43203 24.4305 4.82801 22.824L3.89199 23.176C4.54131 24.9029 5.43767 26.2399 6.60337 27.1449C7.77479 28.0544 9.18285 28.5 10.8 28.5V27.5ZM4.85603 22.9371L4.49603 20.0971L3.50397 20.2229L3.86397 23.0629L4.85603 22.9371ZM4.5 20.16V19.64H3.5V20.16H4.5ZM4.5 19.64C4.5 15.6066 5.63006 11.9033 7.89553 8.51809L7.06447 7.96191C4.68994 11.5101 3.5 15.4067 3.5 19.64H4.5ZM7.81301 8.61297C8.48832 8.01001 9.16088 7.74 9.84 7.74V6.74C8.86579 6.74 7.96501 7.13665 7.14699 7.86703L7.81301 8.61297ZM27.04 5.96L27.2082 5.48913L27.0951 5.44875L26.976 5.46411L27.04 5.96ZM28.16 7.2H27.6598L27.6602 7.21312L28.16 7.2ZM28.56 22.44H29.0602L29.0598 22.4269L28.56 22.44ZM26.88 28.72L26.6026 29.136L26.7286 29.22H26.88V28.72ZM26.16 22.96H26.6601L26.6599 22.9486L26.16 22.96ZM25.8 7.12H25.2999L25.3001 7.13136L25.8 7.12ZM26.8718 6.43087C27.1983 6.54747 27.3961 6.68025 27.5089 6.80514C27.6121 6.91936 27.66 7.04308 27.66 7.2H28.66C28.66 6.79692 28.5212 6.43397 28.2511 6.13486C27.9905 5.84642 27.6284 5.6392 27.2082 5.48913L26.8718 6.43087ZM27.6602 7.21312L28.0602 22.4531L29.0598 22.4269L28.6598 7.18688L27.6602 7.21312ZM28.06 22.44V27.36H29.06V22.44H28.06ZM28.06 27.36C28.06 27.754 27.9743 27.9562 27.8896 28.0555C27.8179 28.1396 27.687 28.22 27.4 28.22V29.22C27.8864 29.22 28.3355 29.0737 28.6504 28.7045C28.9524 28.3505 29.06 27.8727 29.06 27.36H28.06ZM27.4 28.22H26.88V29.22H27.4V28.22ZM27.1574 28.304C26.7625 28.0407 26.66 27.8036 26.66 27.6H25.66C25.66 28.2497 26.0375 28.7593 26.6026 29.136L27.1574 28.304ZM26.66 27.6V22.96H25.66V27.6H26.66ZM26.6599 22.9486L26.2999 7.10864L25.3001 7.13136L25.6601 22.9714L26.6599 22.9486ZM26.3 7.12C26.3 6.89827 26.364 6.77706 26.4516 6.69513C26.5532 6.60003 26.7478 6.50185 27.104 6.45589L26.976 5.46411C26.5055 5.52482 26.0801 5.6733 25.7684 5.96486C25.4427 6.2696 25.3 6.67506 25.3 7.12H26.3ZM31.9197 7.16L32.0227 6.67072L31.9717 6.66H31.9197V7.16ZM33.4397 8.52L33.9106 8.68817L33.9397 8.60661V8.52H33.4397ZM32.1597 9.64L32.0667 10.1313L32.1128 10.14H32.1597V9.64ZM30.6797 8.16L30.2154 7.9743L30.1797 8.06371V8.16H30.6797ZM34.5197 13.92L35.0157 13.9829L35.0314 13.8592L34.9872 13.7427L34.5197 13.92ZM34.1597 16.76L33.6637 16.6971L33.6597 16.7284V16.76H34.1597ZM35.2797 27.24L35.7221 27.4729L35.8061 27.3134L35.769 27.137L35.2797 27.24ZM31.7597 18.4H31.2597V18.4135L31.2604 18.427L31.7597 18.4ZM31.8167 7.64927C32.2789 7.74658 32.5637 7.88717 32.7263 8.03262C32.8712 8.16231 32.9397 8.31237 32.9397 8.52H33.9397C33.9397 8.0343 33.7548 7.61102 33.3931 7.28738C33.049 6.9795 32.5738 6.78675 32.0227 6.67072L31.8167 7.64927ZM32.9688 8.35183C32.8533 8.67518 32.7191 8.87116 32.5904 8.98371C32.4717 9.08764 32.3365 9.14 32.1597 9.14V10.14C32.5695 10.14 32.941 10.0057 33.2489 9.73629C33.547 9.4755 33.7594 9.11148 33.9106 8.68817L32.9688 8.35183ZM32.2526 9.14871C31.8166 9.06622 31.554 8.92716 31.4032 8.77645C31.2643 8.63749 31.1797 8.4485 31.1797 8.16H30.1797C30.1797 8.6715 30.3418 9.12918 30.6961 9.48355C31.0388 9.82618 31.5161 10.0271 32.0667 10.1313L32.2526 9.14871ZM31.1439 8.34569C31.2562 8.06506 31.3831 7.89639 31.5036 7.79921C31.6162 7.70834 31.7472 7.66 31.9197 7.66V6.66C31.5322 6.66 31.1765 6.77832 30.8758 7.02079C30.583 7.25694 30.3699 7.58827 30.2154 7.9743L31.1439 8.34569ZM33.4397 13.26C33.4824 13.26 33.5542 13.273 33.6637 13.3907C33.7818 13.5176 33.9169 13.7407 34.0522 14.0973L34.9872 13.7427C34.8291 13.3259 34.6375 12.9691 34.3956 12.7093C34.1452 12.4403 33.8237 12.26 33.4397 12.26V13.26ZM34.0237 13.8571L33.6637 16.6971L34.6557 16.8229L35.0157 13.9829L34.0237 13.8571ZM33.6597 16.76V18.64H34.6597V16.76H33.6597ZM33.6597 18.64C33.6597 20.8764 34.0406 23.7814 34.7904 27.343L35.769 27.137C35.0254 23.6052 34.6597 20.7769 34.6597 18.64H33.6597ZM34.8372 27.0071C34.7442 27.1839 34.6294 27.2989 34.4958 27.3735C34.3591 27.4499 34.1739 27.5 33.9197 27.5V28.5C34.3054 28.5 34.6669 28.4234 34.9836 28.2465C35.3033 28.0678 35.5485 27.8027 35.7221 27.4729L34.8372 27.0071ZM33.9197 27.5C33.9153 27.5 33.8917 27.5013 33.8395 27.4596C33.7808 27.4126 33.6992 27.3203 33.6047 27.1535C33.4142 26.8172 33.2237 26.2736 33.0475 25.4902C32.6969 23.9323 32.4319 21.5661 32.259 18.373L31.2604 18.427C31.4341 21.6339 31.7024 24.0677 32.0719 25.7098C32.2556 26.5264 32.4719 27.1828 32.7347 27.6465C32.9873 28.0923 33.3675 28.5 33.9197 28.5V27.5ZM32.2597 18.4V17H31.2597V18.4H32.2597ZM32.2597 17C32.2597 15.605 32.3999 14.6215 32.6445 14.0042C32.7652 13.6997 32.8996 13.5144 33.0266 13.4076C33.1445 13.3084 33.2748 13.26 33.4397 13.26V12.26C33.0445 12.26 32.6849 12.3882 32.3828 12.6424C32.0898 12.8889 31.8742 13.2336 31.7148 13.6358C31.3994 14.4318 31.2597 15.5683 31.2597 17H32.2597ZM41.4181 14.44L41.3457 13.9453L41.2771 13.9553L41.2137 13.9837L41.4181 14.44ZM43.0581 14.2V13.7H43.0217L42.9857 13.7053L43.0581 14.2ZM44.1781 15.44H44.6781V15.4159L44.6758 15.3918L44.1781 15.44ZM41.5781 16.84L41.517 16.3437L41.3796 16.3607L41.2705 16.4458L41.5781 16.84ZM39.9381 21.44H39.4381V21.4851L39.4462 21.5294L39.9381 21.44ZM46.4181 23.72V23.22H46.219L46.0744 23.3569L46.4181 23.72ZM47.9381 24.84L48.4136 24.9948L48.4718 24.8159L48.3977 24.643L47.9381 24.84ZM44.3381 27.96L44.5352 28.4197L44.5473 28.4142L44.3381 27.96ZM37.5781 21.72H37.0781V21.7674L37.087 21.814L37.5781 21.72ZM41.4905 14.9347L43.1305 14.6947L42.9857 13.7053L41.3457 13.9453L41.4905 14.9347ZM43.0581 14.7C43.2804 14.7 43.3938 14.764 43.4671 14.8451C43.5543 14.9417 43.646 15.1317 43.6805 15.4882L44.6758 15.3918C44.6303 14.9216 44.4953 14.4917 44.2092 14.1749C43.9091 13.8427 43.5026 13.7 43.0581 13.7V14.7ZM43.6781 15.44C43.6781 15.55 43.6304 15.7071 43.2911 15.8898C42.9393 16.0792 42.3623 16.2397 41.517 16.3437L41.6392 17.3363C42.5273 17.2269 43.2503 17.0475 43.7652 16.7702C44.2925 16.4863 44.6781 16.05 44.6781 15.44H43.6781ZM41.2705 16.4458C40.0614 17.3895 39.4381 18.6256 39.4381 20.12H40.4381C40.4381 18.9477 40.9081 17.9972 41.8858 17.2342L41.2705 16.4458ZM39.4381 20.12V21.44H40.4381V20.12H39.4381ZM39.4462 21.5294C39.7171 23.0194 40.091 24.1912 40.5928 25.0029C41.1019 25.8263 41.7868 26.34 42.6581 26.34V25.34C42.2495 25.34 41.8411 25.1203 41.4434 24.4771C41.0385 23.8221 40.6925 22.7939 40.4301 21.3506L39.4462 21.5294ZM42.6581 26.34H43.0581V25.34H42.6581V26.34ZM43.0581 26.34C43.5739 26.34 44.1388 26.1027 44.7249 25.7329C45.3231 25.3554 46.0029 24.8014 46.7618 24.0831L46.0744 23.3569C45.34 24.052 44.7131 24.5579 44.1913 24.8871C43.6574 25.224 43.289 25.34 43.0581 25.34V26.34ZM46.4181 24.22H46.6581V23.22H46.4181V24.22ZM46.6581 24.22C46.8944 24.22 47.1903 24.3644 47.4786 25.037L48.3977 24.643C48.0459 23.8222 47.4885 23.22 46.6581 23.22V24.22ZM47.4627 24.6852C47.1573 25.6231 46.1272 26.5856 44.129 27.5058L44.5473 28.4142C46.6024 27.4677 47.9723 26.3502 48.4136 24.9948L47.4627 24.6852ZM44.1412 27.5004C43.8489 27.6257 43.4544 27.7 42.9381 27.7V28.7C43.5418 28.7 44.0807 28.6143 44.5351 28.4196L44.1412 27.5004ZM42.9381 27.7C41.7173 27.7 40.724 27.2292 39.9234 26.2613C39.1058 25.2729 38.4749 23.746 38.0692 21.626L37.087 21.814C37.508 24.014 38.1838 25.7271 39.1528 26.8987C40.1389 28.0908 41.4123 28.7 42.9381 28.7V27.7ZM38.0781 21.72V20.84H37.0781V21.72H38.0781ZM38.0781 20.84C38.0781 19.3478 38.384 18.1287 38.9669 17.1572C39.5476 16.1893 40.4235 15.4334 41.6225 14.8963L41.2137 13.9837C39.8527 14.5933 38.8086 15.4774 38.1094 16.6428C37.4123 17.8046 37.0781 19.2122 37.0781 20.84H38.0781ZM53.2353 7.72L53.7345 7.74936L53.7429 7.60634L53.6743 7.48057L53.2353 7.72ZM53.0753 10.44L52.5762 10.4106L52.5753 10.4253V10.44H53.0753ZM53.0753 11.96H52.5752L52.5754 11.9714L53.0753 11.96ZM53.2353 18.96L52.7354 18.9714L52.737 19.039L52.7564 19.1037L53.2353 18.96ZM53.3553 19.36L52.8764 19.5037L52.9833 19.86H53.3553V19.36ZM53.4753 19.36V19.86H53.6719L53.8159 19.7261L53.4753 19.36ZM56.4753 13.72L56.3237 13.2435L56.0769 13.3221L55.9987 13.569L56.4753 13.72ZM57.3553 13.44L57.426 12.945L57.3127 12.9288L57.2037 12.9635L57.3553 13.44ZM54.7553 21.44L54.3735 21.1172L54.2553 21.257V21.44H54.7553ZM54.7553 21.72H54.2553V21.9055L54.3762 22.046L54.7553 21.72ZM61.4753 27.44V27.94H61.6138L61.7326 27.8687L61.4753 27.44ZM62.4753 26.84V26.34H62.3368L62.2181 26.4113L62.4753 26.84ZM64.0753 27.96H64.5753V27.8734L64.5462 27.7918L64.0753 27.96ZM61.2353 29.72V30.22H61.2773L61.3186 30.213L61.2353 29.72ZM53.8353 23.96L54.2273 23.6496L54.0772 23.46H53.8353V23.96ZM53.4753 23.96V23.46H52.9468L52.9761 23.9877L53.4753 23.96ZM53.5953 26.12H54.0953V26.1061L54.0945 26.0923L53.5953 26.12ZM53.5953 28.2L54.0862 28.295L54.0953 28.2479V28.2H53.5953ZM52.3553 29.44L52.2505 29.9289L52.3023 29.94H52.3553V29.44ZM51.2353 27.96H51.7353V27.9513L51.735 27.9426L51.2353 27.96ZM51.0753 23.36L51.575 23.3426L51.5582 22.86H51.0753V23.36ZM50.4753 22.12L50.0317 21.8893L49.9594 22.0285L49.9794 22.184L50.4753 22.12ZM50.9953 21.12L51.4389 21.3507L51.4986 21.2359L51.4951 21.1067L50.9953 21.12ZM50.7553 12.12L50.2551 12.12L50.2555 12.1333L50.7553 12.12ZM51.9953 7.34H52.2353V6.34H51.9953V7.34ZM52.2353 7.34C52.2782 7.34 52.4846 7.38781 52.7964 7.95942L53.6743 7.48057C53.3461 6.87886 52.8858 6.34 52.2353 6.34V7.34ZM52.7362 7.69064L52.5762 10.4106L53.5745 10.4694L53.7345 7.74936L52.7362 7.69064ZM52.5753 10.44V11.96H53.5753V10.44H52.5753ZM52.5754 11.9714L52.7354 18.9714L53.7352 18.9486L53.5752 11.9486L52.5754 11.9714ZM52.7564 19.1037L52.8764 19.5037L53.8342 19.2163L53.7142 18.8163L52.7564 19.1037ZM53.3553 19.86H53.4753V18.86H53.3553V19.86ZM53.8159 19.7261C55.0582 18.5704 56.0905 16.59 56.952 13.871L55.9987 13.569C55.1535 16.2366 54.1857 18.0163 53.1348 18.9939L53.8159 19.7261ZM56.6269 14.1965L57.5069 13.9165L57.2037 12.9635L56.3237 13.2435L56.6269 14.1965ZM57.2846 13.935C57.6067 13.981 57.7776 14.0674 57.8623 14.143C57.9294 14.2029 57.9753 14.2836 57.9753 14.44H58.9753C58.9753 14.0364 58.8345 13.6704 58.5283 13.397C58.2397 13.1393 57.8506 13.0057 57.426 12.945L57.2846 13.935ZM57.9753 14.44C57.9753 15.193 57.7038 16.1263 57.1038 17.2554C56.5061 18.38 55.5999 19.6666 54.3735 21.1172L55.1371 21.7628C56.3908 20.28 57.3445 18.9334 57.9868 17.7246C58.6268 16.5203 58.9753 15.4203 58.9753 14.44H57.9753ZM54.2553 21.44V21.72H55.2553V21.44H54.2553ZM54.3762 22.046C56.0219 23.9593 57.3992 25.4092 58.5044 26.3849C59.0565 26.8722 59.5525 27.2517 59.9894 27.512C60.414 27.7651 60.839 27.94 61.2353 27.94V26.94C61.1116 26.94 60.8766 26.8766 60.5012 26.653C60.1381 26.4366 59.6941 26.1011 59.1662 25.6351C58.1114 24.7041 56.7687 23.294 55.1344 21.3939L54.3762 22.046ZM61.2353 27.94H61.4753V26.94H61.2353V27.94ZM61.7326 27.8687L62.7326 27.2687L62.2181 26.4113L61.2181 27.0113L61.7326 27.8687ZM62.4753 27.34H62.8353V26.34H62.4753V27.34ZM62.8353 27.34C62.9922 27.34 63.1159 27.3879 63.2302 27.4911C63.3551 27.6039 63.4878 27.8017 63.6044 28.1282L64.5462 27.7918C64.3961 27.3716 64.1889 27.0095 63.9005 26.7489C63.6013 26.4788 63.2384 26.34 62.8353 26.34V27.34ZM63.5753 27.96C63.5753 28.1612 63.479 28.3813 63.1019 28.615C62.7097 28.8581 62.0743 29.0711 61.152 29.227L61.3186 30.213C62.2896 30.0489 63.0742 29.8086 63.6287 29.465C64.1983 29.112 64.5753 28.6121 64.5753 27.96H63.5753ZM61.2353 29.22C60.4519 29.22 59.4704 28.8179 58.2724 27.8854C57.0832 26.9598 55.7348 25.5538 54.2273 23.6496L53.4433 24.2704C54.9758 26.2062 56.3808 27.6802 57.6582 28.6746C58.9269 29.6621 60.1254 30.22 61.2353 30.22V29.22ZM53.8353 23.46H53.4753V24.46H53.8353V23.46ZM52.9761 23.9877L53.0961 26.1477L54.0945 26.0923L53.9745 23.9323L52.9761 23.9877ZM53.0953 26.12V28.2H54.0953V26.12H53.0953ZM53.1044 28.105C53.0354 28.4615 52.9231 28.6651 52.8118 28.7764C52.7123 28.8759 52.5763 28.94 52.3553 28.94V29.94C52.801 29.94 53.205 29.7974 53.5189 29.4836C53.8208 29.1816 53.9952 28.7651 54.0862 28.295L53.1044 28.105ZM52.4601 28.9511C52.1522 28.8851 51.9808 28.7794 51.8864 28.6749C51.7985 28.5775 51.7353 28.4352 51.7353 28.2H50.7353C50.7353 28.6314 50.8588 29.0291 51.1443 29.3451C51.4232 29.654 51.8118 29.8349 52.2505 29.9289L52.4601 28.9511ZM51.7353 28.2V27.96H50.7353V28.2H51.7353ZM51.735 27.9426L51.575 23.3426L50.5756 23.3774L50.7356 27.9774L51.735 27.9426ZM51.0753 22.86C51.2163 22.86 51.2239 22.9739 51.1554 22.8322C51.0907 22.6985 51.0223 22.452 50.9712 22.056L49.9794 22.184C50.035 22.6147 50.1199 22.9882 50.2552 23.2678C50.3867 23.5394 50.641 23.86 51.0753 23.86V22.86ZM50.9189 22.3507L51.4389 21.3507L50.5517 20.8893L50.0317 21.8893L50.9189 22.3507ZM51.4951 21.1067L51.2551 12.1067L50.2555 12.1333L50.4955 21.1333L51.4951 21.1067ZM51.2553 12.12V10.36H50.2553V12.12H51.2553ZM51.2553 10.36C51.2553 9.20234 51.359 8.39111 51.5369 7.88613C51.625 7.63593 51.7195 7.49604 51.7965 7.42318C51.862 7.3612 51.921 7.34 51.9953 7.34V6.34C51.6563 6.34 51.3537 6.46546 51.1092 6.69682C50.8762 6.91729 50.7122 7.2174 50.5937 7.55387C50.3583 8.22222 50.2553 9.17099 50.2553 10.36H51.2553ZM80.8688 14L80.3873 13.8652L80.3503 13.9971L80.3858 14.1294L80.8688 14ZM83.4688 15L82.975 15.079L83.0424 15.5H83.4688V15ZM83.6288 15V15.5H83.6825L83.735 15.4886L83.6288 15ZM85.4688 14.6V14.1H85.415L85.3625 14.1114L85.4688 14.6ZM87.9488 17L87.5015 17.2236L87.6397 17.5H87.9488V17ZM88.1087 17V17.5H88.3829L88.5303 17.2688L88.1087 17ZM91.7087 14.24L91.7991 13.7482L91.7543 13.74H91.7087V14.24ZM95.6288 19.36H95.1288V19.3743L95.1296 19.3885L95.6288 19.36ZM95.7087 20.76L96.2083 20.7823L96.2094 20.7569L96.2079 20.7315L95.7087 20.76ZM95.3487 28.84L94.8492 28.8177L94.8487 28.8289V28.84H95.3487ZM94.1087 30.76V31.26H94.1409L94.1727 31.2559L94.1087 30.76ZM92.8688 27.84L92.3698 27.8069L92.3688 27.8234V27.84H92.8688ZM93.3487 20.6L93.8477 20.6331L93.8487 20.6166V20.6H93.3487ZM88.8688 21.84L88.3885 21.7007L88.3776 21.7383L88.3727 21.7772L88.8688 21.84ZM86.9488 28.12L86.8848 28.6159L87.4488 28.6887V28.12H86.9488ZM85.7087 26.84L85.2116 26.7866L85.2087 26.8132V26.84H85.7087ZM86.2288 22L86.7259 22.0534L86.7294 22.0208L86.7286 21.988L86.2288 22ZM85.1087 17V16.5H84.9403L84.8062 16.6019L85.1087 17ZM84.1087 22.12L84.6087 22.1331V22.12H84.1087ZM83.9488 28.24L84.4302 28.3748L84.447 28.3151L84.4486 28.2531L83.9488 28.24ZM81.6288 27.84L81.129 27.8569L81.1302 27.8909L81.1359 27.9245L81.6288 27.84ZM81.4688 23.12L80.9697 23.0891L80.9682 23.113L80.969 23.1369L81.4688 23.12ZM81.7087 19.24L82.2078 19.2709L82.21 19.2355L82.2072 19.2001L81.7087 19.24ZM81.3502 14.1348C81.4229 13.8754 81.5281 13.7287 81.6366 13.644C81.7432 13.5607 81.9005 13.5 82.1488 13.5V12.5C81.7303 12.5 81.341 12.606 81.0209 12.856C80.7027 13.1046 80.5013 13.4579 80.3873 13.8652L81.3502 14.1348ZM82.1488 13.5C82.2791 13.5 82.4129 13.5503 82.5614 13.7754C82.7242 14.022 82.8729 14.4405 82.975 15.079L83.9625 14.921C83.8513 14.2262 83.6733 13.6446 83.3961 13.2246C83.1046 12.783 82.6851 12.5 82.1488 12.5V13.5ZM83.4688 15.5H83.6288V14.5H83.4688V15.5ZM83.735 15.4886L85.575 15.0886L85.3625 14.1114L83.5225 14.5114L83.735 15.4886ZM85.4688 15.1C85.7258 15.1 86.0277 15.2174 86.381 15.5593C86.7377 15.9045 87.1144 16.4493 87.5015 17.2236L88.396 16.7764C87.9831 15.9507 87.5464 15.2955 87.0765 14.8407C86.6031 14.3826 86.0651 14.1 85.4688 14.1V15.1ZM87.9488 17.5H88.1087V16.5H87.9488V17.5ZM88.5303 17.2688C89.6826 15.4619 90.7523 14.74 91.7087 14.74V13.74C90.2119 13.74 88.8816 14.8581 87.6872 16.7312L88.5303 17.2688ZM91.6184 14.7318C92.8332 14.9549 93.6905 15.4509 94.2517 16.184C94.8177 16.9231 95.1288 17.9636 95.1288 19.36H96.1288C96.1288 17.823 95.7865 16.5435 95.0458 15.576C94.3003 14.6024 93.1976 14.0051 91.7991 13.7482L91.6184 14.7318ZM95.1296 19.3885L95.2096 20.7885L96.2079 20.7315L96.1279 19.3315L95.1296 19.3885ZM95.2092 20.7377L94.8492 28.8177L95.8483 28.8623L96.2083 20.7823L95.2092 20.7377ZM94.8487 28.84V29.6H95.8487V28.84H94.8487ZM94.8487 29.6C94.8487 29.8217 94.7848 29.9429 94.6972 30.0249C94.5955 30.12 94.401 30.2182 94.0448 30.2641L94.1727 31.2559C94.6432 31.1952 95.0687 31.0467 95.3803 30.7551C95.7061 30.4504 95.8487 30.0449 95.8487 29.6H94.8487ZM94.1087 30.26C94.0082 30.26 93.9374 30.2332 93.875 30.1842C93.8052 30.1294 93.7201 30.0257 93.639 29.8346C93.4722 29.4418 93.3688 28.7931 93.3688 27.84H92.3688C92.3688 28.8335 92.472 29.6449 92.7185 30.2254C92.844 30.521 93.0173 30.7822 93.2575 30.9708C93.5051 31.1651 93.796 31.26 94.1087 31.26V30.26ZM93.3677 27.8731L93.8477 20.6331L92.8498 20.5669L92.3698 27.8069L93.3677 27.8731ZM93.8487 20.6C93.8487 19.2433 93.6918 18.1545 93.3313 17.3873C93.1479 16.9972 92.9028 16.6707 92.5805 16.4422C92.2535 16.2102 91.8762 16.1 91.4688 16.1V17.1C91.688 17.1 91.859 17.1564 92.002 17.2578C92.1497 17.3626 92.2963 17.5361 92.4262 17.8127C92.6923 18.3788 92.8487 19.29 92.8487 20.6H93.8487ZM91.4688 16.1C91.0795 16.1 90.7657 16.3331 90.5312 16.5913C90.2881 16.8588 90.0566 17.2329 89.8309 17.6878C89.3775 18.6015 88.8977 19.9454 88.3885 21.7007L89.349 21.9793C89.8531 20.2412 90.3133 18.9652 90.7266 18.1322C90.9343 17.7138 91.1177 17.4329 91.2713 17.2637C91.4334 17.0853 91.498 17.1 91.4688 17.1V16.1ZM88.3727 21.7772C88.1198 23.7741 87.8917 25.2585 87.6891 26.2388C87.5871 26.7323 87.4955 27.0783 87.4168 27.2929C87.3763 27.4034 87.3489 27.4516 87.3409 27.4632C87.3122 27.505 87.4016 27.34 87.6288 27.34V28.34C87.936 28.34 88.1082 28.1125 88.1653 28.0293C88.2432 27.9159 88.3046 27.7766 88.3557 27.6371C88.4603 27.3517 88.5637 26.9477 88.6684 26.4412C88.8791 25.4215 89.1111 23.9059 89.3648 21.9028L88.3727 21.7772ZM87.6288 27.34C87.3827 27.34 87.1336 27.3632 86.9284 27.4477C86.821 27.4919 86.6992 27.5636 86.6026 27.6829C86.4995 27.8104 86.4488 27.9633 86.4488 28.12H87.4488C87.4488 28.1834 87.4264 28.2546 87.3799 28.3121C87.34 28.3614 87.3032 28.3748 87.3091 28.3723C87.3144 28.3702 87.3409 28.3609 87.3992 28.3529C87.4559 28.3451 87.5314 28.34 87.6288 28.34V27.34ZM87.0127 27.6241C86.6672 27.5795 86.4794 27.4769 86.3779 27.3721C86.2833 27.2745 86.2087 27.1185 86.2087 26.84H85.2087C85.2087 27.3082 85.3409 27.7389 85.6596 28.0679C85.9715 28.3898 86.4036 28.5538 86.8848 28.6159L87.0127 27.6241ZM86.2059 26.8934L86.7259 22.0534L85.7316 21.9466L85.2116 26.7866L86.2059 26.8934ZM86.7286 21.988C86.6884 20.3144 86.5845 19.0291 86.409 18.1519C86.3222 17.7179 86.211 17.3462 86.059 17.0709C85.914 16.8083 85.6522 16.5 85.2288 16.5V17.5C85.0986 17.5 85.0985 17.4001 85.1835 17.5541C85.2615 17.6955 85.3486 17.9488 85.4285 18.3481C85.5864 19.1375 85.6891 20.3523 85.7289 22.012L86.7286 21.988ZM85.2288 16.5H85.1087V17.5H85.2288V16.5ZM84.8062 16.6019C83.9447 17.2567 83.6087 18.4677 83.6087 20H84.6087C84.6087 18.5456 84.9395 17.7567 85.4113 17.3981L84.8062 16.6019ZM83.6087 20V22.12H84.6087V20H83.6087ZM83.6089 22.1069L83.4489 28.2269L84.4486 28.2531L84.6086 22.1331L83.6089 22.1069ZM83.4673 28.1052C83.3935 28.3686 83.2891 28.5167 83.1849 28.6008C83.0843 28.6819 82.9388 28.74 82.7087 28.74V29.74C83.1187 29.74 83.4998 29.6315 83.8126 29.3792C84.1217 29.1299 84.3173 28.778 84.4302 28.3748L83.4673 28.1052ZM82.7087 28.74C82.593 28.74 82.5057 28.7027 82.4146 28.5846C82.3059 28.4437 82.1953 28.1854 82.1216 27.7555L81.1359 27.9245C81.2222 28.4279 81.3716 28.8697 81.6229 29.1954C81.8918 29.544 82.2645 29.74 82.7087 29.74V28.74ZM82.1285 27.8231L81.9685 23.1031L80.969 23.1369L81.129 27.8569L82.1285 27.8231ZM81.9678 23.1509L82.2078 19.2709L81.2097 19.2091L80.9697 23.0891L81.9678 23.1509ZM82.2072 19.2001C82.0454 17.1783 81.7615 15.4004 81.3517 13.8706L80.3858 14.1294C80.776 15.5863 81.0521 17.3017 81.2103 19.2799L82.2072 19.2001ZM101.524 13.64L101.537 13.14H101.524V13.64ZM106.924 19.24L107.421 19.1816L107.406 19.0594L107.337 18.9579L106.924 19.24ZM107.004 19.92H107.504V19.8907L107.501 19.8616L107.004 19.92ZM101.524 21.64L101.47 21.143L101.295 21.1621L101.171 21.2864L101.524 21.64ZM101.404 21.76L101.051 21.4064L100.904 21.5529V21.76H101.404ZM101.404 21.92H100.904V21.9776L100.917 22.0336L101.404 21.92ZM107.524 22.76V22.26H107.308L107.16 22.4172L107.524 22.76ZM109.004 23.92H109.504V23.8284L109.472 23.7427L109.004 23.92ZM105.644 27.24L105.898 27.6705L105.915 27.6605L105.931 27.6492L105.644 27.24ZM103.524 28V28.5H103.572L103.619 28.4909L103.524 28ZM99.0041 21.92L99.4933 21.817L99.4219 21.4778L99.0793 21.4257L99.0041 21.92ZM98.5241 19.24H99.0241V18.6266L98.4232 18.7503L98.5241 19.24ZM98.5241 19.4H98.0241V20.1385L98.7098 19.8642L98.5241 19.4ZM98.9241 19.24L99.1098 19.7042L99.4241 19.5785V19.24H98.9241ZM101.764 16.52L102.079 16.1314L101.941 16.02H101.764V16.52ZM101.404 16.52V16.02H100.955L100.907 16.4663L101.404 16.52ZM101.244 18L100.747 17.9463L100.744 17.9731V18H101.244ZM101.244 19.24H100.744V19.74H101.244V19.24ZM101.404 19.24V19.74H101.413L101.422 19.7397L101.404 19.24ZM103.644 18.76H104.144V18.6086L104.06 18.4826L103.644 18.76ZM101.512 14.1398C101.644 14.1431 101.863 14.2087 102.186 14.4222C102.502 14.6312 102.878 14.9549 103.314 15.4071C104.186 16.3109 105.251 17.6778 106.511 19.5221L107.337 18.9579C106.064 17.0955 104.962 15.6758 104.034 14.7129C103.57 14.2318 103.137 13.8521 102.737 13.5878C102.344 13.328 101.938 13.1502 101.537 13.1402L101.512 14.1398ZM106.427 19.2984L106.507 19.9784L107.501 19.8616L107.421 19.1816L106.427 19.2984ZM106.504 19.92C106.504 19.8767 106.536 19.9214 106.369 20.0422C106.204 20.1613 105.92 20.2961 105.484 20.4329C104.619 20.7047 103.288 20.9439 101.47 21.143L101.578 22.137C103.414 21.9361 104.823 21.6887 105.784 21.3871C106.261 21.2372 106.663 21.0637 106.954 20.8528C107.244 20.6436 107.504 20.3366 107.504 19.92H106.504ZM101.171 21.2864L101.051 21.4064L101.758 22.1136L101.878 21.9936L101.171 21.2864ZM100.904 21.76V21.92H101.904V21.76H100.904ZM100.917 22.0336C101.2 23.245 101.497 24.1886 101.815 24.8396C101.974 25.1641 102.151 25.4437 102.356 25.6486C102.563 25.8557 102.834 26.02 103.164 26.02V25.02C103.187 25.02 103.156 25.0343 103.063 24.9414C102.967 24.8463 102.848 24.6759 102.713 24.4004C102.445 23.8514 102.168 22.995 101.891 21.8064L100.917 22.0336ZM103.164 26.02H103.644V25.02H103.164V26.02ZM103.644 26.02C104.231 26.02 104.875 25.713 105.544 25.2374C106.228 24.7506 107.01 24.0345 107.888 23.1028L107.16 22.4172C106.304 23.3255 105.573 23.9894 104.964 24.4226C104.34 24.867 103.91 25.02 103.644 25.02V26.02ZM107.524 23.26H107.764V22.26H107.524V23.26ZM107.764 23.26C107.983 23.26 108.27 23.3946 108.537 24.0973L109.472 23.7427C109.151 22.8987 108.612 22.26 107.764 22.26V23.26ZM108.504 23.92C108.504 23.9419 108.491 24.0345 108.373 24.2176C108.26 24.3933 108.078 24.6117 107.813 24.8743C107.282 25.3989 106.468 26.0503 105.357 26.8308L105.931 27.6492C107.06 26.8563 107.926 26.1678 108.515 25.5857C108.81 25.2949 109.048 25.0184 109.215 24.7574C109.378 24.5038 109.504 24.2181 109.504 23.92H108.504ZM105.39 26.8095C104.862 27.1211 104.212 27.3575 103.429 27.5091L103.619 28.4909C104.489 28.3225 105.252 28.0522 105.898 27.6705L105.39 26.8095ZM103.524 27.5C102.63 27.5 101.852 27.0925 101.175 26.1817C100.484 25.2519 99.9135 23.8127 99.4933 21.817L98.5148 22.023C98.948 24.0806 99.5574 25.6814 100.373 26.7783C101.202 27.8942 102.258 28.5 103.524 28.5V27.5ZM99.0793 21.4257C98.5096 21.339 98.1508 21.1866 97.9425 21.0145C97.7559 20.8604 97.6641 20.6709 97.6641 20.4H96.6641C96.6641 20.9558 96.8789 21.433 97.3056 21.7855C97.7107 22.1201 98.2719 22.3143 98.9288 22.4143L99.0793 21.4257ZM97.6641 20.4C97.6641 20.2557 97.7112 20.1505 97.8285 20.0504C97.9651 19.934 98.2126 19.8146 98.6249 19.7297L98.4232 18.7503C97.9289 18.852 97.4964 19.0194 97.1796 19.2896C96.8436 19.5762 96.6641 19.9577 96.6641 20.4H97.6641ZM98.0241 19.24V19.4H99.0241V19.24H98.0241ZM98.7098 19.8642L99.1098 19.7042L98.7384 18.7758L98.3384 18.9358L98.7098 19.8642ZM99.4241 19.24V18.24H98.4241V19.24H99.4241ZM99.4241 18.24C99.4241 16.7374 99.6393 15.6908 100.009 15.036C100.356 14.4231 100.841 14.14 101.524 14.14V13.14C100.474 13.14 99.659 13.6235 99.1388 14.544C98.6422 15.4225 98.4241 16.676 98.4241 18.24H99.4241ZM101.764 16.02H101.404V17.02H101.764V16.02ZM100.907 16.4663L100.747 17.9463L101.741 18.0537L101.901 16.5737L100.907 16.4663ZM100.744 18V19.24H101.744V18H100.744ZM101.244 19.74H101.404V18.74H101.244V19.74ZM101.422 19.7397C102.176 19.7128 102.771 19.6584 103.189 19.5689C103.393 19.5251 103.592 19.4655 103.752 19.3741C103.901 19.2893 104.144 19.0979 104.144 18.76H103.144C103.144 18.5555 103.294 18.484 103.256 18.5059C103.229 18.5212 103.148 18.5549 102.979 18.5911C102.65 18.6616 102.126 18.7139 101.386 18.7403L101.422 19.7397ZM104.06 18.4826C103.356 17.4267 102.696 16.6315 102.079 16.1314L101.449 16.9086C101.952 17.3152 102.545 18.0133 103.228 19.0373L104.06 18.4826ZM111.581 0.839999L111.77 0.376953L111.648 0.327253L111.517 0.34411L111.581 0.839999ZM112.661 2.12H112.161L112.161 2.13408L112.661 2.12ZM113.581 18.52L114.045 18.7057L114.093 18.5874L114.078 18.4609L113.581 18.52ZM110.941 14.76H111.441V14.7094L111.431 14.6598L110.941 14.76ZM110.341 2H109.841L109.841 2.01091L110.341 2ZM111.821 28.36L111.341 28.2206L111.294 28.3811L111.354 28.5373L111.821 28.36ZM114.421 28.36L114.889 28.5373L114.948 28.3811L114.901 28.2206L114.421 28.36ZM111.393 1.30305C111.705 1.43051 111.898 1.57039 112.009 1.70243C112.113 1.82526 112.161 1.95761 112.161 2.12H113.161C113.161 1.72239 113.03 1.36141 112.773 1.05756C112.525 0.762936 112.177 0.542822 111.77 0.376953L111.393 1.30305ZM112.161 2.13408C112.375 9.70873 112.682 15.1949 113.085 18.5791L114.078 18.4609C113.681 15.1251 113.374 9.67794 113.161 2.10592L112.161 2.13408ZM113.117 18.3343C112.889 18.9054 112.638 19.02 112.421 19.02V20.02C113.218 20.02 113.741 19.468 114.045 18.7057L113.117 18.3343ZM112.421 19.02C112.28 19.02 112.021 18.93 111.789 18.1815C111.565 17.4621 111.441 16.3333 111.441 14.76H110.441C110.441 16.36 110.564 17.6113 110.834 18.4785C111.094 19.3166 111.576 20.02 112.421 20.02V19.02ZM111.431 14.6598C111.32 14.1189 111.211 12.8046 111.111 10.6665C111.011 8.54597 110.921 5.65409 110.841 1.98909L109.841 2.01091C109.921 5.67924 110.012 8.5807 110.112 10.7135C110.211 12.8288 110.322 14.2278 110.451 14.8602L111.431 14.6598ZM110.841 2C110.841 1.77827 110.905 1.65706 110.993 1.57513C111.094 1.48003 111.289 1.38185 111.645 1.33589L111.517 0.34411C111.047 0.404816 110.621 0.553305 110.31 0.844863C109.984 1.1496 109.841 1.55506 109.841 2H110.841ZM112.301 28.4994C112.407 28.1344 112.54 27.9141 112.669 27.7891C112.786 27.676 112.92 27.62 113.101 27.62V26.62C112.669 26.62 112.283 26.7706 111.973 27.0709C111.676 27.3592 111.475 27.7589 111.341 28.2206L112.301 28.4994ZM113.101 27.62C113.302 27.62 113.448 27.6804 113.569 27.7944C113.702 27.9191 113.836 28.1374 113.941 28.4994L114.901 28.2206C114.767 27.7559 114.561 27.3543 114.254 27.0656C113.935 26.7662 113.54 26.62 113.101 26.62V27.62ZM113.954 28.1827C113.687 28.8854 113.4 29.02 113.181 29.02V30.02C114.029 30.02 114.569 29.3813 114.889 28.5373L113.954 28.1827ZM113.181 29.02H113.061V30.02H113.181V29.02ZM113.061 29.02C112.842 29.02 112.555 28.8854 112.289 28.1827L111.354 28.5373C111.674 29.3813 112.214 30.02 113.061 30.02V29.02Z" fill="#F14D08" mask="url(#path-4-outside-1_93_31)"/>
</g>
<defs>
<filter id="filter0_d_93_31" x="0" y="0.840088" width="118.421" height="37.9199" filterUnits="userSpaceOnUse" color-interpolation-filters="sRGB">
<feFlood flood-opacity="0" result="BackgroundImageFix"/>
<feColorMatrix in="SourceAlpha" type="matrix" values="0 0 0 0 0 0 0 0 0 0 0 0 0 0 0 0 0 0 127 0" result="hardAlpha"/>
<feOffset dy="4"/>
<feGaussianBlur stdDeviation="2"/>
<feComposite in2="hardAlpha" operator="out"/>
<feColorMatrix type="matrix" values="0 0 0 0 0.00784314 0 0 0 0 0 0 0 0 0 0.00392157 0 0 0 0.12 0"/>
<feBlend mode="normal" in2="BackgroundImageFix" result="effect1_dropShadow_93_31"/>
<feBlend mode="normal" in="SourceGraphic" in2="effect1_dropShadow_93_31" result="shape"/>
</filter>
</defs>
</svg>
