<svg width="117" height="23" viewBox="0 0 117 23" fill="none" xmlns="http://www.w3.org/2000/svg">
<path d="M3.935 13.95C3.935 14.9767 4.15667 15.875 4.6 16.645C5.04333 17.3917 5.63833 17.9867 6.385 18.43C7.155 18.8733 8.00667 19.095 8.94 19.095C9.71 19.095 10.445 18.9783 11.145 18.745C11.845 18.5117 12.4633 18.185 13 17.765C13.5367 17.345 13.9333 16.8783 14.19 16.365V20.53C13.63 21.09 12.8717 21.5333 11.915 21.86C10.9583 22.1867 9.90833 22.35 8.765 22.35C7.10833 22.35 5.615 22 4.285 21.3C2.97833 20.5767 1.94 19.585 1.17 18.325C0.423333 17.0417 0.05 15.5833 0.05 13.95C0.05 12.2933 0.423333 10.835 1.17 9.575C1.94 8.315 2.97833 7.335 4.285 6.635C5.615 5.91167 7.10833 5.55 8.765 5.55C9.90833 5.55 10.9583 5.71333 11.915 6.04C12.8717 6.36667 13.63 6.81 14.19 7.37V11.535C13.9333 10.9983 13.525 10.5317 12.965 10.135C12.4283 9.715 11.81 9.38833 11.11 9.155C10.41 8.92167 9.68667 8.805 8.94 8.805C8.00667 8.805 7.155 9.02667 6.385 9.47C5.63833 9.91333 5.04333 10.52 4.6 11.29C4.15667 12.06 3.935 12.9467 3.935 13.95ZM17.1431 13.95C17.1431 12.2933 17.5165 10.835 18.2631 9.575C19.0331 8.315 20.0715 7.335 21.3781 6.635C22.6848 5.91167 24.1665 5.55 25.8231 5.55C27.4798 5.55 28.9498 5.91167 30.2331 6.635C31.5398 7.335 32.5781 8.315 33.3481 9.575C34.1181 10.835 34.5031 12.2933 34.5031 13.95C34.5031 15.5833 34.1181 17.0417 33.3481 18.325C32.5781 19.585 31.5398 20.5767 30.2331 21.3C28.9498 22 27.4798 22.35 25.8231 22.35C24.1665 22.35 22.6848 22 21.3781 21.3C20.0715 20.5767 19.0331 19.585 18.2631 18.325C17.5165 17.0417 17.1431 15.5833 17.1431 13.95ZM21.0281 13.95C21.0281 14.9533 21.2381 15.84 21.6581 16.61C22.0781 17.3567 22.6498 17.9517 23.3731 18.395C24.0965 18.815 24.9131 19.025 25.8231 19.025C26.7098 19.025 27.5148 18.815 28.2381 18.395C28.9848 17.9517 29.5681 17.3567 29.9881 16.61C30.4081 15.84 30.6181 14.9533 30.6181 13.95C30.6181 12.9467 30.4081 12.06 29.9881 11.29C29.5681 10.52 28.9848 9.925 28.2381 9.505C27.5148 9.085 26.7098 8.875 25.8231 8.875C24.9131 8.875 24.0965 9.085 23.3731 9.505C22.6498 9.925 22.0781 10.52 21.6581 11.29C21.2381 12.06 21.0281 12.9467 21.0281 13.95ZM48.4498 12.2C48.4498 11.01 48.2048 10.1117 47.7148 9.505C47.2248 8.89833 46.4665 8.595 45.4398 8.595C44.7398 8.595 44.1215 8.74667 43.5848 9.05C43.0481 9.33 42.6281 9.75 42.3248 10.31C42.0215 10.8467 41.8698 11.4767 41.8698 12.2V22H38.0898V5.9H41.8698V8.385C42.3831 7.42833 43.0365 6.71667 43.8298 6.25C44.6465 5.78333 45.6148 5.55 46.7348 5.55C48.5548 5.55 49.9431 6.11 50.8998 7.23C51.8565 8.32667 52.3348 9.84333 52.3348 11.78V22H48.4498V12.2ZM54.9221 5.9H64.0571V9.225H54.9221V5.9ZM57.6171 0.3H61.3621V22H57.6171V0.3ZM69.044 16.995C69.044 17.5317 69.1724 17.9983 69.429 18.395C69.6857 18.7683 70.0357 19.0483 70.479 19.235C70.9457 19.4217 71.4707 19.515 72.054 19.515C72.8007 19.515 73.4774 19.3633 74.084 19.06C74.714 18.7567 75.2157 18.3133 75.589 17.73C75.9857 17.1233 76.184 16.4233 76.184 15.63L76.744 17.73C76.744 18.7567 76.4407 19.62 75.834 20.32C75.2507 20.9967 74.504 21.51 73.594 21.86C72.7074 22.1867 71.7974 22.35 70.864 22.35C69.8607 22.35 68.9274 22.1517 68.064 21.755C67.2007 21.3583 66.5124 20.775 65.999 20.005C65.4857 19.235 65.229 18.3017 65.229 17.205C65.229 15.6417 65.7774 14.405 66.874 13.495C67.9707 12.5617 69.5224 12.095 71.529 12.095C72.6024 12.095 73.524 12.2117 74.294 12.445C75.0874 12.6783 75.7407 12.9583 76.254 13.285C76.7674 13.5883 77.129 13.8683 77.339 14.125V16.05C76.6157 15.5367 75.8457 15.1633 75.029 14.93C74.2124 14.6967 73.349 14.58 72.439 14.58C71.6457 14.58 71.004 14.685 70.514 14.895C70.024 15.0817 69.6507 15.35 69.394 15.7C69.1607 16.05 69.044 16.4817 69.044 16.995ZM67.854 10.1L66.314 7.44C67.0374 6.99667 67.9707 6.565 69.114 6.145C70.2807 5.725 71.6107 5.515 73.104 5.515C74.434 5.515 75.6007 5.71333 76.604 6.11C77.6307 6.50667 78.4357 7.07833 79.019 7.825C79.6024 8.54833 79.894 9.44667 79.894 10.52V22H76.184V11.255C76.184 10.7417 76.0907 10.3217 75.904 9.995C75.7407 9.66833 75.5074 9.4 75.204 9.19C74.9007 8.98 74.539 8.82833 74.119 8.735C73.699 8.64167 73.244 8.595 72.754 8.595C72.0074 8.595 71.2957 8.68833 70.619 8.875C69.9657 9.03833 69.394 9.24833 68.904 9.505C68.4374 9.73833 68.0874 9.93667 67.854 10.1ZM86.8207 13.95C86.8207 14.9767 87.0424 15.875 87.4857 16.645C87.9291 17.3917 88.5241 17.9867 89.2707 18.43C90.0407 18.8733 90.8924 19.095 91.8257 19.095C92.5957 19.095 93.3307 18.9783 94.0307 18.745C94.7307 18.5117 95.3491 18.185 95.8857 17.765C96.4224 17.345 96.8191 16.8783 97.0757 16.365V20.53C96.5157 21.09 95.7574 21.5333 94.8007 21.86C93.8441 22.1867 92.7941 22.35 91.6507 22.35C89.9941 22.35 88.5007 22 87.1707 21.3C85.8641 20.5767 84.8257 19.585 84.0557 18.325C83.3091 17.0417 82.9357 15.5833 82.9357 13.95C82.9357 12.2933 83.3091 10.835 84.0557 9.575C84.8257 8.315 85.8641 7.335 87.1707 6.635C88.5007 5.91167 89.9941 5.55 91.6507 5.55C92.7941 5.55 93.8441 5.71333 94.8007 6.04C95.7574 6.36667 96.5157 6.81 97.0757 7.37V11.535C96.8191 10.9983 96.4107 10.5317 95.8507 10.135C95.3141 9.715 94.6957 9.38833 93.9957 9.155C93.2957 8.92167 92.5724 8.805 91.8257 8.805C90.8924 8.805 90.0407 9.02667 89.2707 9.47C88.5241 9.91333 87.9291 10.52 87.4857 11.29C87.0424 12.06 86.8207 12.9467 86.8207 13.95ZM99.0139 5.9H108.149V9.225H99.0139V5.9ZM101.709 0.3H105.454V22H101.709V0.3Z" fill="#9CAFFE"/>
<path d="M111.281 20.215C111.281 19.5383 111.514 18.9667 111.981 18.5C112.471 18.01 113.054 17.765 113.731 17.765C114.454 17.765 115.049 18.01 115.516 18.5C115.982 18.9667 116.216 19.5383 116.216 20.215C116.216 20.8683 115.982 21.44 115.516 21.93C115.049 22.42 114.454 22.665 113.731 22.665C113.054 22.665 112.471 22.42 111.981 21.93C111.514 21.44 111.281 20.8683 111.281 20.215Z" fill="#F14D08"/>
</svg>
