<svg width="428" height="37" viewBox="0 0 428 37" fill="none" xmlns="http://www.w3.org/2000/svg">
<path d="M13.525 0.699999H17.34V28H13.525V0.699999ZM0.19 19.95C0.19 18.1767 0.551667 16.6717 1.275 15.435C1.99833 14.175 2.955 13.2183 4.145 12.565C5.35833 11.8883 6.65333 11.55 8.03 11.55C9.38333 11.55 10.5617 11.8883 11.565 12.565C12.5917 13.2417 13.3967 14.21 13.98 15.47C14.5867 16.7067 14.89 18.2 14.89 19.95C14.89 21.6767 14.5867 23.17 13.98 24.43C13.3967 25.69 12.5917 26.6583 11.565 27.335C10.5617 28.0117 9.38333 28.35 8.03 28.35C6.65333 28.35 5.35833 28.0233 4.145 27.37C2.955 26.6933 1.99833 25.725 1.275 24.465C0.551667 23.205 0.19 21.7 0.19 19.95ZM4.11 19.95C4.11 21.0233 4.33167 21.945 4.775 22.715C5.21833 23.485 5.80167 24.0683 6.525 24.465C7.27167 24.8617 8.07667 25.06 8.94 25.06C9.66333 25.06 10.375 24.8617 11.075 24.465C11.7983 24.0683 12.3817 23.4967 12.825 22.75C13.2917 21.98 13.525 21.0467 13.525 19.95C13.525 18.8533 13.2917 17.9317 12.825 17.185C12.3817 16.415 11.7983 15.8317 11.075 15.435C10.375 15.0383 9.66333 14.84 8.94 14.84C8.07667 14.84 7.27167 15.0383 6.525 15.435C5.80167 15.8317 5.21833 16.415 4.775 17.185C4.33167 17.955 4.11 18.8767 4.11 19.95ZM29.0254 28.35C27.392 28.35 25.9454 28 24.6854 27.3C23.4487 26.6 22.492 25.62 21.8154 24.36C21.1387 23.1 20.8004 21.63 20.8004 19.95C20.8004 18.2467 21.1387 16.765 21.8154 15.505C22.5154 14.245 23.4954 13.2767 24.7554 12.6C26.0154 11.9 27.497 11.55 29.2004 11.55C30.9037 11.55 32.3504 11.8767 33.5404 12.53C34.7304 13.1833 35.6404 14.1283 36.2704 15.365C36.9237 16.5783 37.2504 18.0483 37.2504 19.775C37.2504 19.9617 37.2387 20.16 37.2154 20.37C37.2154 20.58 37.2037 20.7317 37.1804 20.825H23.0404V18.235H33.9604L32.8054 19.845C32.8754 19.705 32.9454 19.5183 33.0154 19.285C33.1087 19.0283 33.1554 18.8183 33.1554 18.655C33.1554 17.7917 32.9804 17.045 32.6304 16.415C32.3037 15.785 31.837 15.295 31.2304 14.945C30.647 14.595 29.9587 14.42 29.1654 14.42C28.2087 14.42 27.392 14.63 26.7154 15.05C26.0387 15.47 25.5254 16.0767 25.1754 16.87C24.8254 17.6633 24.6387 18.6433 24.6154 19.81C24.6154 20.9767 24.7904 21.9683 25.1404 22.785C25.4904 23.5783 26.0037 24.185 26.6804 24.605C27.3804 25.025 28.2204 25.235 29.2004 25.235C30.227 25.235 31.1254 25.025 31.8954 24.605C32.6654 24.185 33.307 23.5433 33.8204 22.68L37.0754 24.01C36.2354 25.4567 35.1504 26.5417 33.8204 27.265C32.4904 27.9883 30.892 28.35 29.0254 28.35ZM41.5934 22.715C42.1067 23.275 42.62 23.765 43.1334 24.185C43.67 24.5817 44.2067 24.885 44.7434 25.095C45.28 25.2817 45.8167 25.375 46.3534 25.375C47.03 25.375 47.555 25.2233 47.9284 24.92C48.325 24.6167 48.5234 24.1967 48.5234 23.66C48.5234 23.1933 48.3717 22.7967 48.0684 22.47C47.765 22.12 47.345 21.8283 46.8084 21.595C46.2717 21.3383 45.6417 21.0817 44.9184 20.825C44.195 20.545 43.4717 20.2183 42.7484 19.845C42.0484 19.4483 41.465 18.935 40.9984 18.305C40.555 17.675 40.3334 16.8817 40.3334 15.925C40.3334 14.945 40.5784 14.1283 41.0684 13.475C41.5817 12.8217 42.2584 12.3433 43.0984 12.04C43.9617 11.7133 44.8834 11.55 45.8634 11.55C46.75 11.55 47.5784 11.6783 48.3484 11.935C49.1417 12.1917 49.8534 12.53 50.4834 12.95C51.1134 13.37 51.65 13.8483 52.0934 14.385L49.9934 16.625C49.4567 15.995 48.815 15.4817 48.0684 15.085C47.3217 14.6883 46.5517 14.49 45.7584 14.49C45.2217 14.49 44.7784 14.6067 44.4284 14.84C44.0784 15.0733 43.9034 15.4117 43.9034 15.855C43.9034 16.2283 44.055 16.5667 44.3584 16.87C44.685 17.15 45.105 17.4067 45.6184 17.64C46.155 17.8733 46.75 18.1183 47.4034 18.375C48.29 18.725 49.1067 19.11 49.8534 19.53C50.6 19.95 51.195 20.4633 51.6384 21.07C52.105 21.6767 52.3384 22.47 52.3384 23.45C52.3384 24.9667 51.8134 26.1917 50.7634 27.125C49.7367 28.035 48.3367 28.49 46.5634 28.49C45.4667 28.49 44.4517 28.3267 43.5184 28C42.6084 27.65 41.8034 27.2067 41.1034 26.67C40.4267 26.11 39.855 25.5267 39.3884 24.92L41.5934 22.715ZM55.5523 5.495C55.5523 4.84167 55.7857 4.29333 56.2523 3.85C56.7423 3.40666 57.3023 3.185 57.9323 3.185C58.609 3.185 59.169 3.40666 59.6123 3.85C60.079 4.29333 60.3123 4.84167 60.3123 5.495C60.3123 6.125 60.079 6.67333 59.6123 7.14C59.169 7.58333 58.609 7.805 57.9323 7.805C57.3023 7.805 56.7423 7.58333 56.2523 7.14C55.7857 6.67333 55.5523 6.125 55.5523 5.495ZM56.0773 11.9H59.7873V28H56.0773V11.9ZM64.0792 29.085H67.8242C67.8476 29.8083 68.0459 30.4617 68.4192 31.045C68.8159 31.6283 69.3526 32.0833 70.0292 32.41C70.7059 32.7367 71.4876 32.9 72.3742 32.9C73.1676 32.9 73.9259 32.7133 74.6492 32.34C75.3726 31.9667 75.9559 31.395 76.3992 30.625C76.8659 29.855 77.0992 28.8633 77.0992 27.65V11.9H80.8092V27.65C80.8092 29.5867 80.4126 31.185 79.6192 32.445C78.8492 33.705 77.8342 34.6383 76.5742 35.245C75.3142 35.875 73.9492 36.19 72.4792 36.19C70.7292 36.19 69.2359 35.8867 67.9992 35.28C66.7626 34.6967 65.8059 33.8683 65.1292 32.795C64.4759 31.7217 64.1259 30.485 64.0792 29.085ZM63.7642 19.88C63.7642 18.0833 64.1259 16.5783 64.8492 15.365C65.5726 14.1283 66.5292 13.1833 67.7192 12.53C68.9326 11.8767 70.2276 11.55 71.6042 11.55C72.9576 11.55 74.1359 11.8883 75.1392 12.565C76.1659 13.2183 76.9709 14.1633 77.5542 15.4C78.1609 16.6367 78.4642 18.13 78.4642 19.88C78.4642 21.6067 78.1609 23.0883 77.5542 24.325C76.9709 25.5617 76.1659 26.5183 75.1392 27.195C74.1359 27.8483 72.9576 28.175 71.6042 28.175C70.2276 28.175 68.9326 27.8483 67.7192 27.195C66.5292 26.5417 65.5726 25.5967 64.8492 24.36C64.1259 23.1233 63.7642 21.63 63.7642 19.88ZM67.6842 19.88C67.6842 20.9533 67.9059 21.8633 68.3492 22.61C68.7926 23.3567 69.3759 23.9283 70.0992 24.325C70.8459 24.6983 71.6509 24.885 72.5142 24.885C73.2376 24.885 73.9492 24.6983 74.6492 24.325C75.3726 23.9517 75.9559 23.3917 76.3992 22.645C76.8659 21.875 77.0992 20.9533 77.0992 19.88C77.0992 19.04 76.9592 18.3167 76.6792 17.71C76.4226 17.08 76.0726 16.555 75.6292 16.135C75.1859 15.6917 74.6842 15.365 74.1242 15.155C73.5876 14.945 73.0509 14.84 72.5142 14.84C71.6509 14.84 70.8459 15.0383 70.0992 15.435C69.3759 15.8083 68.7926 16.3683 68.3492 17.115C67.9059 17.8617 67.6842 18.7833 67.6842 19.88ZM95.857 18.2C95.857 17.01 95.612 16.1117 95.122 15.505C94.632 14.8983 93.8737 14.595 92.847 14.595C92.147 14.595 91.5287 14.7467 90.992 15.05C90.4554 15.33 90.0354 15.75 89.732 16.31C89.4287 16.8467 89.277 17.4767 89.277 18.2V28H85.497V11.9H89.277V14.385C89.7904 13.4283 90.4437 12.7167 91.237 12.25C92.0537 11.7833 93.022 11.55 94.142 11.55C95.962 11.55 97.3504 12.11 98.307 13.23C99.2637 14.3267 99.742 15.8433 99.742 17.78V28H95.857V18.2ZM111.569 28.35C109.936 28.35 108.489 28 107.229 27.3C105.993 26.6 105.036 25.62 104.359 24.36C103.683 23.1 103.344 21.63 103.344 19.95C103.344 18.2467 103.683 16.765 104.359 15.505C105.059 14.245 106.039 13.2767 107.299 12.6C108.559 11.9 110.041 11.55 111.744 11.55C113.448 11.55 114.894 11.8767 116.084 12.53C117.274 13.1833 118.184 14.1283 118.814 15.365C119.468 16.5783 119.794 18.0483 119.794 19.775C119.794 19.9617 119.783 20.16 119.759 20.37C119.759 20.58 119.748 20.7317 119.724 20.825H105.584V18.235H116.504L115.349 19.845C115.419 19.705 115.489 19.5183 115.559 19.285C115.653 19.0283 115.699 18.8183 115.699 18.655C115.699 17.7917 115.524 17.045 115.174 16.415C114.848 15.785 114.381 15.295 113.774 14.945C113.191 14.595 112.503 14.42 111.709 14.42C110.753 14.42 109.936 14.63 109.259 15.05C108.583 15.47 108.069 16.0767 107.719 16.87C107.369 17.6633 107.183 18.6433 107.159 19.81C107.159 20.9767 107.334 21.9683 107.684 22.785C108.034 23.5783 108.548 24.185 109.224 24.605C109.924 25.025 110.764 25.235 111.744 25.235C112.771 25.235 113.669 25.025 114.439 24.605C115.209 24.185 115.851 23.5433 116.364 22.68L119.619 24.01C118.779 25.4567 117.694 26.5417 116.364 27.265C115.034 27.9883 113.436 28.35 111.569 28.35ZM127.147 11.9V28H123.402V11.9H127.147ZM131.942 15.925C131.592 15.645 131.266 15.435 130.962 15.295C130.659 15.155 130.274 15.085 129.807 15.085C129.177 15.085 128.664 15.2483 128.267 15.575C127.871 15.9017 127.579 16.3567 127.392 16.94C127.229 17.5 127.147 18.165 127.147 18.935L125.887 18.2C125.887 16.9167 126.121 15.785 126.587 14.805C127.077 13.8017 127.696 13.0083 128.442 12.425C129.212 11.8417 130.006 11.55 130.822 11.55C131.406 11.55 131.954 11.6433 132.467 11.83C132.981 11.9933 133.412 12.2967 133.762 12.74L131.942 15.925ZM158.15 22.995C158.15 23.5317 158.279 23.9983 158.535 24.395C158.792 24.7683 159.142 25.0483 159.585 25.235C160.052 25.4217 160.577 25.515 161.16 25.515C161.907 25.515 162.584 25.3633 163.19 25.06C163.82 24.7567 164.322 24.3133 164.695 23.73C165.092 23.1233 165.29 22.4233 165.29 21.63L165.85 23.73C165.85 24.7567 165.547 25.62 164.94 26.32C164.357 26.9967 163.61 27.51 162.7 27.86C161.814 28.1867 160.904 28.35 159.97 28.35C158.967 28.35 158.034 28.1517 157.17 27.755C156.307 27.3583 155.619 26.775 155.105 26.005C154.592 25.235 154.335 24.3017 154.335 23.205C154.335 21.6417 154.884 20.405 155.98 19.495C157.077 18.5617 158.629 18.095 160.635 18.095C161.709 18.095 162.63 18.2117 163.4 18.445C164.194 18.6783 164.847 18.9583 165.36 19.285C165.874 19.5883 166.235 19.8683 166.445 20.125V22.05C165.722 21.5367 164.952 21.1633 164.135 20.93C163.319 20.6967 162.455 20.58 161.545 20.58C160.752 20.58 160.11 20.685 159.62 20.895C159.13 21.0817 158.757 21.35 158.5 21.7C158.267 22.05 158.15 22.4817 158.15 22.995ZM156.96 16.1L155.42 13.44C156.144 12.9967 157.077 12.565 158.22 12.145C159.387 11.725 160.717 11.515 162.21 11.515C163.54 11.515 164.707 11.7133 165.71 12.11C166.737 12.5067 167.542 13.0783 168.125 13.825C168.709 14.5483 169 15.4467 169 16.52V28H165.29V17.255C165.29 16.7417 165.197 16.3217 165.01 15.995C164.847 15.6683 164.614 15.4 164.31 15.19C164.007 14.98 163.645 14.8283 163.225 14.735C162.805 14.6417 162.35 14.595 161.86 14.595C161.114 14.595 160.402 14.6883 159.725 14.875C159.072 15.0383 158.5 15.2483 158.01 15.505C157.544 15.7383 157.194 15.9367 156.96 16.1ZM177.152 11.9V28H173.407V11.9H177.152ZM181.947 15.925C181.597 15.645 181.271 15.435 180.967 15.295C180.664 15.155 180.279 15.085 179.812 15.085C179.182 15.085 178.669 15.2483 178.272 15.575C177.876 15.9017 177.584 16.3567 177.397 16.94C177.234 17.5 177.152 18.165 177.152 18.935L175.892 18.2C175.892 16.9167 176.126 15.785 176.592 14.805C177.082 13.8017 177.701 13.0083 178.447 12.425C179.217 11.8417 180.011 11.55 180.827 11.55C181.411 11.55 181.959 11.6433 182.472 11.83C182.986 11.9933 183.417 12.2967 183.767 12.74L181.947 15.925ZM184.121 11.9H193.256V15.225H184.121V11.9ZM186.816 6.3H190.561V28H186.816V6.3ZM195.723 5.495C195.723 4.84167 195.957 4.29333 196.423 3.85C196.913 3.40666 197.473 3.185 198.103 3.185C198.78 3.185 199.34 3.40666 199.783 3.85C200.25 4.29333 200.483 4.84167 200.483 5.495C200.483 6.125 200.25 6.67333 199.783 7.14C199.34 7.58333 198.78 7.805 198.103 7.805C197.473 7.805 196.913 7.58333 196.423 7.14C195.957 6.67333 195.723 6.125 195.723 5.495ZM196.248 11.9H199.958V28H196.248V11.9ZM205.895 22.715C206.408 23.275 206.922 23.765 207.435 24.185C207.972 24.5817 208.508 24.885 209.045 25.095C209.582 25.2817 210.118 25.375 210.655 25.375C211.332 25.375 211.857 25.2233 212.23 24.92C212.627 24.6167 212.825 24.1967 212.825 23.66C212.825 23.1933 212.673 22.7967 212.37 22.47C212.067 22.12 211.647 21.8283 211.11 21.595C210.573 21.3383 209.943 21.0817 209.22 20.825C208.497 20.545 207.773 20.2183 207.05 19.845C206.35 19.4483 205.767 18.935 205.3 18.305C204.857 17.675 204.635 16.8817 204.635 15.925C204.635 14.945 204.88 14.1283 205.37 13.475C205.883 12.8217 206.56 12.3433 207.4 12.04C208.263 11.7133 209.185 11.55 210.165 11.55C211.052 11.55 211.88 11.6783 212.65 11.935C213.443 12.1917 214.155 12.53 214.785 12.95C215.415 13.37 215.952 13.8483 216.395 14.385L214.295 16.625C213.758 15.995 213.117 15.4817 212.37 15.085C211.623 14.6883 210.853 14.49 210.06 14.49C209.523 14.49 209.08 14.6067 208.73 14.84C208.38 15.0733 208.205 15.4117 208.205 15.855C208.205 16.2283 208.357 16.5667 208.66 16.87C208.987 17.15 209.407 17.4067 209.92 17.64C210.457 17.8733 211.052 18.1183 211.705 18.375C212.592 18.725 213.408 19.11 214.155 19.53C214.902 19.95 215.497 20.4633 215.94 21.07C216.407 21.6767 216.64 22.47 216.64 23.45C216.64 24.9667 216.115 26.1917 215.065 27.125C214.038 28.035 212.638 28.49 210.865 28.49C209.768 28.49 208.753 28.3267 207.82 28C206.91 27.65 206.105 27.2067 205.405 26.67C204.728 26.11 204.157 25.5267 203.69 24.92L205.895 22.715ZM217.754 11.9H226.889V15.225H217.754V11.9ZM220.449 6.3H224.194V28H220.449V6.3ZM251.73 22.715C252.243 23.275 252.757 23.765 253.27 24.185C253.807 24.5817 254.343 24.885 254.88 25.095C255.417 25.2817 255.953 25.375 256.49 25.375C257.167 25.375 257.692 25.2233 258.065 24.92C258.462 24.6167 258.66 24.1967 258.66 23.66C258.66 23.1933 258.508 22.7967 258.205 22.47C257.902 22.12 257.482 21.8283 256.945 21.595C256.408 21.3383 255.778 21.0817 255.055 20.825C254.332 20.545 253.608 20.2183 252.885 19.845C252.185 19.4483 251.602 18.935 251.135 18.305C250.692 17.675 250.47 16.8817 250.47 15.925C250.47 14.945 250.715 14.1283 251.205 13.475C251.718 12.8217 252.395 12.3433 253.235 12.04C254.098 11.7133 255.02 11.55 256 11.55C256.887 11.55 257.715 11.6783 258.485 11.935C259.278 12.1917 259.99 12.53 260.62 12.95C261.25 13.37 261.787 13.8483 262.23 14.385L260.13 16.625C259.593 15.995 258.952 15.4817 258.205 15.085C257.458 14.6883 256.688 14.49 255.895 14.49C255.358 14.49 254.915 14.6067 254.565 14.84C254.215 15.0733 254.04 15.4117 254.04 15.855C254.04 16.2283 254.192 16.5667 254.495 16.87C254.822 17.15 255.242 17.4067 255.755 17.64C256.292 17.8733 256.887 18.1183 257.54 18.375C258.427 18.725 259.243 19.11 259.99 19.53C260.737 19.95 261.332 20.4633 261.775 21.07C262.242 21.6767 262.475 22.47 262.475 23.45C262.475 24.9667 261.95 26.1917 260.9 27.125C259.873 28.035 258.473 28.49 256.7 28.49C255.603 28.49 254.588 28.3267 253.655 28C252.745 27.65 251.94 27.2067 251.24 26.67C250.563 26.11 249.992 25.5267 249.525 24.92L251.73 22.715ZM263.589 11.9H272.724V15.225H263.589V11.9ZM266.284 6.3H270.029V28H266.284V6.3ZM274.106 19.95C274.106 18.2933 274.479 16.835 275.226 15.575C275.996 14.315 277.034 13.335 278.341 12.635C279.648 11.9117 281.129 11.55 282.786 11.55C284.443 11.55 285.913 11.9117 287.196 12.635C288.503 13.335 289.541 14.315 290.311 15.575C291.081 16.835 291.466 18.2933 291.466 19.95C291.466 21.5833 291.081 23.0417 290.311 24.325C289.541 25.585 288.503 26.5767 287.196 27.3C285.913 28 284.443 28.35 282.786 28.35C281.129 28.35 279.648 28 278.341 27.3C277.034 26.5767 275.996 25.585 275.226 24.325C274.479 23.0417 274.106 21.5833 274.106 19.95ZM277.991 19.95C277.991 20.9533 278.201 21.84 278.621 22.61C279.041 23.3567 279.613 23.9517 280.336 24.395C281.059 24.815 281.876 25.025 282.786 25.025C283.673 25.025 284.478 24.815 285.201 24.395C285.948 23.9517 286.531 23.3567 286.951 22.61C287.371 21.84 287.581 20.9533 287.581 19.95C287.581 18.9467 287.371 18.06 286.951 17.29C286.531 16.52 285.948 15.925 285.201 15.505C284.478 15.085 283.673 14.875 282.786 14.875C281.876 14.875 281.059 15.085 280.336 15.505C279.613 15.925 279.041 16.52 278.621 17.29C278.201 18.06 277.991 18.9467 277.991 19.95ZM298.798 11.9V28H295.053V11.9H298.798ZM303.593 15.925C303.243 15.645 302.916 15.435 302.613 15.295C302.309 15.155 301.924 15.085 301.458 15.085C300.828 15.085 300.314 15.2483 299.918 15.575C299.521 15.9017 299.229 16.3567 299.043 16.94C298.879 17.5 298.798 18.165 298.798 18.935L297.538 18.2C297.538 16.9167 297.771 15.785 298.238 14.805C298.728 13.8017 299.346 13.0083 300.093 12.425C300.863 11.8417 301.656 11.55 302.473 11.55C303.056 11.55 303.604 11.6433 304.118 11.83C304.631 11.9933 305.063 12.2967 305.413 12.74L303.593 15.925ZM323.311 11.9L312.811 35.7H308.786L312.986 26.11L306.511 11.9H310.851L315.996 24.64L314.211 24.535L319.251 11.9H323.311ZM323.335 11.9H332.47V15.225H323.335V11.9ZM326.03 6.3H329.775V28H326.03V6.3ZM342.077 28.35C340.444 28.35 338.997 28 337.737 27.3C336.5 26.6 335.544 25.62 334.867 24.36C334.19 23.1 333.852 21.63 333.852 19.95C333.852 18.2467 334.19 16.765 334.867 15.505C335.567 14.245 336.547 13.2767 337.807 12.6C339.067 11.9 340.549 11.55 342.252 11.55C343.955 11.55 345.402 11.8767 346.592 12.53C347.782 13.1833 348.692 14.1283 349.322 15.365C349.975 16.5783 350.302 18.0483 350.302 19.775C350.302 19.9617 350.29 20.16 350.267 20.37C350.267 20.58 350.255 20.7317 350.232 20.825H336.092V18.235H347.012L345.857 19.845C345.927 19.705 345.997 19.5183 346.067 19.285C346.16 19.0283 346.207 18.8183 346.207 18.655C346.207 17.7917 346.032 17.045 345.682 16.415C345.355 15.785 344.889 15.295 344.282 14.945C343.699 14.595 343.01 14.42 342.217 14.42C341.26 14.42 340.444 14.63 339.767 15.05C339.09 15.47 338.577 16.0767 338.227 16.87C337.877 17.6633 337.69 18.6433 337.667 19.81C337.667 20.9767 337.842 21.9683 338.192 22.785C338.542 23.5783 339.055 24.185 339.732 24.605C340.432 25.025 341.272 25.235 342.252 25.235C343.279 25.235 344.177 25.025 344.947 24.605C345.717 24.185 346.359 23.5433 346.872 22.68L350.127 24.01C349.287 25.4567 348.202 26.5417 346.872 27.265C345.542 27.9883 343.944 28.35 342.077 28.35ZM353.91 0.699999H357.69V28H353.91V0.699999ZM362.523 0.699999H366.303V28H362.523V0.699999ZM378.137 28.35C376.503 28.35 375.057 28 373.797 27.3C372.56 26.6 371.603 25.62 370.927 24.36C370.25 23.1 369.912 21.63 369.912 19.95C369.912 18.2467 370.25 16.765 370.927 15.505C371.627 14.245 372.607 13.2767 373.867 12.6C375.127 11.9 376.608 11.55 378.312 11.55C380.015 11.55 381.462 11.8767 382.652 12.53C383.842 13.1833 384.752 14.1283 385.382 15.365C386.035 16.5783 386.362 18.0483 386.362 19.775C386.362 19.9617 386.35 20.16 386.327 20.37C386.327 20.58 386.315 20.7317 386.292 20.825H372.152V18.235H383.072L381.917 19.845C381.987 19.705 382.057 19.5183 382.127 19.285C382.22 19.0283 382.267 18.8183 382.267 18.655C382.267 17.7917 382.092 17.045 381.742 16.415C381.415 15.785 380.948 15.295 380.342 14.945C379.758 14.595 379.07 14.42 378.277 14.42C377.32 14.42 376.503 14.63 375.827 15.05C375.15 15.47 374.637 16.0767 374.287 16.87C373.937 17.6633 373.75 18.6433 373.727 19.81C373.727 20.9767 373.902 21.9683 374.252 22.785C374.602 23.5783 375.115 24.185 375.792 24.605C376.492 25.025 377.332 25.235 378.312 25.235C379.338 25.235 380.237 25.025 381.007 24.605C381.777 24.185 382.418 23.5433 382.932 22.68L386.187 24.01C385.347 25.4567 384.262 26.5417 382.932 27.265C381.602 27.9883 380.003 28.35 378.137 28.35ZM393.715 11.9V28H389.97V11.9H393.715ZM398.51 15.925C398.16 15.645 397.833 15.435 397.53 15.295C397.226 15.155 396.841 15.085 396.375 15.085C395.745 15.085 395.231 15.2483 394.835 15.575C394.438 15.9017 394.146 16.3567 393.96 16.94C393.796 17.5 393.715 18.165 393.715 18.935L392.455 18.2C392.455 16.9167 392.688 15.785 393.155 14.805C393.645 13.8017 394.263 13.0083 395.01 12.425C395.78 11.8417 396.573 11.55 397.39 11.55C397.973 11.55 398.521 11.6433 399.035 11.83C399.548 11.9933 399.98 12.2967 400.33 12.74L398.51 15.925Z" fill="#F5F5F5"/>
<path d="M136.651 24.15L140.431 25.235L136.371 33.985L133.571 33.215L136.651 24.15ZM231.876 24.15L235.656 25.235L231.596 33.985L228.796 33.215L231.876 24.15ZM401.364 26.215C401.364 25.5383 401.597 24.9667 402.064 24.5C402.554 24.01 403.137 23.765 403.814 23.765C404.537 23.765 405.132 24.01 405.599 24.5C406.065 24.9667 406.299 25.5383 406.299 26.215C406.299 26.8683 406.065 27.44 405.599 27.93C405.132 28.42 404.537 28.665 403.814 28.665C403.137 28.665 402.554 28.42 402.064 27.93C401.597 27.44 401.364 26.8683 401.364 26.215ZM412.165 26.215C412.165 25.5383 412.398 24.9667 412.865 24.5C413.355 24.01 413.938 23.765 414.615 23.765C415.338 23.765 415.933 24.01 416.4 24.5C416.866 24.9667 417.1 25.5383 417.1 26.215C417.1 26.8683 416.866 27.44 416.4 27.93C415.933 28.42 415.338 28.665 414.615 28.665C413.938 28.665 413.355 28.42 412.865 27.93C412.398 27.44 412.165 26.8683 412.165 26.215ZM422.965 26.215C422.965 25.5383 423.199 24.9667 423.665 24.5C424.155 24.01 424.739 23.765 425.415 23.765C426.139 23.765 426.734 24.01 427.2 24.5C427.667 24.9667 427.9 25.5383 427.9 26.215C427.9 26.8683 427.667 27.44 427.2 27.93C426.734 28.42 426.139 28.665 425.415 28.665C424.739 28.665 424.155 28.42 423.665 27.93C423.199 27.44 422.965 26.8683 422.965 26.215Z" fill="#F14D08"/>
</svg>
