<svg width="1245" height="700" viewBox="0 0 1245 700" fill="none" xmlns="http://www.w3.org/2000/svg">
<g id="lightMode(dotted)" clip-path="url(#clip0_300_2)">
<rect width="1245" height="700" fill="#F5F5F5"/>
<g id="Frame 6">
<g id="Frame 4">
<circle id="Ellipse 62" cx="42" cy="32" r="3" fill="#DBE3EB" fill-opacity="0.8"/>
<circle id="Ellipse 63" cx="85" cy="32" r="3" fill="#DBE3EB" fill-opacity="0.8"/>
<circle id="Ellipse 64" cx="128" cy="32" r="3" fill="#DBE3EB" fill-opacity="0.8"/>
<circle id="Ellipse 65" cx="171" cy="32" r="3" fill="#DBE3EB" fill-opacity="0.8"/>
<circle id="Ellipse 66" cx="214" cy="32" r="3" fill="#DBE3EB" fill-opacity="0.8"/>
<circle id="Ellipse 67" cx="257" cy="32" r="3" fill="#DBE3EB" fill-opacity="0.8"/>
<circle id="Ellipse 68" cx="300" cy="32" r="3" fill="#DBE3EB" fill-opacity="0.8"/>
<circle id="Ellipse 69" cx="343" cy="32" r="3" fill="#DBE3EB" fill-opacity="0.8"/>
<circle id="Ellipse 70" cx="386" cy="32" r="3" fill="#DBE3EB" fill-opacity="0.8"/>
<circle id="Ellipse 71" cx="429" cy="32" r="3" fill="#DBE3EB" fill-opacity="0.8"/>
<circle id="Ellipse 72" cx="472" cy="32" r="3" fill="#DBE3EB" fill-opacity="0.8"/>
<circle id="Ellipse 73" cx="515" cy="32" r="3" fill="#DBE3EB" fill-opacity="0.8"/>
<circle id="Ellipse 74" cx="558" cy="32" r="3" fill="#DBE3EB" fill-opacity="0.8"/>
<circle id="Ellipse 75" cx="601" cy="32" r="3" fill="#DBE3EB" fill-opacity="0.8"/>
<circle id="Ellipse 76" cx="644" cy="32" r="3" fill="#DBE3EB" fill-opacity="0.8"/>
<circle id="Ellipse 77" cx="687" cy="32" r="3" fill="#DBE3EB" fill-opacity="0.8"/>
<circle id="Ellipse 78" cx="730" cy="32" r="3" fill="#DBE3EB" fill-opacity="0.8"/>
<circle id="Ellipse 79" cx="773" cy="32" r="3" fill="#DBE3EB" fill-opacity="0.8"/>
<circle id="Ellipse 80" cx="816" cy="32" r="3" fill="#DBE3EB" fill-opacity="0.8"/>
<circle id="Ellipse 81" cx="859" cy="32" r="3" fill="#DBE3EB" fill-opacity="0.8"/>
<circle id="Ellipse 82" cx="902" cy="32" r="3" fill="#DBE3EB" fill-opacity="0.8"/>
<circle id="Ellipse 83" cx="945" cy="32" r="3" fill="#DBE3EB" fill-opacity="0.8"/>
<circle id="Ellipse 84" cx="988" cy="32" r="3" fill="#DBE3EB" fill-opacity="0.8"/>
<circle id="Ellipse 85" cx="1031" cy="32" r="3" fill="#DBE3EB" fill-opacity="0.8"/>
<circle id="Ellipse 86" cx="1074" cy="32" r="3" fill="#DBE3EB" fill-opacity="0.8"/>
<circle id="Ellipse 87" cx="1117" cy="32" r="3" fill="#DBE3EB" fill-opacity="0.8"/>
<circle id="Ellipse 88" cx="1160" cy="32" r="3" fill="#DBE3EB" fill-opacity="0.8"/>
<circle id="Ellipse 89" cx="1203" cy="32" r="3" fill="#DBE3EB" fill-opacity="0.8"/>
</g>
<g id="Frame 5">
<circle id="Ellipse 62_2" cx="42" cy="72" r="3" fill="#DBE3EB" fill-opacity="0.8"/>
<circle id="Ellipse 63_2" cx="85" cy="72" r="3" fill="#DBE3EB" fill-opacity="0.8"/>
<circle id="Ellipse 64_2" cx="128" cy="72" r="3" fill="#DBE3EB" fill-opacity="0.8"/>
<circle id="Ellipse 65_2" cx="171" cy="72" r="3" fill="#DBE3EB" fill-opacity="0.8"/>
<circle id="Ellipse 66_2" cx="214" cy="72" r="3" fill="#DBE3EB" fill-opacity="0.8"/>
<circle id="Ellipse 67_2" cx="257" cy="72" r="3" fill="#DBE3EB" fill-opacity="0.8"/>
<circle id="Ellipse 68_2" cx="300" cy="72" r="3" fill="#DBE3EB" fill-opacity="0.8"/>
<circle id="Ellipse 69_2" cx="343" cy="72" r="3" fill="#DBE3EB" fill-opacity="0.8"/>
<circle id="Ellipse 70_2" cx="386" cy="72" r="3" fill="#DBE3EB" fill-opacity="0.8"/>
<circle id="Ellipse 71_2" cx="429" cy="72" r="3" fill="#DBE3EB" fill-opacity="0.8"/>
<circle id="Ellipse 72_2" cx="472" cy="72" r="3" fill="#DBE3EB" fill-opacity="0.8"/>
<circle id="Ellipse 73_2" cx="515" cy="72" r="3" fill="#DBE3EB" fill-opacity="0.8"/>
<circle id="Ellipse 74_2" cx="558" cy="72" r="3" fill="#DBE3EB" fill-opacity="0.8"/>
<circle id="Ellipse 75_2" cx="601" cy="72" r="3" fill="#DBE3EB" fill-opacity="0.8"/>
<circle id="Ellipse 76_2" cx="644" cy="72" r="3" fill="#DBE3EB" fill-opacity="0.8"/>
<circle id="Ellipse 77_2" cx="687" cy="72" r="3" fill="#DBE3EB" fill-opacity="0.8"/>
<circle id="Ellipse 78_2" cx="730" cy="72" r="3" fill="#DBE3EB" fill-opacity="0.8"/>
<circle id="Ellipse 79_2" cx="773" cy="72" r="3" fill="#DBE3EB" fill-opacity="0.8"/>
<circle id="Ellipse 80_2" cx="816" cy="72" r="3" fill="#DBE3EB" fill-opacity="0.8"/>
<circle id="Ellipse 81_2" cx="859" cy="72" r="3" fill="#DBE3EB" fill-opacity="0.8"/>
<circle id="Ellipse 82_2" cx="902" cy="72" r="3" fill="#DBE3EB" fill-opacity="0.8"/>
<circle id="Ellipse 83_2" cx="945" cy="72" r="3" fill="#DBE3EB" fill-opacity="0.8"/>
<circle id="Ellipse 84_2" cx="988" cy="72" r="3" fill="#DBE3EB" fill-opacity="0.8"/>
<circle id="Ellipse 85_2" cx="1031" cy="72" r="3" fill="#DBE3EB" fill-opacity="0.8"/>
<circle id="Ellipse 86_2" cx="1074" cy="72" r="3" fill="#DBE3EB" fill-opacity="0.8"/>
<circle id="Ellipse 87_2" cx="1117" cy="72" r="3" fill="#DBE3EB" fill-opacity="0.8"/>
<circle id="Ellipse 88_2" cx="1160" cy="72" r="3" fill="#DBE3EB" fill-opacity="0.8"/>
<circle id="Ellipse 89_2" cx="1203" cy="72" r="3" fill="#DBE3EB" fill-opacity="0.8"/>
</g>
<g id="Frame 6_2">
<circle id="Ellipse 62_3" cx="42" cy="112" r="3" fill="#DBE3EB" fill-opacity="0.8"/>
<circle id="Ellipse 63_3" cx="85" cy="112" r="3" fill="#DBE3EB" fill-opacity="0.8"/>
<circle id="Ellipse 64_3" cx="128" cy="112" r="3" fill="#DBE3EB" fill-opacity="0.8"/>
<circle id="Ellipse 65_3" cx="171" cy="112" r="3" fill="#DBE3EB" fill-opacity="0.8"/>
<circle id="Ellipse 66_3" cx="214" cy="112" r="3" fill="#DBE3EB" fill-opacity="0.8"/>
<circle id="Ellipse 67_3" cx="257" cy="112" r="3" fill="#DBE3EB" fill-opacity="0.8"/>
<circle id="Ellipse 68_3" cx="300" cy="112" r="3" fill="#DBE3EB" fill-opacity="0.8"/>
<circle id="Ellipse 69_3" cx="343" cy="112" r="3" fill="#DBE3EB" fill-opacity="0.8"/>
<circle id="Ellipse 70_3" cx="386" cy="112" r="3" fill="#DBE3EB" fill-opacity="0.8"/>
<circle id="Ellipse 71_3" cx="429" cy="112" r="3" fill="#DBE3EB" fill-opacity="0.8"/>
<circle id="Ellipse 72_3" cx="472" cy="112" r="3" fill="#DBE3EB" fill-opacity="0.8"/>
<circle id="Ellipse 73_3" cx="515" cy="112" r="3" fill="#DBE3EB" fill-opacity="0.8"/>
<circle id="Ellipse 74_3" cx="558" cy="112" r="3" fill="#DBE3EB" fill-opacity="0.8"/>
<circle id="Ellipse 75_3" cx="601" cy="112" r="3" fill="#DBE3EB" fill-opacity="0.8"/>
<circle id="Ellipse 76_3" cx="644" cy="112" r="3" fill="#DBE3EB" fill-opacity="0.8"/>
<circle id="Ellipse 77_3" cx="687" cy="112" r="3" fill="#DBE3EB" fill-opacity="0.8"/>
<circle id="Ellipse 78_3" cx="730" cy="112" r="3" fill="#DBE3EB" fill-opacity="0.8"/>
<circle id="Ellipse 79_3" cx="773" cy="112" r="3" fill="#DBE3EB" fill-opacity="0.8"/>
<circle id="Ellipse 80_3" cx="816" cy="112" r="3" fill="#DBE3EB" fill-opacity="0.8"/>
<circle id="Ellipse 81_3" cx="859" cy="112" r="3" fill="#DBE3EB" fill-opacity="0.8"/>
<circle id="Ellipse 82_3" cx="902" cy="112" r="3" fill="#DBE3EB" fill-opacity="0.8"/>
<circle id="Ellipse 83_3" cx="945" cy="112" r="3" fill="#DBE3EB" fill-opacity="0.8"/>
<circle id="Ellipse 84_3" cx="988" cy="112" r="3" fill="#DBE3EB" fill-opacity="0.8"/>
<circle id="Ellipse 85_3" cx="1031" cy="112" r="3" fill="#DBE3EB" fill-opacity="0.8"/>
<circle id="Ellipse 86_3" cx="1074" cy="112" r="3" fill="#DBE3EB" fill-opacity="0.8"/>
<circle id="Ellipse 87_3" cx="1117" cy="112" r="3" fill="#DBE3EB" fill-opacity="0.8"/>
<circle id="Ellipse 88_3" cx="1160" cy="112" r="3" fill="#DBE3EB" fill-opacity="0.8"/>
<circle id="Ellipse 89_3" cx="1203" cy="112" r="3" fill="#DBE3EB" fill-opacity="0.8"/>
</g>
<g id="Frame 7">
<circle id="Ellipse 62_4" cx="42" cy="152" r="3" fill="#DBE3EB" fill-opacity="0.8"/>
<circle id="Ellipse 63_4" cx="85" cy="152" r="3" fill="#DBE3EB" fill-opacity="0.8"/>
<circle id="Ellipse 64_4" cx="128" cy="152" r="3" fill="#DBE3EB" fill-opacity="0.8"/>
<circle id="Ellipse 65_4" cx="171" cy="152" r="3" fill="#DBE3EB" fill-opacity="0.8"/>
<circle id="Ellipse 66_4" cx="214" cy="152" r="3" fill="#DBE3EB" fill-opacity="0.8"/>
<circle id="Ellipse 67_4" cx="257" cy="152" r="3" fill="#DBE3EB" fill-opacity="0.8"/>
<circle id="Ellipse 68_4" cx="300" cy="152" r="3" fill="#DBE3EB" fill-opacity="0.8"/>
<circle id="Ellipse 69_4" cx="343" cy="152" r="3" fill="#DBE3EB" fill-opacity="0.8"/>
<circle id="Ellipse 70_4" cx="386" cy="152" r="3" fill="#DBE3EB" fill-opacity="0.8"/>
<circle id="Ellipse 71_4" cx="429" cy="152" r="3" fill="#DBE3EB" fill-opacity="0.8"/>
<circle id="Ellipse 72_4" cx="472" cy="152" r="3" fill="#DBE3EB" fill-opacity="0.8"/>
<circle id="Ellipse 73_4" cx="515" cy="152" r="3" fill="#DBE3EB" fill-opacity="0.8"/>
<circle id="Ellipse 74_4" cx="558" cy="152" r="3" fill="#DBE3EB" fill-opacity="0.8"/>
<circle id="Ellipse 75_4" cx="601" cy="152" r="3" fill="#DBE3EB" fill-opacity="0.8"/>
<circle id="Ellipse 76_4" cx="644" cy="152" r="3" fill="#DBE3EB" fill-opacity="0.8"/>
<circle id="Ellipse 77_4" cx="687" cy="152" r="3" fill="#DBE3EB" fill-opacity="0.8"/>
<circle id="Ellipse 78_4" cx="730" cy="152" r="3" fill="#DBE3EB" fill-opacity="0.8"/>
<circle id="Ellipse 79_4" cx="773" cy="152" r="3" fill="#DBE3EB" fill-opacity="0.8"/>
<circle id="Ellipse 80_4" cx="816" cy="152" r="3" fill="#DBE3EB" fill-opacity="0.8"/>
<circle id="Ellipse 81_4" cx="859" cy="152" r="3" fill="#DBE3EB" fill-opacity="0.8"/>
<circle id="Ellipse 82_4" cx="902" cy="152" r="3" fill="#DBE3EB" fill-opacity="0.8"/>
<circle id="Ellipse 83_4" cx="945" cy="152" r="3" fill="#DBE3EB" fill-opacity="0.8"/>
<circle id="Ellipse 84_4" cx="988" cy="152" r="3" fill="#DBE3EB" fill-opacity="0.8"/>
<circle id="Ellipse 85_4" cx="1031" cy="152" r="3" fill="#DBE3EB" fill-opacity="0.8"/>
<circle id="Ellipse 86_4" cx="1074" cy="152" r="3" fill="#DBE3EB" fill-opacity="0.8"/>
<circle id="Ellipse 87_4" cx="1117" cy="152" r="3" fill="#DBE3EB" fill-opacity="0.8"/>
<circle id="Ellipse 88_4" cx="1160" cy="152" r="3" fill="#DBE3EB" fill-opacity="0.8"/>
<circle id="Ellipse 89_4" cx="1203" cy="152" r="3" fill="#DBE3EB" fill-opacity="0.8"/>
</g>
<g id="Frame 8">
<circle id="Ellipse 62_5" cx="42" cy="192" r="3" fill="#DBE3EB" fill-opacity="0.8"/>
<circle id="Ellipse 63_5" cx="85" cy="192" r="3" fill="#DBE3EB" fill-opacity="0.8"/>
<circle id="Ellipse 64_5" cx="128" cy="192" r="3" fill="#DBE3EB" fill-opacity="0.8"/>
<circle id="Ellipse 65_5" cx="171" cy="192" r="3" fill="#DBE3EB" fill-opacity="0.8"/>
<circle id="Ellipse 66_5" cx="214" cy="192" r="3" fill="#DBE3EB" fill-opacity="0.8"/>
<circle id="Ellipse 67_5" cx="257" cy="192" r="3" fill="#DBE3EB" fill-opacity="0.8"/>
<circle id="Ellipse 68_5" cx="300" cy="192" r="3" fill="#DBE3EB" fill-opacity="0.8"/>
<circle id="Ellipse 69_5" cx="343" cy="192" r="3" fill="#DBE3EB" fill-opacity="0.8"/>
<circle id="Ellipse 70_5" cx="386" cy="192" r="3" fill="#DBE3EB" fill-opacity="0.8"/>
<circle id="Ellipse 71_5" cx="429" cy="192" r="3" fill="#DBE3EB" fill-opacity="0.8"/>
<circle id="Ellipse 72_5" cx="472" cy="192" r="3" fill="#DBE3EB" fill-opacity="0.8"/>
<circle id="Ellipse 73_5" cx="515" cy="192" r="3" fill="#DBE3EB" fill-opacity="0.8"/>
<circle id="Ellipse 74_5" cx="558" cy="192" r="3" fill="#DBE3EB" fill-opacity="0.8"/>
<circle id="Ellipse 75_5" cx="601" cy="192" r="3" fill="#DBE3EB" fill-opacity="0.8"/>
<circle id="Ellipse 76_5" cx="644" cy="192" r="3" fill="#DBE3EB" fill-opacity="0.8"/>
<circle id="Ellipse 77_5" cx="687" cy="192" r="3" fill="#DBE3EB" fill-opacity="0.8"/>
<circle id="Ellipse 78_5" cx="730" cy="192" r="3" fill="#DBE3EB" fill-opacity="0.8"/>
<circle id="Ellipse 79_5" cx="773" cy="192" r="3" fill="#DBE3EB" fill-opacity="0.8"/>
<circle id="Ellipse 80_5" cx="816" cy="192" r="3" fill="#DBE3EB" fill-opacity="0.8"/>
<circle id="Ellipse 81_5" cx="859" cy="192" r="3" fill="#DBE3EB" fill-opacity="0.8"/>
<circle id="Ellipse 82_5" cx="902" cy="192" r="3" fill="#DBE3EB" fill-opacity="0.8"/>
<circle id="Ellipse 83_5" cx="945" cy="192" r="3" fill="#DBE3EB" fill-opacity="0.8"/>
<circle id="Ellipse 84_5" cx="988" cy="192" r="3" fill="#DBE3EB" fill-opacity="0.8"/>
<circle id="Ellipse 85_5" cx="1031" cy="192" r="3" fill="#DBE3EB" fill-opacity="0.8"/>
<circle id="Ellipse 86_5" cx="1074" cy="192" r="3" fill="#DBE3EB" fill-opacity="0.8"/>
<circle id="Ellipse 87_5" cx="1117" cy="192" r="3" fill="#DBE3EB" fill-opacity="0.8"/>
<circle id="Ellipse 88_5" cx="1160" cy="192" r="3" fill="#DBE3EB" fill-opacity="0.8"/>
<circle id="Ellipse 89_5" cx="1203" cy="192" r="3" fill="#DBE3EB" fill-opacity="0.8"/>
</g>
<g id="Frame 9">
<circle id="Ellipse 62_6" cx="42" cy="232" r="3" fill="#DBE3EB" fill-opacity="0.8"/>
<circle id="Ellipse 63_6" cx="85" cy="232" r="3" fill="#DBE3EB" fill-opacity="0.8"/>
<circle id="Ellipse 64_6" cx="128" cy="232" r="3" fill="#DBE3EB" fill-opacity="0.8"/>
<circle id="Ellipse 65_6" cx="171" cy="232" r="3" fill="#DBE3EB" fill-opacity="0.8"/>
<circle id="Ellipse 66_6" cx="214" cy="232" r="3" fill="#DBE3EB" fill-opacity="0.8"/>
<circle id="Ellipse 67_6" cx="257" cy="232" r="3" fill="#DBE3EB" fill-opacity="0.8"/>
<circle id="Ellipse 68_6" cx="300" cy="232" r="3" fill="#DBE3EB" fill-opacity="0.8"/>
<circle id="Ellipse 69_6" cx="343" cy="232" r="3" fill="#DBE3EB" fill-opacity="0.8"/>
<circle id="Ellipse 70_6" cx="386" cy="232" r="3" fill="#DBE3EB" fill-opacity="0.8"/>
<circle id="Ellipse 71_6" cx="429" cy="232" r="3" fill="#DBE3EB" fill-opacity="0.8"/>
<circle id="Ellipse 72_6" cx="472" cy="232" r="3" fill="#DBE3EB" fill-opacity="0.8"/>
<circle id="Ellipse 73_6" cx="515" cy="232" r="3" fill="#DBE3EB" fill-opacity="0.8"/>
<circle id="Ellipse 74_6" cx="558" cy="232" r="3" fill="#DBE3EB" fill-opacity="0.8"/>
<circle id="Ellipse 75_6" cx="601" cy="232" r="3" fill="#DBE3EB" fill-opacity="0.8"/>
<circle id="Ellipse 76_6" cx="644" cy="232" r="3" fill="#DBE3EB" fill-opacity="0.8"/>
<circle id="Ellipse 77_6" cx="687" cy="232" r="3" fill="#DBE3EB" fill-opacity="0.8"/>
<circle id="Ellipse 78_6" cx="730" cy="232" r="3" fill="#DBE3EB" fill-opacity="0.8"/>
<circle id="Ellipse 79_6" cx="773" cy="232" r="3" fill="#DBE3EB" fill-opacity="0.8"/>
<circle id="Ellipse 80_6" cx="816" cy="232" r="3" fill="#DBE3EB" fill-opacity="0.8"/>
<circle id="Ellipse 81_6" cx="859" cy="232" r="3" fill="#DBE3EB" fill-opacity="0.8"/>
<circle id="Ellipse 82_6" cx="902" cy="232" r="3" fill="#DBE3EB" fill-opacity="0.8"/>
<circle id="Ellipse 83_6" cx="945" cy="232" r="3" fill="#DBE3EB" fill-opacity="0.8"/>
<circle id="Ellipse 84_6" cx="988" cy="232" r="3" fill="#DBE3EB" fill-opacity="0.8"/>
<circle id="Ellipse 85_6" cx="1031" cy="232" r="3" fill="#DBE3EB" fill-opacity="0.8"/>
<circle id="Ellipse 86_6" cx="1074" cy="232" r="3" fill="#DBE3EB" fill-opacity="0.8"/>
<circle id="Ellipse 87_6" cx="1117" cy="232" r="3" fill="#DBE3EB" fill-opacity="0.8"/>
<circle id="Ellipse 88_6" cx="1160" cy="232" r="3" fill="#DBE3EB" fill-opacity="0.8"/>
<circle id="Ellipse 89_6" cx="1203" cy="232" r="3" fill="#DBE3EB" fill-opacity="0.8"/>
</g>
<g id="Frame 10">
<circle id="Ellipse 62_7" cx="42" cy="272" r="3" fill="#DBE3EB" fill-opacity="0.8"/>
<circle id="Ellipse 63_7" cx="85" cy="272" r="3" fill="#DBE3EB" fill-opacity="0.8"/>
<circle id="Ellipse 64_7" cx="128" cy="272" r="3" fill="#DBE3EB" fill-opacity="0.8"/>
<circle id="Ellipse 65_7" cx="171" cy="272" r="3" fill="#DBE3EB" fill-opacity="0.8"/>
<circle id="Ellipse 66_7" cx="214" cy="272" r="3" fill="#DBE3EB" fill-opacity="0.8"/>
<circle id="Ellipse 67_7" cx="257" cy="272" r="3" fill="#DBE3EB" fill-opacity="0.8"/>
<circle id="Ellipse 68_7" cx="300" cy="272" r="3" fill="#DBE3EB" fill-opacity="0.8"/>
<circle id="Ellipse 69_7" cx="343" cy="272" r="3" fill="#DBE3EB" fill-opacity="0.8"/>
<circle id="Ellipse 70_7" cx="386" cy="272" r="3" fill="#DBE3EB" fill-opacity="0.8"/>
<circle id="Ellipse 71_7" cx="429" cy="272" r="3" fill="#DBE3EB" fill-opacity="0.8"/>
<circle id="Ellipse 72_7" cx="472" cy="272" r="3" fill="#DBE3EB" fill-opacity="0.8"/>
<circle id="Ellipse 73_7" cx="515" cy="272" r="3" fill="#DBE3EB" fill-opacity="0.8"/>
<circle id="Ellipse 74_7" cx="558" cy="272" r="3" fill="#DBE3EB" fill-opacity="0.8"/>
<circle id="Ellipse 75_7" cx="601" cy="272" r="3" fill="#DBE3EB" fill-opacity="0.8"/>
<circle id="Ellipse 76_7" cx="644" cy="272" r="3" fill="#DBE3EB" fill-opacity="0.8"/>
<circle id="Ellipse 77_7" cx="687" cy="272" r="3" fill="#DBE3EB" fill-opacity="0.8"/>
<circle id="Ellipse 78_7" cx="730" cy="272" r="3" fill="#DBE3EB" fill-opacity="0.8"/>
<circle id="Ellipse 79_7" cx="773" cy="272" r="3" fill="#DBE3EB" fill-opacity="0.8"/>
<circle id="Ellipse 80_7" cx="816" cy="272" r="3" fill="#DBE3EB" fill-opacity="0.8"/>
<circle id="Ellipse 81_7" cx="859" cy="272" r="3" fill="#DBE3EB" fill-opacity="0.8"/>
<circle id="Ellipse 82_7" cx="902" cy="272" r="3" fill="#DBE3EB" fill-opacity="0.8"/>
<circle id="Ellipse 83_7" cx="945" cy="272" r="3" fill="#DBE3EB" fill-opacity="0.8"/>
<circle id="Ellipse 84_7" cx="988" cy="272" r="3" fill="#DBE3EB" fill-opacity="0.8"/>
<circle id="Ellipse 85_7" cx="1031" cy="272" r="3" fill="#DBE3EB" fill-opacity="0.8"/>
<circle id="Ellipse 86_7" cx="1074" cy="272" r="3" fill="#DBE3EB" fill-opacity="0.8"/>
<circle id="Ellipse 87_7" cx="1117" cy="272" r="3" fill="#DBE3EB" fill-opacity="0.8"/>
<circle id="Ellipse 88_7" cx="1160" cy="272" r="3" fill="#DBE3EB" fill-opacity="0.8"/>
<circle id="Ellipse 89_7" cx="1203" cy="272" r="3" fill="#DBE3EB" fill-opacity="0.8"/>
</g>
<g id="Frame 11">
<circle id="Ellipse 62_8" cx="42" cy="312" r="3" fill="#DBE3EB" fill-opacity="0.8"/>
<circle id="Ellipse 63_8" cx="85" cy="312" r="3" fill="#DBE3EB" fill-opacity="0.8"/>
<circle id="Ellipse 64_8" cx="128" cy="312" r="3" fill="#DBE3EB" fill-opacity="0.8"/>
<circle id="Ellipse 65_8" cx="171" cy="312" r="3" fill="#DBE3EB" fill-opacity="0.8"/>
<circle id="Ellipse 66_8" cx="214" cy="312" r="3" fill="#DBE3EB" fill-opacity="0.8"/>
<circle id="Ellipse 67_8" cx="257" cy="312" r="3" fill="#DBE3EB" fill-opacity="0.8"/>
<circle id="Ellipse 68_8" cx="300" cy="312" r="3" fill="#DBE3EB" fill-opacity="0.8"/>
<circle id="Ellipse 69_8" cx="343" cy="312" r="3" fill="#DBE3EB" fill-opacity="0.8"/>
<circle id="Ellipse 70_8" cx="386" cy="312" r="3" fill="#DBE3EB" fill-opacity="0.8"/>
<circle id="Ellipse 71_8" cx="429" cy="312" r="3" fill="#DBE3EB" fill-opacity="0.8"/>
<circle id="Ellipse 72_8" cx="472" cy="312" r="3" fill="#DBE3EB" fill-opacity="0.8"/>
<circle id="Ellipse 73_8" cx="515" cy="312" r="3" fill="#DBE3EB" fill-opacity="0.8"/>
<circle id="Ellipse 74_8" cx="558" cy="312" r="3" fill="#DBE3EB" fill-opacity="0.8"/>
<circle id="Ellipse 75_8" cx="601" cy="312" r="3" fill="#DBE3EB" fill-opacity="0.8"/>
<circle id="Ellipse 76_8" cx="644" cy="312" r="3" fill="#DBE3EB" fill-opacity="0.8"/>
<circle id="Ellipse 77_8" cx="687" cy="312" r="3" fill="#DBE3EB" fill-opacity="0.8"/>
<circle id="Ellipse 78_8" cx="730" cy="312" r="3" fill="#DBE3EB" fill-opacity="0.8"/>
<circle id="Ellipse 79_8" cx="773" cy="312" r="3" fill="#DBE3EB" fill-opacity="0.8"/>
<circle id="Ellipse 80_8" cx="816" cy="312" r="3" fill="#DBE3EB" fill-opacity="0.8"/>
<circle id="Ellipse 81_8" cx="859" cy="312" r="3" fill="#DBE3EB" fill-opacity="0.8"/>
<circle id="Ellipse 82_8" cx="902" cy="312" r="3" fill="#DBE3EB" fill-opacity="0.8"/>
<circle id="Ellipse 83_8" cx="945" cy="312" r="3" fill="#DBE3EB" fill-opacity="0.8"/>
<circle id="Ellipse 84_8" cx="988" cy="312" r="3" fill="#DBE3EB" fill-opacity="0.8"/>
<circle id="Ellipse 85_8" cx="1031" cy="312" r="3" fill="#DBE3EB" fill-opacity="0.8"/>
<circle id="Ellipse 86_8" cx="1074" cy="312" r="3" fill="#DBE3EB" fill-opacity="0.8"/>
<circle id="Ellipse 87_8" cx="1117" cy="312" r="3" fill="#DBE3EB" fill-opacity="0.8"/>
<circle id="Ellipse 88_8" cx="1160" cy="312" r="3" fill="#DBE3EB" fill-opacity="0.8"/>
<circle id="Ellipse 89_8" cx="1203" cy="312" r="3" fill="#DBE3EB" fill-opacity="0.8"/>
</g>
<g id="Frame 12">
<circle id="Ellipse 62_9" cx="42" cy="352" r="3" fill="#DBE3EB" fill-opacity="0.8"/>
<circle id="Ellipse 63_9" cx="85" cy="352" r="3" fill="#DBE3EB" fill-opacity="0.8"/>
<circle id="Ellipse 64_9" cx="128" cy="352" r="3" fill="#DBE3EB" fill-opacity="0.8"/>
<circle id="Ellipse 65_9" cx="171" cy="352" r="3" fill="#DBE3EB" fill-opacity="0.8"/>
<circle id="Ellipse 66_9" cx="214" cy="352" r="3" fill="#DBE3EB" fill-opacity="0.8"/>
<circle id="Ellipse 67_9" cx="257" cy="352" r="3" fill="#DBE3EB" fill-opacity="0.8"/>
<circle id="Ellipse 68_9" cx="300" cy="352" r="3" fill="#DBE3EB" fill-opacity="0.8"/>
<circle id="Ellipse 69_9" cx="343" cy="352" r="3" fill="#DBE3EB" fill-opacity="0.8"/>
<circle id="Ellipse 70_9" cx="386" cy="352" r="3" fill="#DBE3EB" fill-opacity="0.8"/>
<circle id="Ellipse 71_9" cx="429" cy="352" r="3" fill="#DBE3EB" fill-opacity="0.8"/>
<circle id="Ellipse 72_9" cx="472" cy="352" r="3" fill="#DBE3EB" fill-opacity="0.8"/>
<circle id="Ellipse 73_9" cx="515" cy="352" r="3" fill="#DBE3EB" fill-opacity="0.8"/>
<circle id="Ellipse 74_9" cx="558" cy="352" r="3" fill="#DBE3EB" fill-opacity="0.8"/>
<circle id="Ellipse 75_9" cx="601" cy="352" r="3" fill="#DBE3EB" fill-opacity="0.8"/>
<circle id="Ellipse 76_9" cx="644" cy="352" r="3" fill="#DBE3EB" fill-opacity="0.8"/>
<circle id="Ellipse 77_9" cx="687" cy="352" r="3" fill="#DBE3EB" fill-opacity="0.8"/>
<circle id="Ellipse 78_9" cx="730" cy="352" r="3" fill="#DBE3EB" fill-opacity="0.8"/>
<circle id="Ellipse 79_9" cx="773" cy="352" r="3" fill="#DBE3EB" fill-opacity="0.8"/>
<circle id="Ellipse 80_9" cx="816" cy="352" r="3" fill="#DBE3EB" fill-opacity="0.8"/>
<circle id="Ellipse 81_9" cx="859" cy="352" r="3" fill="#DBE3EB" fill-opacity="0.8"/>
<circle id="Ellipse 82_9" cx="902" cy="352" r="3" fill="#DBE3EB" fill-opacity="0.8"/>
<circle id="Ellipse 83_9" cx="945" cy="352" r="3" fill="#DBE3EB" fill-opacity="0.8"/>
<circle id="Ellipse 84_9" cx="988" cy="352" r="3" fill="#DBE3EB" fill-opacity="0.8"/>
<circle id="Ellipse 85_9" cx="1031" cy="352" r="3" fill="#DBE3EB" fill-opacity="0.8"/>
<circle id="Ellipse 86_9" cx="1074" cy="352" r="3" fill="#DBE3EB" fill-opacity="0.8"/>
<circle id="Ellipse 87_9" cx="1117" cy="352" r="3" fill="#DBE3EB" fill-opacity="0.8"/>
<circle id="Ellipse 88_9" cx="1160" cy="352" r="3" fill="#DBE3EB" fill-opacity="0.8"/>
<circle id="Ellipse 89_9" cx="1203" cy="352" r="3" fill="#DBE3EB" fill-opacity="0.8"/>
</g>
<g id="Frame 13">
<circle id="Ellipse 62_10" cx="42" cy="392" r="3" fill="#DBE3EB" fill-opacity="0.8"/>
<circle id="Ellipse 63_10" cx="85" cy="392" r="3" fill="#DBE3EB" fill-opacity="0.8"/>
<circle id="Ellipse 64_10" cx="128" cy="392" r="3" fill="#DBE3EB" fill-opacity="0.8"/>
<circle id="Ellipse 65_10" cx="171" cy="392" r="3" fill="#DBE3EB" fill-opacity="0.8"/>
<circle id="Ellipse 66_10" cx="214" cy="392" r="3" fill="#DBE3EB" fill-opacity="0.8"/>
<circle id="Ellipse 67_10" cx="257" cy="392" r="3" fill="#DBE3EB" fill-opacity="0.8"/>
<circle id="Ellipse 68_10" cx="300" cy="392" r="3" fill="#DBE3EB" fill-opacity="0.8"/>
<circle id="Ellipse 69_10" cx="343" cy="392" r="3" fill="#DBE3EB" fill-opacity="0.8"/>
<circle id="Ellipse 70_10" cx="386" cy="392" r="3" fill="#DBE3EB" fill-opacity="0.8"/>
<circle id="Ellipse 71_10" cx="429" cy="392" r="3" fill="#DBE3EB" fill-opacity="0.8"/>
<circle id="Ellipse 72_10" cx="472" cy="392" r="3" fill="#DBE3EB" fill-opacity="0.8"/>
<circle id="Ellipse 73_10" cx="515" cy="392" r="3" fill="#DBE3EB" fill-opacity="0.8"/>
<circle id="Ellipse 74_10" cx="558" cy="392" r="3" fill="#DBE3EB" fill-opacity="0.8"/>
<circle id="Ellipse 75_10" cx="601" cy="392" r="3" fill="#DBE3EB" fill-opacity="0.8"/>
<circle id="Ellipse 76_10" cx="644" cy="392" r="3" fill="#DBE3EB" fill-opacity="0.8"/>
<circle id="Ellipse 77_10" cx="687" cy="392" r="3" fill="#DBE3EB" fill-opacity="0.8"/>
<circle id="Ellipse 78_10" cx="730" cy="392" r="3" fill="#DBE3EB" fill-opacity="0.8"/>
<circle id="Ellipse 79_10" cx="773" cy="392" r="3" fill="#DBE3EB" fill-opacity="0.8"/>
<circle id="Ellipse 80_10" cx="816" cy="392" r="3" fill="#DBE3EB" fill-opacity="0.8"/>
<circle id="Ellipse 81_10" cx="859" cy="392" r="3" fill="#DBE3EB" fill-opacity="0.8"/>
<circle id="Ellipse 82_10" cx="902" cy="392" r="3" fill="#DBE3EB" fill-opacity="0.8"/>
<circle id="Ellipse 83_10" cx="945" cy="392" r="3" fill="#DBE3EB" fill-opacity="0.8"/>
<circle id="Ellipse 84_10" cx="988" cy="392" r="3" fill="#DBE3EB" fill-opacity="0.8"/>
<circle id="Ellipse 85_10" cx="1031" cy="392" r="3" fill="#DBE3EB" fill-opacity="0.8"/>
<circle id="Ellipse 86_10" cx="1074" cy="392" r="3" fill="#DBE3EB" fill-opacity="0.8"/>
<circle id="Ellipse 87_10" cx="1117" cy="392" r="3" fill="#DBE3EB" fill-opacity="0.8"/>
<circle id="Ellipse 88_10" cx="1160" cy="392" r="3" fill="#DBE3EB" fill-opacity="0.8"/>
<circle id="Ellipse 89_10" cx="1203" cy="392" r="3" fill="#DBE3EB" fill-opacity="0.8"/>
</g>
<g id="Frame 14">
<circle id="Ellipse 62_11" cx="42" cy="432" r="3" fill="#DBE3EB" fill-opacity="0.8"/>
<circle id="Ellipse 63_11" cx="85" cy="432" r="3" fill="#DBE3EB" fill-opacity="0.8"/>
<circle id="Ellipse 64_11" cx="128" cy="432" r="3" fill="#DBE3EB" fill-opacity="0.8"/>
<circle id="Ellipse 65_11" cx="171" cy="432" r="3" fill="#DBE3EB" fill-opacity="0.8"/>
<circle id="Ellipse 66_11" cx="214" cy="432" r="3" fill="#DBE3EB" fill-opacity="0.8"/>
<circle id="Ellipse 67_11" cx="257" cy="432" r="3" fill="#DBE3EB" fill-opacity="0.8"/>
<circle id="Ellipse 68_11" cx="300" cy="432" r="3" fill="#DBE3EB" fill-opacity="0.8"/>
<circle id="Ellipse 69_11" cx="343" cy="432" r="3" fill="#DBE3EB" fill-opacity="0.8"/>
<circle id="Ellipse 70_11" cx="386" cy="432" r="3" fill="#DBE3EB" fill-opacity="0.8"/>
<circle id="Ellipse 71_11" cx="429" cy="432" r="3" fill="#DBE3EB" fill-opacity="0.8"/>
<circle id="Ellipse 72_11" cx="472" cy="432" r="3" fill="#DBE3EB" fill-opacity="0.8"/>
<circle id="Ellipse 73_11" cx="515" cy="432" r="3" fill="#DBE3EB" fill-opacity="0.8"/>
<circle id="Ellipse 74_11" cx="558" cy="432" r="3" fill="#DBE3EB" fill-opacity="0.8"/>
<circle id="Ellipse 75_11" cx="601" cy="432" r="3" fill="#DBE3EB" fill-opacity="0.8"/>
<circle id="Ellipse 76_11" cx="644" cy="432" r="3" fill="#DBE3EB" fill-opacity="0.8"/>
<circle id="Ellipse 77_11" cx="687" cy="432" r="3" fill="#DBE3EB" fill-opacity="0.8"/>
<circle id="Ellipse 78_11" cx="730" cy="432" r="3" fill="#DBE3EB" fill-opacity="0.8"/>
<circle id="Ellipse 79_11" cx="773" cy="432" r="3" fill="#DBE3EB" fill-opacity="0.8"/>
<circle id="Ellipse 80_11" cx="816" cy="432" r="3" fill="#DBE3EB" fill-opacity="0.8"/>
<circle id="Ellipse 81_11" cx="859" cy="432" r="3" fill="#DBE3EB" fill-opacity="0.8"/>
<circle id="Ellipse 82_11" cx="902" cy="432" r="3" fill="#DBE3EB" fill-opacity="0.8"/>
<circle id="Ellipse 83_11" cx="945" cy="432" r="3" fill="#DBE3EB" fill-opacity="0.8"/>
<circle id="Ellipse 84_11" cx="988" cy="432" r="3" fill="#DBE3EB" fill-opacity="0.8"/>
<circle id="Ellipse 85_11" cx="1031" cy="432" r="3" fill="#DBE3EB" fill-opacity="0.8"/>
<circle id="Ellipse 86_11" cx="1074" cy="432" r="3" fill="#DBE3EB" fill-opacity="0.8"/>
<circle id="Ellipse 87_11" cx="1117" cy="432" r="3" fill="#DBE3EB" fill-opacity="0.8"/>
<circle id="Ellipse 88_11" cx="1160" cy="432" r="3" fill="#DBE3EB" fill-opacity="0.8"/>
<circle id="Ellipse 89_11" cx="1203" cy="432" r="3" fill="#DBE3EB" fill-opacity="0.8"/>
</g>
<g id="Frame 15">
<circle id="Ellipse 62_12" cx="42" cy="472" r="3" fill="#DBE3EB" fill-opacity="0.8"/>
<circle id="Ellipse 63_12" cx="85" cy="472" r="3" fill="#DBE3EB" fill-opacity="0.8"/>
<circle id="Ellipse 64_12" cx="128" cy="472" r="3" fill="#DBE3EB" fill-opacity="0.8"/>
<circle id="Ellipse 65_12" cx="171" cy="472" r="3" fill="#DBE3EB" fill-opacity="0.8"/>
<circle id="Ellipse 66_12" cx="214" cy="472" r="3" fill="#DBE3EB" fill-opacity="0.8"/>
<circle id="Ellipse 67_12" cx="257" cy="472" r="3" fill="#DBE3EB" fill-opacity="0.8"/>
<circle id="Ellipse 68_12" cx="300" cy="472" r="3" fill="#DBE3EB" fill-opacity="0.8"/>
<circle id="Ellipse 69_12" cx="343" cy="472" r="3" fill="#DBE3EB" fill-opacity="0.8"/>
<circle id="Ellipse 70_12" cx="386" cy="472" r="3" fill="#DBE3EB" fill-opacity="0.8"/>
<circle id="Ellipse 71_12" cx="429" cy="472" r="3" fill="#DBE3EB" fill-opacity="0.8"/>
<circle id="Ellipse 72_12" cx="472" cy="472" r="3" fill="#DBE3EB" fill-opacity="0.8"/>
<circle id="Ellipse 73_12" cx="515" cy="472" r="3" fill="#DBE3EB" fill-opacity="0.8"/>
<circle id="Ellipse 74_12" cx="558" cy="472" r="3" fill="#DBE3EB" fill-opacity="0.8"/>
<circle id="Ellipse 75_12" cx="601" cy="472" r="3" fill="#DBE3EB" fill-opacity="0.8"/>
<circle id="Ellipse 76_12" cx="644" cy="472" r="3" fill="#DBE3EB" fill-opacity="0.8"/>
<circle id="Ellipse 77_12" cx="687" cy="472" r="3" fill="#DBE3EB" fill-opacity="0.8"/>
<circle id="Ellipse 78_12" cx="730" cy="472" r="3" fill="#DBE3EB" fill-opacity="0.8"/>
<circle id="Ellipse 79_12" cx="773" cy="472" r="3" fill="#DBE3EB" fill-opacity="0.8"/>
<circle id="Ellipse 80_12" cx="816" cy="472" r="3" fill="#DBE3EB" fill-opacity="0.8"/>
<circle id="Ellipse 81_12" cx="859" cy="472" r="3" fill="#DBE3EB" fill-opacity="0.8"/>
<circle id="Ellipse 82_12" cx="902" cy="472" r="3" fill="#DBE3EB" fill-opacity="0.8"/>
<circle id="Ellipse 83_12" cx="945" cy="472" r="3" fill="#DBE3EB" fill-opacity="0.8"/>
<circle id="Ellipse 84_12" cx="988" cy="472" r="3" fill="#DBE3EB" fill-opacity="0.8"/>
<circle id="Ellipse 85_12" cx="1031" cy="472" r="3" fill="#DBE3EB" fill-opacity="0.8"/>
<circle id="Ellipse 86_12" cx="1074" cy="472" r="3" fill="#DBE3EB" fill-opacity="0.8"/>
<circle id="Ellipse 87_12" cx="1117" cy="472" r="3" fill="#DBE3EB" fill-opacity="0.8"/>
<circle id="Ellipse 88_12" cx="1160" cy="472" r="3" fill="#DBE3EB" fill-opacity="0.8"/>
<circle id="Ellipse 89_12" cx="1203" cy="472" r="3" fill="#DBE3EB" fill-opacity="0.8"/>
</g>
<g id="Frame 16">
<circle id="Ellipse 62_13" cx="42" cy="512" r="3" fill="#DBE3EB" fill-opacity="0.8"/>
<circle id="Ellipse 63_13" cx="85" cy="512" r="3" fill="#DBE3EB" fill-opacity="0.8"/>
<circle id="Ellipse 64_13" cx="128" cy="512" r="3" fill="#DBE3EB" fill-opacity="0.8"/>
<circle id="Ellipse 65_13" cx="171" cy="512" r="3" fill="#DBE3EB" fill-opacity="0.8"/>
<circle id="Ellipse 66_13" cx="214" cy="512" r="3" fill="#DBE3EB" fill-opacity="0.8"/>
<circle id="Ellipse 67_13" cx="257" cy="512" r="3" fill="#DBE3EB" fill-opacity="0.8"/>
<circle id="Ellipse 68_13" cx="300" cy="512" r="3" fill="#DBE3EB" fill-opacity="0.8"/>
<circle id="Ellipse 69_13" cx="343" cy="512" r="3" fill="#DBE3EB" fill-opacity="0.8"/>
<circle id="Ellipse 70_13" cx="386" cy="512" r="3" fill="#DBE3EB" fill-opacity="0.8"/>
<circle id="Ellipse 71_13" cx="429" cy="512" r="3" fill="#DBE3EB" fill-opacity="0.8"/>
<circle id="Ellipse 72_13" cx="472" cy="512" r="3" fill="#DBE3EB" fill-opacity="0.8"/>
<circle id="Ellipse 73_13" cx="515" cy="512" r="3" fill="#DBE3EB" fill-opacity="0.8"/>
<circle id="Ellipse 74_13" cx="558" cy="512" r="3" fill="#DBE3EB" fill-opacity="0.8"/>
<circle id="Ellipse 75_13" cx="601" cy="512" r="3" fill="#DBE3EB" fill-opacity="0.8"/>
<circle id="Ellipse 76_13" cx="644" cy="512" r="3" fill="#DBE3EB" fill-opacity="0.8"/>
<circle id="Ellipse 77_13" cx="687" cy="512" r="3" fill="#DBE3EB" fill-opacity="0.8"/>
<circle id="Ellipse 78_13" cx="730" cy="512" r="3" fill="#DBE3EB" fill-opacity="0.8"/>
<circle id="Ellipse 79_13" cx="773" cy="512" r="3" fill="#DBE3EB" fill-opacity="0.8"/>
<circle id="Ellipse 80_13" cx="816" cy="512" r="3" fill="#DBE3EB" fill-opacity="0.8"/>
<circle id="Ellipse 81_13" cx="859" cy="512" r="3" fill="#DBE3EB" fill-opacity="0.8"/>
<circle id="Ellipse 82_13" cx="902" cy="512" r="3" fill="#DBE3EB" fill-opacity="0.8"/>
<circle id="Ellipse 83_13" cx="945" cy="512" r="3" fill="#DBE3EB" fill-opacity="0.8"/>
<circle id="Ellipse 84_13" cx="988" cy="512" r="3" fill="#DBE3EB" fill-opacity="0.8"/>
<circle id="Ellipse 85_13" cx="1031" cy="512" r="3" fill="#DBE3EB" fill-opacity="0.8"/>
<circle id="Ellipse 86_13" cx="1074" cy="512" r="3" fill="#DBE3EB" fill-opacity="0.8"/>
<circle id="Ellipse 87_13" cx="1117" cy="512" r="3" fill="#DBE3EB" fill-opacity="0.8"/>
<circle id="Ellipse 88_13" cx="1160" cy="512" r="3" fill="#DBE3EB" fill-opacity="0.8"/>
<circle id="Ellipse 89_13" cx="1203" cy="512" r="3" fill="#DBE3EB" fill-opacity="0.8"/>
</g>
<g id="Frame 17">
<circle id="Ellipse 62_14" cx="42" cy="552" r="3" fill="#DBE3EB" fill-opacity="0.8"/>
<circle id="Ellipse 63_14" cx="85" cy="552" r="3" fill="#DBE3EB" fill-opacity="0.8"/>
<circle id="Ellipse 64_14" cx="128" cy="552" r="3" fill="#DBE3EB" fill-opacity="0.8"/>
<circle id="Ellipse 65_14" cx="171" cy="552" r="3" fill="#DBE3EB" fill-opacity="0.8"/>
<circle id="Ellipse 66_14" cx="214" cy="552" r="3" fill="#DBE3EB" fill-opacity="0.8"/>
<circle id="Ellipse 67_14" cx="257" cy="552" r="3" fill="#DBE3EB" fill-opacity="0.8"/>
<circle id="Ellipse 68_14" cx="300" cy="552" r="3" fill="#DBE3EB" fill-opacity="0.8"/>
<circle id="Ellipse 69_14" cx="343" cy="552" r="3" fill="#DBE3EB" fill-opacity="0.8"/>
<circle id="Ellipse 70_14" cx="386" cy="552" r="3" fill="#DBE3EB" fill-opacity="0.8"/>
<circle id="Ellipse 71_14" cx="429" cy="552" r="3" fill="#DBE3EB" fill-opacity="0.8"/>
<circle id="Ellipse 72_14" cx="472" cy="552" r="3" fill="#DBE3EB" fill-opacity="0.8"/>
<circle id="Ellipse 73_14" cx="515" cy="552" r="3" fill="#DBE3EB" fill-opacity="0.8"/>
<circle id="Ellipse 74_14" cx="558" cy="552" r="3" fill="#DBE3EB" fill-opacity="0.8"/>
<circle id="Ellipse 75_14" cx="601" cy="552" r="3" fill="#DBE3EB" fill-opacity="0.8"/>
<circle id="Ellipse 76_14" cx="644" cy="552" r="3" fill="#DBE3EB" fill-opacity="0.8"/>
<circle id="Ellipse 77_14" cx="687" cy="552" r="3" fill="#DBE3EB" fill-opacity="0.8"/>
<circle id="Ellipse 78_14" cx="730" cy="552" r="3" fill="#DBE3EB" fill-opacity="0.8"/>
<circle id="Ellipse 79_14" cx="773" cy="552" r="3" fill="#DBE3EB" fill-opacity="0.8"/>
<circle id="Ellipse 80_14" cx="816" cy="552" r="3" fill="#DBE3EB" fill-opacity="0.8"/>
<circle id="Ellipse 81_14" cx="859" cy="552" r="3" fill="#DBE3EB" fill-opacity="0.8"/>
<circle id="Ellipse 82_14" cx="902" cy="552" r="3" fill="#DBE3EB" fill-opacity="0.8"/>
<circle id="Ellipse 83_14" cx="945" cy="552" r="3" fill="#DBE3EB" fill-opacity="0.8"/>
<circle id="Ellipse 84_14" cx="988" cy="552" r="3" fill="#DBE3EB" fill-opacity="0.8"/>
<circle id="Ellipse 85_14" cx="1031" cy="552" r="3" fill="#DBE3EB" fill-opacity="0.8"/>
<circle id="Ellipse 86_14" cx="1074" cy="552" r="3" fill="#DBE3EB" fill-opacity="0.8"/>
<circle id="Ellipse 87_14" cx="1117" cy="552" r="3" fill="#DBE3EB" fill-opacity="0.8"/>
<circle id="Ellipse 88_14" cx="1160" cy="552" r="3" fill="#DBE3EB" fill-opacity="0.8"/>
<circle id="Ellipse 89_14" cx="1203" cy="552" r="3" fill="#DBE3EB" fill-opacity="0.8"/>
</g>
<g id="Frame 18">
<circle id="Ellipse 62_15" cx="42" cy="592" r="3" fill="#DBE3EB" fill-opacity="0.8"/>
<circle id="Ellipse 63_15" cx="85" cy="592" r="3" fill="#DBE3EB" fill-opacity="0.8"/>
<circle id="Ellipse 64_15" cx="128" cy="592" r="3" fill="#DBE3EB" fill-opacity="0.8"/>
<circle id="Ellipse 65_15" cx="171" cy="592" r="3" fill="#DBE3EB" fill-opacity="0.8"/>
<circle id="Ellipse 66_15" cx="214" cy="592" r="3" fill="#DBE3EB" fill-opacity="0.8"/>
<circle id="Ellipse 67_15" cx="257" cy="592" r="3" fill="#DBE3EB" fill-opacity="0.8"/>
<circle id="Ellipse 68_15" cx="300" cy="592" r="3" fill="#DBE3EB" fill-opacity="0.8"/>
<circle id="Ellipse 69_15" cx="343" cy="592" r="3" fill="#DBE3EB" fill-opacity="0.8"/>
<circle id="Ellipse 70_15" cx="386" cy="592" r="3" fill="#DBE3EB" fill-opacity="0.8"/>
<circle id="Ellipse 71_15" cx="429" cy="592" r="3" fill="#DBE3EB" fill-opacity="0.8"/>
<circle id="Ellipse 72_15" cx="472" cy="592" r="3" fill="#DBE3EB" fill-opacity="0.8"/>
<circle id="Ellipse 73_15" cx="515" cy="592" r="3" fill="#DBE3EB" fill-opacity="0.8"/>
<circle id="Ellipse 74_15" cx="558" cy="592" r="3" fill="#DBE3EB" fill-opacity="0.8"/>
<circle id="Ellipse 75_15" cx="601" cy="592" r="3" fill="#DBE3EB" fill-opacity="0.8"/>
<circle id="Ellipse 76_15" cx="644" cy="592" r="3" fill="#DBE3EB" fill-opacity="0.8"/>
<circle id="Ellipse 77_15" cx="687" cy="592" r="3" fill="#DBE3EB" fill-opacity="0.8"/>
<circle id="Ellipse 78_15" cx="730" cy="592" r="3" fill="#DBE3EB" fill-opacity="0.8"/>
<circle id="Ellipse 79_15" cx="773" cy="592" r="3" fill="#DBE3EB" fill-opacity="0.8"/>
<circle id="Ellipse 80_15" cx="816" cy="592" r="3" fill="#DBE3EB" fill-opacity="0.8"/>
<circle id="Ellipse 81_15" cx="859" cy="592" r="3" fill="#DBE3EB" fill-opacity="0.8"/>
<circle id="Ellipse 82_15" cx="902" cy="592" r="3" fill="#DBE3EB" fill-opacity="0.8"/>
<circle id="Ellipse 83_15" cx="945" cy="592" r="3" fill="#DBE3EB" fill-opacity="0.8"/>
<circle id="Ellipse 84_15" cx="988" cy="592" r="3" fill="#DBE3EB" fill-opacity="0.8"/>
<circle id="Ellipse 85_15" cx="1031" cy="592" r="3" fill="#DBE3EB" fill-opacity="0.8"/>
<circle id="Ellipse 86_15" cx="1074" cy="592" r="3" fill="#DBE3EB" fill-opacity="0.8"/>
<circle id="Ellipse 87_15" cx="1117" cy="592" r="3" fill="#DBE3EB" fill-opacity="0.8"/>
<circle id="Ellipse 88_15" cx="1160" cy="592" r="3" fill="#DBE3EB" fill-opacity="0.8"/>
<circle id="Ellipse 89_15" cx="1203" cy="592" r="3" fill="#DBE3EB" fill-opacity="0.8"/>
</g>
<g id="Frame 19">
<circle id="Ellipse 62_16" cx="42" cy="632" r="3" fill="#DBE3EB" fill-opacity="0.8"/>
<circle id="Ellipse 63_16" cx="85" cy="632" r="3" fill="#DBE3EB" fill-opacity="0.8"/>
<circle id="Ellipse 64_16" cx="128" cy="632" r="3" fill="#DBE3EB" fill-opacity="0.8"/>
<circle id="Ellipse 65_16" cx="171" cy="632" r="3" fill="#DBE3EB" fill-opacity="0.8"/>
<circle id="Ellipse 66_16" cx="214" cy="632" r="3" fill="#DBE3EB" fill-opacity="0.8"/>
<circle id="Ellipse 67_16" cx="257" cy="632" r="3" fill="#DBE3EB" fill-opacity="0.8"/>
<circle id="Ellipse 68_16" cx="300" cy="632" r="3" fill="#DBE3EB" fill-opacity="0.8"/>
<circle id="Ellipse 69_16" cx="343" cy="632" r="3" fill="#DBE3EB" fill-opacity="0.8"/>
<circle id="Ellipse 70_16" cx="386" cy="632" r="3" fill="#DBE3EB" fill-opacity="0.8"/>
<circle id="Ellipse 71_16" cx="429" cy="632" r="3" fill="#DBE3EB" fill-opacity="0.8"/>
<circle id="Ellipse 72_16" cx="472" cy="632" r="3" fill="#DBE3EB" fill-opacity="0.8"/>
<circle id="Ellipse 73_16" cx="515" cy="632" r="3" fill="#DBE3EB" fill-opacity="0.8"/>
<circle id="Ellipse 74_16" cx="558" cy="632" r="3" fill="#DBE3EB" fill-opacity="0.8"/>
<circle id="Ellipse 75_16" cx="601" cy="632" r="3" fill="#DBE3EB" fill-opacity="0.8"/>
<circle id="Ellipse 76_16" cx="644" cy="632" r="3" fill="#DBE3EB" fill-opacity="0.8"/>
<circle id="Ellipse 77_16" cx="687" cy="632" r="3" fill="#DBE3EB" fill-opacity="0.8"/>
<circle id="Ellipse 78_16" cx="730" cy="632" r="3" fill="#DBE3EB" fill-opacity="0.8"/>
<circle id="Ellipse 79_16" cx="773" cy="632" r="3" fill="#DBE3EB" fill-opacity="0.8"/>
<circle id="Ellipse 80_16" cx="816" cy="632" r="3" fill="#DBE3EB" fill-opacity="0.8"/>
<circle id="Ellipse 81_16" cx="859" cy="632" r="3" fill="#DBE3EB" fill-opacity="0.8"/>
<circle id="Ellipse 82_16" cx="902" cy="632" r="3" fill="#DBE3EB" fill-opacity="0.8"/>
<circle id="Ellipse 83_16" cx="945" cy="632" r="3" fill="#DBE3EB" fill-opacity="0.8"/>
<circle id="Ellipse 84_16" cx="988" cy="632" r="3" fill="#DBE3EB" fill-opacity="0.8"/>
<circle id="Ellipse 85_16" cx="1031" cy="632" r="3" fill="#DBE3EB" fill-opacity="0.8"/>
<circle id="Ellipse 86_16" cx="1074" cy="632" r="3" fill="#DBE3EB" fill-opacity="0.8"/>
<circle id="Ellipse 87_16" cx="1117" cy="632" r="3" fill="#DBE3EB" fill-opacity="0.8"/>
<circle id="Ellipse 88_16" cx="1160" cy="632" r="3" fill="#DBE3EB" fill-opacity="0.8"/>
<circle id="Ellipse 89_16" cx="1203" cy="632" r="3" fill="#DBE3EB" fill-opacity="0.8"/>
</g>
<g id="Frame 20">
<circle id="Ellipse 62_17" cx="42" cy="672" r="3" fill="#DBE3EB" fill-opacity="0.8"/>
<circle id="Ellipse 63_17" cx="85" cy="672" r="3" fill="#DBE3EB" fill-opacity="0.8"/>
<circle id="Ellipse 64_17" cx="128" cy="672" r="3" fill="#DBE3EB" fill-opacity="0.8"/>
<circle id="Ellipse 65_17" cx="171" cy="672" r="3" fill="#DBE3EB" fill-opacity="0.8"/>
<circle id="Ellipse 66_17" cx="214" cy="672" r="3" fill="#DBE3EB" fill-opacity="0.8"/>
<circle id="Ellipse 67_17" cx="257" cy="672" r="3" fill="#DBE3EB" fill-opacity="0.8"/>
<circle id="Ellipse 68_17" cx="300" cy="672" r="3" fill="#DBE3EB" fill-opacity="0.8"/>
<circle id="Ellipse 69_17" cx="343" cy="672" r="3" fill="#DBE3EB" fill-opacity="0.8"/>
<circle id="Ellipse 70_17" cx="386" cy="672" r="3" fill="#DBE3EB" fill-opacity="0.8"/>
<circle id="Ellipse 71_17" cx="429" cy="672" r="3" fill="#DBE3EB" fill-opacity="0.8"/>
<circle id="Ellipse 72_17" cx="472" cy="672" r="3" fill="#DBE3EB" fill-opacity="0.8"/>
<circle id="Ellipse 73_17" cx="515" cy="672" r="3" fill="#DBE3EB" fill-opacity="0.8"/>
<circle id="Ellipse 74_17" cx="558" cy="672" r="3" fill="#DBE3EB" fill-opacity="0.8"/>
<circle id="Ellipse 75_17" cx="601" cy="672" r="3" fill="#DBE3EB" fill-opacity="0.8"/>
<circle id="Ellipse 76_17" cx="644" cy="672" r="3" fill="#DBE3EB" fill-opacity="0.8"/>
<circle id="Ellipse 77_17" cx="687" cy="672" r="3" fill="#DBE3EB" fill-opacity="0.8"/>
<circle id="Ellipse 78_17" cx="730" cy="672" r="3" fill="#DBE3EB" fill-opacity="0.8"/>
<circle id="Ellipse 79_17" cx="773" cy="672" r="3" fill="#DBE3EB" fill-opacity="0.8"/>
<circle id="Ellipse 80_17" cx="816" cy="672" r="3" fill="#DBE3EB" fill-opacity="0.8"/>
<circle id="Ellipse 81_17" cx="859" cy="672" r="3" fill="#DBE3EB" fill-opacity="0.8"/>
<circle id="Ellipse 82_17" cx="902" cy="672" r="3" fill="#DBE3EB" fill-opacity="0.8"/>
<circle id="Ellipse 83_17" cx="945" cy="672" r="3" fill="#DBE3EB" fill-opacity="0.8"/>
<circle id="Ellipse 84_17" cx="988" cy="672" r="3" fill="#DBE3EB" fill-opacity="0.8"/>
<circle id="Ellipse 85_17" cx="1031" cy="672" r="3" fill="#DBE3EB" fill-opacity="0.8"/>
<circle id="Ellipse 86_17" cx="1074" cy="672" r="3" fill="#DBE3EB" fill-opacity="0.8"/>
<circle id="Ellipse 87_17" cx="1117" cy="672" r="3" fill="#DBE3EB" fill-opacity="0.8"/>
<circle id="Ellipse 88_17" cx="1160" cy="672" r="3" fill="#DBE3EB" fill-opacity="0.8"/>
<circle id="Ellipse 89_17" cx="1203" cy="672" r="3" fill="#DBE3EB" fill-opacity="0.8"/>
</g>
</g>
</g>
<defs>
<clipPath id="clip0_300_2">
<rect width="1245" height="700" fill="white"/>
</clipPath>
</defs>
</svg>
