<svg width="293" height="231" viewBox="0 0 293 231" fill="none" xmlns="http://www.w3.org/2000/svg">
<path id="Vector 4358" d="M51.6292 78.0355L52.3767 76.7351L51.6292 78.0355ZM273.495 230.916C272.713 231.189 271.857 230.777 271.584 229.995L267.131 217.25C266.858 216.468 267.27 215.613 268.052 215.339C268.834 215.066 269.69 215.479 269.963 216.261L273.921 227.589L285.25 223.631C286.032 223.358 286.887 223.77 287.161 224.552C287.434 225.334 287.021 226.19 286.239 226.463L273.495 230.916ZM98.9744 1.27854C98.7737 2.34087 98.5722 3.39508 98.3698 4.44121L95.4244 3.8713C95.6259 2.82957 95.8267 1.77973 96.0265 0.721722L98.9744 1.27854ZM97.1449 10.6216C96.7332 12.6497 96.3182 14.646 95.8999 16.6108L92.9656 15.9862C93.3819 14.0308 93.795 12.0438 94.2048 10.0248L97.1449 10.6216ZM94.6355 22.4113C94.1822 24.4427 93.7252 26.4387 93.2649 28.3999L90.3443 27.7144C90.802 25.7641 91.2565 23.7788 91.7076 21.7578L94.6355 22.4113ZM91.7922 34.5107C91.2976 36.509 90.7994 38.4688 90.2979 40.3908L87.3951 39.6332C87.8934 37.7238 88.3884 35.7763 88.88 33.79L91.7922 34.5107ZM88.7832 46.0436C88.2044 48.1468 87.6215 50.2017 87.0348 52.2091L84.1553 51.3674C84.7375 49.3756 85.316 47.336 85.8907 45.2477L88.7832 46.0436ZM85.263 58.0899C84.6687 60.0033 84.0708 61.8701 83.4695 63.6913L80.6207 62.7508C81.2163 60.9469 81.8088 59.097 82.398 57.2L85.263 58.0899ZM81.4103 69.7153C80.7116 71.6886 80.0089 73.6031 79.3025 75.46L76.4985 74.3935C77.1963 72.5589 77.8911 70.6662 78.5823 68.714L81.4103 69.7153ZM77.0999 81.0382C76.2738 83.0525 75.4434 84.9915 74.6092 86.8574L71.8705 85.6331C72.6913 83.7968 73.5095 81.8865 74.3243 79.8998L77.0999 81.0382ZM72.0961 92.2379C71.1293 94.2172 70.1583 96.1027 69.1841 97.8974L66.5475 96.4662C67.5002 94.7111 68.4516 92.8639 69.4005 90.9212L72.0961 92.2379ZM66.2052 103.09C65.0512 104.99 63.8936 106.769 62.734 108.432L60.2734 106.715C61.3946 105.108 62.5178 103.382 63.6411 101.533L66.2052 103.09ZM59.0624 113.306C57.6671 115.014 56.2699 116.563 54.8735 117.96L52.7516 115.839C54.072 114.518 55.4022 113.044 56.7392 111.408L59.0624 113.306ZM50.107 122.156C48.3153 123.523 46.5277 124.654 44.75 125.564L43.3828 122.894C44.989 122.072 46.626 121.038 48.2874 119.771L50.107 122.156ZM38.7481 127.829C36.5579 128.364 34.4055 128.573 32.3072 128.493L32.4212 125.496C34.2391 125.565 36.1136 125.384 38.0364 124.914L38.7481 127.829ZM25.9196 127.334C23.8779 126.664 21.9269 125.727 20.081 124.575L21.6688 122.03C23.3296 123.066 25.0631 123.895 26.8556 124.484L25.9196 127.334ZM15.0283 120.675C13.5004 119.252 12.0713 117.68 10.7514 115.996L13.112 114.145C14.3436 115.716 15.6682 117.171 17.0732 118.48L15.0283 120.675ZM7.20183 110.776C6.1375 108.968 5.18233 107.085 4.34646 105.161L7.09814 103.966C7.88639 105.781 8.78631 107.554 9.78727 109.255L7.20183 110.776ZM2.19109 99.2407C1.5844 97.1907 1.11557 95.126 0.797568 93.082L3.76191 92.6208C4.05837 94.5264 4.49701 96.4608 5.06775 98.3893L2.19109 99.2407ZM0.309812 86.7573C0.324307 84.5543 0.546463 82.4139 1.00069 80.391L3.92781 81.0482C3.52638 82.836 3.32302 84.7603 3.30975 86.777L0.309812 86.7573ZM3.34934 74.2598C4.4724 72.3322 5.92751 70.6381 7.74221 69.27L9.54817 71.6656C8.07531 72.7759 6.87931 74.1604 5.94147 75.77L3.34934 74.2598ZM13.7236 66.387C15.6524 65.8617 17.784 65.5904 20.1217 65.5963L20.1142 68.5962C18.0128 68.591 16.1518 68.8349 14.5119 69.2815L13.7236 66.387ZM26.4793 66.2157C28.403 66.5657 30.4387 67.0679 32.5899 67.7325L31.7044 70.5988C29.6552 69.9657 27.7362 69.4936 25.9424 69.1673L26.4793 66.2157ZM38.3209 69.7826C40.1577 70.5235 42.0688 71.3696 44.0561 72.3265L42.7546 75.0294C40.8216 74.0987 38.9704 73.2794 37.1987 72.5649L38.3209 69.7826ZM49.5112 75.1303C50.4509 75.6423 51.406 76.1771 52.3767 76.7351L50.8816 79.336C49.9301 78.789 48.9949 78.2654 48.0758 77.7646L49.5112 75.1303ZM52.3767 76.7351C53.2294 77.2252 54.0925 77.7051 54.9655 78.1748L53.5441 80.8167C52.6468 80.3339 51.7592 79.8405 50.8816 79.336L52.3767 76.7351ZM60.3209 80.8739C62.1044 81.7159 63.9238 82.5212 65.7765 83.292L64.6241 86.0619C62.7303 85.274 60.8681 84.4497 59.0402 83.5868L60.3209 80.8739ZM71.3889 85.4869C73.2439 86.1686 75.1279 86.8197 77.0387 87.4423L76.1093 90.2947C74.165 89.6612 72.2458 88.9979 70.3541 88.3028L71.3889 85.4869ZM82.7979 89.2114C84.708 89.7643 86.6413 90.2918 88.5957 90.7957L87.8467 93.7007C85.8653 93.1898 83.9036 92.6546 81.9638 92.0931L82.7979 89.2114ZM94.4483 92.2219C96.3955 92.6702 98.3609 93.0976 100.343 93.5058L99.7372 96.4441C97.7342 96.0315 95.7463 95.5992 93.7753 95.1455L94.4483 92.2219ZM106.256 94.6603C108.228 95.0249 110.214 95.3727 112.211 95.7052L111.718 98.6645C109.704 98.3292 107.701 97.9784 105.711 97.6103L106.256 94.6603ZM118.167 96.6479C120.155 96.9471 122.152 97.233 124.158 97.5071L123.752 100.479C121.734 100.204 119.723 99.9159 117.72 99.6145L118.167 96.6479ZM130.145 98.2889C132.143 98.5385 134.148 98.778 136.157 99.0089L135.814 101.989C133.796 101.757 131.782 101.517 129.773 101.266L130.145 98.2889ZM142.167 99.6742C144.172 99.8883 146.18 100.095 148.189 100.297L147.89 103.282C145.875 103.08 143.861 102.872 141.848 102.657L142.167 99.6742ZM154.218 100.886C156.228 101.078 158.237 101.265 160.244 101.45L159.968 104.438C157.959 104.252 155.947 104.064 153.933 103.872L154.218 100.886ZM166.288 102.001C168.302 102.183 170.307 102.364 172.312 102.545L172.041 105.533C170.041 105.352 168.03 105.171 166.018 104.989L166.288 102.001ZM178.37 103.097C180.386 103.282 182.394 103.47 184.392 103.66L184.107 106.647C182.113 106.457 180.108 106.27 178.095 106.084L178.37 103.097ZM190.457 104.254C192.476 104.457 194.484 104.665 196.479 104.881L196.157 107.863C194.17 107.649 192.169 107.441 190.156 107.239L190.457 104.254ZM202.537 105.562C204.562 105.799 206.571 106.046 208.561 106.304L208.176 109.279C206.199 109.023 204.202 108.778 202.188 108.541L202.537 105.562ZM214.597 107.128C216.627 107.421 218.637 107.727 220.622 108.05L220.141 111.011C218.175 110.692 216.183 110.388 214.168 110.097L214.597 107.128ZM226.603 109.085C228.639 109.46 230.647 109.856 232.622 110.274L232.002 113.209C230.054 112.797 228.072 112.406 226.059 112.035L226.603 109.085ZM238.541 111.618C240.562 112.11 242.544 112.631 244.485 113.182L243.666 116.068C241.763 115.528 239.817 115.017 237.831 114.532L238.541 111.618ZM250.351 114.988C252.312 115.642 254.223 116.334 256.08 117.068L254.978 119.858C253.175 119.146 251.315 118.472 249.402 117.834L250.351 114.988ZM261.766 119.528C263.664 120.428 265.495 121.382 267.252 122.396L265.753 124.995C264.071 124.024 262.312 123.107 260.481 122.239L261.766 119.528ZM272.457 125.732C274.164 126.949 275.782 128.239 277.303 129.608L275.296 131.838C273.864 130.549 272.336 129.33 270.716 128.174L272.457 125.732ZM281.682 134.089C283.037 135.673 284.281 137.346 285.405 139.113L282.874 140.723C281.827 139.078 280.668 137.519 279.403 136.039L281.682 134.089ZM288.374 144.609C289.218 146.479 289.945 148.437 290.551 150.487L287.674 151.337C287.106 149.416 286.426 147.586 285.639 145.843L288.374 144.609ZM291.946 156.589C292.271 158.548 292.498 160.58 292.625 162.689L289.63 162.868C289.51 160.859 289.294 158.932 288.986 157.081L291.946 156.589ZM292.709 168.905C292.648 170.897 292.507 172.951 292.282 175.07L289.299 174.753C289.516 172.706 289.652 170.727 289.71 168.814L292.709 168.905ZM291.445 181.102C291.108 183.086 290.704 185.123 290.231 187.214L287.305 186.552C287.766 184.511 288.16 182.528 288.488 180.599L291.445 181.102ZM288.769 193.05C288.239 194.986 287.654 196.966 287.013 198.99L284.153 198.084C284.783 196.096 285.356 194.154 285.875 192.258L288.769 193.05ZM285.087 204.728C284.427 206.593 283.722 208.494 282.972 210.431L280.174 209.347C280.915 207.436 281.609 205.563 282.259 203.727L285.087 204.728ZM280.646 216.203C279.899 217.988 279.116 219.802 278.296 221.646L275.555 220.427C276.366 218.603 277.14 216.809 277.878 215.046L280.646 216.203ZM275.723 227.27C275.275 228.223 274.818 229.183 274.351 230.151L271.649 228.849C272.111 227.889 272.564 226.938 273.008 225.994L275.723 227.27Z" fill="#9CAFFE"/>
</svg>
