<svg width="1245" height="642" viewBox="0 0 1245 642" fill="none" xmlns="http://www.w3.org/2000/svg">
<g clip-path="url(#clip0_105_42)">
<rect width="1245" height="642" fill="#F5F5F5"/>
<ellipse cx="523.569" cy="369.238" rx="45.2036" ry="15.3522" transform="rotate(-3.71548 523.569 369.238)" fill="#D9D9D9" fill-opacity="0.3"/>
<path d="M510.728 415.809C500.782 399.854 505.755 390.105 508.026 384.251L513.287 385.104C511.155 390.506 508.681 403.783 515.845 413.676" stroke="#D9D9D9" stroke-opacity="0.3" stroke-width="3"/>
<path d="M513.996 383.398C511.725 389.251 506.752 399.001 516.698 414.956" stroke="#D9D9D9" stroke-opacity="0.3" stroke-width="3"/>
<g opacity="0.6">
<ellipse cx="693.675" cy="562.933" rx="69.5112" ry="15.7786" fill="#F14D08"/>
<path d="M762.686 558.669C762.686 559.599 762.273 560.548 761.402 561.514C760.529 562.483 759.218 563.441 757.487 564.37C754.027 566.227 748.987 567.915 742.716 569.339C730.183 572.184 712.844 573.948 693.675 573.948C674.506 573.948 657.167 572.184 644.634 569.339C638.363 567.915 633.323 566.227 629.863 564.37C628.132 563.441 626.821 562.483 625.947 561.514C625.076 560.548 624.664 559.599 624.664 558.669C624.664 557.739 625.076 556.79 625.947 555.824C626.821 554.855 628.132 553.897 629.863 552.968C633.323 551.111 638.363 549.423 644.634 547.999C657.167 545.154 674.506 543.39 693.675 543.39C712.844 543.39 730.183 545.154 742.716 547.999C748.987 549.423 754.027 551.111 757.487 552.968C759.218 553.897 760.529 554.855 761.402 555.824C762.273 556.79 762.686 557.739 762.686 558.669Z" fill="#F14D08" stroke="#F5F5F5"/>
</g>
<g filter="url(#filter0_d_105_42)">
<path d="M509 250V124C509 121.239 511.239 119 514 119H629C631.761 119 634 121.239 634 124V250C634 252.761 631.761 255 629 255H514C511.239 255 509 252.761 509 250Z" stroke="black" stroke-width="2" shape-rendering="crispEdges"/>
</g>
<g opacity="0.3">
<line opacity="0.5" x1="9.98291" y1="9" x2="9.98291" y2="862.083" stroke="#020001"/>
<line opacity="0.5" x1="78.0676" y1="9" x2="78.0676" y2="862.083" stroke="#020001"/>
<line opacity="0.5" x1="149.344" y1="9" x2="149.344" y2="862.083" stroke="#020001"/>
<line opacity="0.5" x1="220.939" y1="9" x2="220.939" y2="862.083" stroke="#020001"/>
<line opacity="0.5" x1="292.215" y1="9" x2="292.215" y2="862.083" stroke="#020001"/>
<line opacity="0.5" x1="364.555" y1="9" x2="364.555" y2="862.083" stroke="#020001"/>
<line opacity="0.5" x1="425.64" y1="9" x2="425.64" y2="862.083" stroke="#020001"/>
<line opacity="0.5" x1="496.917" y1="9" x2="496.917" y2="862.083" stroke="#020001"/>
<line opacity="0.5" x1="573.512" y1="9" x2="573.512" y2="862.083" stroke="#020001"/>
<line opacity="0.5" x1="639.788" y1="9" x2="639.788" y2="862.083" stroke="#020001"/>
<line opacity="0.5" x1="711.064" y1="9" x2="711.064" y2="862.083" stroke="#020001"/>
<line opacity="0.5" x1="779.149" y1="9" x2="779.149" y2="862.083" stroke="#020001"/>
<line opacity="0.5" x1="843.361" y1="9" x2="843.361" y2="862.083" stroke="#020001"/>
<line opacity="0.5" x1="919.957" y1="9" x2="919.957" y2="862.083" stroke="#020001"/>
<line opacity="0.5" x1="992.297" y1="9" x2="992.297" y2="862.083" stroke="#020001"/>
<line opacity="0.5" x1="1057.64" y1="9" x2="1057.64" y2="862.083" stroke="#020001"/>
<line opacity="0.5" x1="1125.72" y1="9" x2="1125.72" y2="862.083" stroke="#020001"/>
<line opacity="0.5" x1="1195.93" y1="9" x2="1195.93" y2="862.083" stroke="#020001"/>
<line opacity="0.5" y1="-0.5" x2="1502.9" y2="-0.5" transform="matrix(-1 0.000899919 -0.00534294 -0.999986 1453.87 49.6768)" stroke="#020001"/>
<line opacity="0.5" y1="-0.5" x2="1502.9" y2="-0.5" transform="matrix(-1 0.000899919 -0.00534294 -0.999986 1454.15 101.961)" stroke="#020001"/>
<line opacity="0.5" y1="-0.5" x2="1502.9" y2="-0.5" transform="matrix(-1 0.000899919 -0.00534294 -0.999986 1454.45 156.696)" stroke="#020001"/>
<line opacity="0.5" y1="-0.5" x2="1502.9" y2="-0.5" transform="matrix(-1 0.000899919 -0.00534294 -0.999986 1454.76 215.516)" stroke="#020001"/>
<line opacity="0.5" y1="-0.5" x2="1502.9" y2="-0.5" transform="matrix(-1 0.000899919 -0.00534294 -0.999986 1455.05 270.252)" stroke="#020001"/>
<line opacity="0.5" y1="-0.5" x2="1502.9" y2="-0.5" transform="matrix(-1 0.000899919 -0.00534294 -0.999986 1455.35 324.987)" stroke="#020001"/>
<line opacity="0.5" y1="-0.5" x2="1502.9" y2="-0.5" transform="matrix(-1 0.000899919 -0.00534294 -0.999986 1455.63 377.271)" stroke="#020001"/>
<line opacity="0.5" y1="-0.5" x2="1502.9" y2="-0.5" transform="matrix(-1 0.000899919 -0.00534294 -0.999986 1455.91 431.19)" stroke="#020001"/>
<line opacity="0.5" y1="-0.5" x2="1502.9" y2="-0.5" transform="matrix(-1 0.000899919 -0.00534294 -0.999986 1456.23 490.01)" stroke="#020001"/>
<line opacity="0.5" y1="-0.5" x2="1502.9" y2="-0.5" transform="matrix(-1 0.000899919 -0.00534294 -0.999986 1456.52 545.562)" stroke="#020001"/>
<line opacity="0.5" y1="-0.5" x2="1502.9" y2="-0.5" transform="matrix(-1 0.000899919 -0.00534294 -0.999986 1456.82 601.114)" stroke="#020001"/>
</g>
<path d="M545.404 588.576C544.349 589.698 542.583 590.5 540.5 590.5C538.417 590.5 536.651 589.698 535.596 588.576C535.511 588.486 535.474 588.42 535.459 588.385C535.445 588.352 535.444 588.335 535.444 588.327C535.443 588.317 535.444 588.243 535.545 588.112C535.769 587.821 536.31 587.5 537 587.5H544C544.69 587.5 545.231 587.821 545.455 588.112C545.556 588.243 545.557 588.317 545.556 588.327C545.556 588.335 545.555 588.352 545.541 588.385C545.526 588.42 545.489 588.486 545.404 588.576Z" fill="#9CAFFE" stroke="#9CAFFE" stroke-width="3"/>
<path d="M545.537 589.018C544.348 591.038 542.42 592.5 540.5 592.5C538.58 592.5 536.652 591.038 535.463 589.018C535.329 588.79 535.313 588.627 535.323 588.52C535.334 588.406 535.382 588.268 535.503 588.118C535.759 587.802 536.298 587.5 537 587.5H544C544.702 587.5 545.241 587.802 545.497 588.118C545.618 588.268 545.666 588.406 545.677 588.52C545.687 588.627 545.671 588.79 545.537 589.018Z" fill="#9CAFFE" stroke="#9CAFFE" stroke-width="3"/>
<path d="M502.494 556.96C501.241 558.971 499.153 560.5 497 560.5C494.847 560.5 492.759 558.971 491.506 556.96C491.367 556.737 491.351 556.581 491.358 556.485C491.365 556.382 491.407 556.254 491.522 556.109C491.767 555.803 492.297 555.5 493 555.5H501C501.703 555.5 502.233 555.803 502.478 556.109C502.593 556.254 502.635 556.382 502.642 556.485C502.649 556.581 502.633 556.737 502.494 556.96Z" fill="#9CAFFE" stroke="#9CAFFE" stroke-width="3"/>
<path d="M780.494 554.96C779.241 556.971 777.153 558.5 775 558.5C772.847 558.5 770.759 556.971 769.506 554.96C769.367 554.737 769.351 554.581 769.358 554.485C769.365 554.382 769.407 554.254 769.522 554.109C769.767 553.803 770.297 553.5 771 553.5H779C779.703 553.5 780.233 553.803 780.478 554.109C780.593 554.254 780.635 554.382 780.642 554.485C780.649 554.581 780.633 554.737 780.494 554.96Z" fill="#9CAFFE" stroke="#9CAFFE" stroke-width="3"/>
<path d="M631.365 588.514C630.229 589.664 628.296 590.5 626 590.5C623.704 590.5 621.771 589.664 620.635 588.514C620.547 588.425 620.51 588.361 620.495 588.329C620.482 588.3 620.481 588.287 620.481 588.284L620.481 588.284C620.481 588.281 620.481 588.268 620.49 588.239C620.501 588.209 620.523 588.161 620.57 588.099C620.78 587.821 621.31 587.5 622 587.5H630C630.69 587.5 631.22 587.821 631.43 588.099C631.477 588.161 631.499 588.209 631.51 588.239C631.519 588.268 631.519 588.281 631.519 588.284L631.519 588.284C631.519 588.287 631.518 588.3 631.505 588.329C631.49 588.361 631.453 588.425 631.365 588.514Z" fill="#9CAFFE" stroke="#9CAFFE" stroke-width="3"/>
<path d="M631.494 588.96C630.241 590.971 628.153 592.5 626 592.5C623.847 592.5 621.759 590.971 620.506 588.96C620.367 588.737 620.351 588.581 620.358 588.485C620.365 588.382 620.407 588.254 620.522 588.109C620.767 587.803 621.297 587.5 622 587.5H630C630.703 587.5 631.233 587.803 631.478 588.109C631.593 588.254 631.635 588.382 631.642 588.485C631.649 588.581 631.633 588.737 631.494 588.96Z" fill="#9CAFFE" stroke="#9CAFFE" stroke-width="3"/>
<path d="M819.537 589.018C818.348 591.038 816.42 592.5 814.5 592.5C812.58 592.5 810.652 591.038 809.463 589.018C809.329 588.79 809.313 588.627 809.323 588.52C809.334 588.406 809.382 588.268 809.503 588.118C809.759 587.802 810.298 587.5 811 587.5H818C818.702 587.5 819.241 587.802 819.497 588.118C819.618 588.268 819.666 588.406 819.677 588.52C819.687 588.627 819.671 588.79 819.537 589.018Z" fill="#9CAFFE" stroke="#9CAFFE" stroke-width="3"/>
<g filter="url(#filter1_d_105_42)">
<path d="M370.181 278.552L373.18 195.64C373.28 192.881 375.598 190.724 378.358 190.824L492.806 194.965C495.566 195.065 497.722 197.383 497.622 200.142L494.622 283.054C494.523 285.814 492.205 287.97 489.445 287.87L374.997 283.729C372.237 283.629 370.081 281.311 370.181 278.552Z" stroke="black" stroke-width="3" shape-rendering="crispEdges"/>
</g>
<path d="M373.346 278.271V199.57C373.346 196.808 375.584 194.57 378.346 194.57H489.457C492.219 194.57 494.457 196.808 494.457 199.57V278.271C494.457 281.033 492.219 283.271 489.457 283.271H378.346C375.584 283.271 373.346 281.033 373.346 278.271Z" fill="#020001"/>
<path d="M436.5 203C436.5 204.559 436.025 205.951 435.282 206.943C434.539 207.934 433.55 208.5 432.5 208.5C431.45 208.5 430.461 207.934 429.718 206.943C428.975 205.951 428.5 204.559 428.5 203C428.5 201.441 428.975 200.049 429.718 199.057C430.461 198.066 431.45 197.5 432.5 197.5C433.55 197.5 434.539 198.066 435.282 199.057C436.025 200.049 436.5 201.441 436.5 203Z" fill="#F5F5F5" stroke="black"/>
<path d="M434.5 204C434.5 205.47 433.523 206.5 432.5 206.5C431.477 206.5 430.5 205.47 430.5 204C430.5 202.53 431.477 201.5 432.5 201.5C433.523 201.5 434.5 202.53 434.5 204Z" fill="#F5F5F5" stroke="black"/>
<path d="M575.5 130C575.5 131.572 575.074 132.972 574.412 133.965C573.748 134.962 572.885 135.5 572 135.5C571.115 135.5 570.252 134.962 569.588 133.965C568.926 132.972 568.5 131.572 568.5 130C568.5 128.428 568.926 127.028 569.588 126.035C570.252 125.038 571.115 124.5 572 124.5C572.885 124.5 573.748 125.038 574.412 126.035C575.074 127.028 575.5 128.428 575.5 130Z" fill="#F5F5F5" stroke="black"/>
<circle cx="572.5" cy="130.5" r="2" fill="#F5F5F5" stroke="black"/>
<path d="M753.834 199.327L740.428 217.755L753.705 226.498C755.986 221.86 765.599 209.185 765.556 207.352C765.513 205.519 763.037 198.355 753.834 199.327Z" fill="#9CAFFE"/>
<path d="M595.326 357.024C595.422 358.496 594.651 360.183 592.652 362.014C590.666 363.832 587.646 365.616 583.741 367.231C575.946 370.456 564.95 372.878 552.612 373.679C540.274 374.48 529.057 373.501 520.91 371.311C516.83 370.215 513.604 368.836 511.399 367.29C509.18 365.733 508.198 364.16 508.103 362.688C508.007 361.216 508.777 359.528 510.776 357.698C512.762 355.88 515.783 354.096 519.688 352.48C527.482 349.256 538.479 346.834 550.817 346.033C563.155 345.231 574.372 346.211 582.518 348.4C586.599 349.497 589.825 350.875 592.029 352.421C594.248 353.978 595.23 355.552 595.326 357.024Z" fill="#F5F5F5" stroke="#9CAFFE" stroke-width="3"/>
<path d="M536.172 374.87C533.901 380.723 528.928 390.473 538.874 406.427" stroke="#9CAFFE" stroke-width="3"/>
<path d="M542.142 374.017C539.871 379.87 534.898 389.62 544.844 405.574" stroke="#9CAFFE" stroke-width="3"/>
<path d="M541.426 320.262C542.265 321.729 544.571 324.224 547.086 322.463C545.514 315.23 542.37 311.771 547.086 289.131" stroke="#9CAFFE" stroke-width="4"/>
<path d="M639.417 317.486C638.43 318.886 635.819 321.2 633.272 319.248C635.423 312.148 638.912 310.822 635.434 287.855" stroke="#9CAFFE" stroke-width="4"/>
<path d="M544.681 287.598L546.568 289.738" stroke="#9CAFFE" stroke-width="4"/>
<path d="M637.853 285.964L634.124 289.109" stroke="#9CAFFE" stroke-width="4"/>
<path d="M642.5 421C644.913 429.711 640.54 444.601 585 429.575" stroke="#9CAFFE" stroke-width="3"/>
<path d="M581.223 422.374C583.126 423.12 583.979 423.422 581.317 421.998C579.358 420.949 579.153 421.564 581.223 422.374Z" stroke="#9CAFFE" stroke-width="2"/>
<path d="M581.812 426.695C573.633 428.25 564.854 423.525 560.237 420.065C559.131 419.236 558.11 418.129 558.009 416.75C557.632 411.636 569.789 415.222 573.524 415.222C577.668 415.222 593.414 424.489 581.812 426.695Z" stroke="#9CAFFE" stroke-width="3"/>
<path d="M576.1 429.997C567.787 428.182 553.017 423.034 558.005 416M575.676 430C579.556 430 588.63 429.063 587.965 426.049C587.3 423.034 585.561 421.722 585.423 421.443" stroke="#9CAFFE" stroke-width="3"/>
<ellipse cx="794.5" cy="427.5" rx="13.5" ry="3.5" fill="#9CAFFE"/>
<path d="M788.096 429L817 285.313L751 217" stroke="#020001" stroke-width="3"/>
<path d="M792.986 429L825 281.246L750 210" stroke="#020001" stroke-width="3"/>
<path d="M692.307 239.894L750.54 210.045C751.09 221.369 754.406 252.807 753.291 278.353C722.831 284.803 700.179 256.638 692.307 239.894Z" stroke="#9CAFFE" stroke-width="3"/>
<line x1="823.798" y1="282.501" x2="816.005" y2="285.55" stroke="#020001" stroke-width="4"/>
<path d="M692 240C707.126 244.222 740.303 257.733 752 278" stroke="#9CAFFE" stroke-width="3"/>
<path d="M795.17 413.755C792.75 417.998 791.74 416.368 791.049 414.453L788.142 428.328L792.816 428.73C794.935 422.349 797.59 409.512 795.17 413.755Z" fill="#9CAFFE" stroke="#9CAFFE" stroke-width="3"/>
<path d="M707.572 425.428L684.028 421.533C680.119 420.886 677.251 417.505 677.251 413.543V413.543C677.251 409.07 680.877 405.444 685.35 405.444L707.572 405.444M707.572 425.428L707.572 405.444M707.572 425.428L782.424 423.011C787.622 422.844 791.749 418.581 791.749 413.38V413.38C791.749 407.971 787.299 403.622 781.892 403.745L707.572 405.444" stroke="#9CAFFE" stroke-width="3"/>
<path d="M777.76 341.707L761.246 341.744C755.723 341.756 751.256 346.243 751.268 351.766L751.298 365.135C751.31 370.658 755.797 375.125 761.32 375.113L777.834 375.076C783.357 375.063 787.824 370.576 787.812 365.053L787.782 351.685C787.77 346.162 783.282 341.695 777.76 341.707Z" stroke="#9CAFFE" stroke-width="3"/>
<path d="M778.112 339.069V339.069C778.09 336.149 775.704 333.8 772.784 333.821L729.223 334.15C723.7 334.191 719.257 338.702 719.299 344.225L719.546 377.103C719.588 382.626 724.099 387.069 729.621 387.028L770.098 386.723C774.721 386.688 778.442 382.911 778.407 378.287V378.287" stroke="#9CAFFE" stroke-width="3"/>
<path d="M691.97 315.082L702.312 313.88M691.97 315.082L743.976 314.26L794.386 314.72M691.97 315.082L691.72 358.356L691.72 384.356C691.719 389.879 696.197 394.357 701.72 394.357L704.763 394.357M702.312 313.88L701.89 386.981C701.858 392.603 706.464 397.146 712.085 397.037L784.171 395.633C789.594 395.527 793.945 391.117 793.976 385.692L794.386 314.72M702.312 313.88L794.386 314.72" stroke="#9CAFFE" stroke-width="3"/>
<line x1="728.342" y1="338.134" x2="748.811" y2="340.693" stroke="#9CAFFE" stroke-width="2"/>
<line x1="727.845" y1="382.241" x2="748.314" y2="374.02" stroke="#9CAFFE" stroke-width="2"/>
<path d="M791.821 418.02L825.084 434.225" stroke="#9CAFFE" stroke-width="3"/>
<path opacity="0.1" d="M490 420L533 442.592L531.28 579L490 548.308V420Z" fill="#020001"/>
<path opacity="0.1" d="M772.62 493.422L814.373 492.143L814.373 577.847L772.62 548.515L772.62 493.422Z" fill="#020001"/>
<path opacity="0.1" d="M743.627 218.789L748.744 222.201L748.744 266.551L721.048 245.759L743.627 218.789Z" fill="#020001"/>
<path opacity="0.1" d="M740.642 217.51L741.921 217.51L712.496 240.964L697.144 239.685L740.642 217.51Z" fill="#020001"/>
<path d="M613.082 299.533C611.386 299.235 610.489 297.937 613.776 297.627C616.869 297.313 615.836 297.258 619.231 297.068C622.626 296.877 621.845 298.808 620.395 299.048C618.664 299.334 614.777 299.832 613.082 299.533Z" fill="#020001" stroke="#020001" stroke-width="3"/>
<path d="M577.901 301.281C579.366 300.669 579.878 299.239 576.83 299.563C573.957 299.847 574.88 299.597 571.762 300.058C568.644 300.519 569.799 302.244 571.167 302.201C572.801 302.149 576.435 301.893 577.901 301.281Z" fill="#020001" stroke="#020001" stroke-width="3"/>
<path d="M598.485 251.608C563.402 248.007 543.214 274.748 538.769 287.756C541.732 288.721 542.779 288.552 544.964 290.187C547.693 279.364 561.209 257.652 593.448 257.395C625.687 257.138 640.33 276.575 641.911 286.648C641.781 285.2 647.311 286.951 648.2 288.237C646.027 275.485 630.961 250.579 598.485 251.608Z" fill="#020001"/>
<path d="M538.14 295.618C537.844 293.689 538.245 287.96 538.769 287.756M538.769 287.756C543.214 274.748 563.402 248.007 598.485 251.608C630.961 250.579 646.027 275.485 648.2 288.237M538.769 287.756C541.732 288.721 542.779 288.552 544.964 290.187M648.2 288.237C647.311 286.951 641.781 285.2 641.911 286.648M648.2 288.237V293.731M641.911 286.648C642.311 291.121 642.307 291.335 642.702 292.407L643.483 294.045M641.911 286.648C640.33 276.575 625.687 257.138 593.448 257.395C561.209 257.652 547.693 279.364 544.964 290.187M544.964 290.187L544.429 294.674" stroke="#020001" stroke-width="4"/>
<path d="M658.086 311.34C658.715 293.629 644.172 293.7 638.842 293.629C643.705 305.094 641.146 319.684 639.259 325.545C642.161 326.808 657.572 325.803 658.086 311.34Z" stroke="#020001" stroke-width="3"/>
<path d="M523.842 313.149C523.213 295.437 537.755 295.508 543.085 295.437C538.222 306.903 540.782 321.492 542.669 327.354C539.767 328.617 524.355 327.612 523.842 313.149Z" stroke="#020001" stroke-width="3"/>
<path d="M547.574 319.494C534.916 300.761 569.388 281.027 589.037 273.92C607.793 274.616 647.234 286.096 639.336 311.492C633.278 330.974 563.397 342.91 547.574 319.494Z" stroke="#9CAFFE" stroke-width="4"/>
<path d="M594.375 313.512L599.919 314.392L604.599 311.738" stroke="#9CAFFE" stroke-width="2"/>
<path d="M594.024 310.981C594.693 311.794 595.529 313.689 593.522 314.754" stroke="#9CAFFE" stroke-width="2"/>
<path d="M550.664 284.93C547.518 286.473 547.485 296.032 547.574 299.391L550.131 296.658L553.095 294.5L558.656 289.585L561.095 287.127L557.636 283.983C556.288 282.606 553.81 283.387 550.664 284.93Z" fill="#9CAFFE"/>
<path d="M562.668 286.499L556.254 280.548C554.492 277.001 561.569 277.434 563.63 278.092C563.261 277.494 563.446 276.025 567.138 274.938C570.829 273.852 573.325 274.703 574.112 275.264L572.965 280.102L566.325 283.535L562.668 286.499Z" fill="#9CAFFE"/>
<path d="M577.098 276.892C577.399 274.592 575.102 273.387 573.917 273.072C575.013 271.206 578.039 270.915 579.415 271.003L586.954 274.12L578.233 279.001C577.73 279.256 576.798 279.192 577.098 276.892Z" fill="#9CAFFE"/>
<path d="M589.955 274.685L588.139 273.291C586.881 271.719 589.955 270.147 592.744 268.237C595.536 266.325 599.948 267.595 602.28 268.966L598.201 274.12L589.955 274.685Z" fill="#9CAFFE"/>
<path d="M599.774 275.264L606.665 268.575C612.428 268.062 613.368 271.767 613.118 273.683L609.924 276.809L609.207 278.008C608.454 279.613 603.547 277.379 602.604 277.065C601.888 276.826 600.103 276.603 599.774 275.264Z" fill="#9CAFFE"/>
<path d="M628.075 278.952C624.412 284.359 614 283.581 613.62 279.321C613.33 276.066 614.659 274.424 615.856 273.734C621.677 269.407 621.575 272.93 625.473 274.161C628.981 273.848 628.315 276.931 628.075 278.952C632.84 275.749 636.114 281.916 636.565 284.612L637.508 294.5L629.833 287.663L625.057 283.669L628.075 278.952Z" fill="#9CAFFE"/>
<path d="M542.222 324.829L545.736 318.202C558.038 332.26 568.368 335.299 597.232 332.095C625.559 328.95 636.879 314.485 639.722 311.97C641.185 313.647 643.797 317.63 642.54 320.145C646.299 321.403 645.783 324.862 645.055 326.435C646.817 328.488 646.789 325.615 649.428 330.432C651.54 334.284 649.218 336.343 647.794 336.891C648.799 337.538 650.716 339.22 650.349 340.768C649.89 342.703 651.825 343.162 647.239 344.833C647.618 349.093 642.385 347.055 639.722 345.503C639.102 346.821 636.96 348.527 633.346 344.808C632.003 347.453 630.834 348.505 626.566 346.675C624.374 346.87 625.196 349.007 620.615 347.205C617.626 350.502 614.701 348.153 613.613 346.566C613.678 347.297 612.892 348.398 609.228 346.957C606.077 351.278 601.502 347.645 599.608 345.288C599.72 346.541 593.241 349.622 590.654 348.446C585.983 346.324 584.994 352.441 582.479 350.869C581.742 351.654 580.089 352.658 577.789 351.968C575.439 353.945 573.26 353.108 572.464 352.442C571.817 353.447 570.056 355.182 568.191 354.086C567.573 355.656 565.427 354.963 564.432 354.42L560.925 357.574C560.268 358.475 558.284 359.83 555.6 358.049C554.024 360.209 552.08 357.52 551.305 355.906C551.472 357.785 542.623 360.175 542.243 355.915C538.852 354.702 540.61 351.772 543.8 350.962C542.654 349.907 542.213 348.823 545.999 345.96C540.228 341.423 543.143 335.165 544.827 332.805C543.006 332.21 542.332 327.24 542.222 324.829Z" fill="#9CAFFE"/>
<path d="M616.877 273.348C616.583 273.399 616.226 273.522 615.856 273.734M628.075 278.952C624.412 284.359 614 283.581 613.62 279.321C613.33 276.066 614.659 274.424 615.856 273.734M628.075 278.952C628.315 276.931 628.981 273.848 625.473 274.161C621.575 272.93 621.677 269.407 615.856 273.734M628.075 278.952C632.84 275.749 636.114 281.916 636.565 284.612L637.508 294.5L629.833 287.663L625.057 283.669L628.075 278.952ZM582.716 350.582C582.155 351.368 580.384 352.747 577.789 351.968C575.439 353.945 573.26 353.108 572.464 352.442C571.817 353.447 570.056 355.182 568.191 354.086C567.573 355.656 565.427 354.963 564.432 354.42L560.925 357.574C560.268 358.475 558.284 359.83 555.6 358.049C554.024 360.209 552.08 357.52 551.305 355.906C551.472 357.785 542.623 360.175 542.243 355.915C538.852 354.702 540.61 351.772 543.8 350.962C542.654 349.907 542.213 348.823 545.999 345.96C540.228 341.423 543.143 335.165 544.827 332.805C543.006 332.21 542.332 327.24 542.222 324.829L545.736 318.202C558.038 332.26 568.368 335.299 597.232 332.095C625.559 328.95 636.879 314.485 639.722 311.97C641.185 313.647 643.797 317.63 642.54 320.145C646.299 321.403 645.783 324.862 645.055 326.435C646.817 328.488 646.789 325.615 649.428 330.432C651.54 334.284 649.218 336.343 647.794 336.891C648.799 337.538 650.716 339.22 650.349 340.768C649.89 342.703 651.825 343.162 647.239 344.833C647.618 349.093 642.385 347.055 639.722 345.503C639.102 346.821 636.96 348.527 633.346 344.808C632.003 347.453 630.834 348.505 626.566 346.675C624.374 346.87 625.196 349.007 620.615 347.205C617.626 350.502 614.701 348.153 613.613 346.566C613.678 347.297 612.892 348.398 609.228 346.957C606.077 351.278 601.502 347.645 599.608 345.288C599.72 346.541 593.241 349.622 590.654 348.446C585.983 346.324 584.994 352.441 582.479 350.869M547.574 299.391C547.485 296.032 547.518 286.473 550.664 284.93C553.81 283.387 556.288 282.606 557.636 283.983L561.095 287.127L558.656 289.585L553.095 294.5L550.131 296.658L547.574 299.391ZM556.254 280.548L562.668 286.499L566.325 283.535L572.965 280.102L574.112 275.264C573.325 274.703 570.829 273.852 567.138 274.938C563.446 276.025 563.261 277.494 563.63 278.092C561.569 277.434 554.492 277.001 556.254 280.548ZM573.917 273.072C575.102 273.387 577.399 274.592 577.098 276.892C576.798 279.192 577.73 279.256 578.233 279.001L586.954 274.12L579.415 271.003C578.039 270.915 575.013 271.206 573.917 273.072ZM588.139 273.291L589.955 274.685L598.201 274.12L602.28 268.966C599.948 267.595 595.536 266.325 592.744 268.237C589.955 270.147 586.881 271.719 588.139 273.291ZM606.665 268.575L599.774 275.264C600.103 276.603 601.888 276.826 602.604 277.065C603.547 277.379 608.454 279.613 609.207 278.008L609.924 276.809L613.118 273.683C613.368 271.767 612.428 268.062 606.665 268.575Z" stroke="#9CAFFE" stroke-width="4"/>
<path d="M590.111 346.802V331.45H600.772V346.802H590.111Z" fill="#F5F5F5" stroke="#9CAFFE"/>
<path d="M560.861 312.411C564.343 316.936 573.33 320.477 580.564 311.562C580.634 304.304 556.69 306.989 560.861 312.411Z" stroke="black" stroke-width="2"/>
<ellipse cx="573.184" cy="313.995" rx="4.69094" ry="2.55869" transform="rotate(-17.7523 573.184 313.995)" fill="#020001"/>
<ellipse cx="570.494" cy="313.539" rx="2.55869" ry="0.852898" fill="#F5F5F5"/>
<path d="M631.624 306.588C629.047 311.682 620.877 316.836 612.108 309.426C610.687 302.308 634.712 300.483 631.624 306.588Z" stroke="black" stroke-width="2"/>
<ellipse cx="623.504" cy="309.73" rx="4.69094" ry="2.55869" transform="rotate(-17.7523 623.504 309.73)" fill="#020001"/>
<ellipse cx="620.815" cy="309.275" rx="2.55869" ry="0.852898" fill="#F5F5F5"/>
<line x1="624.45" y1="312.239" x2="626.156" y2="313.092" stroke="black"/>
<line x1="626.054" y1="310.495" x2="629.465" y2="311.348" stroke="black"/>
<path d="M658 411.75C640.691 412.317 593.683 413.96 544.128 416C533.704 372.104 563.766 350.07 586.735 344.012C590.885 347.605 599.958 352.232 603.049 342C634.044 343.754 653.06 389.636 658 411.75Z" fill="#F14D08"/>
<path d="M586.106 372.071C583.872 375.31 583.497 382.343 600.169 384C617.804 381.857 614.088 371.643 612.703 371" stroke="#F5F5F5" stroke-width="2"/>
<path d="M584 366.484L584.07 367.752C584.842 366.385 586.414 363.637 586.526 363.578M585.333 365.739C585.006 367.379 584.786 370.927 586.526 372C586.877 369.391 586.667 364.621 589.053 362.534M587.018 368.05C587.864 367.074 589.11 365.662 590.27 364.398M593.263 361.491C593.015 361.491 591.708 362.83 590.27 364.398M590.27 364.398V365.292C592.39 364.174 596.786 361.819 597.404 361.342M595.719 362.534C595.135 363.006 593.965 364.04 593.965 364.398C593.965 364.755 597.848 363.304 599.789 362.534C598.971 363.578 597.347 365.709 597.404 365.888C597.474 366.112 600.842 365.963 603.649 361.789C602.414 364.77 602.105 365.764 602.105 365.888C603.392 365.391 606.161 363.652 606.947 360.671C607.228 362.519 608 363.925 608.351 364.398C608.725 363.925 609.249 362.385 608.351 360C609.474 362.385 611.298 364.099 611.368 364.248C611.425 364.368 611.719 364.298 611.86 364.248C611.93 363.106 611.888 360.701 611.158 360.224M612 364.099V366.186" stroke="#F5F5F5" stroke-width="2"/>
<path d="M601.385 370.262C601.513 370.064 601.938 369.788 602.615 370.262M601 377C601.359 376.679 602.262 376.215 603 376.926" stroke="#F5F5F5"/>
<path d="M613.072 370.19C614.058 368.944 613.193 367.027 612.637 366.225C613.623 365.998 613.869 363.581 613.869 362.401C614.038 362.731 614.522 363.605 615.101 364.454C615.464 362.259 615.101 361.976 613.072 359.073C615.391 359.752 615.971 359.025 615.971 358.577C616.551 358.577 615.246 358.634 611.767 356.877C609.158 354.158 604.833 354.092 602.997 354.399L605.389 353.549C605.027 353.384 603.461 353.379 600.098 354.682C601.2 352.983 600.992 351.519 600.75 351C600.557 351.614 599.619 353.365 597.416 355.461C596.952 353.478 593.695 352.652 592.125 352.487C592.222 352.699 592.951 353.592 595.097 355.461C588.834 354.668 585.577 359.804 584.732 362.472L585.457 362.684C584.998 363.038 584.022 364.199 583.79 366.012C582.485 366.791 582.412 370.119 582.412 371.465C581.18 371.323 573.787 373.164 574.005 374.014C574.222 374.864 576.614 376.917 580.238 378.617C579.006 382.087 581.18 382.37 582.702 383.432C581.978 385.486 581.543 385.415 582.702 388.318C584.514 391.221 589.661 390.584 592.995 390.301C593.937 392.284 595.676 394.549 599.663 394.974C602.852 395.314 604.471 392.189 604.882 390.584C604.737 390.49 604.606 390.386 605.244 390.726C610.39 391.505 613.072 388.885 612.71 387.822C612.347 386.76 613.072 385.061 613.362 383.786C613.594 382.766 613.024 382.087 612.71 381.874C612.83 381.685 613.072 380.812 613.072 378.829C622.132 373.377 622.06 370.898 621.987 370.19C621.915 369.482 618.073 369.553 613.072 370.19Z" stroke="#F5F5F5" stroke-width="2"/>
<path d="M585 363C586.328 362.079 589.186 359.989 590 359" stroke="#F5F5F5" stroke-width="2"/>
<path d="M594 370C594 370.966 593.031 372 591.5 372C589.969 372 589 370.966 589 370C589 369.034 589.969 368 591.5 368C593.031 368 594 369.034 594 370Z" fill="#F5F5F5" stroke="#F5F5F5" stroke-width="2"/>
<ellipse cx="592" cy="369.5" rx="1" ry="1.5" fill="#F14D08"/>
<path d="M612 369C612 369.966 611.031 371 609.5 371C607.969 371 607 369.966 607 369C607 368.034 607.969 367 609.5 367C611.031 367 612 368.034 612 369Z" fill="#F5F5F5" stroke="#F5F5F5" stroke-width="2"/>
<ellipse cx="610" cy="368.5" rx="1" ry="1.5" fill="#F14D08"/>
<path d="M563.965 393.356C562.281 388.074 559.725 376.04 566.225 372.15" stroke="#F5F5F5" stroke-width="2"/>
<path d="M631.721 403.92C632.709 399.685 629.698 378.906 625.518 375.671" stroke="#F5F5F5" stroke-width="2"/>
<path d="M488.553 416.235L532.015 438.619C533.48 439.373 535.108 439.754 536.756 439.727L828.922 434.973" stroke="#9CAFFE" stroke-width="3"/>
<path d="M486.91 415.034L594.802 415.034" stroke="#9CAFFE" stroke-width="3"/>
<path d="M488.124 415.664L488.971 546.516C488.992 549.73 490.557 552.739 493.177 554.601L533.352 583.163M533.352 583.163L534.209 438.837M533.352 583.163L629.367 583.805C634.916 583.842 639.434 579.354 639.434 573.805L639.434 500.291C639.434 494.768 643.911 490.291 649.434 490.291L819.051 490.291C824.574 490.291 829.051 485.814 829.051 480.291L829.051 438.546" stroke="#9CAFFE" stroke-width="3"/>
<path d="M614 361.902C612.392 360.757 610.784 359.591 609.335 358.28C608.7 357.706 608.142 356.83 607.429 356.365C606.127 355.516 609.657 358.581 611.127 359.156C611.487 359.297 611.853 359.274 612.208 359.39C612.745 359.565 611.565 358.741 611.468 358.682C610.724 358.229 609.949 357.716 609.15 357.351C607.747 356.711 609.189 357.928 609.591 358.345C610.282 359.061 611.09 359.843 611.667 360.643C612.067 361.195 611.836 360.767 611.596 360.487C610.858 359.624 609.407 358.685 608.339 358.215C608.125 358.12 606.347 357.351 606.27 357.605C606.001 358.488 607.308 359.972 607.855 360.617C607.92 360.692 611.127 361.887 611.127 361.409C611.127 360.058 607.735 358.681 607.215 357.462C606.596 356.007 605.879 356.503 604.328 356.527C604.104 356.53 603.569 356.403 603.645 356.735C603.901 357.844 604.614 358.724 605.395 359.565C605.738 359.935 606.636 360.885 606.575 361.435C606.524 361.902 603.297 363.888 604.812 362.369C604.68 361.472 605.171 360.329 605.324 359.448C605.481 358.541 605.986 357.423 605.8 356.488C605.782 356.397 604.13 356.518 604.015 356.547C602.98 356.804 603.088 358.488 603.325 359.208C603.479 359.676 603.882 360.034 604.143 360.448C604.394 360.846 604.551 360.37 604.442 360.117C604.25 359.671 601.954 356.647 601.739 358.189C601.667 358.711 601.545 359.622 601.732 360.136C601.863 360.496 602.551 360.497 602.863 360.617C603.075 360.698 604.559 360.72 604.058 361.227C603.52 361.771 603.181 362.612 602.55 363.051C602.266 363.249 601.851 363.137 601.583 363.356C601.377 363.524 601.312 363.615 601.17 363.356C601.109 363.244 601.163 363.346 601.17 363.382C601.219 363.603 601.038 363.749 600.829 363.817C600.363 363.969 601.21 362.667 601.227 362.642C602.041 361.437 602.782 360.045 603.297 358.708C603.576 357.982 603.84 357.195 602.934 356.819C602.528 356.651 602.156 356.626 601.796 356.319C601.636 356.183 600.869 355.64 601.426 355.599C602.818 355.497 604.185 355.743 605.551 355.826C606.275 355.87 604.109 355.985 603.396 356.112C602.007 356.359 600.587 356.293 599.179 356.293C598.723 356.293 598.254 356.267 597.799 356.3C597.474 356.324 597.044 356.509 596.718 356.384C596.455 356.283 596.239 355.977 596.085 355.768C595.965 355.603 596.53 356.281 596.79 356.436C597.564 356.901 598.338 357.359 599.122 357.812C599.433 357.992 601.069 358.348 601.149 358.676C601.222 358.975 598.082 358.007 597.885 357.916C596.774 357.406 595.423 356.742 594.5 355.956C594.384 355.857 594.057 355.82 594.158 355.826C594.27 355.832 594.332 355.878 594.414 355.943C594.738 356.196 595.131 356.233 595.538 356.306C596.831 356.539 598.043 357.178 599.378 357.228C600.314 357.263 598.705 356.501 598.518 356.404C597.456 355.85 595.972 355.215 594.748 355.021C594.687 355.011 594.122 354.988 594.286 355.008C595.258 355.129 596.457 355.778 597.33 356.177C598.084 356.521 598.879 356.964 599.549 357.436C599.868 357.66 599.645 357.7 599.449 357.89C598.435 358.878 598.079 360.16 597.942 361.467C597.913 361.738 597.572 363.355 598.297 363.109C599.122 362.83 600.157 362.256 600.786 361.681C601.161 361.34 600.43 361.102 600.139 361.039C599.644 360.93 599.148 360.881 598.66 360.74C598.613 360.726 597.775 360.589 597.785 360.617C597.8 360.657 598.479 360.932 598.539 360.967C598.924 361.19 599.37 361.37 599.705 361.655C599.905 361.825 599.804 361.683 599.67 361.597C599.069 361.211 598.22 361.107 597.515 360.993C596.99 360.908 595.442 360.563 595.019 361.078C594.948 361.164 596.746 361.39 596.96 361.409C597.031 361.415 598.388 361.511 597.899 361.603C596.673 361.834 595.256 361.621 594.087 361.253C593.982 361.22 593.301 360.991 593.547 360.967C594.463 360.878 595.538 360.061 596.249 359.578C596.321 359.529 597.558 358.842 597.558 358.773C597.558 358.773 595.006 359.252 594.869 359.273C593.759 359.44 592.781 359.592 591.754 359.98C591.037 360.252 593.251 359.6 593.995 359.396C594.478 359.264 595.75 359.015 596.078 358.604C596.592 357.962 595.551 357.223 595.004 357.027C594.056 356.687 593.218 356.961 592.437 357.436C591.97 357.72 591.371 357.75 590.894 358.053C590.471 358.321 590.097 358.806 589.607 358.955C589.308 359.046 589.44 359.391 589.272 359.63C589.087 359.894 588.815 360.087 588.604 360.331C588.409 360.555 588.351 360.901 588.113 361.084C587.813 361.314 587.877 361.608 587.672 361.928C587.261 362.572 586.814 363.222 586.449 363.888C586.271 364.212 586.221 364.652 586.221 365.011C586.221 365.61 586.203 366.211 586.221 366.809C586.228 367.028 586.354 367.099 586.165 366.803C586.004 366.552 585.988 365.655 586.157 365.407C586.33 365.156 585.9 365.201 586.022 365.057C586.728 364.223 587.294 363.247 587.957 362.376C588.556 361.587 589.233 360.886 589.777 360.058C589.897 359.876 590.508 359.252 590.076 359.383C589.063 359.692 588.602 360.248 587.914 360.876C587.902 360.887 587.873 360.139 587.9 359.974C587.941 359.72 588.255 359.253 588.526 359.124C589.374 358.716 589.762 357.906 590.574 357.371C591.215 356.948 592.188 357.464 592.75 357.767C594.045 358.465 593.564 359.085 592.636 360.026C592.272 360.395 591.813 360.529 591.441 360.876C591.005 361.283 590.723 361.826 590.389 362.304C590.282 362.458 590.388 362.715 590.19 362.811C589.91 362.946 589.624 362.967 589.365 363.187C589.178 363.346 588.965 363.68 588.732 363.765C588.289 363.927 589.459 363.191 589.877 362.98C590.626 362.601 591.189 362.177 592.046 361.967C592.693 361.808 593.368 361.691 594.002 361.525C594.186 361.477 595.622 361.274 595.253 361.694C594.951 362.039 593.919 362.15 593.461 362.304C593.194 362.394 592.903 362.369 592.622 362.369" stroke="#F5F5F5" stroke-width="3" stroke-linecap="round"/>
<path opacity="0.1" d="M527 417H531.227L592.093 423.29L609 428.323L572.227 430C570.677 429.581 564.027 428.658 549.825 428.323C535.623 427.987 528.691 420.634 527 417Z" fill="#020001" stroke="black"/>
<path d="M611.567 426.975L596.513 423.856C594.238 423.385 592.607 421.38 592.607 419.057C592.607 416.35 594.801 414.156 597.508 414.156H611.01L658.969 413.422C662.342 413.371 665.103 416.09 665.103 419.463C665.103 422.727 662.511 425.401 659.248 425.502L611.567 426.975Z" fill="#F5F5F5"/>
<path d="M611.567 426.975L596.513 423.856C594.238 423.385 592.607 421.38 592.607 419.057V419.057C592.607 416.35 594.801 414.156 597.508 414.156H611.01M611.567 426.975L611.01 414.156M611.567 426.975L659.248 425.502C662.511 425.401 665.103 422.727 665.103 419.463V419.463C665.103 416.09 662.342 413.371 658.969 413.422L611.01 414.156" stroke="#9CAFFE" stroke-width="3"/>
<path d="M652.577 407.937L644.262 408.492C643.031 408.574 642.075 409.596 642.075 410.83C642.075 412.183 643.218 413.255 644.569 413.168L652.885 412.631C654.206 412.546 655.196 411.389 655.076 410.071C654.96 408.8 653.851 407.852 652.577 407.937Z" fill="#9CAFFE" stroke="#F5F5F5" stroke-width="2"/>
<path d="M636.372 408.364L628.057 408.918C626.826 409 625.87 410.023 625.87 411.256C625.87 412.609 627.013 413.681 628.363 413.594L636.68 413.058C638 412.972 638.991 411.815 638.871 410.498C638.755 409.226 637.646 408.279 636.372 408.364Z" fill="#9CAFFE" stroke="#F5F5F5" stroke-width="2"/>
<path d="M624.432 408.364L616.116 408.918C614.886 409 613.929 410.023 613.929 411.256C613.929 412.609 615.072 413.681 616.423 413.594L624.74 413.058C626.06 412.972 627.05 411.815 626.931 410.498C626.815 409.226 625.706 408.279 624.432 408.364Z" fill="#9CAFFE" stroke="#F5F5F5" stroke-width="2"/>
<path d="M627.149 409.917H630.134M642.928 409.917H646.339M613.076 410.343L610.903 410.826C609.931 411.043 609.238 411.905 609.238 412.902V412.902" stroke="#F5F5F5" stroke-width="2"/>
<path d="M471 449H489V464.102V503L471 488.592V449Z" fill="#F5F5F5"/>
<path d="M489 464.102L471 449M489 464.102V503L471 488.592V449M489 464.102V449H471" stroke="#9CAFFE" stroke-width="3"/>
<path d="M487 461L475 451L487 451V461Z" fill="#020001"/>
<path opacity="0.1" d="M495.797 524.947C454.431 539.02 432.256 529.638 419.036 524.947L432.256 585.502L444.623 591.473L459.975 592.326L474.048 589.767L482.15 582.944C482.15 582.944 493.447 537.87 495.797 524.947Z" fill="#020001"/>
<path d="M497.288 517.73C497.288 518.54 496.682 519.662 494.712 520.959C492.803 522.215 489.941 523.405 486.27 524.427C478.949 526.464 468.749 527.744 457.422 527.744C446.095 527.744 435.896 526.464 428.575 524.427C424.903 523.405 422.041 522.215 420.132 520.959C418.162 519.662 417.557 518.54 417.557 517.73C417.557 516.92 418.162 515.797 420.132 514.501C422.041 513.245 424.903 512.055 428.575 511.033C435.896 508.995 446.095 507.716 457.422 507.716C468.749 507.716 478.949 508.995 486.27 511.033C489.941 512.055 492.803 513.245 494.712 514.501C496.682 515.797 497.288 516.92 497.288 517.73Z" stroke="#9CAFFE" stroke-width="3"/>
<path d="M424.585 528.391L434.82 584.683" stroke="#9CAFFE" stroke-width="2"/>
<path d="M439.961 530.69L446.737 587.501" stroke="#9CAFFE" stroke-width="2"/>
<path d="M452.344 530.917L451.751 588.129" stroke="#9CAFFE" stroke-width="2"/>
<path d="M468.974 530.065L462.199 586.876" stroke="#9CAFFE" stroke-width="2"/>
<path d="M482.64 528.359L472.405 584.65" stroke="#9CAFFE" stroke-width="2"/>
<ellipse cx="455.29" cy="518.583" rx="38.3804" ry="8.95543" fill="#020001"/>
<path d="M384.499 242.67C380.235 232.862 381.287 222.122 381.94 210.26C386.122 211.359 396.902 210.907 410.576 212.936C409.025 219.72 411.084 231.573 416.909 240.111C412.347 240.555 401.624 239.517 384.499 242.67Z" fill="#F5F5F5"/>
<path d="M412.129 261.86C412.129 249.972 411.475 227.187 412.129 215.326C416.31 216.425 427.09 215.973 440.765 218.002C440.765 224.333 441.809 251.199 441.809 262.713C437.247 263.157 428.589 263.14 412.129 261.86Z" fill="#F14D08"/>
<g filter="url(#filter2_d_105_42)">
<path d="M650.088 229.45C650.088 217.561 649.434 194.777 650.088 182.916C654.269 184.015 665.049 183.563 678.723 185.592C678.723 191.923 679.768 218.789 679.768 230.303C675.205 230.747 666.548 230.73 650.088 229.45Z" fill="#9CAFFE"/>
</g>
<g filter="url(#filter3_d_105_42)">
<circle cx="408" cy="213" r="14" fill="#D9D9D9"/>
</g>
<path d="M413 216H408L411 218L413 216Z" fill="#020001"/>
<path d="M400 215C400 216.105 399.105 217 398 217C396.895 217 396 216.105 396 215C398 215 398 214.333 398 213C399.105 213 400 213.895 400 215Z" fill="#020001"/>
<path d="M421 214C421 215.105 420.105 216 419 216C417.895 216 417 215.105 417 214C419 214 419 214 419 212C420.105 212 421 212.895 421 214Z" fill="#020001"/>
<path d="M397.688 211.52C397.18 211.416 397.273 210.955 397.561 210.921C397.783 210.882 398.479 210.791 399.486 210.743C400.494 210.695 400.314 211.257 399.92 211.323C399.409 211.409 398.196 211.625 397.688 211.52Z" fill="#F14D08" stroke="#F14D08" stroke-width="2"/>
<path d="M418.157 210.667C417.649 210.563 417.743 210.102 418.03 210.068C418.252 210.029 418.948 209.938 419.956 209.89C420.964 209.842 420.784 210.404 420.39 210.47C419.878 210.556 418.665 210.772 418.157 210.667Z" fill="#F14D08" stroke="#F14D08" stroke-width="2"/>
<ellipse cx="664.5" cy="189.5" rx="2.5" ry="1.5" fill="#020001"/>
<path d="M658 414H678" stroke="#9CAFFE" stroke-width="3"/>
<path d="M655.201 207.521C655.804 209.433 658.345 210.581 659.635 209.385C661.247 207.891 662.057 207.506 664.049 209.486C666.04 211.466 671.498 212.013 668.26 208.536" stroke="black"/>
<circle cx="671.5" cy="210.5" r="0.5" fill="#020001"/>
<path d="M537 576V444.239C537 443.146 537.878 442.255 538.97 442.239L823.949 438.03C825.073 438.014 825.99 438.918 825.978 440.043C825.831 453.947 825.574 478.53 825.574 479.829C825.574 481.115 823.559 481.997 822.375 482.334C822.235 482.374 822.09 482.392 821.945 482.396L637.447 487.458C636.349 487.488 635.481 488.379 635.503 489.476C636.129 520.213 638.283 578 634.612 578H538.98C537.875 578 537 577.105 537 576Z" fill="#F5F5F5"/>
<path d="M824 487V577.578C824 581.587 819.518 583.966 816.197 581.719L772.197 551.936C770.823 551.006 770 549.454 770 547.795V492.398" stroke="#9CAFFE" stroke-width="3"/>
<path d="M811.375 491.29L811.801 582.977" stroke="#9CAFFE" stroke-width="3"/>
<path opacity="0.1" d="M707.606 426.653L541.006 426.653L526.08 415.992L571.142 415.992L677.328 415.992L684.151 422.389L707.606 426.653Z" fill="#020001"/>
<path d="M578.792 416.467L583.095 415.548C587.429 414.622 588.24 408.788 584.324 406.715C555.635 391.271 540.619 401.54 534.238 413.157C533.306 414.855 532.643 417.03 533.944 418.466C534.69 419.288 535.754 419.845 536.791 420.198C538.215 420.682 539.709 420.977 541.097 421.555L548.069 424.462C551.471 425.88 555.276 425.996 558.758 424.788L567.636 421.707L571.335 421.361C574.479 421.067 577.272 419.234 578.792 416.467Z" fill="#F5F5F5"/>
<path d="M578.792 416.467L583.095 415.548C587.429 414.622 588.24 408.788 584.324 406.715V406.715C555.635 391.271 540.619 401.54 534.238 413.157C533.306 414.855 532.643 417.03 533.944 418.466C534.69 419.288 535.754 419.845 536.791 420.198C538.215 420.682 539.709 420.977 541.097 421.555L548.069 424.462C551.471 425.88 555.276 425.996 558.758 424.788L567.636 421.707M578.792 416.467L570.022 411.535M578.792 416.467V416.467C577.272 419.234 574.479 421.067 571.335 421.361L567.636 421.707M567.636 421.707L559.655 416.27" stroke="#9CAFFE" stroke-width="3"/>
<path d="M753.834 199.327L740.428 217.755L753.705 226.498C755.986 221.86 765.599 209.185 765.556 207.352C765.513 205.519 763.037 198.355 753.834 199.327Z" fill="#9CAFFE"/>
</g>
<defs>
<filter id="filter0_d_105_42" x="504" y="118" width="135" height="146" filterUnits="userSpaceOnUse" color-interpolation-filters="sRGB">
<feFlood flood-opacity="0" result="BackgroundImageFix"/>
<feColorMatrix in="SourceAlpha" type="matrix" values="0 0 0 0 0 0 0 0 0 0 0 0 0 0 0 0 0 0 127 0" result="hardAlpha"/>
<feOffset dy="4"/>
<feGaussianBlur stdDeviation="2"/>
<feComposite in2="hardAlpha" operator="out"/>
<feColorMatrix type="matrix" values="0 0 0 0 0 0 0 0 0 0 0 0 0 0 0 0 0 0 0.25 0"/>
<feBlend mode="normal" in2="BackgroundImageFix" result="effect1_dropShadow_105_42"/>
<feBlend mode="normal" in="SourceGraphic" in2="effect1_dropShadow_105_42" result="shape"/>
</filter>
<filter id="filter1_d_105_42" x="364.677" y="189.321" width="138.448" height="108.052" filterUnits="userSpaceOnUse" color-interpolation-filters="sRGB">
<feFlood flood-opacity="0" result="BackgroundImageFix"/>
<feColorMatrix in="SourceAlpha" type="matrix" values="0 0 0 0 0 0 0 0 0 0 0 0 0 0 0 0 0 0 127 0" result="hardAlpha"/>
<feOffset dy="4"/>
<feGaussianBlur stdDeviation="2"/>
<feComposite in2="hardAlpha" operator="out"/>
<feColorMatrix type="matrix" values="0 0 0 0 0 0 0 0 0 0 0 0 0 0 0 0 0 0 0.25 0"/>
<feBlend mode="normal" in2="BackgroundImageFix" result="effect1_dropShadow_105_42"/>
<feBlend mode="normal" in="SourceGraphic" in2="effect1_dropShadow_105_42" result="shape"/>
</filter>
<filter id="filter2_d_105_42" x="645.797" y="182.916" width="37.9707" height="55.6501" filterUnits="userSpaceOnUse" color-interpolation-filters="sRGB">
<feFlood flood-opacity="0" result="BackgroundImageFix"/>
<feColorMatrix in="SourceAlpha" type="matrix" values="0 0 0 0 0 0 0 0 0 0 0 0 0 0 0 0 0 0 127 0" result="hardAlpha"/>
<feOffset dy="4"/>
<feGaussianBlur stdDeviation="2"/>
<feComposite in2="hardAlpha" operator="out"/>
<feColorMatrix type="matrix" values="0 0 0 0 0 0 0 0 0 0 0 0 0 0 0 0 0 0 0.25 0"/>
<feBlend mode="normal" in2="BackgroundImageFix" result="effect1_dropShadow_105_42"/>
<feBlend mode="normal" in="SourceGraphic" in2="effect1_dropShadow_105_42" result="shape"/>
</filter>
<filter id="filter3_d_105_42" x="390" y="199" width="36" height="36" filterUnits="userSpaceOnUse" color-interpolation-filters="sRGB">
<feFlood flood-opacity="0" result="BackgroundImageFix"/>
<feColorMatrix in="SourceAlpha" type="matrix" values="0 0 0 0 0 0 0 0 0 0 0 0 0 0 0 0 0 0 127 0" result="hardAlpha"/>
<feOffset dy="4"/>
<feGaussianBlur stdDeviation="2"/>
<feComposite in2="hardAlpha" operator="out"/>
<feColorMatrix type="matrix" values="0 0 0 0 0 0 0 0 0 0 0 0 0 0 0 0 0 0 0.25 0"/>
<feBlend mode="normal" in2="BackgroundImageFix" result="effect1_dropShadow_105_42"/>
<feBlend mode="normal" in="SourceGraphic" in2="effect1_dropShadow_105_42" result="shape"/>
</filter>
<clipPath id="clip0_105_42">
<rect width="1245" height="642" fill="white"/>
</clipPath>
</defs>
</svg>
