<svg width="1280" height="832" viewBox="0 0 1280 832" fill="none" xmlns="http://www.w3.org/2000/svg">
<g clip-path="url(#clip0_105_42)">
<rect width="1280" height="832" fill="#F5F5F5"/>
<g filter="url(#filter0_d_105_42)">
<path d="M507 305V156C507 153.239 509.239 151 512 151H648C650.761 151 653 153.239 653 156V305C653 307.761 650.761 310 648 310H512C509.239 310 507 307.761 507 305Z" stroke="black" stroke-width="2" shape-rendering="crispEdges"/>
</g>
<g opacity="0.3">
<line opacity="0.5" x1="9.98291" y1="9" x2="9.98291" y2="862.083" stroke="#020001"/>
<line opacity="0.5" x1="78.0676" y1="9" x2="78.0676" y2="862.083" stroke="#020001"/>
<line opacity="0.5" x1="149.344" y1="9" x2="149.344" y2="862.083" stroke="#020001"/>
<line opacity="0.5" x1="225.939" y1="9" x2="225.939" y2="862.083" stroke="#020001"/>
<line opacity="0.5" x1="297.215" y1="9" x2="297.215" y2="862.083" stroke="#020001"/>
<line opacity="0.5" x1="369.555" y1="9" x2="369.555" y2="862.083" stroke="#020001"/>
<line opacity="0.5" x1="437.64" y1="9" x2="437.64" y2="862.083" stroke="#020001"/>
<line opacity="0.5" x1="508.917" y1="9" x2="508.917" y2="862.083" stroke="#020001"/>
<line opacity="0.5" x1="585.512" y1="9" x2="585.512" y2="862.083" stroke="#020001"/>
<line opacity="0.5" x1="656.788" y1="9" x2="656.788" y2="862.083" stroke="#020001"/>
<line opacity="0.5" x1="728.064" y1="9" x2="728.064" y2="862.083" stroke="#020001"/>
<line opacity="0.5" x1="796.149" y1="9" x2="796.149" y2="862.083" stroke="#020001"/>
<line opacity="0.5" x1="866.361" y1="9" x2="866.361" y2="862.083" stroke="#020001"/>
<line opacity="0.5" x1="942.957" y1="9" x2="942.957" y2="862.083" stroke="#020001"/>
<line opacity="0.5" x1="1015.3" y1="9" x2="1015.3" y2="862.083" stroke="#020001"/>
<line opacity="0.5" x1="1087.64" y1="9" x2="1087.64" y2="862.083" stroke="#020001"/>
<line opacity="0.5" x1="1155.72" y1="9" x2="1155.72" y2="862.083" stroke="#020001"/>
<line opacity="0.5" x1="1225.93" y1="9" x2="1225.93" y2="862.083" stroke="#020001"/>
<line opacity="0.5" y1="-0.5" x2="1502.9" y2="-0.5" transform="matrix(-1 0.000899919 -0.00534294 -0.999986 1453.87 49.6768)" stroke="#020001"/>
<line opacity="0.5" y1="-0.5" x2="1502.9" y2="-0.5" transform="matrix(-1 0.000899919 -0.00534294 -0.999986 1454.15 101.961)" stroke="#020001"/>
<line opacity="0.5" y1="-0.5" x2="1502.9" y2="-0.5" transform="matrix(-1 0.000899919 -0.00534294 -0.999986 1454.45 156.696)" stroke="#020001"/>
<line opacity="0.5" y1="-0.5" x2="1502.9" y2="-0.5" transform="matrix(-1 0.000899919 -0.00534294 -0.999986 1454.76 215.516)" stroke="#020001"/>
<line opacity="0.5" y1="-0.5" x2="1502.9" y2="-0.5" transform="matrix(-1 0.000899919 -0.00534294 -0.999986 1455.05 270.252)" stroke="#020001"/>
<line opacity="0.5" y1="-0.5" x2="1502.9" y2="-0.5" transform="matrix(-1 0.000899919 -0.00534294 -0.999986 1455.35 324.987)" stroke="#020001"/>
<line opacity="0.5" y1="-0.5" x2="1502.9" y2="-0.5" transform="matrix(-1 0.000899919 -0.00534294 -0.999986 1455.63 377.271)" stroke="#020001"/>
<line opacity="0.5" y1="-0.5" x2="1502.9" y2="-0.5" transform="matrix(-1 0.000899919 -0.00534294 -0.999986 1455.91 431.19)" stroke="#020001"/>
<line opacity="0.5" y1="-0.5" x2="1502.9" y2="-0.5" transform="matrix(-1 0.000899919 -0.00534294 -0.999986 1456.23 490.01)" stroke="#020001"/>
<line opacity="0.5" y1="-0.5" x2="1502.9" y2="-0.5" transform="matrix(-1 0.000899919 -0.00534294 -0.999986 1456.52 545.562)" stroke="#020001"/>
<line opacity="0.5" y1="-0.5" x2="1502.9" y2="-0.5" transform="matrix(-1 0.000899919 -0.00534294 -0.999986 1456.82 601.114)" stroke="#020001"/>
<line opacity="0.5" y1="-0.5" x2="1502.9" y2="-0.5" transform="matrix(-1 0.000899919 -0.00534294 -0.999986 1457.1 653.398)" stroke="#020001"/>
<line opacity="0.5" y1="-0.5" x2="1502.9" y2="-0.5" transform="matrix(-1 0.000899919 -0.00534294 -0.999986 1457.39 707.317)" stroke="#020001"/>
<line opacity="0.5" y1="-0.5" x2="1502.9" y2="-0.5" transform="matrix(-1 0.000899919 -0.00534294 -0.999986 1457.7 766.137)" stroke="#020001"/>
<line opacity="0.5" y1="-0.5" x2="1502.9" y2="-0.5" transform="matrix(-1 0.000899919 -0.00534294 -0.999986 1458 821.689)" stroke="#020001"/>
</g>
<path d="M672.86 698C673.191 701.852 669.445 705.319 664.492 705.744C659.54 706.17 655.257 703.392 654.926 699.54" stroke="#9CAFFE" stroke-width="3"/>
<path d="M585.926 705C585.926 708.866 581.897 712 576.926 712C571.956 712 567.926 708.866 567.926 705" stroke="#9CAFFE" stroke-width="3"/>
<path opacity="0.1" d="M496.426 621C447.926 637.5 421.926 626.499 406.426 620.999L421.926 691.999L436.426 699L454.426 700L470.926 697L480.426 689C480.426 689 493.671 636.151 496.426 621Z" fill="#020001"/>
<g filter="url(#filter1_d_105_42)">
<path d="M339 342V243C339 240.239 341.239 238 344 238H480C482.761 238 485 240.239 485 243V342C485 344.761 482.761 347 480 347H344C341.239 347 339 344.761 339 342Z" stroke="black" stroke-width="3" shape-rendering="crispEdges"/>
</g>
<path d="M341 339V245C341 242.239 343.239 240 346 240H478C480.761 240 483 242.239 483 245V339C483 341.761 480.761 344 478 344H346C343.239 344 341 341.761 341 339Z" fill="#020001"/>
<path d="M414.5 250C414.5 251.841 413.966 253.486 413.129 254.659C412.29 255.833 411.177 256.5 410 256.5C408.823 256.5 407.71 255.833 406.871 254.659C406.034 253.486 405.5 251.841 405.5 250C405.5 248.159 406.034 246.514 406.871 245.341C407.71 244.167 408.823 243.5 410 243.5C411.177 243.5 412.29 244.167 413.129 245.341C413.966 246.514 414.5 248.159 414.5 250Z" fill="#F5F5F5" stroke="black"/>
<path d="M412.5 250.5C412.5 252.232 411.311 253.5 410 253.5C408.689 253.5 407.5 252.232 407.5 250.5C407.5 248.768 408.689 247.5 410 247.5C411.311 247.5 412.5 248.768 412.5 250.5Z" fill="#F5F5F5" stroke="black"/>
<path d="M585.5 164C585.5 165.841 584.966 167.486 584.129 168.659C583.29 169.833 582.177 170.5 581 170.5C579.823 170.5 578.71 169.833 577.871 168.659C577.034 167.486 576.5 165.841 576.5 164C576.5 162.159 577.034 160.514 577.871 159.341C578.71 158.167 579.823 157.5 581 157.5C582.177 157.5 583.29 158.167 584.129 159.341C584.966 160.514 585.5 162.159 585.5 164Z" fill="#F5F5F5" stroke="black"/>
<path d="M583.5 164.5C583.5 166.232 582.311 167.5 581 167.5C579.689 167.5 578.5 166.232 578.5 164.5C578.5 162.768 579.689 161.5 581 161.5C582.311 161.5 583.5 162.768 583.5 164.5Z" fill="#F5F5F5" stroke="black"/>
<path d="M802.834 245.327L789.428 263.755L802.705 272.498C804.986 267.86 814.599 255.185 814.556 253.352C814.513 251.519 812.037 244.355 802.834 245.327Z" fill="#9CAFFE"/>
<path d="M802.834 245.327L789.428 263.755L802.705 272.498C804.986 267.86 814.599 255.185 814.556 253.352C814.513 251.519 812.037 244.355 802.834 245.327Z" fill="#9CAFFE"/>
<path d="M608.447 430.059C608.566 431.896 607.601 433.945 605.228 436.117C602.869 438.277 599.297 440.383 594.704 442.283C585.533 446.077 572.611 448.921 558.124 449.862C543.638 450.803 530.456 449.654 520.871 447.078C516.071 445.788 512.257 444.162 509.638 442.325C507.005 440.478 505.783 438.571 505.663 436.734C505.544 434.897 506.509 432.848 508.882 430.676C511.241 428.516 514.813 426.41 519.406 424.51C528.577 420.716 541.5 417.872 555.986 416.931C570.472 415.991 583.654 417.139 593.239 419.715C598.039 421.006 601.853 422.631 604.472 424.468C607.105 426.315 608.328 428.222 608.447 430.059Z" stroke="#9CAFFE" stroke-width="3"/>
<path d="M537.055 451.396C538.055 459.23 539.455 477.896 537.055 489.896" stroke="#9CAFFE" stroke-width="3"/>
<path d="M628.859 354.578C626.871 354.228 625.819 352.707 629.672 352.344C633.3 351.975 632.088 351.911 636.069 351.688C640.05 351.464 639.134 353.728 637.434 354.009C635.404 354.345 630.847 354.929 628.859 354.578Z" fill="#020001" stroke="#020001" stroke-width="3"/>
<path d="M587.61 356.627C589.329 355.909 589.928 354.233 586.355 354.614C582.986 354.946 584.068 354.653 580.412 355.194C576.757 355.734 578.111 357.756 579.715 357.706C581.631 357.646 585.892 357.346 587.61 356.627Z" fill="#020001" stroke="#020001" stroke-width="3"/>
<path d="M611.745 298.387C570.611 294.166 546.941 325.519 541.73 340.77C545.203 341.901 546.431 341.703 548.993 343.62C552.192 330.93 568.04 305.474 605.839 305.172C643.638 304.871 660.807 327.66 662.66 339.471C662.508 337.773 668.992 339.826 670.034 341.334C667.486 326.382 649.822 297.181 611.745 298.387Z" fill="#020001"/>
<path d="M540.992 349.987C540.645 347.726 541.115 341.009 541.73 340.77M541.73 340.77C546.941 325.519 570.611 294.166 611.745 298.387C649.822 297.181 667.486 326.382 670.034 341.334M541.73 340.77C545.203 341.901 546.431 341.703 548.993 343.62M670.034 341.334C668.992 339.826 662.508 337.773 662.66 339.471M670.034 341.334V347.775M662.66 339.471C663.129 344.715 663.125 344.966 663.588 346.223L664.504 348.144M662.66 339.471C660.807 327.66 643.638 304.871 605.839 305.172C568.04 305.474 552.192 330.93 548.993 343.62M548.993 343.62L548.366 348.881" stroke="#020001" stroke-width="4"/>
<path d="M544.919 386.882C545.902 388.603 548.606 391.528 551.555 389.463C549.712 380.983 546.025 376.927 551.555 350.382" stroke="#9CAFFE" stroke-width="4"/>
<path d="M664.81 383.627C663.653 385.269 660.592 387.982 657.606 385.694C660.128 377.369 664.218 375.814 660.14 348.886" stroke="#9CAFFE" stroke-width="4"/>
<path d="M686.625 368.422C687.362 347.655 670.312 347.739 664.063 347.655C669.764 361.099 666.764 378.204 664.551 385.077C667.954 386.557 686.023 385.379 686.625 368.422Z" stroke="#020001" stroke-width="3"/>
<path d="M524.228 370.543C523.49 349.776 540.541 349.859 546.79 349.776C541.088 363.219 544.089 380.325 546.302 387.197C542.899 388.678 524.83 387.5 524.228 370.543Z" stroke="#020001" stroke-width="3"/>
<path d="M552.053 377.982C537.212 356.018 577.629 332.88 600.667 324.548C622.659 325.364 668.901 338.824 659.642 368.6C652.538 391.442 570.604 405.436 552.053 377.982Z" stroke="#9CAFFE" stroke-width="4"/>
<path d="M606.926 370.968L613.426 372L618.913 368.888" stroke="#9CAFFE" stroke-width="2"/>
<path d="M606.514 368C607.299 368.954 608.279 371.175 605.926 372.424" stroke="#9CAFFE" stroke-width="2"/>
<path d="M555.676 337.456C551.988 339.265 551.949 350.473 552.053 354.412L555.051 351.207L558.527 348.677L565.046 342.914L567.907 340.033L563.851 336.346C562.27 334.731 559.365 335.647 555.676 337.456Z" fill="#9CAFFE"/>
<path d="M569.75 339.295L562.23 332.318C560.164 328.159 568.462 328.667 570.878 329.439C570.446 328.737 570.662 327.015 574.991 325.741C579.319 324.467 582.246 325.465 583.168 326.123L581.823 331.795L574.038 335.82L569.75 339.295Z" fill="#9CAFFE"/>
<path d="M586.67 328.032C587.022 325.336 584.329 323.922 582.939 323.552C584.225 321.365 587.773 321.024 589.386 321.127L598.225 324.782L588 330.505C587.41 330.804 586.318 330.729 586.67 328.032Z" fill="#9CAFFE"/>
<path d="M601.743 325.444L599.614 323.81C598.139 321.967 601.743 320.123 605.013 317.884C608.288 315.643 613.46 317.132 616.194 318.739L611.412 324.782L601.743 325.444Z" fill="#9CAFFE"/>
<path d="M613.256 326.123L621.335 318.281C628.093 317.679 629.195 322.023 628.902 324.27L625.157 327.935L624.316 329.341C623.433 331.222 617.68 328.603 616.574 328.235C615.734 327.955 613.642 327.693 613.256 326.123Z" fill="#9CAFFE"/>
<path d="M646.438 330.447C642.144 336.787 629.936 335.874 629.491 330.88C629.151 327.063 630.708 325.138 632.112 324.33C638.937 319.256 638.817 323.386 643.388 324.83C647.501 324.463 646.72 328.077 646.438 330.447C652.026 326.692 655.864 333.922 656.392 337.083L657.499 348.677L648.5 340.661L642.9 335.978L646.438 330.447Z" fill="#9CAFFE"/>
<path d="M545.778 384.237L549.898 376.467C564.321 392.949 576.433 396.512 610.276 392.756C643.488 389.069 656.761 372.109 660.093 369.159C661.809 371.126 664.872 375.796 663.398 378.745C667.805 380.22 667.2 384.276 666.347 386.119C668.412 388.526 668.38 385.159 671.474 390.806C673.95 395.323 671.228 397.737 669.558 398.379C670.736 399.138 672.985 401.109 672.554 402.924C672.016 405.193 674.285 405.731 668.907 407.691C669.352 412.685 663.217 410.296 660.093 408.476C659.367 410.022 656.856 412.022 652.618 407.662C651.043 410.763 649.673 411.996 644.67 409.85C642.099 410.079 643.062 412.585 637.692 410.472C634.187 414.338 630.758 411.583 629.482 409.723C629.558 410.58 628.637 411.871 624.341 410.181C620.646 415.248 615.282 410.988 613.062 408.225C613.193 409.693 605.596 413.305 602.564 411.927C597.087 409.439 595.927 416.611 592.978 414.768C592.114 415.688 590.175 416.866 587.479 416.056C584.724 418.374 582.169 417.393 581.236 416.612C580.477 417.79 578.413 419.825 576.225 418.539C575.501 420.38 572.986 419.568 571.818 418.932L567.706 422.63C566.936 423.685 564.61 425.274 561.463 423.186C559.616 425.719 557.336 422.566 556.427 420.673C556.624 422.877 546.248 425.679 545.803 420.684C541.826 419.262 543.888 415.827 547.629 414.877C546.285 413.639 545.767 412.369 550.206 409.012C543.44 403.693 546.858 396.355 548.832 393.588C546.697 392.89 545.907 387.063 545.778 384.237Z" fill="#9CAFFE"/>
<path d="M633.309 323.877C632.965 323.937 632.546 324.08 632.112 324.33M646.438 330.447C642.144 336.787 629.936 335.874 629.491 330.88C629.151 327.063 630.708 325.138 632.112 324.33M646.438 330.447C646.72 328.077 647.501 324.463 643.388 324.83C638.817 323.386 638.937 319.256 632.112 324.33M646.438 330.447C652.026 326.692 655.864 333.922 656.392 337.083L657.499 348.677L648.5 340.661L642.9 335.978L646.438 330.447ZM593.256 414.431C592.598 415.353 590.521 416.969 587.479 416.056C584.724 418.374 582.169 417.393 581.236 416.612C580.477 417.79 578.413 419.825 576.225 418.539C575.501 420.38 572.986 419.568 571.818 418.932L567.706 422.63C566.936 423.685 564.61 425.274 561.463 423.186C559.616 425.719 557.336 422.566 556.427 420.673C556.624 422.877 546.248 425.679 545.803 420.684C541.826 419.262 543.888 415.827 547.629 414.877C546.285 413.639 545.767 412.369 550.206 409.012C543.44 403.693 546.858 396.355 548.832 393.588C546.697 392.89 545.907 387.063 545.778 384.237L549.898 376.467C564.321 392.949 576.433 396.512 610.276 392.756C643.488 389.069 656.761 372.109 660.093 369.159C661.809 371.126 664.872 375.796 663.398 378.745C667.805 380.22 667.2 384.276 666.347 386.119C668.412 388.526 668.38 385.159 671.474 390.806C673.95 395.323 671.228 397.737 669.558 398.379C670.736 399.138 672.985 401.109 672.554 402.924C672.016 405.193 674.285 405.731 668.907 407.691C669.352 412.685 663.217 410.296 660.093 408.476C659.367 410.022 656.856 412.022 652.618 407.662C651.043 410.763 649.673 411.996 644.67 409.85C642.099 410.079 643.062 412.585 637.692 410.472C634.187 414.338 630.758 411.583 629.482 409.723C629.558 410.58 628.637 411.871 624.341 410.181C620.646 415.248 615.282 410.988 613.062 408.225C613.193 409.693 605.596 413.305 602.564 411.927C597.087 409.439 595.927 416.611 592.978 414.768M552.053 354.412C551.949 350.473 551.988 339.265 555.676 337.456C559.365 335.647 562.27 334.731 563.851 336.346L567.907 340.033L565.046 342.914L558.527 348.677L555.051 351.207L552.053 354.412ZM562.23 332.318L569.75 339.295L574.038 335.82L581.823 331.795L583.168 326.123C582.246 325.465 579.319 324.467 574.991 325.741C570.662 327.015 570.446 328.737 570.878 329.439C568.462 328.667 560.164 328.159 562.23 332.318ZM582.939 323.552C584.329 323.922 587.022 325.336 586.67 328.032C586.318 330.729 587.41 330.804 588 330.505L598.225 324.782L589.386 321.127C587.773 321.024 584.225 321.365 582.939 323.552ZM599.614 323.81L601.743 325.444L611.412 324.782L616.194 318.739C613.46 317.132 608.288 315.643 605.013 317.884C601.743 320.123 598.139 321.967 599.614 323.81ZM621.335 318.281L613.256 326.123C613.642 327.693 615.734 327.955 616.574 328.235C617.68 328.603 623.433 331.222 624.316 329.341L625.157 327.935L628.902 324.27C629.195 322.023 628.093 317.679 621.335 318.281Z" stroke="#9CAFFE" stroke-width="4"/>
<path d="M548.735 348.584L550.947 351.094" stroke="#9CAFFE" stroke-width="4"/>
<path d="M662.977 346.669L658.604 350.356" stroke="#9CAFFE" stroke-width="4"/>
<path d="M662.926 504.5C665.76 515.167 660.626 533.4 595.426 515" stroke="#9CAFFE" stroke-width="3"/>
<path d="M591.293 506.46C593.396 507.407 594.35 507.8 591.426 506C589.123 504.583 588.828 505.35 591.293 506.46Z" stroke="#9CAFFE" stroke-width="2"/>
<path d="M627.157 512L609.507 508.343C606.839 507.79 604.926 505.44 604.926 502.716V502.716C604.926 499.542 607.499 496.97 610.673 496.97H626.503M627.157 512L626.503 496.97M627.157 512L683.062 510.273C686.887 510.155 689.926 507.02 689.926 503.193V503.193C689.926 499.238 686.689 496.05 682.735 496.11L626.503 496.97" stroke="#9CAFFE" stroke-width="3"/>
<path d="M592.659 511.385C582.623 513.177 571.838 507.609 566.347 503.675C565.206 502.857 564.169 501.76 563.965 500.371C563.061 494.204 578.086 498.385 582.659 498.385C587.659 498.385 606.659 508.885 592.659 511.385Z" stroke="#9CAFFE" stroke-width="3"/>
<path d="M585.426 515.715C575.617 513.548 558.19 507.4 564.075 499M584.926 515.719C589.504 515.719 600.211 514.6 599.426 511C598.641 507.4 596.59 505.833 596.426 505.5" stroke="#9CAFFE" stroke-width="3"/>
<path d="M680.24 489.679L670.491 490.329C669.048 490.425 667.926 491.624 667.926 493.07C667.926 494.657 669.267 495.914 670.85 495.811L680.601 495.182C682.149 495.082 683.31 493.726 683.17 492.181C683.034 490.69 681.734 489.579 680.24 489.679Z" stroke="#9CAFFE" stroke-width="2"/>
<path d="M661.24 490.179L651.491 490.829C650.048 490.925 648.926 492.124 648.926 493.57C648.926 495.157 650.267 496.414 651.85 496.311L661.601 495.682C663.149 495.582 664.31 494.226 664.17 492.681C664.034 491.19 662.734 490.079 661.24 490.179Z" stroke="#9CAFFE" stroke-width="2"/>
<path d="M642.24 490.179L632.491 490.829C631.048 490.925 629.926 492.124 629.926 493.57C629.926 495.157 631.267 496.414 632.85 496.311L642.601 495.682C644.149 495.582 645.31 494.226 645.17 492.681C645.034 491.19 643.734 490.079 642.24 490.179Z" stroke="#9CAFFE" stroke-width="2"/>
<path d="M645.426 492H648.926M663.926 492H667.926M628.926 492.5L626.379 493.066C625.238 493.32 624.426 494.331 624.426 495.5V495.5" stroke="#9CAFFE" stroke-width="2"/>
<path d="M497.426 613.5C497.426 614.584 496.621 615.968 494.29 617.502C492.02 618.996 488.635 620.399 484.318 621.601C475.706 623.998 463.723 625.5 450.426 625.5C437.129 625.5 425.146 623.998 416.534 621.601C412.217 620.399 408.832 618.996 406.562 617.502C404.231 615.968 403.426 614.584 403.426 613.5C403.426 612.416 404.231 611.032 406.562 609.498C408.832 608.004 412.217 606.601 416.534 605.399C425.146 603.002 437.129 601.5 450.426 601.5C463.723 601.5 475.706 603.002 484.318 605.399C488.635 606.601 492.02 608.004 494.29 609.498C496.621 611.032 497.426 612.416 497.426 613.5Z" stroke="#9CAFFE" stroke-width="3"/>
<path d="M402.926 614.787L419.155 693.397C430.634 704.117 467.447 708.404 483.28 692.682C492.78 650.519 497.134 623.243 497.926 613" stroke="#9CAFFE" stroke-width="3"/>
<ellipse cx="846.926" cy="513" rx="16" ry="4" fill="#9CAFFE"/>
<path d="M845.205 514L878.926 345.913L801.926 266" stroke="#020001" stroke-width="3"/>
<path d="M850.79 514L887.926 341.283L800.926 258" stroke="#020001" stroke-width="3"/>
<path d="M732.755 292.653L801.032 257.656C801.676 270.932 805.564 307.793 804.257 337.745C768.544 345.308 741.985 312.285 732.755 292.653Z" stroke="#9CAFFE" stroke-width="3"/>
<line x1="886.866" y1="342.287" x2="877.729" y2="345.862" stroke="#020001" stroke-width="4"/>
<path d="M734.926 291.281C752.069 296.503 789.669 313.214 802.926 338.281" stroke="#9CAFFE" stroke-width="3"/>
<path d="M853.426 496.5C850.589 501.475 849.405 499.563 848.594 497.319L845.187 513.587L850.666 514.058C853.15 506.577 856.263 491.525 853.426 496.5Z" fill="#9CAFFE" stroke="#9CAFFE" stroke-width="3"/>
<path d="M744.72 510.186L717.115 505.619C712.532 504.861 709.17 500.897 709.17 496.251V496.251C709.17 491.007 713.421 486.756 718.665 486.756L744.72 486.756M744.72 510.186L744.72 486.756M744.72 510.186L833.738 507.312C839.133 507.138 843.416 502.715 843.416 497.318L843.416 494.731C843.416 489.119 838.798 484.605 833.187 484.734L744.72 486.756" stroke="#9CAFFE" stroke-width="3"/>
<path d="M828.738 412.022L805.926 412.073C800.403 412.085 795.936 416.573 795.949 422.095L795.991 441.219C796.004 446.742 800.491 451.209 806.014 451.197L828.825 451.146C834.348 451.134 838.815 446.646 838.803 441.124L838.76 422C838.748 416.477 834.261 412.01 828.738 412.022Z" stroke="#9CAFFE" stroke-width="3"/>
<path d="M827.426 408.933V408.933C827.4 405.509 824.603 402.754 821.179 402.78L768.381 403.178C762.858 403.219 758.415 407.73 758.456 413.253L758.772 455.252C758.814 460.774 763.325 465.218 768.847 465.176L818.029 464.806C823.451 464.765 827.813 460.337 827.772 454.915V454.915" stroke="#9CAFFE" stroke-width="3"/>
<path d="M726.427 380.809L738.553 379.4M726.427 380.809L787.402 379.845L846.507 380.385M726.427 380.809L726.134 431.546L726.133 463.756C726.133 469.279 730.611 473.756 736.133 473.756L741.427 473.756M738.553 379.4L738.048 466.877C738.015 472.499 742.622 477.043 748.242 476.933L836.212 475.22C841.635 475.114 845.985 470.704 846.017 465.279L846.507 380.385M738.553 379.4L846.507 380.385" stroke="#9CAFFE" stroke-width="3"/>
<line x1="769.05" y1="408.008" x2="793.05" y2="411.008" stroke="#9CAFFE" stroke-width="2"/>
<line x1="768.554" y1="459.711" x2="792.554" y2="450.072" stroke="#9CAFFE" stroke-width="2"/>
<path opacity="0.1" d="M513.926 500.5L560.426 534.5L563.426 694.5L513.926 654.5V500.5Z" fill="#020001"/>
<path d="M601.926 410V392H614.426V410H601.926Z" fill="#F5F5F5" stroke="#9CAFFE"/>
<path opacity="0.1" d="M610.998 409.778L602.38 392L602 409.583L610.998 409.778Z" fill="#020001"/>
<path d="M567.632 369.677C571.714 374.982 582.251 379.134 590.733 368.682C590.815 360.172 562.741 363.319 567.632 369.677Z" stroke="black" stroke-width="2"/>
<ellipse cx="582.079" cy="371.534" rx="5.5" ry="3" transform="rotate(-17.7523 582.079 371.534)" fill="#020001"/>
<ellipse cx="578.926" cy="371" rx="3" ry="1" fill="#F5F5F5"/>
<path d="M650.599 362.849C647.578 368.822 637.999 374.865 627.717 366.177C626.051 357.831 654.22 355.691 650.599 362.849Z" stroke="black" stroke-width="2"/>
<ellipse cx="641.079" cy="366.534" rx="5.5" ry="3" transform="rotate(-17.7523 641.079 366.534)" fill="#020001"/>
<ellipse cx="637.926" cy="366" rx="3" ry="1" fill="#F5F5F5"/>
<line x1="647.15" y1="369.553" x2="649.15" y2="370.553" stroke="black"/>
<line x1="649.048" y1="367.515" x2="653.048" y2="368.515" stroke="black"/>
<path d="M681.027 486.974C660.868 487.64 606.119 489.571 548.405 491.969C536.264 440.38 571.276 414.484 598.027 407.365C602.861 411.587 613.427 417.025 617.027 405C653.126 407.061 675.274 460.984 681.027 486.974Z" fill="#F14D08"/>
<path d="M597.223 447.319C594.603 451.304 594.164 459.96 613.711 462C634.386 459.363 630.029 446.791 628.406 446" stroke="#F5F5F5" stroke-width="2"/>
<path d="M594.926 441.565L595.009 443.043C595.919 441.449 597.771 438.243 597.904 438.174M596.498 440.696C596.112 442.609 595.853 446.748 597.904 448C598.317 444.957 598.069 439.391 600.881 436.957M598.483 443.391C599.48 442.252 600.948 440.605 602.316 439.13M605.844 435.739C605.551 435.739 604.011 437.302 602.316 439.13M602.316 439.13V440.174C604.815 438.87 609.995 436.122 610.723 435.565M608.738 436.957C608.049 437.507 606.671 438.713 606.671 439.13C606.671 439.548 611.247 437.855 613.535 436.957C612.57 438.174 610.657 440.661 610.723 440.87C610.806 441.13 614.776 440.957 618.084 436.087C616.629 439.565 616.265 440.725 616.265 440.87C617.781 440.29 621.045 438.261 621.971 434.783C622.302 436.939 623.212 438.58 623.626 439.13C624.067 438.58 624.684 436.783 623.626 434C624.949 436.783 627.099 438.783 627.182 438.957C627.248 439.096 627.595 439.014 627.761 438.957C627.844 437.623 627.794 434.817 626.934 434.261M627.926 438.783V441.217" stroke="#F5F5F5" stroke-width="2"/>
<path d="M615.311 445.299C615.439 445.073 615.865 444.757 616.542 445.299M614.926 453C615.285 452.633 616.188 452.103 616.926 452.915" stroke="#F5F5F5"/>
<path d="M628.51 445.679C629.66 444.206 628.651 441.941 628.003 440.993C629.153 440.725 629.44 437.868 629.44 436.474C629.638 436.864 630.201 437.896 630.878 438.901C631.301 436.306 630.878 435.972 628.51 432.54C631.216 433.344 631.893 432.485 631.893 431.955C632.569 431.955 631.047 432.021 626.988 429.946C623.944 426.732 618.898 426.654 616.756 427.017L619.547 426.013C619.124 425.817 617.297 425.812 613.374 427.352C614.659 425.343 614.417 423.614 614.135 423C613.909 423.725 612.816 425.795 610.245 428.272C609.704 425.929 605.904 424.953 604.072 424.757C604.185 425.008 605.036 426.063 607.539 428.272C600.233 427.335 596.433 433.405 595.447 436.557L596.292 436.808C595.757 437.227 594.618 438.599 594.348 440.742C592.825 441.662 592.741 445.596 592.741 447.186C591.303 447.018 582.678 449.194 582.932 450.198C583.185 451.203 585.976 453.629 590.204 455.638C588.766 459.739 591.303 460.073 593.079 461.329C592.233 463.756 591.726 463.672 593.079 467.103C595.193 470.534 601.197 469.781 605.087 469.446C606.186 471.79 608.216 474.468 612.866 474.97C616.587 475.371 618.476 471.678 618.955 469.781C618.786 469.67 618.633 469.547 619.378 469.948C625.381 470.869 628.51 467.773 628.087 466.517C627.665 465.262 628.51 463.254 628.848 461.747C629.119 460.542 628.454 459.739 628.087 459.488C628.228 459.264 628.51 458.232 628.51 455.889C639.08 449.445 638.996 446.516 638.911 445.679C638.827 444.842 634.345 444.926 628.51 445.679Z" stroke="#F5F5F5" stroke-width="2"/>
<path d="M595.926 437C597.519 435.848 600.95 433.236 601.926 432" stroke="#F5F5F5" stroke-width="2"/>
<path d="M606.926 445.5C606.926 446.759 605.713 448 603.926 448C602.14 448 600.926 446.759 600.926 445.5C600.926 444.241 602.14 443 603.926 443C605.713 443 606.926 444.241 606.926 445.5Z" fill="#F5F5F5" stroke="#F5F5F5" stroke-width="2"/>
<circle cx="604.426" cy="444.5" r="1.5" fill="#F14D08"/>
<path d="M627.926 444.5C627.926 445.759 626.713 447 624.926 447C623.14 447 621.926 445.759 621.926 444.5C621.926 443.241 623.14 442 624.926 442C626.713 442 627.926 443.241 627.926 444.5Z" fill="#F5F5F5" stroke="#F5F5F5" stroke-width="2"/>
<circle cx="625.426" cy="443.5" r="1.5" fill="#F14D08"/>
<path d="M571.345 472.583C569.371 466.39 566.374 452.28 573.995 447.719" stroke="#F5F5F5" stroke-width="2"/>
<path d="M655.786 484.969C656.945 480.004 653.415 455.64 648.514 451.847" stroke="#F5F5F5" stroke-width="2"/>
<path d="M508.398 492.201L562.346 530.292C564.158 531.571 566.343 532.211 568.558 532.113L885.927 518" stroke="#9CAFFE" stroke-width="3"/>
<path d="M509.427 492.5L717.426 487M842.427 501.5L886.927 518" stroke="#9CAFFE" stroke-width="3"/>
<path d="M509.994 492.866L511.529 652.958C511.558 655.933 512.909 658.74 515.217 660.618L567.059 702.808M567.059 702.808L565.427 532.705M567.059 702.808L665.863 696.194C671.115 695.842 675.195 691.479 675.195 686.216L675.195 588.219C675.195 582.807 679.501 578.377 684.911 578.223L876.22 572.776C881.629 572.622 885.935 568.192 885.935 562.78L885.935 516.5" stroke="#9CAFFE" stroke-width="3"/>
<path d="M588.729 499.68L593.774 498.602C598.855 497.517 599.807 490.677 595.215 488.246C561.212 469.942 543.592 482.444 536.251 496.243C535.341 497.953 534.677 500.072 535.826 501.632C536.775 502.922 538.372 503.723 539.857 504.174C541.296 504.611 542.783 504.917 544.171 505.495L553.618 509.434C557.02 510.852 560.825 510.968 564.307 509.76L575.649 505.824L579.986 505.419C583.671 505.074 586.946 502.924 588.729 499.68Z" fill="#F5F5F5"/>
<path d="M588.729 499.68L593.774 498.602C598.855 497.517 599.807 490.677 595.215 488.246V488.246C561.212 469.942 543.592 482.444 536.251 496.243C535.341 497.953 534.677 500.072 535.826 501.632C536.775 502.922 538.372 503.723 539.857 504.174C541.296 504.611 542.783 504.917 544.171 505.495L553.618 509.434C557.02 510.852 560.825 510.968 564.307 509.76L575.649 505.824M588.729 499.68L578.446 493.897M588.729 499.68V499.68C586.946 502.924 583.671 505.074 579.986 505.419L575.649 505.824M575.649 505.824L566.292 499.449" stroke="#9CAFFE" stroke-width="3"/>
<path d="M629.926 436.052C628.031 434.717 626.136 433.356 624.428 431.826C623.68 431.157 623.022 430.135 622.182 429.592C620.647 428.602 624.807 432.178 626.54 432.849C626.964 433.013 627.396 432.986 627.814 433.121C628.447 433.326 627.056 432.364 626.942 432.296C626.065 431.767 625.152 431.169 624.21 430.743C622.557 429.997 624.256 431.416 624.73 431.902C625.544 432.738 626.497 433.65 627.177 434.583C627.648 435.228 627.376 434.729 627.093 434.401C626.223 433.395 624.513 432.3 623.254 431.751C623.002 431.641 620.906 430.743 620.815 431.039C620.498 432.069 622.039 433.801 622.684 434.553C622.76 434.641 626.54 436.035 626.54 435.477C626.54 433.901 622.542 432.294 621.93 430.872C621.2 429.175 620.355 429.754 618.527 429.782C618.263 429.786 617.632 429.637 617.722 430.024C618.024 431.318 618.865 432.345 619.784 433.326C620.189 433.757 621.247 434.866 621.176 435.507C621.115 436.052 617.312 438.37 619.097 436.598C618.941 435.551 619.521 434.217 619.701 433.19C619.886 432.131 620.482 430.827 620.262 429.736C620.241 429.63 618.294 429.771 618.158 429.804C616.939 430.105 617.066 432.069 617.345 432.909C617.527 433.455 618.002 433.873 618.309 434.356C618.605 434.82 618.79 434.265 618.661 433.97C618.435 433.449 615.729 429.921 615.476 431.72C615.39 432.33 615.247 433.393 615.468 433.992C615.622 434.412 616.432 434.413 616.8 434.553C617.05 434.648 618.799 434.674 618.209 435.265C617.575 435.899 617.176 436.881 616.432 437.393C616.096 437.623 615.608 437.493 615.292 437.749C615.049 437.945 614.973 438.051 614.806 437.749C614.734 437.618 614.796 437.737 614.806 437.779C614.863 438.037 614.649 438.207 614.403 438.286C613.855 438.463 614.852 436.945 614.873 436.916C615.832 435.509 616.705 433.886 617.312 432.326C617.641 431.479 617.952 430.561 616.884 430.122C616.406 429.926 615.967 429.898 615.543 429.539C615.355 429.38 614.45 428.746 615.107 428.699C616.748 428.58 618.358 428.867 619.969 428.964C620.822 429.015 618.269 429.149 617.429 429.297C615.792 429.586 614.118 429.509 612.459 429.509C611.921 429.509 611.369 429.478 610.833 429.517C610.45 429.544 609.942 429.761 609.559 429.615C609.248 429.497 608.993 429.14 608.813 428.895C608.671 428.703 609.337 429.494 609.642 429.676C610.555 430.218 611.468 430.752 612.392 431.281C612.758 431.491 614.686 431.906 614.78 432.288C614.866 432.638 611.166 431.508 610.933 431.402C609.624 430.807 608.031 430.033 606.944 429.115C606.807 429 606.422 428.957 606.541 428.964C606.673 428.971 606.746 429.025 606.843 429.1C607.225 429.396 607.688 429.439 608.167 429.524C609.692 429.795 611.119 430.541 612.693 430.599C613.797 430.64 611.899 429.751 611.679 429.638C610.428 428.991 608.679 428.251 607.237 428.025C607.164 428.013 606.499 427.986 606.692 428.009C607.837 428.151 609.251 428.908 610.279 429.373C611.169 429.774 612.105 430.291 612.895 430.842C613.271 431.104 613.008 431.15 612.777 431.372C611.582 432.524 611.162 434.02 611 435.545C610.967 435.861 610.565 437.748 611.419 437.461C612.391 437.135 613.611 436.465 614.353 435.795C614.794 435.396 613.933 435.12 613.59 435.045C613.006 434.918 612.422 434.861 611.847 434.697C611.791 434.681 610.804 434.521 610.816 434.553C610.833 434.599 611.634 434.921 611.704 434.962C612.159 435.221 612.684 435.431 613.079 435.764C613.314 435.962 613.195 435.797 613.037 435.696C612.329 435.246 611.328 435.125 610.497 434.992C609.879 434.893 608.054 434.49 607.555 435.09C607.472 435.191 609.591 435.455 609.844 435.477C609.927 435.484 611.527 435.597 610.95 435.704C609.505 435.973 607.835 435.725 606.457 435.295C606.333 435.256 605.531 434.99 605.82 434.962C606.9 434.857 608.168 433.904 609.005 433.341C609.09 433.284 610.548 432.483 610.548 432.402C610.548 432.402 607.541 432.961 607.379 432.985C606.071 433.18 604.918 433.357 603.708 433.811C602.863 434.127 605.472 433.367 606.348 433.129C606.918 432.975 608.417 432.684 608.804 432.205C609.41 431.456 608.183 430.593 607.539 430.365C606.421 429.969 605.433 430.287 604.513 430.842C603.963 431.173 603.256 431.208 602.694 431.561C602.196 431.874 601.755 432.44 601.177 432.614C600.825 432.72 600.98 433.123 600.783 433.402C600.565 433.71 600.245 433.935 599.995 434.22C599.766 434.481 599.698 434.885 599.417 435.098C599.063 435.366 599.138 435.709 598.897 436.083C598.412 436.833 597.885 437.593 597.455 438.37C597.246 438.748 597.187 439.26 597.187 439.68C597.187 440.378 597.165 441.08 597.187 441.778C597.195 442.032 597.343 442.116 597.12 441.77C596.931 441.478 596.912 440.43 597.112 440.142C597.315 439.848 596.808 439.902 596.953 439.733C597.784 438.761 598.452 437.622 599.232 436.605C599.939 435.685 600.737 434.867 601.378 433.901C601.519 433.689 602.239 432.961 601.73 433.114C600.536 433.473 599.993 434.123 599.182 434.856C599.168 434.868 599.134 433.996 599.165 433.803C599.214 433.507 599.584 432.962 599.903 432.811C600.903 432.335 601.36 431.39 602.317 430.766C603.073 430.273 604.219 430.875 604.882 431.228C606.408 432.043 605.841 432.765 604.748 433.864C604.318 434.295 603.778 434.451 603.339 434.856C602.825 435.331 602.492 435.963 602.099 436.522C601.973 436.7 602.098 437.001 601.864 437.113C601.535 437.27 601.197 437.295 600.892 437.552C600.672 437.737 600.421 438.126 600.146 438.226C599.624 438.415 601.003 437.556 601.495 437.309C602.379 436.868 603.042 436.373 604.052 436.128C604.814 435.943 605.61 435.806 606.357 435.613C606.574 435.557 608.266 435.319 607.832 435.81C607.476 436.212 606.26 436.342 605.72 436.522C605.405 436.627 605.061 436.598 604.731 436.598" stroke="#F5F5F5" stroke-width="3" stroke-linecap="round"/>
<path opacity="0.1" d="M527.5 500H532.5L604.5 507.5L624.5 513.5L581 515.5C579.167 515 571.3 513.9 554.5 513.5C537.7 513.1 529.5 504.333 527.5 500Z" fill="#020001" stroke="black"/>
<path opacity="0.1" d="M572.236 389C552.02 374.66 565.655 349.22 575 339C565.919 344.346 548.466 357.962 551.309 369.66C554.863 384.283 563.944 385.698 572.236 389Z" fill="#020001"/>
</g>
<defs>
<filter id="filter0_d_105_42" x="502" y="150" width="156" height="169" filterUnits="userSpaceOnUse" color-interpolation-filters="sRGB">
<feFlood flood-opacity="0" result="BackgroundImageFix"/>
<feColorMatrix in="SourceAlpha" type="matrix" values="0 0 0 0 0 0 0 0 0 0 0 0 0 0 0 0 0 0 127 0" result="hardAlpha"/>
<feOffset dy="4"/>
<feGaussianBlur stdDeviation="2"/>
<feComposite in2="hardAlpha" operator="out"/>
<feColorMatrix type="matrix" values="0 0 0 0 0 0 0 0 0 0 0 0 0 0 0 0 0 0 0.25 0"/>
<feBlend mode="normal" in2="BackgroundImageFix" result="effect1_dropShadow_105_42"/>
<feBlend mode="normal" in="SourceGraphic" in2="effect1_dropShadow_105_42" result="shape"/>
</filter>
<filter id="filter1_d_105_42" x="333.5" y="236.5" width="157" height="120" filterUnits="userSpaceOnUse" color-interpolation-filters="sRGB">
<feFlood flood-opacity="0" result="BackgroundImageFix"/>
<feColorMatrix in="SourceAlpha" type="matrix" values="0 0 0 0 0 0 0 0 0 0 0 0 0 0 0 0 0 0 127 0" result="hardAlpha"/>
<feOffset dy="4"/>
<feGaussianBlur stdDeviation="2"/>
<feComposite in2="hardAlpha" operator="out"/>
<feColorMatrix type="matrix" values="0 0 0 0 0 0 0 0 0 0 0 0 0 0 0 0 0 0 0.25 0"/>
<feBlend mode="normal" in2="BackgroundImageFix" result="effect1_dropShadow_105_42"/>
<feBlend mode="normal" in="SourceGraphic" in2="effect1_dropShadow_105_42" result="shape"/>
</filter>
<clipPath id="clip0_105_42">
<rect width="1280" height="832" fill="white"/>
</clipPath>
</defs>
</svg>
