<svg width="1245" height="642" viewBox="0 0 1245 642" fill="none" xmlns="http://www.w3.org/2000/svg">
<g clip-path="url(#clip0_174_731)">
<rect width="1245" height="642" fill="#F5F5F5"/>
<path opacity="0.2" d="M9.98288 9V862.083M78.0676 9V862.083M149.344 9V862.083M220.939 9V862.083M292.215 9V862.083M364.555 9V862.083M425.64 9V862.083M496.916 9V862.083M573.512 9V862.083M639.788 9V862.083M711.064 9V862.083M779.149 9V862.083M843.361 9V862.083M919.957 9V862.083M992.297 9V862.083M1057.64 9V862.083M1125.72 9V862.083M1195.93 9V862.083M1267.53 9V862.083M1339.87 9V862.083M1453.88 50.1768L-49.0247 51.5292M1454.16 102.461L-48.7452 103.814M1454.45 157.196L-48.4525 158.549M1454.76 216.016L-48.1379 217.369M1455.06 270.752L-47.846 272.104M1455.35 325.487L-47.5534 326.839M1455.63 377.771L-47.2739 379.124M1455.92 431.69L-46.986 433.042M1456.23 490.51L-46.6721 491.862M1456.53 546.062L-46.3749 547.414M1456.82 601.614L-46.0782 602.966M1457.1 653.898L-45.7986 655.251M1457.39 707.817L-45.5103 709.169M1457.71 766.637L-45.1964 767.989M1458 822.189L-44.8995 823.541" stroke="#020001"/>
<g opacity="0.6">
<ellipse cx="693.675" cy="562.933" rx="69.5112" ry="15.7786" fill="#F14D08"/>
<path d="M762.686 558.669C762.686 559.599 762.273 560.548 761.402 561.514C760.529 562.483 759.218 563.441 757.487 564.37C754.027 566.227 748.987 567.915 742.716 569.339C730.183 572.184 712.844 573.948 693.675 573.948C674.506 573.948 657.167 572.184 644.634 569.339C638.363 567.915 633.323 566.227 629.863 564.37C628.132 563.441 626.821 562.483 625.947 561.514C625.076 560.548 624.664 559.599 624.664 558.669C624.664 557.739 625.076 556.79 625.947 555.824C626.821 554.855 628.132 553.897 629.863 552.968C633.323 551.111 638.363 549.423 644.634 547.999C657.167 545.154 674.506 543.39 693.675 543.39C712.844 543.39 730.183 545.154 742.716 547.999C748.987 549.423 754.027 551.111 757.487 552.968C759.218 553.897 760.529 554.855 761.402 555.824C762.273 556.79 762.686 557.739 762.686 558.669Z" fill="#F14D08" stroke="#F5F5F5"/>
</g>
<g filter="url(#filter0_d_174_731)">
<path d="M509 250V124C509 121.239 511.239 119 514 119H629C631.761 119 634 121.239 634 124V250C634 252.761 631.761 255 629 255H514C511.239 255 509 252.761 509 250Z" stroke="black" stroke-width="2" shape-rendering="crispEdges"/>
</g>
<path d="M545.404 588.576C544.349 589.698 542.583 590.5 540.5 590.5C538.417 590.5 536.651 589.698 535.596 588.576C535.511 588.486 535.474 588.42 535.459 588.385C535.445 588.352 535.444 588.335 535.444 588.327C535.443 588.317 535.444 588.243 535.545 588.112C535.769 587.821 536.31 587.5 537 587.5H544C544.69 587.5 545.231 587.821 545.455 588.112C545.556 588.243 545.557 588.317 545.556 588.327C545.556 588.335 545.555 588.352 545.541 588.385C545.526 588.42 545.489 588.486 545.404 588.576Z" fill="#9CAFFE" stroke="#9CAFFE" stroke-width="3"/>
<path d="M545.537 589.018C544.348 591.038 542.42 592.5 540.5 592.5C538.58 592.5 536.652 591.038 535.463 589.018C535.329 588.79 535.313 588.627 535.323 588.52C535.334 588.406 535.382 588.268 535.503 588.118C535.759 587.802 536.298 587.5 537 587.5H544C544.702 587.5 545.241 587.802 545.497 588.118C545.618 588.268 545.666 588.406 545.677 588.52C545.687 588.627 545.671 588.79 545.537 589.018Z" fill="#9CAFFE" stroke="#9CAFFE" stroke-width="3"/>
<path d="M502.494 556.96C501.241 558.971 499.153 560.5 497 560.5C494.847 560.5 492.759 558.971 491.506 556.96C491.367 556.737 491.351 556.581 491.358 556.485C491.365 556.382 491.407 556.254 491.522 556.109C491.767 555.803 492.297 555.5 493 555.5H501C501.703 555.5 502.233 555.803 502.478 556.109C502.593 556.254 502.635 556.382 502.642 556.485C502.649 556.581 502.633 556.737 502.494 556.96Z" fill="#9CAFFE" stroke="#9CAFFE" stroke-width="3"/>
<path d="M780.494 554.96C779.241 556.971 777.153 558.5 775 558.5C772.847 558.5 770.759 556.971 769.506 554.96C769.367 554.737 769.351 554.581 769.358 554.485C769.365 554.382 769.407 554.254 769.522 554.109C769.767 553.803 770.297 553.5 771 553.5H779C779.703 553.5 780.233 553.803 780.478 554.109C780.593 554.254 780.635 554.382 780.642 554.485C780.649 554.581 780.633 554.737 780.494 554.96Z" fill="#9CAFFE" stroke="#9CAFFE" stroke-width="3"/>
<path d="M631.365 588.514C630.229 589.664 628.296 590.5 626 590.5C623.704 590.5 621.771 589.664 620.635 588.514C620.547 588.425 620.51 588.361 620.495 588.329C620.482 588.3 620.481 588.287 620.481 588.284L620.481 588.284C620.481 588.281 620.481 588.268 620.49 588.239C620.501 588.209 620.523 588.161 620.57 588.099C620.78 587.821 621.31 587.5 622 587.5H630C630.69 587.5 631.22 587.821 631.43 588.099C631.477 588.161 631.499 588.209 631.51 588.239C631.519 588.268 631.519 588.281 631.519 588.284L631.519 588.284C631.519 588.287 631.518 588.3 631.505 588.329C631.49 588.361 631.453 588.425 631.365 588.514Z" fill="#9CAFFE" stroke="#9CAFFE" stroke-width="3"/>
<path d="M631.494 588.96C630.241 590.971 628.153 592.5 626 592.5C623.847 592.5 621.759 590.971 620.506 588.96C620.367 588.737 620.351 588.581 620.358 588.485C620.365 588.382 620.407 588.254 620.522 588.109C620.767 587.803 621.297 587.5 622 587.5H630C630.703 587.5 631.233 587.803 631.478 588.109C631.593 588.254 631.635 588.382 631.642 588.485C631.649 588.581 631.633 588.737 631.494 588.96Z" fill="#9CAFFE" stroke="#9CAFFE" stroke-width="3"/>
<path d="M820.537 589.018C819.348 591.038 817.42 592.5 815.5 592.5C813.58 592.5 811.652 591.038 810.463 589.018C810.329 588.79 810.313 588.627 810.323 588.52C810.334 588.406 810.382 588.268 810.503 588.118C810.759 587.802 811.298 587.5 812 587.5H819C819.702 587.5 820.241 587.802 820.497 588.118C820.618 588.268 820.666 588.406 820.677 588.52C820.687 588.627 820.671 588.79 820.537 589.018Z" fill="#9CAFFE" stroke="#9CAFFE" stroke-width="3"/>
<g filter="url(#filter1_d_174_731)">
<path d="M370.181 278.552L373.18 195.64C373.28 192.881 375.598 190.724 378.358 190.824L492.806 194.965C495.566 195.065 497.722 197.383 497.622 200.142L494.622 283.054C494.523 285.814 492.205 287.97 489.445 287.87L374.997 283.729C372.237 283.629 370.081 281.311 370.181 278.552Z" stroke="black" stroke-width="3" shape-rendering="crispEdges"/>
</g>
<path d="M373.346 278.271V199.57C373.346 196.808 375.584 194.57 378.346 194.57H489.457C492.219 194.57 494.457 196.808 494.457 199.57V278.271C494.457 281.033 492.219 283.271 489.457 283.271H378.346C375.584 283.271 373.346 281.033 373.346 278.271Z" fill="#020001"/>
<path d="M436.5 203C436.5 204.559 436.025 205.951 435.282 206.943C434.539 207.934 433.55 208.5 432.5 208.5C431.45 208.5 430.461 207.934 429.718 206.943C428.975 205.951 428.5 204.559 428.5 203C428.5 201.441 428.975 200.049 429.718 199.057C430.461 198.066 431.45 197.5 432.5 197.5C433.55 197.5 434.539 198.066 435.282 199.057C436.025 200.049 436.5 201.441 436.5 203Z" fill="#F5F5F5" stroke="black"/>
<path d="M434.5 204C434.5 205.47 433.523 206.5 432.5 206.5C431.477 206.5 430.5 205.47 430.5 204C430.5 202.53 431.477 201.5 432.5 201.5C433.523 201.5 434.5 202.53 434.5 204Z" fill="#F5F5F5" stroke="black"/>
<path d="M575.5 130C575.5 131.572 575.074 132.972 574.412 133.965C573.748 134.962 572.885 135.5 572 135.5C571.115 135.5 570.252 134.962 569.588 133.965C568.926 132.972 568.5 131.572 568.5 130C568.5 128.428 568.926 127.028 569.588 126.035C570.252 125.038 571.115 124.5 572 124.5C572.885 124.5 573.748 125.038 574.412 126.035C575.074 127.028 575.5 128.428 575.5 130Z" fill="#F5F5F5" stroke="black"/>
<circle cx="572.5" cy="130.5" r="2" fill="#F5F5F5" stroke="black"/>
<path opacity="0.1" d="M490 420L533 442.592L531.28 579L490 548.308V420Z" fill="#020001"/>
<path opacity="0.1" d="M772 492L811 492.5L812 578.078L772.62 550L772 492Z" fill="#020001"/>
<path d="M584 366.484L584.07 367.752C584.842 366.385 586.414 363.637 586.526 363.578M585.333 365.739C585.006 367.379 584.786 370.927 586.526 372C586.877 369.391 586.667 364.621 589.053 362.534M587.018 368.05C587.864 367.074 589.11 365.662 590.27 364.398M593.263 361.491C593.015 361.491 591.708 362.83 590.27 364.398M590.27 364.398V365.292C592.39 364.174 596.786 361.819 597.404 361.342M595.719 362.534C595.135 363.006 593.965 364.04 593.965 364.398C593.965 364.755 597.848 363.304 599.789 362.534C598.971 363.578 597.347 365.709 597.404 365.888C597.474 366.112 600.842 365.963 603.649 361.789C602.414 364.77 602.105 365.764 602.105 365.888C603.392 365.391 606.161 363.652 606.947 360.671C607.228 362.519 608 363.925 608.351 364.398C608.725 363.925 609.249 362.385 608.351 360C609.474 362.385 611.298 364.099 611.368 364.248C611.425 364.368 611.719 364.298 611.86 364.248C611.93 363.106 611.888 360.701 611.158 360.224M612 364.099V366.186" stroke="#F5F5F5" stroke-width="2"/>
<path d="M585 363C586.328 362.079 589.186 359.989 590 359" stroke="#F5F5F5" stroke-width="2"/>
<path d="M488.553 416.235L532.014 438.619C533.479 439.373 535.108 439.754 536.756 439.727L828.921 434.973" stroke="#9CAFFE" stroke-width="3"/>
<path d="M486.91 415.034L594.802 415.034" stroke="#9CAFFE" stroke-width="3"/>
<path d="M488.124 415.664L488.971 546.516C488.992 549.73 490.557 552.739 493.177 554.601L533.352 583.162M533.352 583.162L534.209 438.837M533.352 583.162L629.367 583.805C634.916 583.842 639.434 579.354 639.434 573.805L639.434 500.291C639.434 494.768 643.911 490.291 649.434 490.291L817.5 490.291C823.023 490.291 827.5 485.814 827.5 480.291L827.5 436" stroke="#9CAFFE" stroke-width="3"/>
<path d="M614 361.902C612.392 360.757 610.784 359.591 609.335 358.28C608.7 357.706 608.142 356.83 607.429 356.365C606.127 355.516 609.657 358.581 611.127 359.156C611.487 359.297 611.853 359.274 612.208 359.39C612.745 359.565 611.565 358.741 611.468 358.682C610.724 358.229 609.949 357.716 609.15 357.351C607.747 356.711 609.189 357.928 609.591 358.345C610.282 359.061 611.09 359.843 611.667 360.643C612.067 361.195 611.836 360.767 611.596 360.487C610.858 359.624 609.407 358.685 608.339 358.215C608.125 358.12 606.347 357.351 606.27 357.605C606.001 358.488 607.308 359.972 607.855 360.617C607.92 360.692 611.127 361.887 611.127 361.409C611.127 360.058 607.735 358.681 607.215 357.462C606.596 356.007 605.879 356.503 604.328 356.527C604.104 356.53 603.569 356.403 603.645 356.735C603.901 357.844 604.614 358.724 605.395 359.565C605.738 359.935 606.636 360.885 606.575 361.435C606.524 361.902 603.297 363.888 604.812 362.369C604.68 361.472 605.171 360.329 605.324 359.448C605.481 358.541 605.986 357.423 605.8 356.488C605.782 356.397 604.13 356.518 604.015 356.547C602.98 356.804 603.088 358.488 603.325 359.208C603.479 359.676 603.882 360.034 604.143 360.448C604.394 360.846 604.551 360.37 604.442 360.117C604.25 359.671 601.954 356.647 601.739 358.189C601.667 358.711 601.545 359.622 601.732 360.136C601.863 360.496 602.551 360.497 602.863 360.617C603.075 360.698 604.559 360.72 604.058 361.227C603.52 361.771 603.181 362.612 602.55 363.051C602.266 363.249 601.851 363.137 601.583 363.356C601.377 363.524 601.312 363.615 601.17 363.356C601.109 363.244 601.163 363.346 601.17 363.382C601.219 363.603 601.038 363.749 600.829 363.817C600.363 363.969 601.21 362.667 601.227 362.642C602.041 361.437 602.782 360.045 603.297 358.708C603.576 357.982 603.84 357.195 602.934 356.819C602.528 356.651 602.156 356.626 601.796 356.319C601.636 356.183 600.869 355.64 601.426 355.599C602.818 355.497 604.185 355.743 605.551 355.826C606.275 355.87 604.109 355.985 603.396 356.112C602.007 356.359 600.587 356.293 599.179 356.293C598.723 356.293 598.254 356.267 597.799 356.3C597.474 356.324 597.044 356.509 596.718 356.384C596.455 356.283 596.239 355.977 596.085 355.768C595.965 355.603 596.53 356.281 596.79 356.436C597.564 356.901 598.338 357.359 599.122 357.812C599.433 357.992 601.069 358.348 601.149 358.676C601.222 358.975 598.082 358.007 597.885 357.916C596.774 357.406 595.423 356.742 594.5 355.956C594.384 355.857 594.057 355.82 594.158 355.826C594.27 355.832 594.332 355.878 594.414 355.943C594.738 356.196 595.131 356.233 595.538 356.306C596.831 356.539 598.043 357.178 599.378 357.228C600.314 357.263 598.705 356.501 598.518 356.404C597.456 355.85 595.972 355.215 594.748 355.021C594.687 355.011 594.122 354.988 594.286 355.008C595.258 355.129 596.457 355.778 597.33 356.177C598.084 356.521 598.879 356.964 599.549 357.436C599.868 357.66 599.645 357.7 599.449 357.89C598.435 358.878 598.079 360.16 597.942 361.467C597.913 361.738 597.572 363.355 598.297 363.109C599.122 362.83 600.157 362.256 600.786 361.681C601.161 361.34 600.43 361.102 600.139 361.039C599.644 360.93 599.148 360.881 598.66 360.74C598.613 360.726 597.775 360.589 597.785 360.617C597.8 360.657 598.479 360.932 598.539 360.967C598.924 361.19 599.37 361.37 599.705 361.655C599.905 361.825 599.804 361.683 599.67 361.597C599.069 361.211 598.22 361.107 597.515 360.993C596.99 360.908 595.442 360.563 595.019 361.078C594.948 361.164 596.746 361.39 596.96 361.409C597.031 361.415 598.388 361.511 597.899 361.603C596.673 361.834 595.256 361.621 594.087 361.253C593.982 361.22 593.301 360.991 593.547 360.967C594.463 360.878 595.538 360.061 596.249 359.578C596.321 359.529 597.558 358.842 597.558 358.773C597.558 358.773 595.006 359.252 594.869 359.273C593.759 359.44 592.781 359.592 591.754 359.98C591.037 360.252 593.251 359.6 593.995 359.396C594.478 359.264 595.75 359.015 596.078 358.604C596.592 357.962 595.551 357.223 595.004 357.027C594.056 356.687 593.218 356.961 592.437 357.436C591.97 357.72 591.371 357.75 590.894 358.053C590.471 358.321 590.097 358.806 589.607 358.955C589.308 359.046 589.44 359.391 589.272 359.63C589.087 359.894 588.815 360.087 588.604 360.331C588.409 360.555 588.351 360.901 588.113 361.084C587.813 361.314 587.877 361.608 587.672 361.928C587.261 362.572 586.814 363.222 586.449 363.888C586.271 364.212 586.221 364.652 586.221 365.011C586.221 365.61 586.203 366.211 586.221 366.809C586.228 367.028 586.354 367.099 586.165 366.803C586.004 366.552 585.988 365.655 586.157 365.407C586.33 365.156 585.9 365.201 586.022 365.057C586.728 364.223 587.294 363.247 587.957 362.376C588.556 361.587 589.233 360.886 589.777 360.058C589.897 359.876 590.508 359.252 590.076 359.383C589.063 359.692 588.602 360.248 587.914 360.876C587.902 360.887 587.873 360.139 587.9 359.974C587.941 359.72 588.255 359.253 588.526 359.124C589.374 358.716 589.762 357.906 590.574 357.371C591.215 356.948 592.188 357.464 592.75 357.767C594.045 358.465 593.564 359.085 592.636 360.026C592.272 360.395 591.813 360.529 591.441 360.876C591.005 361.283 590.723 361.826 590.389 362.304C590.282 362.458 590.388 362.715 590.19 362.811C589.91 362.946 589.624 362.967 589.365 363.187C589.178 363.346 588.965 363.68 588.732 363.765C588.289 363.927 589.459 363.191 589.877 362.98C590.626 362.601 591.189 362.177 592.046 361.967C592.693 361.808 593.368 361.691 594.002 361.525C594.186 361.477 595.622 361.274 595.253 361.694C594.951 362.039 593.919 362.15 593.461 362.304C593.194 362.394 592.903 362.369 592.622 362.369" stroke="#F5F5F5" stroke-width="3" stroke-linecap="round"/>
<path d="M611.567 426.975L596.513 423.856C594.238 423.384 592.607 421.38 592.607 419.057C592.607 416.35 594.801 414.156 597.508 414.156H611.01L658.969 413.422C662.342 413.371 665.103 416.09 665.103 419.463C665.103 422.727 662.511 425.401 659.248 425.502L611.567 426.975Z" fill="#F5F5F5"/>
<path d="M611.567 426.975L596.513 423.856C594.238 423.384 592.607 421.38 592.607 419.057V419.057C592.607 416.35 594.801 414.156 597.508 414.156H611.01M611.567 426.975L611.01 414.156M611.567 426.975L659.248 425.502C662.511 425.401 665.103 422.727 665.103 419.463V419.463C665.103 416.09 662.342 413.371 658.969 413.422L611.01 414.156" stroke="#9CAFFE" stroke-width="3"/>
<path d="M652.577 407.937L644.262 408.492C643.031 408.574 642.075 409.596 642.075 410.83C642.075 412.183 643.218 413.255 644.569 413.168L652.885 412.631C654.206 412.546 655.196 411.389 655.076 410.071C654.961 408.8 653.851 407.852 652.577 407.937Z" fill="#9CAFFE" stroke="#F5F5F5" stroke-width="2"/>
<path d="M636.372 408.364L628.057 408.918C626.826 409 625.87 410.022 625.87 411.256C625.87 412.609 627.013 413.681 628.364 413.594L636.68 413.058C638.001 412.972 638.991 411.815 638.871 410.498C638.755 409.226 637.646 408.279 636.372 408.364Z" fill="#9CAFFE" stroke="#F5F5F5" stroke-width="2"/>
<path d="M624.432 408.364L616.116 408.918C614.885 409 613.929 410.022 613.929 411.256C613.929 412.609 615.072 413.681 616.423 413.594L624.74 413.058C626.06 412.972 627.05 411.815 626.93 410.498C626.815 409.226 625.706 408.279 624.432 408.364Z" fill="#9CAFFE" stroke="#F5F5F5" stroke-width="2"/>
<path d="M613.973 410.638L611.777 411C610.794 411.162 610.055 411.985 610 412.981V412.981" stroke="#F5F5F5" stroke-width="2"/>
<path d="M642.973 410.212L640.37 410.641C639.567 410.774 638.874 411.277 638.5 412V412" stroke="#F5F5F5" stroke-width="2"/>
<path d="M471 449H489V464.102V503L471 488.592V449Z" fill="#F5F5F5"/>
<path d="M489 464.102L471 449M489 464.102V503L471 488.592V449M489 464.102V449H471" stroke="#9CAFFE" stroke-width="3"/>
<path d="M487 461L475 451L487 451V461Z" fill="#020001"/>
<path d="M485.937 516.073C485.937 516.883 485.331 518.005 483.362 519.302C481.452 520.558 478.59 521.748 474.919 522.769C467.598 524.807 457.398 526.087 446.071 526.087C434.745 526.087 424.545 524.807 417.224 522.769C413.553 521.748 410.691 520.558 408.781 519.302C406.811 518.005 406.206 516.883 406.206 516.073C406.206 515.263 406.811 514.14 408.781 512.844C410.691 511.587 413.553 510.398 417.224 509.376C424.545 507.338 434.745 506.059 446.071 506.059C457.398 506.059 467.598 507.338 474.919 509.376C478.59 510.398 481.452 511.587 483.362 512.844C485.331 514.14 485.937 515.263 485.937 516.073Z" stroke="#9CAFFE" stroke-width="3"/>
<path d="M485.937 516.073C485.937 516.883 485.331 518.005 483.362 519.302C481.452 520.558 478.59 521.748 474.919 522.769C467.598 524.807 457.398 526.087 446.071 526.087C434.745 526.087 424.545 524.807 417.224 522.769C413.553 521.748 410.691 520.558 408.781 519.302C406.811 518.005 406.206 516.883 406.206 516.073C406.206 515.263 406.811 514.14 408.781 512.844C410.691 511.587 413.553 510.398 417.224 509.376C424.545 507.338 434.745 506.059 446.071 506.059C457.398 506.059 467.598 507.338 474.919 509.376C478.59 510.398 481.452 511.587 483.362 512.844C485.331 514.14 485.937 515.263 485.937 516.073Z" stroke="#9CAFFE" stroke-width="3"/>
<path d="M485.446 521.29C444.08 535.363 421.905 525.98 408.685 521.289L421.905 581.845L434.272 587.816L449.624 588.669L463.697 586.11L471.799 579.287C471.799 579.287 483.096 534.212 485.446 521.29Z" fill="#D9D9D9"/>
<path d="M413.235 526.734L423.47 583.025M428.611 529.033L435.386 585.844M446.293 529.343L445.699 586.554M464.865 529.343L458.089 586.154M479.235 525L469 581.291" stroke="#9CAFFE" stroke-width="2"/>
<path d="M384.499 242.67C380.235 232.862 381.287 222.122 381.94 210.26C386.122 211.359 396.902 210.907 410.576 212.936C409.025 219.72 411.084 231.573 416.909 240.111C412.347 240.555 401.624 239.517 384.499 242.67Z" fill="#F5F5F5"/>
<path d="M412.129 261.86C412.129 249.972 411.475 227.187 412.129 215.326C416.31 216.425 427.09 215.973 440.765 218.002C440.765 224.333 441.809 251.199 441.809 262.713C437.247 263.157 428.589 263.14 412.129 261.86Z" fill="#F14D08"/>
<g filter="url(#filter2_d_174_731)">
<path d="M650.088 229.45C650.088 217.561 649.434 194.777 650.088 182.916C654.269 184.015 665.049 183.563 678.723 185.592C678.723 191.923 679.768 218.789 679.768 230.303C675.205 230.747 666.548 230.73 650.088 229.45Z" fill="#9CAFFE"/>
</g>
<g filter="url(#filter3_d_174_731)">
<circle cx="408" cy="213" r="14" fill="#D9D9D9"/>
</g>
<path d="M413 216H408L411 218L413 216Z" fill="#020001"/>
<path d="M400 215C400 216.105 399.105 217 398 217C396.895 217 396 216.105 396 215C398 215 398 214.333 398 213C399.105 213 400 213.895 400 215Z" fill="#020001"/>
<path d="M421 214C421 215.105 420.105 216 419 216C417.895 216 417 215.105 417 214C419 214 419 214 419 212C420.105 212 421 212.895 421 214Z" fill="#020001"/>
<path d="M397.688 211.52C397.18 211.416 397.273 210.955 397.561 210.921C397.783 210.882 398.479 210.791 399.486 210.743C400.494 210.695 400.314 211.257 399.92 211.323C399.409 211.409 398.196 211.625 397.688 211.52Z" fill="#F14D08" stroke="#F14D08" stroke-width="2"/>
<path d="M418.157 210.667C417.649 210.563 417.743 210.102 418.03 210.068C418.252 210.029 418.948 209.938 419.956 209.89C420.964 209.842 420.784 210.404 420.39 210.47C419.878 210.556 418.665 210.772 418.157 210.667Z" fill="#F14D08" stroke="#F14D08" stroke-width="2"/>
<ellipse cx="664.5" cy="189.5" rx="2.5" ry="1.5" fill="#020001"/>
<path d="M658 414H678" stroke="#9CAFFE" stroke-width="3"/>
<path d="M655.201 207.521C655.804 209.433 658.345 210.581 659.635 209.385C661.247 207.891 662.057 207.506 664.049 209.486C666.04 211.466 671.498 212.013 668.26 208.536" stroke="black"/>
<circle cx="671.5" cy="210.5" r="0.5" fill="#020001"/>
<path d="M824 488.5V579.287C824 583.353 819.404 585.719 816.095 583.356L772.095 551.944C770.78 551.006 770 549.49 770 547.875V491" stroke="#9CAFFE" stroke-width="3"/>
<path d="M813.012 491L813.998 580" stroke="#9CAFFE" stroke-width="3"/>
<path d="M795 419L828 435" stroke="#9CAFFE" stroke-width="3"/>
</g>
<defs>
<filter id="filter0_d_174_731" x="504" y="118" width="135" height="146" filterUnits="userSpaceOnUse" color-interpolation-filters="sRGB">
<feFlood flood-opacity="0" result="BackgroundImageFix"/>
<feColorMatrix in="SourceAlpha" type="matrix" values="0 0 0 0 0 0 0 0 0 0 0 0 0 0 0 0 0 0 127 0" result="hardAlpha"/>
<feOffset dy="4"/>
<feGaussianBlur stdDeviation="2"/>
<feComposite in2="hardAlpha" operator="out"/>
<feColorMatrix type="matrix" values="0 0 0 0 0 0 0 0 0 0 0 0 0 0 0 0 0 0 0.25 0"/>
<feBlend mode="normal" in2="BackgroundImageFix" result="effect1_dropShadow_174_731"/>
<feBlend mode="normal" in="SourceGraphic" in2="effect1_dropShadow_174_731" result="shape"/>
</filter>
<filter id="filter1_d_174_731" x="364.677" y="189.321" width="138.448" height="108.052" filterUnits="userSpaceOnUse" color-interpolation-filters="sRGB">
<feFlood flood-opacity="0" result="BackgroundImageFix"/>
<feColorMatrix in="SourceAlpha" type="matrix" values="0 0 0 0 0 0 0 0 0 0 0 0 0 0 0 0 0 0 127 0" result="hardAlpha"/>
<feOffset dy="4"/>
<feGaussianBlur stdDeviation="2"/>
<feComposite in2="hardAlpha" operator="out"/>
<feColorMatrix type="matrix" values="0 0 0 0 0 0 0 0 0 0 0 0 0 0 0 0 0 0 0.25 0"/>
<feBlend mode="normal" in2="BackgroundImageFix" result="effect1_dropShadow_174_731"/>
<feBlend mode="normal" in="SourceGraphic" in2="effect1_dropShadow_174_731" result="shape"/>
</filter>
<filter id="filter2_d_174_731" x="645.797" y="182.916" width="37.9708" height="55.6501" filterUnits="userSpaceOnUse" color-interpolation-filters="sRGB">
<feFlood flood-opacity="0" result="BackgroundImageFix"/>
<feColorMatrix in="SourceAlpha" type="matrix" values="0 0 0 0 0 0 0 0 0 0 0 0 0 0 0 0 0 0 127 0" result="hardAlpha"/>
<feOffset dy="4"/>
<feGaussianBlur stdDeviation="2"/>
<feComposite in2="hardAlpha" operator="out"/>
<feColorMatrix type="matrix" values="0 0 0 0 0 0 0 0 0 0 0 0 0 0 0 0 0 0 0.25 0"/>
<feBlend mode="normal" in2="BackgroundImageFix" result="effect1_dropShadow_174_731"/>
<feBlend mode="normal" in="SourceGraphic" in2="effect1_dropShadow_174_731" result="shape"/>
</filter>
<filter id="filter3_d_174_731" x="390" y="199" width="36" height="36" filterUnits="userSpaceOnUse" color-interpolation-filters="sRGB">
<feFlood flood-opacity="0" result="BackgroundImageFix"/>
<feColorMatrix in="SourceAlpha" type="matrix" values="0 0 0 0 0 0 0 0 0 0 0 0 0 0 0 0 0 0 127 0" result="hardAlpha"/>
<feOffset dy="4"/>
<feGaussianBlur stdDeviation="2"/>
<feComposite in2="hardAlpha" operator="out"/>
<feColorMatrix type="matrix" values="0 0 0 0 0 0 0 0 0 0 0 0 0 0 0 0 0 0 0.25 0"/>
<feBlend mode="normal" in2="BackgroundImageFix" result="effect1_dropShadow_174_731"/>
<feBlend mode="normal" in="SourceGraphic" in2="effect1_dropShadow_174_731" result="shape"/>
</filter>
<clipPath id="clip0_174_731">
<rect width="1245" height="642" fill="white"/>
</clipPath>
</defs>
</svg>
