<svg width="1016" height="581" viewBox="0 0 1016 581" fill="none" xmlns="http://www.w3.org/2000/svg">
<g filter="url(#filter0_d_10_21)">
<mask id="path-1-outside-1_10_21" maskUnits="userSpaceOnUse" x="3" y="-1" width="1010" height="575" fill="black">
<rect fill="white" x="3" y="-1" width="1010" height="575"/>
<path d="M157.8 69.3L367.8 56C373.867 56 379.7 61.8333 385.3 73.5C385.3 91.2333 364.767 100.1 323.7 100.1L201.2 107.1L198.4 108.5C210.067 184.567 215.9 329 215.9 541.8C213.567 562.333 206.1 572.6 193.5 572.6C181.367 572.6 174.367 563.267 172.5 544.6V382.2C172.5 273.933 167.6 183.633 157.8 111.3C74.2667 119.233 32.5 128.567 32.5 139.3L26.2 142.1C11.7333 137.9 4.5 130.433 4.5 119.7C4.5 94.0333 55.6 77.2333 157.8 69.3ZM528.663 107.1C537.063 107.1 542.897 114.333 546.163 128.8C546.163 137.2 531.463 148.867 502.063 163.8C465.663 195.533 438.597 250.133 420.863 327.6V340.2C461.463 320.133 490.63 308 508.363 303.8C513.963 303.8 520.73 308.7 528.663 318.5V331.8C528.663 336.933 508.13 347.2 467.063 362.6C436.263 379.4 420.863 388.967 420.863 391.3V397.6C420.863 423.733 437.663 446.367 471.263 465.5L495.063 469.7C510.463 469.7 533.33 460.133 563.663 441H572.063C581.863 445.667 586.763 452.433 586.763 461.3V465.5C557.83 495.833 525.863 511 490.863 511C440.93 511 404.53 477.4 381.663 410.2L337.563 419.3C316.097 416.033 305.363 409.033 305.363 398.3C305.363 387.567 311.663 379.867 324.263 375.2L340.363 378C364.63 371 376.763 365.867 376.763 362.6C376.763 283.267 406.863 209.767 467.063 142.1C497.397 118.767 517.93 107.1 528.663 107.1ZM821.045 -1.33514e-05H823.145C834.811 6.06666 840.645 12.8333 840.645 20.3L823.145 153.3C823.145 201.833 837.611 302.4 866.545 455L901.545 542.5C901.545 548.567 896.645 555.333 886.845 562.8H873.545C864.211 560 850.211 531.3 831.545 476.7C819.411 432.833 807.278 365.167 795.145 273.7H790.945C763.878 353.967 744.745 395.5 733.545 398.3L722.345 401.1C712.545 401.1 700.411 381.967 685.945 343.7H681.045C675.445 458.967 664.478 516.6 648.145 516.6H646.045C631.111 516.6 622.945 504.933 621.545 481.6C633.211 436.8 639.045 390.133 639.045 341.6L620.145 156.1V142.8C620.145 125.067 626.445 116.2 639.045 116.2C657.245 116.2 673.345 151.9 687.345 223.3C707.878 288.167 720.478 323.167 725.145 328.3C735.878 311.5 746.611 281.633 757.345 238.7C765.745 216.767 773.911 182.467 781.845 135.8L779.045 133.7L781.845 122.5V118.3C786.045 39.4333 799.111 -1.33514e-05 821.045 -1.33514e-05ZM956.544 123.2C967.744 123.2 974.977 129.033 978.244 140.7L974.044 182V195.3C985.71 291.9 992.944 367.033 995.744 420.7C1000.88 470.633 1006.24 495.6 1011.84 495.6C1011.84 505.4 1003.68 511.7 987.344 514.5C964.01 514.5 952.344 467.367 952.344 373.1L932.744 191.1V184.8C932.744 143.733 940.677 123.2 956.544 123.2Z"/>
</mask>
<path d="M157.8 69.3L367.8 56C373.867 56 379.7 61.8333 385.3 73.5C385.3 91.2333 364.767 100.1 323.7 100.1L201.2 107.1L198.4 108.5C210.067 184.567 215.9 329 215.9 541.8C213.567 562.333 206.1 572.6 193.5 572.6C181.367 572.6 174.367 563.267 172.5 544.6V382.2C172.5 273.933 167.6 183.633 157.8 111.3C74.2667 119.233 32.5 128.567 32.5 139.3L26.2 142.1C11.7333 137.9 4.5 130.433 4.5 119.7C4.5 94.0333 55.6 77.2333 157.8 69.3ZM528.663 107.1C537.063 107.1 542.897 114.333 546.163 128.8C546.163 137.2 531.463 148.867 502.063 163.8C465.663 195.533 438.597 250.133 420.863 327.6V340.2C461.463 320.133 490.63 308 508.363 303.8C513.963 303.8 520.73 308.7 528.663 318.5V331.8C528.663 336.933 508.13 347.2 467.063 362.6C436.263 379.4 420.863 388.967 420.863 391.3V397.6C420.863 423.733 437.663 446.367 471.263 465.5L495.063 469.7C510.463 469.7 533.33 460.133 563.663 441H572.063C581.863 445.667 586.763 452.433 586.763 461.3V465.5C557.83 495.833 525.863 511 490.863 511C440.93 511 404.53 477.4 381.663 410.2L337.563 419.3C316.097 416.033 305.363 409.033 305.363 398.3C305.363 387.567 311.663 379.867 324.263 375.2L340.363 378C364.63 371 376.763 365.867 376.763 362.6C376.763 283.267 406.863 209.767 467.063 142.1C497.397 118.767 517.93 107.1 528.663 107.1ZM821.045 -1.33514e-05H823.145C834.811 6.06666 840.645 12.8333 840.645 20.3L823.145 153.3C823.145 201.833 837.611 302.4 866.545 455L901.545 542.5C901.545 548.567 896.645 555.333 886.845 562.8H873.545C864.211 560 850.211 531.3 831.545 476.7C819.411 432.833 807.278 365.167 795.145 273.7H790.945C763.878 353.967 744.745 395.5 733.545 398.3L722.345 401.1C712.545 401.1 700.411 381.967 685.945 343.7H681.045C675.445 458.967 664.478 516.6 648.145 516.6H646.045C631.111 516.6 622.945 504.933 621.545 481.6C633.211 436.8 639.045 390.133 639.045 341.6L620.145 156.1V142.8C620.145 125.067 626.445 116.2 639.045 116.2C657.245 116.2 673.345 151.9 687.345 223.3C707.878 288.167 720.478 323.167 725.145 328.3C735.878 311.5 746.611 281.633 757.345 238.7C765.745 216.767 773.911 182.467 781.845 135.8L779.045 133.7L781.845 122.5V118.3C786.045 39.4333 799.111 -1.33514e-05 821.045 -1.33514e-05ZM956.544 123.2C967.744 123.2 974.977 129.033 978.244 140.7L974.044 182V195.3C985.71 291.9 992.944 367.033 995.744 420.7C1000.88 470.633 1006.24 495.6 1011.84 495.6C1011.84 505.4 1003.68 511.7 987.344 514.5C964.01 514.5 952.344 467.367 952.344 373.1L932.744 191.1V184.8C932.744 143.733 940.677 123.2 956.544 123.2Z" fill="#F5F5F5"/>
<path d="M157.8 69.3L157.737 68.302L157.73 68.3024L157.723 68.303L157.8 69.3ZM367.8 56V55H367.768L367.737 55.002L367.8 56ZM385.3 73.5H386.3V73.2724L386.202 73.0673L385.3 73.5ZM323.7 100.1V99.1H323.671L323.643 99.1016L323.7 100.1ZM201.2 107.1L201.143 106.102L200.937 106.113L200.753 106.206L201.2 107.1ZM198.4 108.5L197.953 107.606L197.301 107.931L197.412 108.652L198.4 108.5ZM215.9 541.8L216.894 541.913L216.9 541.857V541.8H215.9ZM172.5 544.6H171.5V544.65L171.505 544.7L172.5 544.6ZM157.8 111.3L158.791 111.166L158.662 110.214L157.705 110.304L157.8 111.3ZM32.5 139.3L32.9061 140.214L33.5 139.95V139.3H32.5ZM26.2 142.1L25.9212 143.06L26.2722 143.162L26.6061 143.014L26.2 142.1ZM157.863 70.298L367.863 56.998L367.737 55.002L157.737 68.302L157.863 70.298ZM367.8 57C370.484 57 373.22 58.2837 376.018 61.0821C378.823 63.8868 381.623 68.1501 384.399 73.9327L386.202 73.0673C383.377 67.1833 380.461 62.6965 377.432 59.6679C374.397 56.6329 371.183 55 367.8 55V57ZM384.3 73.5C384.3 77.7253 383.082 81.3866 380.658 84.5264C378.224 87.6801 374.531 90.361 369.504 92.5319C359.427 96.8832 344.192 99.1 323.7 99.1V101.1C344.275 101.1 359.84 98.8834 370.296 94.3681C375.536 92.1056 379.543 89.2449 382.242 85.7485C384.951 82.2384 386.3 78.1413 386.3 73.5H384.3ZM323.643 99.1016L201.143 106.102L201.257 108.098L323.757 101.098L323.643 99.1016ZM200.753 106.206L197.953 107.606L198.847 109.394L201.647 107.994L200.753 106.206ZM197.412 108.652C209.065 184.632 214.9 328.992 214.9 541.8H216.9C216.9 329.008 211.068 184.501 199.388 108.348L197.412 108.652ZM214.906 541.687C213.748 551.878 211.328 559.38 207.741 564.312C204.194 569.189 199.477 571.6 193.5 571.6V573.6C200.123 573.6 205.439 570.878 209.359 565.488C213.239 560.153 215.718 552.255 216.894 541.913L214.906 541.687ZM193.5 571.6C187.733 571.6 183.252 569.403 179.95 565C176.607 560.543 174.42 553.752 173.495 544.5L171.505 544.7C172.446 554.115 174.693 561.324 178.35 566.2C182.048 571.13 187.133 573.6 193.5 573.6V571.6ZM173.5 544.6V382.2H171.5V544.6H173.5ZM173.5 382.2C173.5 273.908 168.599 183.559 158.791 111.166L156.809 111.434C166.601 183.707 171.5 273.959 171.5 382.2H173.5ZM157.705 110.304C115.929 114.272 84.5532 118.593 63.6069 123.274C53.1422 125.613 45.2227 128.053 39.8982 130.611C37.2379 131.889 35.1692 133.223 33.7527 134.632C32.3306 136.046 31.5 137.606 31.5 139.3H33.5C33.5 138.311 33.9746 137.231 35.1629 136.05C36.3568 134.863 38.2037 133.644 40.7643 132.414C45.8815 129.955 53.6244 127.554 64.0431 125.226C84.8635 120.573 116.138 116.261 157.895 112.295L157.705 110.304ZM32.0939 138.386L25.7939 141.186L26.6061 143.014L32.9061 140.214L32.0939 138.386ZM26.4788 141.14C19.3422 139.068 14.0966 136.219 10.6432 132.654C7.21371 129.114 5.5 124.816 5.5 119.7H3.5C3.5 125.317 5.40296 130.119 9.20676 134.046C12.9868 137.948 18.5911 140.932 25.9212 143.06L26.4788 141.14ZM5.5 119.7C5.5 113.663 8.48909 108.06 14.7204 102.882C20.97 97.6879 30.4169 92.982 43.1373 88.8C68.5707 80.4383 106.799 74.262 157.877 70.297L157.723 68.303C106.601 72.2713 68.1793 78.4617 42.5127 86.9C29.6831 91.118 19.9675 95.9204 13.4421 101.343C6.89841 106.782 3.5 112.903 3.5 119.7H5.5ZM546.163 128.8H547.163V128.688L547.139 128.58L546.163 128.8ZM502.063 163.8L501.61 162.908L501.5 162.965L501.406 163.046L502.063 163.8ZM420.863 327.6L419.889 327.377L419.863 327.487V327.6H420.863ZM420.863 340.2H419.863V341.81L421.306 341.096L420.863 340.2ZM508.363 303.8V302.8H508.246L508.133 302.827L508.363 303.8ZM528.663 318.5H529.663V318.146L529.441 317.871L528.663 318.5ZM467.063 362.6L466.712 361.664L466.646 361.688L466.584 361.722L467.063 362.6ZM471.263 465.5L470.768 466.369L470.919 466.455L471.09 466.485L471.263 465.5ZM495.063 469.7L494.89 470.685L494.976 470.7H495.063V469.7ZM563.663 441V440H563.374L563.13 440.154L563.663 441ZM572.063 441L572.493 440.097L572.289 440H572.063V441ZM586.763 465.5L587.487 466.19L587.763 465.9V465.5H586.763ZM381.663 410.2L382.61 409.878L382.326 409.042L381.461 409.221L381.663 410.2ZM337.563 419.3L337.413 420.289L337.59 420.316L337.765 420.279L337.563 419.3ZM324.263 375.2L324.435 374.215L324.169 374.169L323.916 374.262L324.263 375.2ZM340.363 378L340.192 378.985L340.419 379.025L340.64 378.961L340.363 378ZM467.063 142.1L466.454 141.307L466.379 141.365L466.316 141.435L467.063 142.1ZM528.663 108.1C532.526 108.1 535.81 109.743 538.56 113.153C541.34 116.6 543.57 121.857 545.188 129.02L547.139 128.58C545.49 121.277 543.17 115.683 540.117 111.897C537.033 108.074 533.2 106.1 528.663 106.1V108.1ZM545.163 128.8C545.163 130.607 544.37 132.706 542.6 135.122C540.835 137.531 538.153 140.18 534.517 143.067C527.244 148.838 516.288 155.453 501.61 162.908L502.516 164.692C517.238 157.214 528.332 150.528 535.76 144.633C539.473 141.686 542.304 138.911 544.214 136.303C546.119 133.702 547.163 131.193 547.163 128.8H545.163ZM501.406 163.046C464.773 194.982 437.641 249.825 419.889 327.377L421.838 327.823C439.552 250.441 466.553 196.084 502.72 164.554L501.406 163.046ZM419.863 327.6V340.2H421.863V327.6H419.863ZM421.306 341.096C461.909 321.028 490.984 308.944 508.594 304.773L508.133 302.827C490.276 307.056 461.017 319.238 420.42 339.304L421.306 341.096ZM508.363 304.8C510.872 304.8 513.759 305.901 517.052 308.285C520.338 310.664 523.95 314.267 527.886 319.129L529.441 317.871C525.444 312.933 521.706 309.186 518.225 306.665C514.75 304.149 511.455 302.8 508.363 302.8V304.8ZM527.663 318.5V331.8H529.663V318.5H527.663ZM527.663 331.8C527.663 332.114 527.499 332.617 526.92 333.341C526.352 334.051 525.462 334.876 524.213 335.812C521.718 337.684 517.931 339.898 512.816 342.456C502.597 347.565 487.236 353.967 466.712 361.664L467.414 363.536C487.957 355.833 503.396 349.402 513.71 344.244C518.863 341.668 522.775 339.391 525.413 337.412C526.731 336.424 527.767 335.484 528.482 334.59C529.186 333.71 529.663 332.77 529.663 331.8H527.663ZM466.584 361.722C451.18 370.124 439.61 376.727 431.886 381.526C428.027 383.923 425.105 385.883 423.139 387.402C422.16 388.159 421.388 388.829 420.853 389.405C420.585 389.693 420.354 389.981 420.184 390.267C420.023 390.538 419.863 390.896 419.863 391.3H421.863C421.863 391.413 421.824 391.422 421.903 391.289C421.974 391.17 422.104 390.997 422.318 390.767C422.744 390.308 423.417 389.716 424.362 388.985C426.247 387.529 429.1 385.611 432.941 383.224C440.616 378.456 452.146 371.876 467.542 363.478L466.584 361.722ZM419.863 391.3V397.6H421.863V391.3H419.863ZM419.863 397.6C419.863 424.248 437.02 447.151 470.768 466.369L471.758 464.631C438.306 445.582 421.863 423.218 421.863 397.6H419.863ZM471.09 466.485L494.89 470.685L495.237 468.715L471.437 464.515L471.09 466.485ZM495.063 470.7C502.952 470.7 512.659 468.255 524.149 463.448C535.651 458.636 549.002 451.43 564.197 441.846L563.13 440.154C547.991 449.703 534.742 456.848 523.377 461.602C512.001 466.362 502.575 468.7 495.063 468.7V470.7ZM563.663 442H572.063V440H563.663V442ZM571.633 441.903C576.426 444.185 579.952 446.948 582.278 450.162C584.597 453.363 585.763 457.064 585.763 461.3H587.763C587.763 456.67 586.48 452.553 583.898 448.988C581.325 445.435 577.5 442.482 572.493 440.097L571.633 441.903ZM585.763 461.3V465.5H587.763V461.3H585.763ZM586.04 464.81C557.255 494.987 525.537 510 490.863 510V512C526.19 512 558.405 496.679 587.487 466.19L586.04 464.81ZM490.863 510C466.146 510 444.805 501.693 426.792 485.065C408.756 468.417 394.011 443.384 382.61 409.878L380.717 410.522C392.182 444.216 407.071 469.583 425.435 486.535C443.821 503.507 465.647 512 490.863 512V510ZM381.461 409.221L337.361 418.321L337.765 420.279L381.865 411.179L381.461 409.221ZM337.714 418.311C327.037 416.687 319.151 414.148 313.96 410.762C308.813 407.406 306.363 403.259 306.363 398.3H304.363C304.363 404.074 307.281 408.794 312.867 412.438C318.409 416.052 326.623 418.647 337.413 420.289L337.714 418.311ZM306.363 398.3C306.363 393.145 307.87 388.765 310.862 385.108C313.867 381.436 318.421 378.43 324.611 376.138L323.916 374.262C317.506 376.636 312.61 379.814 309.314 383.842C306.006 387.885 304.363 392.722 304.363 398.3H306.363ZM324.092 376.185L340.192 378.985L340.535 377.015L324.435 374.215L324.092 376.185ZM340.64 378.961C352.784 375.458 361.93 372.411 368.053 369.821C371.108 368.528 373.457 367.33 375.057 366.222C375.857 365.669 376.509 365.111 376.971 364.543C377.428 363.98 377.763 363.325 377.763 362.6H375.763C375.763 362.692 375.719 362.912 375.418 363.282C375.122 363.647 374.636 364.081 373.919 364.578C372.486 365.57 370.285 366.705 367.274 367.979C361.263 370.522 352.209 373.542 340.086 377.039L340.64 378.961ZM377.763 362.6C377.763 283.546 407.749 210.276 467.81 142.765L466.316 141.435C405.978 209.257 375.763 282.987 375.763 362.6H377.763ZM467.673 142.893C482.822 131.239 495.498 122.52 505.707 116.719C515.964 110.892 523.58 108.1 528.663 108.1V106.1C523.013 106.1 514.996 109.141 504.719 114.981C494.395 120.846 481.637 129.627 466.454 141.307L467.673 142.893ZM823.145 -1.33514e-05L823.606 -0.88723L823.389 -1.00001H823.145V-1.33514e-05ZM840.645 20.3L841.636 20.4304L841.645 20.3655V20.3H840.645ZM823.145 153.3L822.153 153.17L822.145 153.234V153.3H823.145ZM866.545 455L865.562 455.186L865.58 455.281L865.616 455.371L866.545 455ZM901.545 542.5H902.545V542.307L902.473 542.129L901.545 542.5ZM886.845 562.8V563.8H887.182L887.451 563.595L886.845 562.8ZM873.545 562.8L873.257 563.758L873.398 563.8H873.545V562.8ZM831.545 476.7L830.581 476.967L830.589 476.995L830.598 477.023L831.545 476.7ZM795.145 273.7L796.136 273.568L796.021 272.7H795.145V273.7ZM790.945 273.7V272.7H790.226L789.997 273.38L790.945 273.7ZM733.545 398.3L733.302 397.33L733.302 397.33L733.545 398.3ZM722.345 401.1V402.1H722.468L722.587 402.07L722.345 401.1ZM685.945 343.7L686.88 343.346L686.636 342.7H685.945V343.7ZM681.045 343.7V342.7H680.092L680.046 343.651L681.045 343.7ZM621.545 481.6L620.577 481.348L620.537 481.502L620.546 481.66L621.545 481.6ZM639.045 341.6H640.045V341.549L640.039 341.499L639.045 341.6ZM620.145 156.1H619.145V156.151L619.15 156.201L620.145 156.1ZM687.345 223.3L686.363 223.492L686.374 223.548L686.391 223.602L687.345 223.3ZM725.145 328.3L724.405 328.973L725.284 329.94L725.987 328.838L725.145 328.3ZM757.345 238.7L756.411 238.342L756.389 238.399L756.374 238.457L757.345 238.7ZM781.845 135.8L782.83 135.968L782.933 135.366L782.445 135L781.845 135.8ZM779.045 133.7L778.074 133.457L777.913 134.102L778.445 134.5L779.045 133.7ZM781.845 122.5L782.815 122.743L782.845 122.623V122.5H781.845ZM781.845 118.3L780.846 118.247L780.845 118.273V118.3H781.845ZM821.045 0.999987H823.145V-1.00001H821.045V0.999987ZM822.683 0.887203C834.279 6.91681 839.645 13.4286 839.645 20.3H841.645C841.645 12.238 835.344 5.21651 823.606 -0.88723L822.683 0.887203ZM839.653 20.1695L822.153 153.17L824.136 153.43L841.636 20.4304L839.653 20.1695ZM822.145 153.3C822.145 201.944 836.633 302.606 865.562 455.186L867.527 454.814C838.59 302.194 824.145 201.722 824.145 153.3H822.145ZM865.616 455.371L900.616 542.871L902.473 542.129L867.473 454.629L865.616 455.371ZM900.545 542.5C900.545 545.256 899.432 548.263 897.06 551.538C894.687 554.815 891.094 558.305 886.239 562.005L887.451 563.595C892.395 559.828 896.152 556.202 898.679 552.712C901.207 549.22 902.545 545.81 902.545 542.5H900.545ZM886.845 561.8H873.545V563.8H886.845V561.8ZM873.832 561.842C871.83 561.241 869.37 559.159 866.473 555.249C863.608 551.381 860.431 545.886 856.943 538.737C849.97 524.442 841.82 503.663 832.491 476.377L830.598 477.023C839.936 504.337 848.119 525.208 855.146 539.613C858.658 546.814 861.897 552.431 864.866 556.439C867.803 560.404 870.593 562.959 873.257 563.758L873.832 561.842ZM832.508 476.433C820.394 432.636 808.268 365.026 796.136 273.568L794.153 273.831C806.288 365.307 818.428 433.031 830.581 476.967L832.508 476.433ZM795.145 272.7H790.945V274.7H795.145V272.7ZM789.997 273.38C776.467 313.503 764.931 343.914 755.386 364.632C750.613 374.994 746.352 382.899 742.607 388.373C740.734 391.11 739.007 393.214 737.429 394.708C735.841 396.212 734.466 397.039 733.302 397.33L733.787 399.27C735.423 398.861 737.096 397.778 738.804 396.16C740.522 394.534 742.339 392.307 744.257 389.502C748.095 383.893 752.41 375.873 757.203 365.468C766.792 344.653 778.355 314.163 791.892 274.02L789.997 273.38ZM733.302 397.33L722.102 400.13L722.587 402.07L733.787 399.27L733.302 397.33ZM722.345 400.1C720.23 400.1 717.86 399.067 715.214 396.759C712.574 394.455 709.746 390.956 706.739 386.214C700.727 376.734 694.105 362.458 686.88 343.346L685.009 344.054C692.251 363.208 698.929 377.633 705.05 387.286C708.11 392.11 711.057 395.786 713.9 398.266C716.738 400.742 719.559 402.1 722.345 402.1V400.1ZM685.945 342.7H681.045V344.7H685.945V342.7ZM680.046 343.651C677.246 401.274 673.107 444.442 667.637 473.188C664.9 487.57 661.842 498.277 658.485 505.366C656.805 508.91 655.078 511.493 653.325 513.177C651.584 514.85 649.863 515.6 648.145 515.6V517.6C650.51 517.6 652.704 516.548 654.711 514.619C656.706 512.702 658.559 509.881 660.292 506.222C663.759 498.902 666.855 487.996 669.602 473.562C675.099 444.675 679.243 401.393 682.043 343.749L680.046 343.651ZM648.145 515.6H646.045V517.6H648.145V515.6ZM646.045 515.6C638.885 515.6 633.424 512.828 629.539 507.277C625.609 501.663 623.238 493.128 622.543 481.54L620.546 481.66C621.251 493.405 623.663 502.37 627.9 508.423C632.181 514.539 638.27 517.6 646.045 517.6V515.6ZM622.512 481.852C634.201 436.966 640.045 390.214 640.045 341.6H638.045C638.045 390.052 632.221 436.634 620.577 481.348L622.512 481.852ZM640.039 341.499L621.139 155.999L619.15 156.201L638.05 341.701L640.039 341.499ZM621.145 156.1V142.8H619.145V156.1H621.145ZM621.145 142.8C621.145 134.021 622.709 127.617 625.685 123.429C628.615 119.304 633.009 117.2 639.045 117.2V115.2C632.48 115.2 627.424 117.529 624.054 122.271C620.73 126.95 619.145 133.845 619.145 142.8H621.145ZM639.045 117.2C643.236 117.2 647.411 119.247 651.58 123.587C655.756 127.933 659.856 134.512 663.858 143.386C671.86 161.13 679.368 187.815 686.363 223.492L688.326 223.108C681.321 187.385 673.779 160.52 665.681 142.564C661.633 133.588 657.421 126.779 653.022 122.201C648.616 117.615 643.954 115.2 639.045 115.2V117.2ZM686.391 223.602C696.659 256.039 704.947 281.02 711.254 298.539C714.406 307.297 717.068 314.202 719.238 319.245C720.323 321.767 721.29 323.835 722.138 325.442C722.977 327.03 723.732 328.233 724.405 328.973L725.884 327.627C725.39 327.084 724.731 326.07 723.907 324.508C723.093 322.965 722.149 320.95 721.076 318.455C718.929 313.465 716.283 306.603 713.135 297.861C706.842 280.38 698.563 255.427 688.298 222.998L686.391 223.602ZM725.987 328.838C736.815 311.89 747.579 281.885 758.315 238.943L756.374 238.457C745.643 281.382 734.941 311.11 724.302 327.762L725.987 328.838ZM758.278 239.058C766.715 217.028 774.895 182.648 782.83 135.968L780.859 135.632C772.928 182.286 764.774 216.505 756.411 238.342L758.278 239.058ZM782.445 135L779.645 132.9L778.445 134.5L781.245 136.6L782.445 135ZM780.015 133.943L782.815 122.743L780.874 122.257L778.074 133.457L780.015 133.943ZM782.845 122.5V118.3H780.845V122.5H782.845ZM782.843 118.353C784.942 78.9441 789.253 49.4767 795.744 29.8895C798.99 20.0941 802.757 12.8436 807.005 8.05755C811.232 3.2951 815.905 0.999987 821.045 0.999987V-1.00001C815.218 -1.00001 810.032 1.63404 805.509 6.72992C801.007 11.8022 797.133 19.3392 793.845 29.2604C787.269 49.1066 782.947 78.7892 780.846 118.247L782.843 118.353ZM978.244 140.7L979.239 140.801L979.258 140.613L979.207 140.43L978.244 140.7ZM974.044 182L973.049 181.899L973.044 181.949V182H974.044ZM974.044 195.3H973.044V195.36L973.051 195.42L974.044 195.3ZM995.744 420.7L994.745 420.752L994.746 420.777L994.749 420.802L995.744 420.7ZM1011.84 495.6H1012.84V494.6H1011.84V495.6ZM987.344 514.5V515.5H987.429L987.513 515.486L987.344 514.5ZM952.344 373.1H953.344V373.046L953.338 372.993L952.344 373.1ZM932.744 191.1H931.744V191.154L931.749 191.207L932.744 191.1ZM956.544 124.2C961.964 124.2 966.337 125.608 969.741 128.353C973.153 131.105 975.687 135.276 977.281 140.97L979.207 140.43C977.534 134.457 974.818 129.878 970.997 126.797C967.168 123.709 962.324 122.2 956.544 122.2V124.2ZM977.249 140.599L973.049 181.899L975.039 182.101L979.239 140.801L977.249 140.599ZM973.044 182V195.3H975.044V182H973.044ZM973.051 195.42C984.717 292.012 991.947 367.119 994.745 420.752L996.742 420.648C993.941 366.947 986.704 291.788 975.037 195.18L973.051 195.42ZM994.749 420.802C997.317 445.778 999.946 464.547 1002.64 477.085C1003.99 483.346 1005.36 488.106 1006.77 491.321C1007.48 492.924 1008.22 494.202 1009.01 495.094C1009.8 495.982 1010.74 496.6 1011.84 496.6V494.6C1011.55 494.6 1011.1 494.438 1010.5 493.766C1009.91 493.097 1009.27 492.034 1008.6 490.517C1007.27 487.49 1005.93 482.887 1004.6 476.665C1001.92 464.237 999.304 445.556 996.739 420.598L994.749 420.802ZM1010.84 495.6C1010.84 500.172 1008.96 503.911 1005.11 506.883C1001.21 509.891 995.268 512.127 987.175 513.514L987.513 515.486C995.753 514.073 1002.06 511.759 1006.33 508.467C1010.64 505.139 1012.84 500.828 1012.84 495.6H1010.84ZM987.344 513.5C981.908 513.5 977.074 510.777 972.834 505.066C968.573 499.328 964.967 490.638 962.064 478.91C956.261 455.464 953.344 420.213 953.344 373.1H951.344C951.344 420.254 954.26 455.702 960.123 479.39C963.053 491.229 966.739 500.213 971.228 506.259C975.738 512.332 981.113 515.5 987.344 515.5V513.5ZM953.338 372.993L933.738 190.993L931.749 191.207L951.35 373.207L953.338 372.993ZM933.744 191.1V184.8H931.744V191.1H933.744ZM933.744 184.8C933.744 164.302 935.728 149.052 939.627 138.96C941.573 133.922 943.974 130.232 946.784 127.807C949.576 125.399 952.814 124.2 956.544 124.2V122.2C952.34 122.2 948.636 123.568 945.478 126.293C942.339 129.001 939.781 133.011 937.761 138.24C933.727 148.682 931.744 164.231 931.744 184.8H933.744Z" fill="#F5F5F5" mask="url(#path-1-outside-1_10_21)"/>
</g>
<defs>
<filter id="filter0_d_10_21" x="0.5" y="0" width="1015.34" height="580.6" filterUnits="userSpaceOnUse" color-interpolation-filters="sRGB">
<feFlood flood-opacity="0" result="BackgroundImageFix"/>
<feColorMatrix in="SourceAlpha" type="matrix" values="0 0 0 0 0 0 0 0 0 0 0 0 0 0 0 0 0 0 127 0" result="hardAlpha"/>
<feOffset dy="4"/>
<feGaussianBlur stdDeviation="2"/>
<feComposite in2="hardAlpha" operator="out"/>
<feColorMatrix type="matrix" values="0 0 0 0 0.00784314 0 0 0 0 0 0 0 0 0 0.00392157 0 0 0 0.12 0"/>
<feBlend mode="normal" in2="BackgroundImageFix" result="effect1_dropShadow_10_21"/>
<feBlend mode="normal" in="SourceGraphic" in2="effect1_dropShadow_10_21" result="shape"/>
</filter>
</defs>
</svg>
