<svg width="1016" height="581" viewBox="0 0 1016 581" fill="none" xmlns="http://www.w3.org/2000/svg">
<g filter="url(#filter0_d_10_21)">
<path d="M157.8 69.3L367.8 56C373.867 56 379.7 61.8333 385.3 73.5C385.3 91.2333 364.767 100.1 323.7 100.1L201.2 107.1L198.4 108.5C210.067 184.567 215.9 329 215.9 541.8C213.567 562.333 206.1 572.6 193.5 572.6C181.367 572.6 174.367 563.267 172.5 544.6V382.2C172.5 273.933 167.6 183.633 157.8 111.3C74.2667 119.233 32.5 128.567 32.5 139.3L26.2 142.1C11.7333 137.9 4.5 130.433 4.5 119.7C4.5 94.0333 55.6 77.2333 157.8 69.3ZM528.663 107.1C537.063 107.1 542.897 114.333 546.163 128.8C546.163 137.2 531.463 148.867 502.063 163.8C465.663 195.533 438.597 250.133 420.863 327.6V340.2C461.463 320.133 490.63 308 508.363 303.8C513.963 303.8 520.73 308.7 528.663 318.5V331.8C528.663 336.933 508.13 347.2 467.063 362.6C436.263 379.4 420.863 388.967 420.863 391.3V397.6C420.863 423.733 437.663 446.367 471.263 465.5L495.063 469.7C510.463 469.7 533.33 460.133 563.663 441H572.063C581.863 445.667 586.763 452.433 586.763 461.3V465.5C557.83 495.833 525.863 511 490.863 511C440.93 511 404.53 477.4 381.663 410.2L337.563 419.3C316.097 416.033 305.363 409.033 305.363 398.3C305.363 387.567 311.663 379.867 324.263 375.2L340.363 378C364.63 371 376.763 365.867 376.763 362.6C376.763 283.267 406.863 209.767 467.063 142.1C497.397 118.767 517.93 107.1 528.663 107.1ZM821.045 -1.33514e-05H823.145C834.811 6.06666 840.645 12.8333 840.645 20.3L823.145 153.3C823.145 201.833 837.611 302.4 866.545 455L901.545 542.5C901.545 548.567 896.645 555.333 886.845 562.8H873.545C864.211 560 850.211 531.3 831.545 476.7C819.411 432.833 807.278 365.167 795.145 273.7H790.945C763.878 353.967 744.745 395.5 733.545 398.3L722.345 401.1C712.545 401.1 700.411 381.967 685.945 343.7H681.045C675.445 458.967 664.478 516.6 648.145 516.6H646.045C631.111 516.6 622.945 504.933 621.545 481.6C633.211 436.8 639.045 390.133 639.045 341.6L620.145 156.1V142.8C620.145 125.067 626.445 116.2 639.045 116.2C657.245 116.2 673.345 151.9 687.345 223.3C707.878 288.167 720.478 323.167 725.145 328.3C735.878 311.5 746.611 281.633 757.345 238.7C765.745 216.767 773.911 182.467 781.845 135.8L779.045 133.7L781.845 122.5V118.3C786.045 39.4333 799.111 -1.33514e-05 821.045 -1.33514e-05ZM956.544 123.2C967.744 123.2 974.977 129.033 978.244 140.7L974.044 182V195.3C985.71 291.9 992.944 367.033 995.744 420.7C1000.88 470.633 1006.24 495.6 1011.84 495.6C1011.84 505.4 1003.68 511.7 987.344 514.5C964.01 514.5 952.344 467.367 952.344 373.1L932.744 191.1V184.8C932.744 143.733 940.677 123.2 956.544 123.2Z" fill="#F5F5F5"/>
</g>
<defs>
<filter id="filter0_d_10_21" x="0.5" y="0" width="1015.34" height="580.6" filterUnits="userSpaceOnUse" color-interpolation-filters="sRGB">
<feFlood flood-opacity="0" result="BackgroundImageFix"/>
<feColorMatrix in="SourceAlpha" type="matrix" values="0 0 0 0 0 0 0 0 0 0 0 0 0 0 0 0 0 0 127 0" result="hardAlpha"/>
<feOffset dy="4"/>
<feGaussianBlur stdDeviation="2"/>
<feComposite in2="hardAlpha" operator="out"/>
<feColorMatrix type="matrix" values="0 0 0 0 0.00784314 0 0 0 0 0 0 0 0 0 0.00392157 0 0 0 0.12 0"/>
<feBlend mode="normal" in2="BackgroundImageFix" result="effect1_dropShadow_10_21"/>
<feBlend mode="normal" in="SourceGraphic" in2="effect1_dropShadow_10_21" result="shape"/>
</filter>
</defs>
</svg>
