<svg width="187" height="225" viewBox="0 0 187 225" fill="none" xmlns="http://www.w3.org/2000/svg">
<path id="thirdDottedLine" d="M137.23 218.013C136.961 218.796 137.378 219.65 138.161 219.919L150.929 224.305C151.712 224.575 152.566 224.158 152.835 223.374C153.104 222.591 152.687 221.737 151.904 221.468L140.555 217.569L144.454 206.22C144.723 205.437 144.306 204.583 143.523 204.314C142.739 204.045 141.886 204.462 141.617 205.245L137.23 218.013ZM0.184695 3.42661C1.14193 3.73813 2.09591 4.05152 3.04661 4.36674L3.99079 1.51919C3.0348 1.20221 2.07557 0.887103 1.11307 0.57387L0.184695 3.42661ZM8.71157 6.28003C10.5867 6.92505 12.4487 7.57725 14.2975 8.23645L15.305 5.41072C13.4457 4.74773 11.5731 4.09182 9.68738 3.44317L8.71157 6.28003ZM19.9217 10.2785C21.7956 10.9712 23.6555 11.6712 25.501 12.3781L26.5742 9.57665C24.7176 8.86545 22.8468 8.16137 20.9618 7.46458L19.9217 10.2785ZM31.007 14.5248C32.8782 15.2672 34.7342 16.0168 36.5748 16.7735L37.7155 13.9988C35.8634 13.2374 33.996 12.4832 32.1134 11.7362L31.007 14.5248ZM42.0504 19.0643C43.8871 19.8463 45.7078 20.6353 47.5125 21.431L48.7228 18.686C46.9064 17.8851 45.0739 17.091 43.2255 16.3041L42.0504 19.0643ZM52.9631 23.8772C54.7633 24.6994 56.5468 25.5284 58.3135 26.3639L59.5961 23.6519C57.8173 22.8107 56.0217 21.9761 54.2095 21.1483L52.9631 23.8772ZM63.7243 28.9689C65.5121 29.8451 67.2818 30.728 69.0334 31.6173L70.3915 28.9423C68.6273 28.0466 66.8449 27.1574 65.0445 26.275L63.7243 28.9689ZM74.3234 34.3518C76.0954 35.2843 77.8479 36.2235 79.5805 37.1689L81.0175 34.5354C79.2715 33.5827 77.5058 32.6365 75.7205 31.697L74.3234 34.3518ZM84.7477 40.0401C86.4999 41.0315 88.2307 42.0294 89.9399 43.0334L91.4594 40.4467C89.736 39.4344 87.9912 38.4284 86.2251 37.4291L84.7477 40.0401ZM95.0029 46.0635C96.7228 47.1123 98.4194 48.1672 100.093 49.2279L101.699 46.6941C100.011 45.624 98.2993 44.5599 96.5648 43.5022L95.0029 46.0635ZM105.063 52.4408C106.739 53.5455 108.39 54.6559 110.016 55.7718L111.713 53.2985C110.072 52.1718 108.406 51.0509 106.714 49.9361L105.063 52.4408ZM114.873 59.1753C116.502 60.3407 118.104 61.5115 119.678 62.6872L121.473 60.2834C119.882 59.0954 118.264 57.9125 116.618 56.7354L114.873 59.1753ZM124.396 66.2891C125.974 67.521 127.523 68.7576 129.041 69.9987L130.939 67.676C129.404 66.4205 127.838 65.1698 126.242 63.9243L124.396 66.2891ZM133.589 73.8066C135.11 75.1115 136.598 76.4206 138.053 77.7334L140.063 75.5062C138.589 74.1763 137.082 72.8505 135.542 71.5296L133.589 73.8066ZM142.392 81.7538C143.847 83.1392 145.266 84.5281 146.647 85.9197L148.776 83.8065C147.375 82.3942 145.936 80.9855 144.46 79.5808L142.392 81.7538ZM150.729 90.1575C152.106 91.6315 153.441 93.1078 154.734 94.5857L156.992 92.6106C155.677 91.1075 154.32 89.6068 152.921 88.1094L150.729 90.1575ZM158.532 99.0821C159.801 100.64 161.022 102.198 162.196 103.756L164.592 101.951C163.395 100.362 162.15 98.7733 160.857 97.1871L158.532 99.0821ZM165.658 108.553C166.785 110.186 167.859 111.817 168.879 113.446L171.422 111.854C170.377 110.186 169.279 108.517 168.127 106.849L165.658 108.553ZM171.91 118.56C172.884 120.303 173.796 122.042 174.645 123.776L177.34 122.457C176.466 120.673 175.529 118.885 174.529 117.096L171.91 118.56ZM177.062 129.103C177.833 130.947 178.53 132.784 179.155 134.612L181.994 133.643C181.347 131.749 180.626 129.85 179.831 127.947L177.062 129.103ZM180.852 140.235C181.352 142.15 181.77 144.053 182.105 145.943L185.059 145.42C184.71 143.448 184.275 141.466 183.754 139.476L180.852 140.235ZM182.871 151.717C183.042 153.674 183.12 155.614 183.105 157.537L186.105 157.561C186.121 155.541 186.039 153.505 185.859 151.455L182.871 151.717ZM182.765 163.352C182.552 165.284 182.24 167.196 181.827 169.085L184.758 169.726C185.193 167.732 185.523 165.716 185.747 163.68L182.765 163.352ZM180.287 174.679C179.678 176.504 178.969 178.306 178.158 180.082L180.887 181.328C181.742 179.455 182.49 177.555 183.132 175.629L180.287 174.679ZM175.47 185.251C174.501 186.903 173.438 188.532 172.279 190.134L174.71 191.892C175.924 190.214 177.04 188.505 178.058 186.768L175.47 185.251ZM168.666 194.686C167.416 196.127 166.082 197.544 164.663 198.936L166.763 201.078C168.238 199.631 169.628 198.155 170.932 196.652L168.666 194.686ZM160.307 202.9C158.846 204.136 157.312 205.349 155.704 206.538L157.488 208.95C159.147 207.723 160.733 206.469 162.245 205.19L160.307 202.9ZM150.898 209.873C149.276 210.932 147.589 211.968 145.837 212.982L147.339 215.578C149.136 214.539 150.869 213.474 152.537 212.386L150.898 209.873ZM140.694 215.794C139.807 216.252 138.906 216.705 137.99 217.152L139.307 219.848C140.243 219.391 141.164 218.928 142.071 218.459L140.694 215.794Z" fill="#9CAFFE"/>
</svg>
