<svg width="181" height="165" viewBox="0 0 181 165" fill="none" xmlns="http://www.w3.org/2000/svg">
<g id="welcome_page_iconClick" filter="url(#filter0_d_15_123)">
<g id="eyebrows">
<path id="Vector 26" d="M116.388 79.6735C113.846 78.3013 113.081 75.5584 118.463 76.6445C123.54 77.6265 121.925 77.0158 127.418 78.3675C132.912 79.7193 130.685 82.7475 128.259 82.451C125.361 82.0969 118.93 81.0457 116.388 79.6735Z" fill="#F5F5F5" stroke="#F5F5F5" stroke-width="2"/>
<path id="Vector 27" d="M56.8083 68.0055C54.4821 66.2412 56.0791 64.1275 57.6214 64.6552C58.8436 64.9945 62.5963 66.2245 67.8287 68.4299C73.0611 70.6353 70.7826 73.0516 68.6211 72.4308C65.8151 71.625 59.1344 69.7697 56.8083 68.0055Z" fill="#F5F5F5" stroke="#F5F5F5" stroke-width="2"/>
</g>
<g id="lashes">
<path id="lashes_2" d="M124.869 99.9605L125.786 102.527M126.903 99.1162L127.726 100.897" stroke="#F5F5F5"/>
</g>
<g id="eyes">
<path id="Vector 29" d="M123.378 93.7813C120.237 97.2654 118.56 94.5009 118.114 92.6832L120.186 93.9889L120.557 92.8568C120.616 92.0404 121.263 91.0823 123.378 93.7813Z" fill="black" stroke="#F5F5F5" stroke-width="2"/>
<path id="Vector 30" d="M55.9959 79.6646C56.4664 84.3321 59.4545 83.0962 60.8897 81.8949L58.4467 81.7213L58.8177 80.5892C59.2531 79.896 59.2983 78.7407 55.9959 79.6646Z" fill="black" stroke="#F5F5F5" stroke-width="2"/>
</g>
<g id="headphones">
<path id="Vector 31" d="M38.6008 53.1888C38.9871 50.9986 41.4277 44.9182 42.0293 44.8702M42.0293 44.8702C51.139 32.2316 81.0227 9.90521 115.161 25.415C148.312 35.0411 154.67 67.0375 152.332 81.588M42.0293 44.8702C44.6776 46.8963 45.7946 47.0593 47.4193 49.5559M152.332 81.588C151.892 79.8992 146.932 76.1704 146.548 77.7839M152.332 81.588L150.38 87.5465M146.548 77.7839C145.362 82.7677 145.282 82.9989 145.3 84.2919L145.506 86.3274M146.548 77.7839C148.532 66.3353 140.656 40.41 108.019 30.0255C75.3816 19.6409 54.0203 38.7189 47.4193 49.5559M47.4193 49.5559L45.2851 54.2459" stroke="#F5F5F5" stroke-width="4"/>
<path id="Vector 34" d="M158.407 111.327C165.336 92.3238 150.63 87.5908 145.275 85.7508C146.109 99.7953 138.341 114.773 134.353 120.506C136.834 122.836 152.749 126.844 158.407 111.327Z" stroke="#F5F5F5" stroke-width="4"/>
<path id="Vector 35" d="M17.9359 67.4747C23.5952 48.0558 38.2512 52.9432 43.6569 54.6289C34.6732 65.4566 32.0721 82.127 31.8946 89.1088C28.5157 89.5187 13.3146 83.3314 17.9359 67.4747Z" stroke="#F5F5F5" stroke-width="4"/>
<path id="Vector 42" d="M45.6925 54.075L46.8367 57.0203" stroke="#F5F5F5" stroke-width="4"/>
<path id="Vector 43" d="M144.639 84.5322L139.757 86.7095" stroke="#F5F5F5" stroke-width="4"/>
<path id="Vector 32" d="M30.7992 88.427C31.1243 90.296 32.5657 93.7646 35.7311 92.6867C36.7141 84.3221 34.7688 79.5302 47.5765 56.5336" stroke="#F5F5F5" stroke-width="4"/>
<path id="Vector 33" d="M135.015 119.239C133.521 120.431 130.064 122.077 128.186 119.118C132.881 112.129 136.874 111.844 141.524 85.7827" stroke="#F5F5F5" stroke-width="4"/>
</g>
<g id="mouth">
<path id="Vector 37" d="M85.5808 88.9763L90.4188 92.4499L95.8689 90.8364" stroke="#F5F5F5" stroke-width="2"/>
<path id="Vector 38" d="M85.5999 86.3388C85.9858 87.4427 86.1567 89.7737 83.7525 90.2657" stroke="#F5F5F5" stroke-width="2"/>
</g>
<g id="hair">
<g id="Vector 41">
<path d="M55.0422 45.7388C51.318 46.3719 47.8875 56.7287 46.7833 60.4019L50.3356 58.2833L54.0955 56.923L61.4557 53.4311L64.792 51.5728L62.4175 47.018C61.5453 45.0784 58.7664 45.1057 55.0422 45.7388Z" fill="#F5F5F5"/>
<path d="M66.6028 51.4107L62.2424 42.8345C61.7242 38.4049 68.7152 41.2155 70.5617 42.6111C70.4019 41.8399 71.1104 40.3081 75.2234 40.3506C79.3363 40.3932 81.5539 42.1418 82.1485 43.0109L79.2709 47.8784L71.3481 49.4056L66.6028 51.4107Z" fill="#F5F5F5"/>
<path d="M84.5848 45.7646C85.7052 43.3695 83.8154 41.3023 82.7305 40.5682C84.5005 38.9074 87.6586 39.593 89.0163 40.1435L95.5194 46.0176L84.9812 48.4272C84.3822 48.5377 83.4644 48.1597 84.5848 45.7646Z" fill="#F5F5F5"/>
<path d="M98.3479 47.6232L97.0099 45.5109C96.2988 43.3895 99.9607 42.7009 103.455 41.5522C106.954 40.402 110.956 43.2389 112.823 45.497L106.874 49.7379L98.3479 47.6232Z" fill="#F5F5F5"/>
<path d="M108.055 51.4988L117.389 46.5237C123.389 47.873 123.022 52.2022 122.088 54.1981L117.753 56.532L116.603 57.5957C115.272 59.0872 111.112 55.0414 110.272 54.3883C109.634 53.8926 107.912 53.0599 108.055 51.4988Z" fill="#F5F5F5"/>
<path d="M135.315 64.8595C129.696 69.5136 119.461 65.225 120.592 60.4792C121.456 56.8529 123.38 55.5115 124.834 55.1595C132.249 52.3911 130.893 56.1782 134.391 58.803C138.044 59.6244 136.276 62.7473 135.315 64.8595C141.265 62.9621 142.378 70.7339 141.875 73.8071L139.313 84.8441L133.994 74.8902L130.593 68.9782L135.315 64.8595Z" fill="#F5F5F5"/>
<path d="M32.3407 86.2221L38.243 80.1964C45.6665 99.5128 55.0149 106.226 85.2928 112.298C115.007 118.257 131.576 106.312 135.339 104.524C136.221 106.827 137.443 112.011 135.279 114.324C138.627 116.932 136.877 120.513 135.583 121.977C136.632 124.787 137.625 121.663 138.578 127.759C139.34 132.636 136.265 134.102 134.632 134.225C135.417 135.259 136.755 137.717 135.834 139.274C134.683 141.222 136.474 142.359 131.249 142.655C130.119 147.401 125.56 143.459 123.423 140.895C122.329 142.12 119.56 143.262 117.233 138.033C114.937 140.458 113.383 141.211 109.726 137.815C107.443 137.302 107.513 139.891 103.529 136.422C99.3397 139.009 97.2223 135.494 96.6874 133.413C96.4934 134.227 95.3087 135.161 92.1217 132.386C87.405 136.031 84.0775 130.577 83.0033 127.394C82.6707 128.79 75.0351 129.988 72.8417 127.858C68.8801 124.011 65.708 130.318 63.7271 127.781C62.7041 128.389 60.6784 128.931 58.6019 127.422C55.5274 128.789 53.6249 127.16 53.0579 126.175C52.0475 127.051 49.6534 128.35 48.1597 126.544C46.978 128.043 45.0584 126.582 44.2463 125.664L39.5847 127.925C38.602 128.684 36.1175 129.498 34.0407 126.678C31.6823 128.5 30.6751 124.941 30.4663 122.933C29.9674 125.027 20.184 124.692 21.3146 119.946C18.3221 117.508 21.1387 114.913 24.6472 115.089C23.8649 113.565 23.8047 112.244 28.6441 110.391C24.4303 103.561 29.5972 97.7375 32.1359 95.7348C30.5091 94.4866 31.5946 88.8729 32.3407 86.2221Z" fill="#F5F5F5"/>
<path d="M126.002 55.0782C125.687 55.0364 125.283 55.0508 124.834 55.1595M135.315 64.8595C129.696 69.5136 119.461 65.225 120.592 60.4792C121.456 56.8529 123.38 55.5115 124.834 55.1595M135.315 64.8595C136.276 62.7473 138.044 59.6244 134.391 58.803C130.893 56.1782 132.249 52.3911 124.834 55.1595M135.315 64.8595C141.265 62.9621 142.378 70.7339 141.875 73.8071L139.313 84.8441L133.994 74.8902L130.593 68.9782L135.315 64.8595ZM64.0692 127.548C63.223 128.216 60.9448 129.125 58.6019 127.422C55.5274 128.789 53.6249 127.16 53.0579 126.175C52.0475 127.051 49.6534 128.35 48.1597 126.544C46.978 128.043 45.0584 126.582 44.2463 125.664L39.5847 127.925C38.602 128.684 36.1175 129.498 34.0407 126.678C31.6823 128.5 30.6751 124.941 30.4663 122.933C29.9674 125.027 20.184 124.692 21.3146 119.946C18.3221 117.508 21.1387 114.913 24.6472 115.089C23.8649 113.565 23.8047 112.244 28.6441 110.391C24.4303 103.561 29.5972 97.7375 32.1359 95.7348C30.5091 94.4866 31.5946 88.8729 32.3407 86.2221L38.243 80.1964C45.6665 99.5128 55.0149 106.226 85.2928 112.298C115.007 118.257 131.576 106.312 135.339 104.524C136.221 106.827 137.443 112.011 135.279 114.324C138.627 116.932 136.877 120.513 135.583 121.977C136.632 124.787 137.625 121.663 138.578 127.759C139.34 132.636 136.265 134.102 134.632 134.225C135.417 135.259 136.755 137.717 135.834 139.274C134.683 141.222 136.474 142.359 131.249 142.655C130.119 147.401 125.56 143.459 123.423 140.895C122.329 142.12 119.56 143.262 117.233 138.033C114.937 140.458 113.383 141.211 109.726 137.815C107.443 137.302 107.513 139.891 103.529 136.422C99.3397 139.009 97.2223 135.494 96.6874 133.413C96.4934 134.227 95.3087 135.161 92.1217 132.386C87.405 136.031 84.0775 130.577 83.0033 127.394C82.6707 128.79 75.0351 129.988 72.8417 127.858C68.8801 124.011 65.708 130.318 63.7271 127.781M46.7833 60.4019C47.8875 56.7287 51.318 46.3719 55.0422 45.7388C58.7664 45.1057 61.5453 45.0784 62.4175 47.018L64.792 51.5728L61.4557 53.4311L54.0955 56.923L50.3356 58.2833L46.7833 60.4019ZM62.2424 42.8345L66.6028 51.4107L71.3481 49.4056L79.2709 47.8784L82.1485 43.0109C81.5539 42.1418 79.3363 40.3932 75.2234 40.3506C71.1104 40.3081 70.4019 41.8399 70.5617 42.6111C68.7152 41.2155 61.7242 38.4049 62.2424 42.8345ZM82.7305 40.5682C83.8154 41.3023 85.7052 43.3695 84.5848 45.7646C83.4644 48.1597 84.3822 48.5377 84.9812 48.4272L95.5194 46.0176L89.0163 40.1435C87.6586 39.593 84.5005 38.9074 82.7305 40.5682ZM97.0099 45.5109L98.3479 47.6232L106.874 49.7379L112.823 45.497C110.956 43.2389 106.954 40.402 103.455 41.5522C99.9607 42.7009 96.2988 43.3895 97.0099 45.5109ZM117.389 46.5237L108.055 51.4988C107.912 53.0599 109.634 53.8926 110.272 54.3883C111.112 55.0414 115.272 59.0872 116.603 57.5957L117.753 56.532L122.088 54.1981C123.022 52.2022 123.389 47.873 117.389 46.5237Z" stroke="#F5F5F5" stroke-width="4"/>
</g>
<path id="Vector 36" d="M39.6393 82.2058C33.5176 57.7009 75.3309 47.6985 97.6926 46.49C116.381 53.4488 152.118 78.9463 135.12 103.879C122.08 123.006 47.2915 112.837 39.6393 82.2058Z" stroke="#F5F5F5" stroke-width="4"/>
</g>
</g>
<defs>
<filter id="filter0_d_15_123" x="11.0612" y="18.1289" width="155.156" height="136.745" filterUnits="userSpaceOnUse" color-interpolation-filters="sRGB">
<feFlood flood-opacity="0" result="BackgroundImageFix"/>
<feColorMatrix in="SourceAlpha" type="matrix" values="0 0 0 0 0 0 0 0 0 0 0 0 0 0 0 0 0 0 127 0" result="hardAlpha"/>
<feOffset dy="4"/>
<feGaussianBlur stdDeviation="2"/>
<feComposite in2="hardAlpha" operator="out"/>
<feColorMatrix type="matrix" values="0 0 0 0 0 0 0 0 0 0 0 0 0 0 0 0 0 0 0.12 0"/>
<feBlend mode="normal" in2="BackgroundImageFix" result="effect1_dropShadow_15_123"/>
<feBlend mode="normal" in="SourceGraphic" in2="effect1_dropShadow_15_123" result="shape"/>
</filter>
</defs>
</svg>
