<svg width="181" height="165" viewBox="0 0 181 165" fill="none" xmlns="http://www.w3.org/2000/svg">
<g filter="url(#filter0_d_15_123)">
<path d="M116.388 79.6735C113.846 78.3013 113.081 75.5584 118.463 76.6445C123.54 77.6265 121.925 77.0158 127.419 78.3675C132.912 79.7193 130.686 82.7475 128.259 82.451C125.361 82.0969 118.93 81.0457 116.388 79.6735Z" fill="#F5F5F5" stroke="#F5F5F5" stroke-width="2"/>
<path d="M56.8084 68.0055C54.4822 66.2412 56.0793 64.1275 57.6215 64.6552C58.8438 64.9945 62.5964 66.2245 67.8288 68.4299C73.0613 70.6353 70.7827 73.0516 68.6213 72.4308C65.8153 71.625 59.1346 69.7697 56.8084 68.0055Z" fill="#F5F5F5" stroke="#F5F5F5" stroke-width="2"/>
<path d="M124.869 99.9605L125.786 102.527M126.904 99.1162L127.726 100.897" stroke="#F5F5F5"/>
<path d="M123.379 93.7813C120.237 97.2654 118.56 94.5009 118.114 92.6832L120.186 93.9889L120.557 92.8568C120.616 92.0404 121.263 91.0823 123.379 93.7813Z" fill="black" stroke="#F5F5F5" stroke-width="2"/>
<path d="M55.9959 79.6646C56.4664 84.3321 59.4545 83.0962 60.8897 81.8949L58.4467 81.7213L58.8177 80.5892C59.2531 79.896 59.2983 78.7407 55.9959 79.6646Z" fill="black" stroke="#F5F5F5" stroke-width="2"/>
<path d="M38.601 53.1888C38.9874 50.9986 41.4279 44.9182 42.0296 44.8702M42.0296 44.8702C51.1392 32.2316 81.023 9.90521 115.161 25.415C148.312 35.0411 154.671 67.0375 152.332 81.588M42.0296 44.8702C44.6779 46.8963 45.7948 47.0593 47.4195 49.5559M152.332 81.588C151.892 79.8992 146.932 76.1704 146.548 77.7839M152.332 81.588L150.38 87.5465M146.548 77.7839C145.362 82.7677 145.282 82.9989 145.3 84.2919L145.507 86.3274M146.548 77.7839C148.533 66.3353 140.657 40.41 108.019 30.0255C75.3819 19.6409 54.0205 38.7189 47.4195 49.5559M47.4195 49.5559L45.2853 54.2459" stroke="#F5F5F5" stroke-width="4"/>
<path d="M30.7995 88.427C31.1245 90.296 32.566 93.7646 35.7314 92.6867C36.7143 84.3221 34.769 79.5302 47.5767 56.5336" stroke="#F5F5F5" stroke-width="4"/>
<path d="M135.015 119.239C133.521 120.431 130.064 122.077 128.186 119.118C132.881 112.129 136.874 111.844 141.525 85.7827" stroke="#F5F5F5" stroke-width="4"/>
<path d="M158.407 111.327C165.337 92.3238 150.63 87.5908 145.275 85.7508C146.109 99.7953 138.341 114.773 134.353 120.506C136.834 122.836 152.749 126.844 158.407 111.327Z" stroke="#F5F5F5" stroke-width="4"/>
<path d="M17.9359 67.4747C23.5952 48.0558 38.2512 52.9432 43.6569 54.6289C34.6732 65.4566 32.0721 82.127 31.8946 89.1088C28.5157 89.5187 13.3146 83.3314 17.9359 67.4747Z" stroke="#F5F5F5" stroke-width="4"/>
<path d="M39.6396 82.2058C33.5179 57.7009 75.3312 47.6985 97.6929 46.49C116.381 53.4488 152.118 78.9463 135.12 103.879C122.081 123.006 47.2917 112.837 39.6396 82.2058Z" stroke="#F5F5F5" stroke-width="4"/>
<path d="M85.5811 88.9763L90.419 92.4499L95.8691 90.8364" stroke="#F5F5F5" stroke-width="2"/>
<path d="M85.6001 86.3388C85.9861 87.4427 86.1569 89.7737 83.7528 90.2657" stroke="#F5F5F5" stroke-width="2"/>
<path d="M55.0423 45.7388C51.3182 46.3719 47.8876 56.7287 46.7834 60.4019L50.3357 58.2833L54.0957 56.923L61.4558 53.4311L64.7921 51.5728L62.4176 47.018C61.5455 45.0784 58.7665 45.1057 55.0423 45.7388Z" fill="#F5F5F5"/>
<path d="M66.6029 51.4107L62.2425 42.8345C61.7243 38.4049 68.7153 41.2155 70.5618 42.6111C70.402 41.8399 71.1105 40.3081 75.2235 40.3506C79.3364 40.3932 81.554 42.1418 82.1487 43.0109L79.271 47.8784L71.3482 49.4056L66.6029 51.4107Z" fill="#F5F5F5"/>
<path d="M84.5849 45.7646C85.7053 43.3695 83.8155 41.3023 82.7306 40.5682C84.5007 38.9074 87.6587 39.593 89.0164 40.1435L95.5195 46.0176L84.9813 48.4272C84.3823 48.5376 83.4645 48.1597 84.5849 45.7646Z" fill="#F5F5F5"/>
<path d="M98.348 47.6232L97.01 45.5109C96.299 43.3895 99.9608 42.7009 103.455 41.5522C106.954 40.402 110.956 43.2389 112.823 45.497L106.874 49.7379L98.348 47.6232Z" fill="#F5F5F5"/>
<path d="M108.055 51.4988L117.389 46.5237C123.389 47.873 123.022 52.2022 122.088 54.1981L117.753 56.532L116.603 57.5957C115.272 59.0872 111.113 55.0414 110.272 54.3883C109.634 53.8926 107.912 53.0599 108.055 51.4988Z" fill="#F5F5F5"/>
<path d="M135.315 64.8595C129.696 69.5136 119.461 65.225 120.592 60.4792C121.456 56.8529 123.38 55.5115 124.835 55.1595C132.249 52.3911 130.894 56.1782 134.391 58.803C138.044 59.6244 136.277 62.7473 135.315 64.8595C141.265 62.9621 142.378 70.7339 141.875 73.8071L139.313 84.844L133.994 74.8902L130.593 68.9782L135.315 64.8595Z" fill="#F5F5F5"/>
<path d="M32.3409 86.2221L38.2431 80.1964C45.6666 99.5128 55.0151 106.226 85.293 112.298C115.008 118.257 131.576 106.312 135.339 104.524C136.221 106.827 137.443 112.011 135.279 114.324C138.627 116.932 136.877 120.513 135.584 121.977C136.632 124.787 137.625 121.663 138.578 127.759C139.34 132.636 136.265 134.102 134.632 134.225C135.417 135.259 136.755 137.717 135.834 139.274C134.683 141.222 136.474 142.359 131.25 142.655C130.119 147.401 125.561 143.459 123.423 140.895C122.329 142.12 119.56 143.262 117.233 138.033C114.937 140.458 113.383 141.211 109.726 137.815C107.443 137.302 107.513 139.891 103.53 136.422C99.3398 139.009 97.2225 135.494 96.6875 133.413C96.4935 134.227 95.3088 135.161 92.1218 132.386C87.4052 136.031 84.0776 130.577 83.0034 127.394C82.6709 128.79 75.0352 129.988 72.8418 127.858C68.8802 124.011 65.7081 130.318 63.7272 127.781C62.7042 128.389 60.6786 128.931 58.602 127.422C55.5276 128.789 53.625 127.16 53.058 126.175C52.0477 127.051 49.6535 128.35 48.1599 126.544C46.9781 128.043 45.0585 126.582 44.2464 125.664L39.5848 127.925C38.6022 128.684 36.1177 129.498 34.0408 126.678C31.6825 128.5 30.6752 124.941 30.4664 122.933C29.9676 125.027 20.1841 124.692 21.3148 119.946C18.3222 117.508 21.1388 114.913 24.6473 115.089C23.8651 113.565 23.8048 112.244 28.6442 110.391C24.4304 103.561 29.5973 97.7374 32.136 95.7348C30.5093 94.4866 31.5948 88.8729 32.3409 86.2221Z" fill="#F5F5F5"/>
<path d="M126.002 55.0782C125.688 55.0364 125.283 55.0508 124.835 55.1595M135.315 64.8595C129.696 69.5136 119.461 65.225 120.592 60.4792C121.456 56.8529 123.38 55.5115 124.835 55.1595M135.315 64.8595C136.277 62.7473 138.044 59.6244 134.391 58.803C130.894 56.1782 132.249 52.3911 124.835 55.1595M135.315 64.8595C141.265 62.9621 142.378 70.7339 141.875 73.8071L139.313 84.8441L133.994 74.8902L130.593 68.9782L135.315 64.8595ZM64.0693 127.548C63.2231 128.216 60.9449 129.125 58.602 127.422C55.5276 128.789 53.625 127.16 53.058 126.175C52.0477 127.051 49.6535 128.35 48.1599 126.544C46.9781 128.043 45.0585 126.582 44.2464 125.664L39.5848 127.925C38.6022 128.684 36.1177 129.498 34.0408 126.678C31.6825 128.5 30.6752 124.941 30.4664 122.933C29.9676 125.027 20.1841 124.692 21.3148 119.946C18.3222 117.508 21.1388 114.913 24.6473 115.089C23.8651 113.565 23.8048 112.244 28.6442 110.391C24.4304 103.561 29.5973 97.7374 32.136 95.7348C30.5093 94.4866 31.5948 88.8729 32.3409 86.2221L38.2431 80.1964C45.6666 99.5128 55.0151 106.226 85.293 112.298C115.008 118.257 131.576 106.312 135.339 104.524C136.221 106.827 137.443 112.011 135.279 114.324C138.627 116.932 136.877 120.513 135.584 121.977C136.632 124.787 137.625 121.663 138.578 127.759C139.34 132.636 136.265 134.102 134.632 134.225C135.417 135.259 136.755 137.717 135.834 139.274C134.683 141.222 136.474 142.359 131.25 142.655C130.119 147.401 125.561 143.459 123.423 140.895C122.329 142.12 119.56 143.262 117.233 138.033C114.937 140.458 113.383 141.211 109.726 137.815C107.443 137.302 107.513 139.891 103.53 136.422C99.3398 139.009 97.2225 135.494 96.6875 133.413C96.4935 134.227 95.3088 135.161 92.1218 132.386C87.4052 136.031 84.0776 130.577 83.0034 127.394C82.6709 128.79 75.0352 129.988 72.8418 127.858C68.8802 124.011 65.7081 130.318 63.7272 127.781M46.7834 60.4019C47.8876 56.7287 51.3182 46.3719 55.0423 45.7388C58.7665 45.1057 61.5455 45.0784 62.4176 47.018L64.7921 51.5728L61.4558 53.4311L54.0957 56.923L50.3357 58.2833L46.7834 60.4019ZM62.2425 42.8345L66.6029 51.4107L71.3482 49.4056L79.271 47.8784L82.1487 43.0109C81.554 42.1418 79.3364 40.3932 75.2235 40.3506C71.1105 40.3081 70.402 41.8399 70.5618 42.6111C68.7153 41.2155 61.7243 38.4049 62.2425 42.8345ZM82.7306 40.5682C83.8155 41.3023 85.7053 43.3695 84.5849 45.7646C83.4645 48.1597 84.3823 48.5377 84.9813 48.4272L95.5195 46.0176L89.0164 40.1435C87.6587 39.593 84.5007 38.9074 82.7306 40.5682ZM97.01 45.5109L98.348 47.6232L106.874 49.7379L112.823 45.497C110.956 43.2389 106.954 40.402 103.455 41.5522C99.9608 42.7009 96.299 43.3895 97.01 45.5109ZM117.389 46.5237L108.055 51.4988C107.912 53.0599 109.634 53.8926 110.272 54.3883C111.113 55.0414 115.272 59.0872 116.603 57.5957L117.753 56.532L122.088 54.1981C123.022 52.2022 123.389 47.873 117.389 46.5237Z" stroke="#F5F5F5" stroke-width="4"/>
<path d="M45.6926 54.075L46.8368 57.0203" stroke="#F5F5F5" stroke-width="4"/>
<path d="M144.639 84.5322L139.757 86.7095" stroke="#F5F5F5" stroke-width="4"/>
</g>
<defs>
<filter id="filter0_d_15_123" x="11.061" y="18.1289" width="155.156" height="136.745" filterUnits="userSpaceOnUse" color-interpolation-filters="sRGB">
<feFlood flood-opacity="0" result="BackgroundImageFix"/>
<feColorMatrix in="SourceAlpha" type="matrix" values="0 0 0 0 0 0 0 0 0 0 0 0 0 0 0 0 0 0 127 0" result="hardAlpha"/>
<feOffset dy="4"/>
<feGaussianBlur stdDeviation="2"/>
<feComposite in2="hardAlpha" operator="out"/>
<feColorMatrix type="matrix" values="0 0 0 0 0 0 0 0 0 0 0 0 0 0 0 0 0 0 0.12 0"/>
<feBlend mode="normal" in2="BackgroundImageFix" result="effect1_dropShadow_15_123"/>
<feBlend mode="normal" in="SourceGraphic" in2="effect1_dropShadow_15_123" result="shape"/>
</filter>
</defs>
</svg>
