<svg width="106" height="98" viewBox="0 0 106 98" fill="none" xmlns="http://www.w3.org/2000/svg">
<g filter="url(#filter0_d_50_872)">
<path d="M67.2494 37.1847C65.3965 37.095 64.1929 35.7186 67.6109 34.855C70.8239 34.0156 69.7192 34.1098 73.2755 33.3692C76.8317 32.6285 76.3823 34.9997 74.8946 35.5011C73.1183 36.0996 69.1023 37.2743 67.2494 37.1847Z" fill="#F14D08" stroke="#F14D08" stroke-width="3"/>
<path d="M29.5073 46.9512C27.6708 46.5746 28.0095 44.9075 29.0491 44.7854C29.8511 44.643 32.3655 44.3145 36.0076 44.1406C39.6496 43.9667 39.0001 45.9981 37.5761 46.238C35.7275 46.5495 31.3438 47.3279 29.5073 46.9512Z" fill="#F14D08" stroke="#F14D08" stroke-width="3"/>
<path d="M77.7877 46.5818L79.0304 47.8139M78.7317 45.5287L79.702 46.3316" stroke="#F14D08" stroke-width="2"/>
<path d="M75.2106 43.4167C74.3575 46.3057 72.6194 45.1699 71.8569 44.2408L73.419 44.4224L73.3199 43.6638C73.1277 43.1746 73.2368 42.4402 75.2106 43.4167Z" fill="#F5F5F5" stroke="#F5F5F5" stroke-width="3"/>
<path d="M32.2703 53.9291C33.8373 56.5018 35.2251 54.9573 35.7231 53.8635L34.2602 54.4405L34.161 53.682C34.2209 53.1598 33.9267 52.4781 32.2703 53.9291Z" fill="#F5F5F5" stroke="#F5F5F5" stroke-width="3"/>
<path d="M14.8532 43.4198C14.4695 42.0441 14.1966 37.8458 14.5317 37.6511M14.5317 37.6511C16.3024 27.8049 27.4177 6.58642 51.4904 6.10106C73.3596 2.4819 85.9163 19.2492 88.5976 28.3247M14.5317 37.6511C16.6274 38.09 17.3195 37.8747 18.9529 38.87M88.5976 28.3247C87.8742 27.4688 83.9675 26.6848 84.1926 27.7258M88.5976 28.3247L89.1195 32.317M84.1926 27.7258C84.888 30.941 84.9058 31.0972 85.2748 31.841L85.9588 32.9626M84.1926 27.7258C82.1667 20.5449 70.415 7.71446 48.6329 10.7519C26.8507 13.7894 19.7703 30.7629 18.9529 38.87M18.9529 38.87L19.0176 42.1781" stroke="#F5F5F5" stroke-width="3"/>
<path d="M20.1078 65.9917C20.8144 66.984 22.6112 68.5931 24.1455 67.0909C22.395 61.9739 19.9393 59.7382 20.979 42.8674" stroke="#F5F5F5" stroke-width="3"/>
<path d="M88.5479 54.1466C88.0135 55.2517 86.4676 57.1637 84.5594 55.9706C85.3398 50.6207 87.5737 49.3484 83.0391 32.9651" stroke="#F5F5F5" stroke-width="3"/>
<path d="M100.364 43.8631C99.1067 30.9358 89.2767 32.2734 85.6649 32.6929C90.0433 40.5955 89.6983 51.4242 88.9784 55.8507C91.0616 56.512 101.39 54.4191 100.364 43.8631Z" stroke="#F5F5F5" stroke-width="3"/>
<path d="M6.84705 57.4247C4.73901 44.6086 14.5826 43.3744 18.1808 42.8514C15.9809 51.6139 19.0979 61.99 20.9314 66.0828C19.0881 67.2573 8.5684 67.8898 6.84705 57.4247Z" stroke="#F5F5F5" stroke-width="3"/>
<path d="M23.5024 59.9369C13.1607 47.4426 34.603 30.053 47.2187 23.1513C59.9722 21.9984 87.7408 26.8541 84.8113 46.0083C82.564 60.7019 36.4295 75.5548 23.5024 59.9369Z" stroke="#F14D08" stroke-width="3"/>
<path d="M51.9874 51.1167L55.7527 51.7867L58.4617 49.3407" stroke="#F14D08" stroke-width="3"/>
<path d="M51.2668 49.5838C51.7965 50.1162 52.5419 51.4188 51.286 52.3705" stroke="#F14D08" stroke-width="3"/>
<path d="M22.309 34.5452C20.3277 35.9448 21.2133 42.8943 21.5925 45.328L23.0622 43.1158L24.8626 41.2851L28.1568 37.2215L29.5736 35.22L26.9352 33.2406C25.8921 32.3591 24.2903 33.1457 22.309 34.5452Z" fill="#F14D08"/>
<path d="M30.5774 34.6239L25.6735 30.8662C24.1449 28.4445 28.9733 28.1334 30.4297 28.4296C30.1233 28.0272 30.1088 26.9436 32.5026 25.8275C34.8964 24.7115 36.6657 25.1092 37.2512 25.4476L36.9345 29.0647L32.7696 32.1465L30.5774 34.6239Z" fill="#F14D08"/>
<path d="M39.4258 26.3667C39.4104 24.6688 37.7427 23.9958 36.9107 23.8715C37.4753 22.4187 39.4944 21.9399 40.4334 21.8822L45.8288 23.4806L40.3939 27.7989C40.0776 28.0289 39.4412 28.0646 39.4258 26.3667Z" fill="#F14D08"/>
<path d="M47.9123 23.626L46.5516 22.7738C45.5514 21.7424 47.4812 20.328 49.1864 18.6935C50.8937 17.0571 53.9982 17.5901 55.7059 18.3801L53.4367 22.4861L47.9123 23.626Z" fill="#F14D08"/>
<path d="M54.6089 23.1785L58.6348 17.7085C62.4843 16.8257 63.4724 19.4348 63.4852 20.8497L61.6215 23.4038L61.2507 24.3387C60.8935 25.5717 57.3623 24.3822 56.6943 24.2371C56.1874 24.1269 54.9591 24.1222 54.6089 23.1785Z" fill="#F14D08"/>
<path d="M74.1024 23.356C72.1389 27.6098 65.0219 27.9646 64.3605 24.9025C63.8551 22.5627 64.5977 21.2521 65.3423 20.6449C68.8685 16.9853 69.1339 19.5544 71.8876 20.1045C74.2308 19.5672 74.0733 21.866 74.1024 23.356C77.0218 20.607 79.8221 24.7993 80.383 26.7187L81.9605 33.8212L76.1194 29.5316L72.5096 27.0511L74.1024 23.356Z" fill="#F14D08"/>
<path d="M20.389 64.2874L22.1362 59.1606C31.7928 68.289 39.0689 69.5843 58.2885 64.7036C77.1506 59.9136 83.4337 48.4006 85.1171 46.3211C86.2664 47.4105 88.4118 50.0741 87.8 52.0135C90.4623 52.5952 90.442 55.1546 90.0991 56.3616C91.4855 57.6978 91.1943 55.613 93.4368 58.8797C95.2309 61.493 93.8564 63.1945 92.9449 63.7186C93.686 64.1 95.1429 65.1522 95.0416 66.3097C94.915 67.7566 96.2675 67.9191 93.3238 69.5393C93.9852 72.6014 90.252 71.5828 88.3028 70.6907C88.0091 71.7032 86.7223 73.1326 83.924 70.7495C83.267 72.7906 82.576 73.658 79.5159 72.7056C78.0514 73.0414 78.8102 74.5215 75.5408 73.6171C73.8319 76.2775 71.6307 74.8288 70.7436 73.7719C70.8571 74.2972 70.4302 75.1671 67.8147 74.4435C66.094 77.8628 62.6541 75.6269 61.1493 74.0815C61.3438 74.9821 57.2539 77.7937 55.3928 77.1684C52.0314 76.0389 51.9436 80.5718 50.0927 79.6517C49.6687 80.2873 48.6461 81.1634 47.0247 80.8649C45.6234 82.5096 44.0698 82.0939 43.4681 81.6805C43.1258 82.4679 42.0998 83.8847 40.7337 83.2527C40.465 84.4486 38.948 84.1348 38.2231 83.8284L36.1503 86.4305C35.7918 87.1429 34.5786 88.3033 32.5937 87.2461C31.7333 88.9557 30.1627 87.1734 29.4849 86.0685C29.7767 87.4194 24.0177 89.9389 23.3563 86.8768C20.9471 86.295 21.8584 84.0104 23.9392 83.1394C23.0636 82.4738 22.6623 81.7253 24.9511 79.31C20.6165 76.5231 21.9938 71.7175 22.9087 69.8535C21.6204 69.5818 20.6921 66.0295 20.389 64.2874Z" fill="#F14D08"/>
<path d="M65.9957 20.274C65.8022 20.337 65.5721 20.4574 65.3423 20.6449M74.1024 23.356C72.1389 27.6098 65.0219 27.9646 64.3605 24.9025C63.8551 22.5627 64.5977 21.2521 65.3423 20.6449M74.1024 23.356C74.0733 21.8661 74.2308 19.5672 71.8876 20.1045C69.1339 19.5544 68.8685 16.9853 65.3423 20.6449M74.1024 23.356C77.0218 20.607 79.8221 24.7993 80.383 26.7187L81.9605 33.8213L76.1194 29.5316L72.5096 27.0511L74.1024 23.356ZM50.2262 79.4219C49.9213 80.0432 48.854 81.2016 47.0247 80.8649C45.6234 82.5096 44.0698 82.0939 43.4681 81.6805C43.1259 82.4679 42.0998 83.8847 40.7337 83.2527C40.465 84.4486 38.948 84.1348 38.2231 83.8284L36.1503 86.4305C35.7918 87.1429 34.5786 88.3033 32.5937 87.2461C31.7333 88.9557 30.1627 87.1734 29.4849 86.0685C29.7767 87.4194 24.0177 89.9389 23.3563 86.8768C20.9471 86.295 21.8584 84.0104 23.9392 83.1394C23.0636 82.4738 22.6623 81.7253 24.9511 79.31C20.6165 76.5231 21.9938 71.7175 22.9087 69.8535C21.6204 69.5818 20.6921 66.0295 20.389 64.2874L22.1362 59.1606C31.7928 68.289 39.0689 69.5843 58.2885 64.7036C77.1505 59.9136 83.4337 48.4006 85.1171 46.3211C86.2664 47.4105 88.4118 50.0741 87.8 52.0135C90.4623 52.5952 90.442 55.1546 90.0991 56.3616C91.4855 57.6978 91.1943 55.613 93.4368 58.8797C95.2309 61.493 93.8564 63.1945 92.9449 63.7186C93.686 64.1 95.1429 65.1522 95.0416 66.3097C94.915 67.7566 96.2675 67.9191 93.3238 69.5393C93.9852 72.6014 90.252 71.5828 88.3028 70.6907C88.0091 71.7032 86.7223 73.1326 83.924 70.7495C83.267 72.7906 82.576 73.658 79.5159 72.7056C78.0514 73.0414 78.8102 74.5215 75.5408 73.6171C73.8319 76.2775 71.6306 74.8288 70.7436 73.7719C70.8571 74.2972 70.4302 75.1671 67.8147 74.4435C66.094 77.8628 62.6541 75.6269 61.1493 74.0815C61.3438 74.9821 57.2539 77.7937 55.3928 77.1684C52.0314 76.0389 51.9436 80.5718 50.0927 79.6517M21.5925 45.328C21.2133 42.8943 20.3277 35.9448 22.309 34.5452C24.2903 33.1457 25.8921 32.3591 26.9352 33.2406L29.5736 35.22L28.1568 37.2215L24.8626 41.2851L23.0622 43.1158L21.5925 45.328ZM25.6735 30.8662L30.5774 34.6239L32.7696 32.1465L36.9345 29.0647L37.2512 25.4476C36.6657 25.1092 34.8964 24.7115 32.5026 25.8275C30.1088 26.9436 30.1233 28.0272 30.4297 28.4296C28.9733 28.1334 24.1449 28.4445 25.6735 30.8662ZM36.9107 23.8715C37.7427 23.9958 39.4104 24.6688 39.4258 26.3667C39.4412 28.0646 40.0776 28.0289 40.3939 27.7989L45.8288 23.4806L40.4334 21.8822C39.4944 21.9399 37.4753 22.4187 36.9107 23.8715ZM46.5516 22.7738L47.9123 23.626L53.4367 22.4861L55.7059 18.3801C53.9982 17.5901 50.8937 17.0571 49.1864 18.6935C47.4812 20.328 45.5514 21.7424 46.5516 22.7738ZM58.6348 17.7085L54.6089 23.1785C54.9591 24.1222 56.1874 24.1269 56.6943 24.2371C57.3623 24.3822 60.8935 25.5717 61.2507 24.3387L61.6215 23.4038L63.4852 20.8497C63.4724 19.4348 62.4843 16.8257 58.6348 17.7085Z" stroke="#F14D08" stroke-width="3"/>
</g>
<defs>
<filter id="filter0_d_50_872" x="1.05884" y="4.09729" width="104.878" height="93.7371" filterUnits="userSpaceOnUse" color-interpolation-filters="sRGB">
<feFlood flood-opacity="0" result="BackgroundImageFix"/>
<feColorMatrix in="SourceAlpha" type="matrix" values="0 0 0 0 0 0 0 0 0 0 0 0 0 0 0 0 0 0 127 0" result="hardAlpha"/>
<feOffset dy="4"/>
<feGaussianBlur stdDeviation="2"/>
<feComposite in2="hardAlpha" operator="out"/>
<feColorMatrix type="matrix" values="0 0 0 0 0 0 0 0 0 0 0 0 0 0 0 0 0 0 0.12 0"/>
<feBlend mode="normal" in2="BackgroundImageFix" result="effect1_dropShadow_50_872"/>
<feBlend mode="normal" in="SourceGraphic" in2="effect1_dropShadow_50_872" result="shape"/>
</filter>
</defs>
</svg>
