<svg width="84" height="30" viewBox="0 0 84 30" fill="none" xmlns="http://www.w3.org/2000/svg">
<path d="M0 11.9H4.095L7.875 21.49L12.32 10.675L17.045 21.525L20.825 11.9H24.92L17.395 29.155L12.355 18.27L7.525 29.155L0 11.9ZM25.5943 19.95C25.5943 18.2933 25.9676 16.835 26.7143 15.575C27.4843 14.315 28.5226 13.335 29.8293 12.635C31.136 11.9117 32.6176 11.55 34.2743 11.55C35.931 11.55 37.401 11.9117 38.6843 12.635C39.991 13.335 41.0293 14.315 41.7993 15.575C42.5693 16.835 42.9543 18.2933 42.9543 19.95C42.9543 21.5833 42.5693 23.0417 41.7993 24.325C41.0293 25.585 39.991 26.5767 38.6843 27.3C37.401 28 35.931 28.35 34.2743 28.35C32.6176 28.35 31.136 28 29.8293 27.3C28.5226 26.5767 27.4843 25.585 26.7143 24.325C25.9676 23.0417 25.5943 21.5833 25.5943 19.95ZM29.4793 19.95C29.4793 20.9533 29.6893 21.84 30.1093 22.61C30.5293 23.3567 31.101 23.9517 31.8243 24.395C32.5476 24.815 33.3643 25.025 34.2743 25.025C35.161 25.025 35.966 24.815 36.6893 24.395C37.436 23.9517 38.0193 23.3567 38.4393 22.61C38.8593 21.84 39.0693 20.9533 39.0693 19.95C39.0693 18.9467 38.8593 18.06 38.4393 17.29C38.0193 16.52 37.436 15.925 36.6893 15.505C35.966 15.085 35.161 14.875 34.2743 14.875C33.3643 14.875 32.5476 15.085 31.8243 15.505C31.101 15.925 30.5293 16.52 30.1093 17.29C29.6893 18.06 29.4793 18.9467 29.4793 19.95ZM50.286 11.9V28H46.541V11.9H50.286ZM55.081 15.925C54.731 15.645 54.4043 15.435 54.101 15.295C53.7976 15.155 53.4126 15.085 52.946 15.085C52.316 15.085 51.8026 15.2483 51.406 15.575C51.0093 15.9017 50.7176 16.3567 50.531 16.94C50.3676 17.5 50.286 18.165 50.286 18.935L49.026 18.2C49.026 16.9167 49.2593 15.785 49.726 14.805C50.216 13.8017 50.8343 13.0083 51.581 12.425C52.351 11.8417 53.1443 11.55 53.961 11.55C54.5443 11.55 55.0926 11.6433 55.606 11.83C56.1193 11.9933 56.551 12.2967 56.901 12.74L55.081 15.925ZM59.3551 0.699999H63.0651V28H59.3551V0.699999ZM68.9801 11.9H73.6001L66.6701 18.55L74.3001 28H69.7151L62.0151 18.55L68.9801 11.9Z" fill="#9CAFFE"/>
<path d="M78.4088 26.215C78.4088 25.5383 78.6421 24.9667 79.1088 24.5C79.5988 24.01 80.1821 23.765 80.8588 23.765C81.5821 23.765 82.1771 24.01 82.6438 24.5C83.1104 24.9667 83.3438 25.5383 83.3438 26.215C83.3438 26.8683 83.1104 27.44 82.6438 27.93C82.1771 28.42 81.5821 28.665 80.8588 28.665C80.1821 28.665 79.5988 28.42 79.1088 27.93C78.6421 27.44 78.4088 26.8683 78.4088 26.215Z" fill="#F14D08"/>
</svg>
