<svg width="186" height="109" viewBox="0 0 186 109" fill="none" xmlns="http://www.w3.org/2000/svg">
<path d="M23.4893 61.5915C23.1145 59.1517 23.6218 51.9062 24.2847 51.6481M24.2847 51.6481C29.9065 35.195 50.5 4.49991 96.5 4.5C140.5 4.5 159.95 34.1162 162.698 50.2462M24.2847 51.6481C28.0322 52.868 29.3564 52.6543 32.1202 54.7228M162.698 50.2462C161.574 48.6197 154.58 48.4146 154.743 50.2462M162.698 50.2462L164 59.6028M154.743 50.2462C155.249 55.9039 155 57.1445 155.5 58.5M154.743 50.2462C152.744 37.5048 134.222 12.9202 93.4452 13.2455C52.6682 13.5708 35.5714 41.0326 32.1202 54.7228M32.1202 54.7228L31.4441 60.3983" stroke="#9CAFFE" stroke-width="9"/>
<path d="M27.7253 101.393C28.7859 103.249 33.3181 105.727 36.5 103.5C34.5113 94.352 29.5339 90.6372 35.5 62L30.5 61" stroke="#9CAFFE" stroke-width="9"/>
<path d="M157.062 97.8818C155.814 99.6534 152.512 102.579 149.291 100.111C152.011 91.1306 154.4 90.0501 150 61L155 59" stroke="#9CAFFE" stroke-width="9"/>
<path d="M180.596 81.4785C181.392 59.0756 163.241 61.0901 156.5 61.0001C162.651 75.5026 159.17 92.0314 156.783 99.4452C160.454 101.043 179.947 99.772 180.596 81.4785Z" stroke="#9CAFFE" stroke-width="9"/>
<path d="M5.40383 83.7663C4.60829 61.3634 23.0025 61.4534 29.7437 61.3634C23.5931 75.8659 26.83 94.3192 29.2173 101.733C25.5463 103.331 6.05343 102.06 5.40383 83.7663Z" stroke="#9CAFFE" stroke-width="9"/>
</svg>
