<svg width="141" height="117" viewBox="0 0 141 117" fill="none" xmlns="http://www.w3.org/2000/svg">
<rect width="141" height="117" fill="#F5F5F5"/>
<g id="Initial Background(Desk Page)" clip-path="url(#clip0_174_341)">
<rect width="1245" height="642" transform="translate(-678 -312)" fill="#F5F5F5"/>
<path id="Vector" opacity="0.2" d="M-668.017 -303V550.083M-599.932 -303V550.083M-528.656 -303V550.083M-457.061 -303V550.083M-385.785 -303V550.083M-313.445 -303V550.083M-252.36 -303V550.083M-181.084 -303V550.083M-104.488 -303V550.083M-38.2121 -303V550.083M33.0641 -303V550.083M101.149 -303V550.083M165.361 -303V550.083M241.957 -303V550.083M314.297 -303V550.083M379.637 -303V550.083M447.721 -303V550.083M517.934 -303V550.083M589.529 -303V550.083M661.869 -303V550.083M775.878 -261.823L-727.025 -260.471M776.157 -209.539L-726.745 -208.186M776.45 -154.804L-726.452 -153.451M776.764 -95.9836L-726.138 -94.6312M777.056 -41.2483L-725.846 -39.8958M777.349 13.4867L-725.553 14.8392M777.628 65.7712L-725.274 67.1237M777.916 119.69L-724.986 121.042M778.23 178.51L-724.672 179.862M778.527 234.062L-724.375 235.414M778.824 289.614L-724.078 290.966M779.104 341.898L-723.799 343.251M779.392 395.817L-723.51 397.169M779.706 454.637L-723.196 455.989M780.003 510.189L-722.899 511.541" stroke="#020001"/>
<g id="Group 24">
<g id="Group 18">
<path id="Vector 83" d="M-189.447 104.235L-145.986 126.619C-144.521 127.373 -142.892 127.754 -141.244 127.727L150.921 122.973" stroke="#9CAFFE" stroke-width="3"/>
</g>
<path id="Vector 92" d="M-189.876 103.664L-189.029 234.516C-189.008 237.73 -187.443 240.739 -184.823 242.601L-144.648 271.162M-144.648 271.162L-143.791 126.837M-144.648 271.162L-48.6332 271.805C-43.0844 271.842 -38.5663 267.354 -38.5663 261.805L-38.5659 188.291C-38.5659 182.768 -34.0887 178.291 -28.5659 178.291L139.5 178.291C145.023 178.291 149.5 173.814 149.5 168.291L149.5 124" stroke="#9CAFFE" stroke-width="3"/>
</g>
<path id="Vector 201" d="M-17 104H1" stroke="#9CAFFE" stroke-width="3"/>
<path id="Vector 202" d="M117 107L150 123" stroke="#9CAFFE" stroke-width="3"/>
<g id="computer">
<g id="Vector 135">
<path d="M31.8762 112.662L8.33183 108.767C4.42246 108.121 1.55519 104.74 1.55519 100.777C1.55519 96.3048 5.18099 92.679 9.65365 92.679L31.8762 92.679L106.196 90.98C111.603 90.8564 116.053 95.2058 116.053 100.614C116.053 105.815 111.926 110.078 106.728 110.246L31.8762 112.662Z" fill="#9CAFFE"/>
<path d="M31.8762 112.662L8.33183 108.767C4.42246 108.121 1.55519 104.74 1.55519 100.777V100.777C1.55519 96.3048 5.18099 92.679 9.65365 92.679L31.8762 92.679M31.8762 112.662L31.8762 92.679M31.8762 112.662L106.728 110.246C111.926 110.078 116.053 105.815 116.053 100.614V100.614C116.053 95.2058 111.603 90.8564 106.196 90.98L31.8762 92.679" stroke="#F5F5F5" stroke-width="3"/>
</g>
<g id="Vector 134">
<path d="M25.7165 11.9312L25.6681 74.241C25.6638 79.8495 30.2719 84.365 35.8792 84.2466L104.274 82.8026C109.689 82.6883 114.029 78.2839 114.063 72.868L114.447 11.9465C114.482 6.39597 109.99 1.87894 104.439 1.88343L35.7084 1.93901C35.3703 1.93928 35.0362 1.95633 34.7068 1.98936C29.6605 2.49537 25.7205 6.75263 25.7165 11.9312Z" fill="#9CAFFE"/>
<path d="M35.124 84.2625L25.5731 83.8842C20.2054 83.6715 15.9648 79.2561 15.9689 73.8842L15.9898 47.0039L16.0164 12.5848C16.0205 7.37789 20.0115 2.95976 25.1974 2.49264C29.1568 2.136 33.1533 1.84307 34.7082 1.98949M114.063 72.868L114.447 11.9465C114.482 6.39597 109.99 1.87894 104.439 1.88343L35.7084 1.93901C30.1917 1.94347 25.7207 6.41457 25.7165 11.9312L25.6681 74.241C25.6638 79.8495 30.2719 84.3649 35.8792 84.2466L104.274 82.8026C109.689 82.6883 114.029 78.2839 114.063 72.868Z" stroke="#9CAFFE" stroke-width="3"/>
</g>
<path id="Vector 132" d="M102.063 28.9419L85.5497 28.9787C80.0268 28.9911 75.5597 33.4782 75.572 39.001L75.6018 52.3696C75.6141 57.8924 80.1013 62.3596 85.6241 62.3472L102.138 62.3104C107.661 62.2981 112.128 57.811 112.116 52.2881L112.086 38.9196C112.073 33.3967 107.586 28.9296 102.063 28.9419Z" fill="#F14D08" stroke="#F5F5F5" stroke-width="3"/>
<path id="Vector 133" d="M102.415 26.3041V26.3041C102.393 23.3837 100.008 21.0341 97.0877 21.0561L53.5269 21.3842C48.0042 21.4258 43.5609 25.9365 43.6025 31.4592L43.8501 64.3379C43.8917 69.8606 48.4025 74.3039 53.9252 74.2624L94.4014 73.9575C99.0253 73.9227 102.746 70.146 102.711 65.5221V65.5221" stroke="#F5F5F5" stroke-width="3"/>
<path id="Line 7" d="M49 22.5046L81 29.5046" stroke="#F5F5F5" stroke-width="2"/>
<line id="Line 8" x1="47.6286" y1="71.0761" x2="77.6286" y2="59.0761" stroke="#F5F5F5" stroke-width="2"/>
<path id="chord" d="M78 100.774C91.3091 97.2619 139 97.266 139 117" stroke="#020001" stroke-width="3"/>
<g id="computerLogo">
</g>
</g>
</g>
<defs>
<clipPath id="clip0_174_341">
<rect width="1245" height="642" fill="white" transform="translate(-678 -312)"/>
</clipPath>
</defs>
</svg>
