<svg width="135" height="120" viewBox="0 0 135 120" fill="none" xmlns="http://www.w3.org/2000/svg">
<g id="computer">
<g id="Vector 135">
<path d="M32.3615 112.663L8.81718 108.767C4.90781 108.121 2.04054 104.74 2.04054 100.778C2.04054 96.3049 5.66634 92.6791 10.139 92.6791L32.3615 92.6791L106.682 90.9801C112.089 90.8565 116.539 95.2059 116.539 100.614C116.539 105.815 112.411 110.078 107.213 110.246L32.3615 112.663Z" fill="#9CAFFE"/>
<path d="M32.3615 112.663L8.81718 108.767C4.90781 108.121 2.04054 104.74 2.04054 100.778V100.778C2.04054 96.3049 5.66634 92.6791 10.139 92.6791L32.3615 92.6791M32.3615 112.663L32.3615 92.6791M32.3615 112.663L107.213 110.246C112.411 110.078 116.539 105.815 116.539 100.614V100.614C116.539 95.2059 112.089 90.8565 106.682 90.9801L32.3615 92.6791" stroke="#F5F5F5" stroke-width="3"/>
</g>
<g id="Vector 134">
<path d="M26.2018 11.9312L26.1535 74.241C26.1491 79.8495 30.7573 84.365 36.3645 84.2466L104.76 82.8026C110.174 82.6883 114.514 78.2839 114.548 72.868L114.933 11.9465C114.968 6.39597 110.475 1.87894 104.925 1.88343L36.1937 1.93901C35.8557 1.93928 35.5215 1.95633 35.1921 1.98936C30.1459 2.49537 26.2058 6.75263 26.2018 11.9312Z" fill="#9CAFFE"/>
<path d="M35.6093 84.2625L26.0584 83.8842C20.6908 83.6715 16.4501 79.2561 16.4543 73.8842L16.4751 47.0039L16.5018 12.5848C16.5058 7.37789 20.4969 2.95976 25.6828 2.49264C29.6422 2.136 33.6386 1.84307 35.1935 1.98949M114.548 72.868L114.933 11.9465C114.968 6.39597 110.475 1.87894 104.925 1.88343L36.1937 1.93901C30.6771 1.94347 26.2061 6.41457 26.2018 11.9312L26.1535 74.241C26.1491 79.8495 30.7573 84.3649 36.3645 84.2466L104.76 82.8026C110.174 82.6883 114.514 78.2839 114.548 72.868Z" stroke="#9CAFFE" stroke-width="3"/>
</g>
<path id="Vector 132" d="M102.549 28.9418L86.035 28.9787C80.5122 28.991 76.045 33.4781 76.0573 39.0009L76.0872 52.3695C76.0995 57.8923 80.5866 62.3595 86.1094 62.3472L102.623 62.3103C108.146 62.298 112.613 57.8109 112.601 52.2881L112.571 38.9195C112.559 33.3967 108.072 28.9295 102.549 28.9418Z" fill="#F14D08" stroke="#F5F5F5" stroke-width="3"/>
<path id="Vector 133" d="M102.901 26.3041V26.3041C102.879 23.3837 100.493 21.0341 97.5731 21.0561L54.0123 21.3842C48.4896 21.4258 44.0463 25.9365 44.0879 31.4592L44.3355 64.3379C44.3771 69.8606 48.8878 74.3039 54.4105 74.2624L94.8867 73.9575C99.5107 73.9227 103.231 70.146 103.196 65.5221V65.5221" stroke="#F5F5F5" stroke-width="3"/>
<path id="Line 7" d="M49.4854 22.5046L81.4853 29.5046" stroke="#F5F5F5" stroke-width="2"/>
<line id="Line 8" x1="48.114" y1="71.0762" x2="78.114" y2="59.0762" stroke="#F5F5F5" stroke-width="2"/>
<path id="chord" d="M78.4854 101.5C90.4854 97.4954 133.485 97.5001 133.485 120" stroke="#020001" stroke-width="3"/>
<g id="computerLogo">
</g>
</g>
</svg>
