<svg width="162" height="163" viewBox="0 0 162 163" fill="none" xmlns="http://www.w3.org/2000/svg">
<g id="TemiCharacter">
<g id="headphoneRightEar">
<path id="Rectangle 18" d="M147.102 45.1167L153.811 47.5297C156.261 48.411 157.949 50.6692 158.1 53.2685L158.507 60.2595C158.801 65.3129 153.461 68.7482 148.984 66.3856L142.458 62.9417C140.529 61.9233 139.239 60.0045 139.024 57.8331L138.434 51.873C137.964 47.1202 142.608 43.5001 147.102 45.1167Z" fill="#020001" stroke="#F5F5F5"/>
<path id="Rectangle 17" d="M130.653 52.9568C130.501 46.1405 137.064 41.1733 143.583 43.1722L149.224 44.9021C153.207 46.1236 156.015 49.6866 156.273 53.8449L156.633 59.6661C157.103 67.2523 149.272 72.5683 142.394 69.332L136.5 66.5584C133.068 64.9435 130.846 61.5261 130.761 57.7342L130.653 52.9568Z" fill="#020001"/>
</g>
<g id="chairBack">
<path id="Ellipse 29" d="M90.8671 111.521C90.9277 112.995 90.1175 114.663 88.0754 116.446C86.0468 118.216 82.9844 119.928 79.0425 121.45C71.1734 124.488 60.1223 126.647 47.7688 127.155C35.4154 127.662 24.2244 126.416 16.1327 124.034C12.0792 122.84 8.88676 121.386 6.71976 119.787C4.53843 118.178 3.59411 116.582 3.53357 115.108C3.47303 113.634 4.28323 111.965 6.32528 110.183C8.3539 108.412 11.4163 106.701 15.3583 105.179C23.2273 102.141 34.2784 99.9813 46.6319 99.4739C58.9854 98.9665 70.1763 100.213 78.268 102.595C82.3215 103.789 85.514 105.243 87.6809 106.841C89.8623 108.45 90.8066 110.047 90.8671 111.521Z" stroke="#9CAFFE" stroke-width="3"/>
<g id="Group 47">
<path id="Vector 173" d="M32.303 128.058C29.8934 133.855 24.6899 143.484 34.2534 159.67" stroke="#9CAFFE" stroke-width="3"/>
</g>
<path id="Vector 207" d="M38.2918 127.347C35.8822 133.145 30.6787 142.773 40.2421 158.96" stroke="#9CAFFE" stroke-width="3"/>
<path id="chairShadow" d="M31.8172 125.203C31.7314 111.997 47.499 103.736 55.3936 101.257L63.8912 101.459C55.3698 106.458 48.6219 119.601 46.3131 125.548C44.8135 125.512 40.8028 125.917 31.8172 125.203Z" fill="#D9D9D9"/>
</g>
<g id="hair">
<g id="Vector 59">
<path d="M53.9382 30.3301C50.7566 31.7979 50.4959 41.3532 50.5047 44.714L53.1257 42.0426L56.1409 39.9554L61.8167 35.1739L64.3143 32.7754L60.9311 29.5494C59.6156 28.1407 57.1199 28.8623 53.9382 30.3301Z" fill="#2F120B"/>
<path d="M65.9011 32.1841L59.6305 26.0821C57.9535 22.4944 65.0187 23.0957 67.0632 23.8028C66.7085 23.1957 66.9283 21.7318 70.6447 20.7334C74.3611 19.735 76.8364 20.6451 77.6094 21.225L76.3471 26.0341L69.6277 29.3079L65.9011 32.1841Z" fill="#2F120B"/>
<path d="M80.5562 22.9237C80.9111 20.6317 78.6441 19.3719 77.4663 19.0285C78.607 17.1895 81.639 16.9709 83.0123 17.0915L90.4749 20.3868L81.6407 25.059C81.1313 25.3022 80.2013 25.2158 80.5562 22.9237Z" fill="#2F120B"/>
<path d="M93.4614 21.0233L91.6791 19.5868C90.459 17.985 93.5694 16.4863 96.4031 14.6435C99.2404 12.7985 103.62 14.1733 105.919 15.5991L101.719 20.6544L93.4614 21.0233Z" fill="#2F120B"/>
<path d="M103.264 21.8356L110.312 15.3129C116.086 14.9367 116.938 18.6627 116.642 20.5727L113.374 23.6217L112.629 24.8036C111.838 26.3901 106.986 24.0401 106.05 23.7033C105.34 23.4477 103.561 23.1817 103.264 21.8356Z" fill="#2F120B"/>
<path d="M131.469 26.1955C127.679 31.5147 116.817 29.1642 116.539 24.8966C116.327 21.6357 118.165 21.3502 119.378 20.6891C125.301 16.5013 125.114 20.0207 128.982 21.3444C132.497 21.1154 131.758 24.181 131.469 26.1955C136.31 23.1071 139.436 29.3503 139.822 32.0562L140.53 41.964L133.02 34.9467L128.34 30.8398L131.469 26.1955Z" fill="#2F120B"/>
<path d="M120.408 20.3274C120.113 20.3713 119.753 20.485 119.378 20.6891M131.469 26.1955C127.679 31.5147 116.817 29.1642 116.539 24.8966C116.327 21.6357 118.165 21.3502 119.378 20.6891M131.469 26.1955C131.758 24.181 132.497 21.1154 128.982 21.3444C125.114 20.0207 125.301 16.5013 119.378 20.6891M131.469 26.1955C136.31 23.1071 139.436 29.3503 139.822 32.0562L140.53 41.964L133.02 34.9467L128.34 30.8398L131.469 26.1955ZM50.5047 44.714C50.4959 41.3532 50.7566 31.7979 53.9382 30.3301C57.1199 28.8623 59.6156 28.1407 60.9311 29.5494L64.3143 32.7754L61.8167 35.1739L56.1409 39.9554L53.1257 42.0426L50.5047 44.714ZM59.6305 26.0821L65.9011 32.1841L69.6277 29.3079L76.3471 26.0341L77.6094 21.225C76.8364 20.6451 74.3611 19.735 70.6447 20.7334C66.9283 21.7318 66.7085 23.1957 67.0632 23.8028C65.0187 23.0957 57.9535 22.4944 59.6305 26.0821ZM77.4663 19.0285C78.6441 19.3719 80.9111 20.6317 80.5562 22.9237C80.2013 25.2158 81.1313 25.3022 81.6407 25.059L90.4749 20.3868L83.0123 17.0915C81.639 16.9709 78.607 17.1895 77.4663 19.0285ZM91.6791 19.5868L93.4614 21.0233L101.719 20.6544L105.919 15.5991C103.62 14.1733 99.2404 12.7985 96.4031 14.6435C93.5694 16.4863 90.459 17.985 91.6791 19.5868ZM110.312 15.3129L103.264 21.8356C103.561 23.1817 105.34 23.4477 106.05 23.7033C106.986 24.0401 111.838 26.3901 112.629 24.8036L113.374 23.6217L116.642 20.5727C116.938 18.6627 116.086 14.9367 110.312 15.3129Z" stroke="#2F120B"/>
</g>
</g>
<g id="hair-bottom">
<g id="Vector">
<path d="M48.5116 70.595L51.6722 65.2885C61.7765 75.7525 76.5033 79.0144 98.6051 77.5075C113.575 80.0952 136.389 67.367 141.214 61.3622C145.296 63.6763 144.379 67.0311 143.41 68.4192C145.114 69.2274 148.131 71.5863 146.564 74.5559C153.234 78.7849 150.447 83.2008 148.219 84.8802C149.318 84.7423 151.319 84.8378 150.536 86.3226C151.813 92.4283 149.486 91.4537 148.047 92.8341C148.007 94.7056 143.303 95.0959 140.517 93.6457C139.538 95.5017 135.333 94.4961 133.945 93.5371C132.395 95.7581 128.918 94.3901 127.374 93.4285C128.146 93.9093 128.648 95.3217 124.477 97.1249C123.661 100.107 119.103 99.5323 116.926 98.8723C116.889 100.588 115.602 103.624 110.753 102.047C108.076 104.249 103.705 102.242 101.855 100.963C101.668 102.364 100.174 104.867 95.6921 103.67C91.1212 106.59 85.9913 103.509 83.9977 101.604C82.566 102.673 78.7697 104.513 75.0388 103.328C72.3779 104.782 69.5761 102.614 68.5078 101.348C66.5965 102.877 62.4045 105.647 60.9267 104.499C59.7759 105.604 57.0253 103.967 55.7938 103.01C53.7429 103.756 49.2838 104.4 47.8545 101.007C44.899 98.7115 47.323 96.6297 48.9045 95.8758C48.6017 95.4028 48.3857 93.8078 49.9444 91.2126C47.2494 85.5515 48.1982 85.0991 50.2173 78.5799C48.7557 76.6836 47.5053 72.2134 48.5116 70.595Z" fill="#2F120B"/>
<path d="M49.4232 78.6083C48.6519 77.3896 48.1655 75.4108 48.0188 74.5737C49.1851 74.6015 52.1438 73.5716 54.6479 69.2299C66.0066 79.5031 84.5879 79.1118 92.4586 77.632L92.2326 87.1293C69.1201 91.5806 59.3135 104.351 58.3019 104.827C57.4926 105.208 56.3223 103.946 55.8383 103.268C54.1562 103.895 50.1089 104.432 47.3763 101.566C44.6437 98.7002 46.9994 96.389 48.5188 95.5916C48.3681 94.9211 48.2784 93.0851 49.1257 91.1047C44.7578 85.4992 50.3872 80.1316 49.4232 78.6083Z" fill="#020001"/>
</g>
</g>
<g id="head">
<path id="Vector 54" d="M49.8289 64.6637C37.6201 45.6351 72.5516 26.7264 92.3641 20.0896C111.099 21.2315 149.51 34.7992 141.01 60C134.49 79.3321 65.0899 88.4495 49.8289 64.6637Z" fill="#C28F73" stroke="#9A6053" stroke-width="3"/>
<path id="Vector 44" d="M114.793 46.2675C113.105 45.9285 112.239 44.6101 115.532 44.3785C118.632 44.1377 117.6 44.0585 120.999 43.949C124.398 43.8395 123.571 45.7506 122.116 45.9559C120.378 46.201 116.481 46.6066 114.793 46.2675Z" fill="#020001" stroke="#020001" stroke-width="3"/>
<path id="Vector 62" d="M79.5805 47.1776C81.0603 46.6002 81.6057 45.1831 78.5513 45.4349C75.6715 45.6497 76.6003 45.4222 73.4722 45.8089C70.3441 46.1957 71.458 47.9472 72.8269 47.9368C74.4615 47.9243 78.1008 47.755 79.5805 47.1776Z" fill="#020001" stroke="#020001" stroke-width="3"/>
<path id="Vector 55" d="M95.7595 59.7971L101.281 60.809L106.022 58.2665" stroke="#AF371C" stroke-width="2"/>
<path id="Vector 56" d="M95.4685 57.2581C96.1177 58.0877 96.9084 60.0011 94.8773 61.0186" stroke="#AF371C" stroke-width="2"/>
<path id="Vector 150" d="M90.6802 93.9763L90.4999 79L101.704 78.8821L101.338 94.23L90.6802 93.9763Z" fill="#C28F73" stroke="#9A6053" stroke-width="3"/>
<g id="Eyes">
<g id="right-eye">
<path id="Vector 153" d="M133.162 53.7609C130.464 58.7925 122.175 63.7503 113.584 56.1341C112.333 48.9842 136.395 47.7313 133.162 53.7609Z" fill="#F5F5F5" stroke="#020001" stroke-width="2"/>
<ellipse id="Ellipse 18" cx="124.97" cy="56.7096" rx="4.69094" ry="2.55869" transform="rotate(-16.3888 124.97 56.7096)" fill="#020001"/>
<ellipse id="Ellipse 20" cx="122.292" cy="56.1902" rx="2.55869" ry="0.852898" transform="rotate(1.36343 122.292 56.1902)" fill="#F5F5F5"/>
<line id="Line 9" x1="127.843" y1="61.462" x2="129.216" y2="62.7857" stroke="#020001"/>
<line id="Line 10" x1="128.902" y1="60.3347" x2="131.614" y2="62.5735" stroke="#020001"/>
</g>
<g id="left-eye">
<path id="Vector 152" d="M62.2811 57.899C65.6537 62.5053 74.5538 66.2589 81.9987 57.5194C82.2408 50.2649 58.2394 52.379 62.2811 57.899Z" fill="#F5F5F5" stroke="#020001" stroke-width="2"/>
<ellipse id="Ellipse 17" cx="74.5616" cy="59.7758" rx="4.69094" ry="2.55869" transform="rotate(-16.3888 74.5616 59.7758)" fill="#020001"/>
</g>
</g>
<ellipse id="Ellipse 19" cx="71.8844" cy="59.2562" rx="2.55869" ry="0.852898" transform="rotate(1.36343 71.8844 59.2562)" fill="#F5F5F5"/>
<path id="neckShadow" d="M91.9999 80.5L99.4999 80.5L92.2562 89.2554L91.9999 80.5Z" fill="#AF371C"/>
<path id="nose" d="M95.5767 51.6989L102.051 52.8532L106.121 49.9494L98.7186 45.7719L95.5767 51.6989Z" fill="#9A6053"/>
<path id="Vector 218" d="M56.0997 50.2591C54.9477 48.2311 50.6676 47.1411 50.144 48.1288C52.8956 50.1949 54.365 52.8973 54.4999 54.2342L53.4999 70.9999C53.496 71.1665 54.7493 71.1256 55.4999 70.4999C56.0997 69.9999 56.6166 69.5518 56.6593 68.7776C56.9528 63.4497 57.2518 52.287 56.0997 50.2591Z" fill="#AF371C"/>
<g id="closed-eyes">
<path id="Vector 253" d="M61 56.5227C65.6047 59.0606 76.4512 61.0909 83 54.9999" stroke="#020001" stroke-width="3"/>
<path id="Vector 254" d="M113 54.9999C117.5 56.6666 128.1 57.9999 134.5 53.9999" stroke="#020001" stroke-width="3"/>
</g>
</g>
<g id="shirt">
<path id="actualShirt" d="M157.076 157.522C139.758 157.676 92.7247 158.201 43.1356 159.061C33.7585 114.93 68.6024 93.6265 91.7091 88.1171C95.7724 91.8074 96.6125 92.2349 100.742 86.8317C131.687 89.3226 152.664 135.297 157.076 157.522Z" fill="#F14D08"/>
<path id="Vector 155" d="M86.1469 116.144C83.8358 119.328 83.2937 126.35 99.9222 128.404C117.603 126.681 114.13 116.381 112.762 115.706" stroke="#F5F5F5" stroke-width="2"/>
<path id="Vector 157" d="M101.464 114.698C101.597 114.504 102.029 114.238 102.694 114.727M100.919 121.425C101.286 121.113 102.199 120.671 102.92 121.399" stroke="#F5F5F5"/>
<path id="Vector 158" d="M113.15 114.905C114.165 113.682 113.346 111.745 112.809 110.93C113.8 110.727 114.104 108.316 114.132 107.136C114.293 107.471 114.756 108.355 115.315 109.219C115.73 107.033 115.374 106.741 113.414 103.79C115.717 104.525 116.314 103.812 116.324 103.364C116.904 103.378 115.598 103.403 112.162 101.565C109.618 98.7842 105.296 98.6152 103.453 98.8783L105.865 98.0857C105.506 97.9119 103.941 97.8699 100.548 99.0925C101.69 97.4197 101.517 95.9517 101.288 95.4268C101.08 96.0357 100.101 97.7644 97.8487 99.8074C97.4321 97.8142 94.1959 96.9108 92.6298 96.7082C92.7214 96.9229 93.4296 97.8322 95.5299 99.7522C89.2882 98.8103 85.9101 103.868 85.0013 106.514L85.7208 106.744C85.2535 107.087 84.2501 108.224 83.9751 110.031C82.6522 110.779 82.5006 114.104 82.4686 115.449C81.2401 115.279 73.8054 116.943 74.0025 117.798C74.1997 118.653 76.542 120.762 80.1246 122.548C78.8102 125.987 80.9773 126.322 82.4737 127.42C81.7002 129.456 81.2671 129.375 82.3574 132.305C84.0998 135.25 89.2597 134.736 92.5996 134.532C93.4944 136.537 95.1795 138.843 99.1548 139.363C102.335 139.779 104.028 136.693 104.476 135.098C104.334 135 104.206 134.893 104.835 135.248C109.961 136.149 112.705 133.594 112.368 132.523C112.031 131.453 112.796 129.771 113.116 128.504C113.372 127.49 112.818 126.797 112.509 126.577C112.635 126.391 112.897 125.523 112.944 123.541C122.131 118.306 122.118 115.826 122.062 115.117C122.007 114.407 118.165 114.387 113.15 114.905Z" stroke="#F5F5F5" stroke-width="2"/>
<path id="Ellipse 21" d="M94.0878 114.261C94.0648 115.226 93.0714 116.237 91.5409 116.201C90.0105 116.164 89.0663 115.107 89.0892 114.142C89.1122 113.177 90.1057 112.165 91.6361 112.202C93.1666 112.238 94.1108 113.296 94.0878 114.261Z" fill="#F5F5F5" stroke="#F5F5F5" stroke-width="2"/>
<ellipse id="Ellipse 22" cx="92.1003" cy="113.713" rx="1" ry="1.5" transform="rotate(1.36343 92.1003 113.713)" fill="#F14D08"/>
<path id="Ellipse 23" d="M112.106 113.689C112.083 114.655 111.09 115.666 109.559 115.629C108.029 115.593 107.085 114.536 107.108 113.57C107.131 112.605 108.124 111.594 109.655 111.63C111.185 111.667 112.129 112.724 112.106 113.689Z" fill="#F5F5F5" stroke="#F5F5F5" stroke-width="2"/>
<ellipse id="Ellipse 24" cx="110.119" cy="113.142" rx="1" ry="1.5" transform="rotate(1.36343 110.119 113.142)" fill="#F14D08"/>
<path id="Vector 160" d="M63.5054 136.896C61.948 131.575 59.6792 119.483 66.2698 115.749" stroke="#AF371C" stroke-width="2"/>
<path id="Vector 161" d="M130.99 149.069C132.079 144.859 129.564 124.013 125.462 120.68" stroke="#AF371C" stroke-width="2"/>
<path id="Vector 223" d="M92.5369 88.8804L55.0001 110.993L58.0825 107.566L63.6999 102.698L68.2819 99.3062L73.8637 95.9381L84.4797 91.1893L92.5369 88.8804Z" fill="#AF371C"/>
<path id="Vector 156" d="M84.9812 107.272L84.9429 108.54C85.8287 107.245 87.6295 104.641 87.7465 104.591M86.3733 106.643C85.907 108.249 85.385 111.765 87.0273 112.983C87.5997 110.414 87.7972 105.643 90.3527 103.767M87.8541 109.089C88.7803 108.189 90.1424 106.888 91.4063 105.728M94.6369 103.087C94.3893 103.066 92.9732 104.289 91.4063 105.728M91.4063 105.728L91.3299 106.619C93.5382 105.686 98.1189 103.715 98.7749 103.292M96.995 104.337C96.372 104.757 95.1185 105.687 95.0879 106.043C95.0574 106.4 99.0501 105.286 101.05 104.684C100.145 105.654 98.346 107.639 98.3867 107.822C98.4375 108.051 101.806 108.19 104.96 104.271C103.474 107.136 103.082 108.1 103.071 108.224C104.396 107.838 107.304 106.342 108.341 103.439C108.463 105.304 109.112 106.771 109.421 107.272C109.835 106.833 110.488 105.343 109.797 102.89C110.712 105.363 112.383 107.226 112.441 107.381C112.486 107.504 112.786 107.46 112.93 107.423C113.098 106.29 113.261 103.89 112.575 103.353M113.083 107.286L112.904 109.366" stroke="#F5F5F5" stroke-width="2"/>
<path id="Vector 159" d="M86.2751 103.885C87.6766 103.081 90.7034 101.243 91.5984 100.327" stroke="#F5F5F5" stroke-width="2"/>
<path id="Vector 163" d="M114.263 106.268C112.759 104.99 111.256 103.69 109.924 102.26C109.341 101.634 108.86 100.714 108.189 100.19C106.964 99.2329 110.219 102.588 111.635 103.286C111.981 103.457 112.348 103.466 112.692 103.612C113.212 103.832 112.107 102.91 112.015 102.843C111.312 102.328 110.584 101.751 109.819 101.32C108.476 100.562 109.809 101.897 110.174 102.347C110.801 103.12 111.539 103.968 112.046 104.814C112.397 105.399 112.204 104.953 111.989 104.652C111.327 103.73 109.961 102.671 108.938 102.111C108.732 101.998 107.026 101.08 106.928 101.326C106.584 102.183 107.76 103.774 108.251 104.462C108.308 104.543 111.402 106.008 111.442 105.531C111.558 104.185 108.296 102.523 107.882 101.264C107.389 99.7623 106.632 100.195 105.085 100.087C104.861 100.071 104.339 99.8986 104.387 100.235C104.548 101.363 105.183 102.3 105.889 103.204C106.199 103.602 107.012 104.626 106.905 105.168C106.814 105.629 103.429 107.333 105.068 105.949C105.013 105.044 105.601 103.947 105.828 103.082C106.062 102.191 106.661 101.121 106.555 100.173C106.545 100.081 104.889 100.06 104.772 100.079C103.719 100.247 103.683 101.934 103.857 102.672C103.97 103.151 104.342 103.543 104.566 103.977C104.782 104.395 104.979 103.935 104.892 103.673C104.739 103.212 102.71 100.003 102.364 101.521C102.247 102.036 102.048 102.933 102.191 103.461C102.291 103.83 102.975 103.89 103.276 104.036C103.481 104.135 104.957 104.284 104.415 104.746C103.832 105.242 103.423 106.051 102.757 106.435C102.456 106.607 102.053 106.461 101.767 106.656C101.547 106.806 101.475 106.891 101.356 106.621C101.305 106.504 101.349 106.611 101.354 106.647C101.383 106.871 101.19 107.001 100.977 107.051C100.5 107.162 101.454 105.938 101.474 105.914C102.387 104.783 103.245 103.46 103.872 102.172C104.212 101.472 104.542 100.711 103.671 100.259C103.281 100.056 102.913 100 102.58 99.6633C102.433 99.5137 101.714 98.9068 102.273 98.9139C103.669 98.9314 105.009 99.2929 106.364 99.4924C107.082 99.5982 104.913 99.5273 104.192 99.593C102.787 99.7212 101.378 99.5342 99.9751 99.414C99.5203 99.375 99.0561 99.3084 98.5999 99.3027C98.2742 99.2986 97.829 99.4467 97.5156 99.2944C97.2616 99.171 97.0725 98.8482 96.9376 98.626C96.8319 98.4517 97.3368 99.175 97.5821 99.3522C98.3142 99.8814 99.0466 100.404 99.7887 100.923C100.083 101.129 101.683 101.622 101.734 101.956C101.782 102.261 98.7359 101.028 98.5469 100.92C97.4836 100.317 96.194 99.5404 95.3414 98.6781C95.2347 98.5701 94.9117 98.5051 95.0124 98.5196C95.1234 98.5355 95.1809 98.5866 95.2575 98.6579C95.5588 98.9382 95.9473 99.0086 96.346 99.116C97.615 99.4579 98.7673 100.199 100.094 100.362C101.023 100.477 99.4846 99.5806 99.3067 99.4675C98.2959 98.825 96.8718 98.066 95.6693 97.768C95.6085 97.7529 95.0481 97.6812 95.2098 97.7156C96.1678 97.9191 97.3072 98.6683 98.1427 99.1397C98.865 99.5472 99.6188 100.057 100.246 100.584C100.545 100.835 100.319 100.855 100.108 101.028C99.0134 101.925 98.5488 103.173 98.3004 104.463C98.2489 104.731 97.7712 106.313 98.5144 106.13C99.3597 105.922 100.44 105.438 101.116 104.919C101.518 104.611 100.811 104.312 100.526 104.224C100.042 104.073 99.5527 103.982 99.0781 103.8C99.0321 103.782 98.2095 103.574 98.2171 103.602C98.2282 103.644 98.8813 103.976 98.9383 104.016C99.3033 104.271 99.7318 104.488 100.042 104.801C100.226 104.987 100.137 104.837 100.011 104.74C99.4455 104.304 98.6081 104.128 97.9157 103.955C97.4 103.825 95.8867 103.349 95.4214 103.825C95.3433 103.905 97.1154 104.284 97.3275 104.321C97.3977 104.333 98.7418 104.545 98.2462 104.595C97.0049 104.72 95.6111 104.387 94.4782 103.921C94.376 103.878 93.7174 103.593 93.964 103.59C94.8844 103.579 96.026 102.857 96.7752 102.436C96.8508 102.394 98.1419 101.815 98.1478 101.746C98.1478 101.746 95.565 102.006 95.4267 102.015C94.3062 102.086 93.3184 102.154 92.2627 102.454C91.5247 102.663 93.786 102.202 94.5446 102.063C95.0376 101.972 96.3257 101.833 96.6883 101.452C97.2553 100.856 96.281 100.03 95.7531 99.7884C94.8373 99.3692 93.979 99.5698 93.1602 99.9766C92.671 100.22 92.0708 100.198 91.5699 100.459C91.1261 100.69 90.7117 101.142 90.2103 101.248C89.9047 101.313 90.0066 101.669 89.8196 101.892C89.6127 102.14 89.3254 102.309 89.0937 102.534C88.8807 102.74 88.7935 103.081 88.5405 103.242C88.2219 103.446 88.2602 103.744 88.0291 104.045C87.5643 104.652 87.0632 105.262 86.643 105.894C86.4384 106.202 86.351 106.635 86.3203 106.994C86.2692 107.59 86.1992 108.187 86.1668 108.785C86.1549 109.003 86.2741 109.085 86.1107 108.774C85.9725 108.511 86.0329 107.615 86.2227 107.383C86.416 107.147 85.9837 107.156 86.118 107.022C86.8922 106.252 87.5401 105.328 88.2743 104.516C88.9387 103.781 89.6736 103.14 90.2862 102.362C90.4209 102.191 91.0828 101.621 90.6414 101.715C89.6056 101.936 89.0993 102.451 88.3598 103.018C88.3472 103.028 88.3818 102.281 88.4227 102.118C88.4854 101.869 88.8385 101.43 89.1189 101.324C89.9989 100.991 90.4548 100.217 91.3092 99.7528C91.9845 99.3863 92.9098 99.9833 93.4437 100.333C94.6742 101.14 94.1425 101.716 93.1374 102.574C92.7429 102.911 92.2746 103.006 91.8744 103.319C91.4046 103.688 91.0773 104.204 90.7037 104.652C90.5843 104.796 90.6676 105.062 90.4621 105.14C90.1721 105.251 89.8846 105.247 89.608 105.445C89.4083 105.587 89.1676 105.901 88.928 105.966C88.4725 106.09 89.7017 105.456 90.1359 105.281C90.9149 104.968 91.5121 104.594 92.3836 104.458C93.0414 104.355 93.7248 104.295 94.3698 104.185C94.5577 104.153 96.0055 104.073 95.6025 104.46C95.2721 104.778 94.2343 104.8 93.7648 104.915C93.4907 104.982 93.2027 104.932 92.9231 104.908" stroke="#F5F5F5" stroke-width="3" stroke-linecap="round"/>
</g>
<g id="headphones">
<g id="Vector 49">
<path d="M101.688 2.43019C66.1684 -0.354283 47.6772 25.959 43.0496 39.7977C45.8885 40.8995 46.9047 40.7425 48.9749 42.5455C51.8882 31.0083 65.5061 8.05034 96.6715 8.5163C127.837 8.98226 142.661 26.5129 143.932 37.3453C143.876 35.7889 149.532 39.1005 150.359 40.4991C148.584 26.7818 128.819 4.55711 101.688 2.43019Z" fill="#020001"/>
<path d="M41.6359 48.9146C41.5879 46.8369 42.5378 40.0044 43.0496 39.7977M43.0496 39.7977C47.6772 25.959 66.1684 -0.354283 101.688 2.43019C128.819 4.55711 148.584 26.7818 150.359 40.4991M43.0496 39.7977C45.8885 40.8995 46.9047 40.7425 48.9749 42.5455M150.359 40.4991C149.532 39.1005 143.876 35.7889 143.932 37.3453M150.359 40.4991L150.207 46.8608M143.932 37.3453C144.071 41.1858 143.789 43.3436 143.777 43.8435M143.932 37.3453C142.661 26.5129 127.837 8.98226 96.6715 8.5163C65.5061 8.05034 51.8882 31.0083 48.9749 42.5455M48.9749 42.5455L48.5065 49.0781" stroke="#020001" stroke-width="4"/>
</g>
<g id="Group 60">
<path id="Rectangle 16" d="M29.9876 53.7293C30.3887 46.8778 37.4147 42.4574 43.7647 45.0615L49.0111 47.2129C52.8455 48.7854 55.3126 52.56 55.214 56.7031L54.9885 66.178C54.8067 73.8152 46.4751 78.4364 39.9 74.547L34.3894 71.2872C31.1667 69.3809 29.279 65.8339 29.4978 62.0959L29.9876 53.7293Z" fill="#020001"/>
<path id="Rectangle 15" d="M36.7377 47.8125L43.0696 50.829C45.3831 51.9312 46.8331 54.2899 46.7721 56.8518L46.5879 64.5912C46.466 69.7136 40.7415 72.6876 36.4803 69.8423L30.4323 65.8039C28.6546 64.617 27.5742 62.6319 27.5425 60.4946L27.4428 53.777C27.3713 48.9575 32.3863 45.7394 36.7377 47.8125Z" fill="#020001" stroke="#F5F5F5"/>
</g>
</g>
</g>
</svg>
