<svg width="161" height="183" viewBox="0 0 161 183" fill="none" xmlns="http://www.w3.org/2000/svg">
<g id="TemiCharacter">
<g id="headphoneRightEar">
<path id="Rectangle 18" d="M135.849 50.6545C135.266 45.9141 139.823 42.1846 144.355 43.6938L151.119 45.9465C153.589 46.7692 155.33 48.9866 155.543 51.5816L156.116 58.5609C156.53 63.6059 151.273 67.1673 146.741 64.9119L140.136 61.6242C138.182 60.652 136.847 58.7645 136.581 56.5988L135.849 50.6545Z" fill="#020001" stroke="#F5F5F5"/>
<path id="Rectangle 17" d="M128.097 51.923C127.782 45.1122 134.226 39.9903 140.79 41.8336L146.47 43.4287C150.481 44.5551 153.374 48.0503 153.73 52.2013L154.229 58.0122C154.879 65.5851 147.176 71.086 140.224 68.0142L134.266 65.3816C130.796 63.8488 128.493 60.4853 128.318 56.6965L128.097 51.923Z" fill="#020001"/>
</g>
<g id="chairBack">
<path id="Ellipse 29" d="M89.7152 111.417C89.8108 112.889 89.0405 114.577 87.0415 116.407C85.0555 118.225 82.0347 120.009 78.1301 121.625C70.3356 124.849 59.339 127.271 47.0011 128.072C34.6632 128.873 23.4457 127.894 15.2996 125.705C11.2189 124.608 7.99275 123.23 5.78833 121.683C3.56933 120.127 2.58729 118.553 2.4917 117.081C2.3961 115.609 3.16638 113.922 5.16544 112.091C7.15136 110.273 10.1722 108.489 14.0768 106.874C21.8713 103.649 32.8679 101.227 45.2058 100.426C57.5437 99.6249 68.7612 100.604 76.9073 102.794C80.988 103.89 84.2141 105.269 86.4186 106.815C88.6376 108.371 89.6196 109.945 89.7152 111.417Z" stroke="#9CAFFE" stroke-width="3"/>
<g id="Group 47">
<path id="Vector 173" d="M31.561 129.343C29.29 135.196 24.3171 144.946 34.263 160.9" stroke="#9CAFFE" stroke-width="3"/>
</g>
<path id="Vector 207" d="M37.5313 128.49C35.2604 134.343 30.2875 144.093 40.2333 160.047" stroke="#9CAFFE" stroke-width="3"/>
<path id="chairShadow" d="M31.0076 126.5C30.6076 113.3 46.1742 104.667 54.0075 102H62.5075C54.1075 107.2 47.6742 120.5 45.5076 126.5C44.0076 126.5 40.0076 127 31.0076 126.5Z" fill="#D9D9D9"/>
</g>
<g id="hair">
<g id="Vector 59">
<path d="M50.8648 31.1281C47.7189 32.6711 47.6856 42.23 47.7745 45.5895L50.3311 42.8566L53.2959 40.6983L58.8563 35.7831L61.2961 33.3257L57.8371 30.1812C56.4884 28.8042 54.0106 29.585 50.8648 31.1281Z" fill="#9CAFFE"/>
<path d="M62.8684 32.6968L56.4543 26.7458C54.6925 23.1991 61.7699 23.6321 63.8307 24.2903C63.4617 23.6918 63.6466 22.2231 67.3382 21.1366C71.0298 20.05 73.526 20.901 74.3126 21.4623L73.1651 26.3001L66.5255 29.7329L62.8684 32.6968Z" fill="#9CAFFE"/>
<path d="M77.299 23.0904C77.5992 20.7906 75.303 19.5851 74.1173 19.2698C75.2139 17.4042 78.2398 17.1135 79.6157 17.2014L87.1545 20.3182L78.434 25.1992C77.9305 25.4546 76.9988 25.3902 77.299 23.0904Z" fill="#9CAFFE"/>
<path d="M90.1553 20.8834L88.3393 19.4897C87.0815 17.9175 90.1553 16.3452 92.9444 14.4355C95.737 12.5234 100.148 13.7937 102.48 15.1644L98.4019 20.3182L90.1553 20.8834Z" fill="#9CAFFE"/>
<path d="M99.9742 21.4623L106.865 14.7737C112.629 14.2603 113.569 17.9649 113.319 19.8814L110.125 23.0073L109.408 24.2066C108.654 25.8115 103.748 23.5777 102.804 23.2632C102.088 23.0246 100.304 22.801 99.9742 21.4623Z" fill="#9CAFFE"/>
<path d="M128.275 25.1499C124.613 30.5577 113.698 28.4663 113.319 24.2066C113.029 20.9516 114.859 20.6225 116.057 19.9327C121.878 15.6052 121.776 19.128 125.674 20.3592C129.182 20.0467 128.516 23.129 128.275 25.1499C133.041 21.9471 136.315 28.1141 136.765 30.8101L137.709 40.6983L130.034 33.8617L125.258 29.8673L128.275 25.1499Z" fill="#9CAFFE"/>
<path d="M117.077 19.5466C116.784 19.5975 116.427 19.7198 116.057 19.9327M128.275 25.1499C124.613 30.5577 113.698 28.4663 113.319 24.2066C113.029 20.9516 114.859 20.6225 116.057 19.9327M128.275 25.1499C128.516 23.129 129.182 20.0467 125.674 20.3592C121.776 19.128 121.878 15.6052 116.057 19.9327M128.275 25.1499C133.041 21.9471 136.315 28.1141 136.765 30.8101L137.709 40.6983L130.034 33.8617L125.258 29.8673L128.275 25.1499ZM47.7745 45.5895C47.6856 42.23 47.7189 32.6711 50.8648 31.1281C54.0106 29.585 56.4884 28.8042 57.8371 30.1812L61.2961 33.3257L58.8563 35.7831L53.2959 40.6983L50.3311 42.8566L47.7745 45.5895ZM56.4543 26.7458L62.8684 32.6968L66.5255 29.7329L73.1651 26.3001L74.3126 21.4623C73.526 20.901 71.0298 20.05 67.3382 21.1366C63.6466 22.2231 63.4617 23.6918 63.8307 24.2903C61.7699 23.6321 54.6925 23.1991 56.4543 26.7458ZM74.1173 19.2698C75.3029 19.5851 77.5992 20.7906 77.299 23.0904C76.9988 25.3902 77.9305 25.4546 78.434 25.1992L87.1545 20.3182L79.6157 17.2014C78.2398 17.1135 75.2139 17.4042 74.1173 19.2698ZM88.3393 19.4897L90.1553 20.8834L98.4019 20.3182L102.48 15.1644C100.148 13.7937 95.737 12.5234 92.9444 14.4355C90.1553 16.3452 87.0815 17.9175 88.3393 19.4897ZM106.865 14.7737L99.9742 21.4623C100.304 22.801 102.088 23.0246 102.804 23.2632C103.748 23.5777 108.654 25.8115 109.408 24.2066L110.125 23.0073L113.319 19.8814C113.569 17.9649 112.629 14.2603 106.865 14.7737Z" stroke="#9CAFFE"/>
</g>
</g>
<g id="hair-bottom">
<path id="Vector 174" d="M46.3981 72.5107L49.4316 67.1305C59.7819 77.3511 74.5822 80.2617 96.6419 78.2294C111.669 80.4601 134.174 67.1927 138.855 61.0748C142.991 63.2911 142.153 66.6668 141.218 68.0775C142.941 68.845 146.013 71.1314 144.517 74.1374C151.286 78.2066 148.604 82.6876 146.417 84.4194C147.512 84.2555 149.515 84.3033 148.768 85.8063C150.189 91.8799 147.84 90.961 146.435 92.3752C146.439 94.2471 141.745 94.7492 138.926 93.3657C137.991 95.2445 133.764 94.3392 132.354 93.4135C130.856 95.6708 127.348 94.3859 125.781 93.4613C126.565 93.9236 127.1 95.3237 122.973 97.2256C122.228 100.226 117.658 99.7602 115.466 99.1522C115.47 100.868 114.256 103.934 109.37 102.472C106.746 104.738 102.329 102.836 100.449 101.601C100.295 103.006 98.8613 105.544 94.3522 104.454C89.8521 107.481 84.6503 104.524 82.612 102.667C81.206 103.769 77.4547 105.7 73.6967 104.604C71.0711 106.12 68.2184 104.02 67.1203 102.78C65.246 104.353 61.1211 107.222 59.6164 106.11C58.4922 107.241 55.7034 105.67 54.4495 104.744C52.4169 105.538 47.9744 106.288 46.4648 102.93C43.4554 100.705 45.8293 98.5664 47.3924 97.775C47.0784 97.3093 46.8246 95.72 48.321 93.0884C45.4921 87.493 46.4299 87.0182 48.2933 80.4528C46.787 78.5918 45.4305 74.1526 46.3981 72.5107Z" fill="#9CAFFE" stroke="#9CAFFE"/>
</g>
<g id="head">
<path id="Vector 54" d="M46.574 65.5735C33.9159 46.8408 68.3875 27.1063 88.0366 20C106.793 20.6958 146.234 32.1761 138.336 57.572C132.278 77.0538 62.3966 88.9894 46.574 65.5735Z" fill="#F5F5F5" stroke="#9CAFFE" stroke-width="3"/>
<path id="Vector 44" d="M112.082 45.613C110.386 45.3142 109.489 44.0169 112.776 43.7069C115.869 43.3925 114.836 43.3379 118.231 43.1475C121.626 42.9571 120.845 44.8874 119.395 45.1273C117.664 45.4137 113.777 45.9118 112.082 45.613Z" fill="#020001" stroke="#020001" stroke-width="3"/>
<path id="Vector 62" d="M76.9009 47.3607C78.3665 46.7482 78.878 45.3186 75.8305 45.6429C72.9566 45.9262 73.8797 45.6767 70.7617 46.1377C67.6437 46.5988 68.7989 48.3233 70.1672 48.2803C71.8011 48.229 75.4352 47.9731 76.9009 47.3607Z" fill="#020001" stroke="#020001" stroke-width="3"/>
<path id="Vector 55" d="M93.3754 59.5917L98.9193 60.4719L103.599 57.8173" stroke="#9CAFFE" stroke-width="2"/>
<path id="Vector 56" d="M93.0241 57.0603C93.6929 57.8742 94.5289 59.7683 92.5225 60.8338" stroke="#9CAFFE" stroke-width="2"/>
<path id="Vector 150" d="M89.111 93.882V78.5298H99.7722V93.882H89.111Z" fill="#F5F5F5" stroke="#9CAFFE" stroke-width="3"/>
<g id="Group 39">
<path id="Vector 152" d="M59.8615 58.4907C63.3429 63.0154 72.3297 66.5562 79.5646 57.642C79.634 50.3837 55.6897 53.0684 59.8615 58.4907Z" stroke="black" stroke-width="2"/>
<ellipse id="Ellipse 17" cx="72.1835" cy="60.0746" rx="4.69094" ry="2.55869" transform="rotate(-17.7523 72.1835 60.0746)" fill="#020001"/>
</g>
<ellipse id="Ellipse 19" cx="69.4942" cy="59.619" rx="2.55869" ry="0.852898" fill="#F5F5F5"/>
<g id="Group 43">
<g id="Group 42">
<g id="Group 40">
<path id="Vector 153" d="M130.624 52.6672C128.047 57.7615 119.877 62.9151 111.108 55.5055C109.687 48.3874 133.712 46.5623 130.624 52.6672Z" stroke="black" stroke-width="2"/>
<ellipse id="Ellipse 18" cx="122.504" cy="55.8099" rx="4.69094" ry="2.55869" transform="rotate(-17.7523 122.504 55.8099)" fill="#020001"/>
<ellipse id="Ellipse 20" cx="119.815" cy="55.3544" rx="2.55869" ry="0.852898" fill="#F5F5F5"/>
<line id="Line 9" x1="125.489" y1="60.4926" x2="126.893" y2="61.7833" stroke="black"/>
<line id="Line 10" x1="126.522" y1="59.3405" x2="129.286" y2="61.514" stroke="black"/>
</g>
</g>
</g>
<path id="neckShadow" d="M90.5 80L98 80L90.5001 88.4999L90.5 80Z" fill="#D9D9D9"/>
<path id="nose" d="M93 51.5001L99.5 52.5L103.5 49.5001L96 45.5L93 51.5001Z" fill="#D9D9D9"/>
<path id="Vector 218" d="M53.5 51C52.3 49 48.5 48 48 49C50.8 51 52.3333 53.6666 52.5 55V69.5C52.5 69.6666 52.7 70.1 53.5 70.5C54.5 71 54.4758 70.275 54.5 69.5C54.6667 64.1666 54.7 53 53.5 51Z" fill="#D9D9D9"/>
</g>
<g id="shirt">
<path id="actualShirt" d="M157 155.83C139.691 156.396 92.6829 158.04 43.1283 160.08C32.7038 116.184 67.0309 94.0577 90 88C94.15 91.5926 95 92 99 86.5C129.995 88.2539 152.06 133.716 157 155.83Z" fill="#F14D08"/>
<path id="Vector 155" d="M85.1063 116.151C82.8716 119.389 82.4968 126.423 99.1694 128.08C116.804 125.937 113.088 115.723 111.703 115.08" stroke="#F5F5F5" stroke-width="2"/>
<path id="Vector 157" d="M100.385 114.341C100.513 114.144 100.938 113.867 101.615 114.341M100 121.08C100.359 120.759 101.262 120.295 102 121.006" stroke="#F5F5F5"/>
<path id="Vector 158" d="M112.072 114.27C113.058 113.024 112.193 111.107 111.637 110.304C112.623 110.078 112.869 107.661 112.869 106.48C113.038 106.811 113.522 107.684 114.101 108.534C114.464 106.339 114.101 106.056 112.072 103.152C114.391 103.832 114.971 103.105 114.971 102.657C115.551 102.657 114.246 102.713 110.767 100.957C108.158 98.2379 103.833 98.1718 101.997 98.4787L104.389 97.629C104.027 97.4637 102.461 97.459 99.0978 98.7619C100.2 97.0625 99.9918 95.599 99.7502 95.0797C99.5569 95.6934 98.6195 97.4448 96.416 99.5409C95.9522 97.5581 92.6954 96.732 91.1249 96.5668C91.2216 96.7792 91.9512 97.6714 94.0967 99.5409C87.8343 98.7478 84.5775 103.884 83.7319 106.551L84.4567 106.764C83.9976 107.118 83.0216 108.279 82.7896 110.092C81.485 110.871 81.4125 114.199 81.4125 115.544C80.1803 115.403 72.7873 117.244 73.0047 118.094C73.2221 118.943 75.614 120.997 79.238 122.696C78.0059 126.166 80.1803 126.45 81.7024 127.512C80.9776 129.565 80.5427 129.494 81.7024 132.398C83.5144 135.301 88.6606 134.664 91.9947 134.38C92.937 136.363 94.6765 138.629 98.6629 139.054C101.852 139.394 103.471 136.269 103.882 134.664C103.737 134.569 103.606 134.465 104.244 134.805C109.39 135.584 112.072 132.964 111.71 131.902C111.347 130.84 112.072 129.14 112.362 127.866C112.594 126.846 112.024 126.166 111.71 125.954C111.83 125.765 112.072 124.892 112.072 122.909C121.132 117.456 121.06 114.978 120.987 114.27C120.915 113.562 117.073 113.633 112.072 114.27Z" stroke="#F5F5F5" stroke-width="2"/>
<path id="Ellipse 21" d="M93 114.08C93 115.045 92.0309 116.08 90.5 116.08C88.9691 116.08 88 115.045 88 114.08C88 113.114 88.9691 112.08 90.5 112.08C92.0309 112.08 93 113.114 93 114.08Z" fill="#F5F5F5" stroke="#F5F5F5" stroke-width="2"/>
<ellipse id="Ellipse 22" cx="91" cy="113.58" rx="1" ry="1.5" fill="#F14D08"/>
<path id="Ellipse 23" d="M111 113.08C111 114.045 110.031 115.08 108.5 115.08C106.969 115.08 106 114.045 106 113.08C106 112.114 106.969 111.08 108.5 111.08C110.031 111.08 111 112.114 111 113.08Z" fill="#F5F5F5" stroke="#F5F5F5" stroke-width="2"/>
<ellipse id="Ellipse 24" cx="109" cy="112.58" rx="1" ry="1.5" fill="#F14D08"/>
<path id="Vector 160" d="M62.9649 137.436C61.2813 132.154 58.7254 120.119 65.2253 116.229" stroke="#F5F5F5" stroke-width="2"/>
<path id="Vector 161" d="M130.721 148C131.709 143.765 128.698 122.985 124.518 119.75" stroke="#F5F5F5" stroke-width="2"/>
</g>
<g id="headphones">
<g id="Vector 49">
<path d="M97.937 2.09992C62.3615 0.161384 44.5016 26.9072 40.2046 40.8521C43.069 41.886 44.0811 41.7049 46.1936 43.4581C48.8315 31.8549 61.8994 8.57939 93.067 8.30367C124.235 8.02795 139.472 25.2009 141 36C140.907 34.4453 146.641 37.6214 147.5 39C145.399 25.3288 125.111 3.58067 97.937 2.09992Z" fill="#020001"/>
<path d="M39.0083 50C38.9108 47.9241 39.6979 41.0709 40.2046 40.8521M40.2046 40.8521C44.5016 26.9072 62.3615 0.161384 97.937 2.09992C125.111 3.58067 145.399 25.3288 147.5 39M40.2046 40.8521C43.069 41.886 44.0811 41.7049 46.1936 43.4581M147.5 39C146.641 37.6214 140.907 34.4453 141 36M147.5 39V45.3634M141 36C141.23 39.836 141 42 141 42.5M141 36C139.472 25.2009 124.235 8.02795 93.067 8.30367C61.8994 8.57939 48.8315 31.8549 46.1936 43.4581M46.1936 43.4581L45.8808 50" stroke="#020001" stroke-width="4"/>
</g>
<g id="Group 60">
<path id="Rectangle 16" d="M27.478 55.0906C27.7159 48.2314 34.6347 43.6451 41.045 46.0974L46.341 48.1234C50.2117 49.6042 52.768 53.319 52.768 57.4633V66.9409C52.768 74.5802 44.5487 79.3984 37.8829 75.6665L32.2963 72.5388C29.0292 70.7096 27.0576 67.2085 27.1874 63.4665L27.478 55.0906Z" fill="#020001"/>
<path id="Rectangle 15" d="M24.935 55.1988C24.7489 50.3824 29.6858 47.0459 34.0854 49.0148L40.4872 51.8798C42.8263 52.9267 44.332 55.2501 44.332 57.8128V65.5544C44.332 70.6783 38.6799 73.7876 34.3522 71.0445L28.2098 67.1512C26.4044 66.0068 25.2771 64.0481 25.1945 61.9122L24.935 55.1988Z" fill="#020001" stroke="#F5F5F5"/>
</g>
</g>
<g id="handOnMouse">
<g id="mouse">
<g id="Vector">
<path d="M81.7081 168.374C83.6118 169.12 84.4641 169.422 81.8024 167.998C79.8432 166.949 79.6388 167.564 81.7081 168.374Z" fill="#F14D08"/>
<path d="M83.1476 173.695C74.6641 175.253 65.5568 170.51 60.7805 167.049C59.6513 166.231 58.5936 165.128 58.4933 163.737C58.1257 158.642 70.6982 162.222 74.5642 162.222C78.8559 162.222 95.1643 171.489 83.1476 173.695Z" fill="#F14D08"/>
<path d="M159 167.998C161.414 176.709 138.026 189.601 82.4854 174.575M59.2449 161.889C53.7528 167.714 66.6419 173.157 74.8262 175.223C75.5967 175.417 76.3868 175.497 77.181 175.47C81.3652 175.326 88.0154 174.688 87.4518 172.049C86.8082 169.034 85.1254 167.722 84.9913 167.443M81.7081 168.374C83.6118 169.12 84.4641 169.422 81.8024 167.998C79.8432 166.949 79.6388 167.564 81.7081 168.374ZM60.7805 167.049C65.5568 170.51 74.6641 175.253 83.1476 173.695C95.1643 171.489 78.8559 162.222 74.5642 162.222C70.6982 162.222 58.1257 158.642 58.4933 163.737C58.5936 165.128 59.6513 166.231 60.7805 167.049Z" stroke="#020001" stroke-width="2"/>
</g>
<g id="Vector 215">
<path d="M84.9854 169.5C84.9854 169.804 83.9854 171 80.8269 169.246C78.6951 168.063 78.3316 166.92 78.79 166.353C79.0581 166.021 79.607 165.886 80.2479 166.054C84.8798 167.149 85.1784 168.74 84.9854 169.5Z" fill="#F5F5F5"/>
<path d="M78.79 166.353C79.0581 166.021 79.607 165.886 80.2479 166.054C84.8798 167.149 85.1784 168.74 84.9854 169.5C84.9854 169.804 83.9854 171 80.8269 169.246C78.6951 168.063 78.3316 166.92 78.79 166.353ZM78.79 166.353C78.1885 165.902 76.6854 165.1 75.4854 165.5" stroke="#F5F5F5" stroke-width="0.5"/>
</g>
</g>
<g id="hand">
<path d="M73.4468 162.314L77.7498 161.395C82.0834 160.469 82.895 154.635 78.9786 152.562C50.2895 137.118 35.2741 147.387 28.893 159.004C27.9603 160.702 27.2981 162.877 28.599 164.313C29.3446 165.136 30.4089 165.692 31.4461 166.045C32.87 166.529 34.3634 166.824 35.7518 167.402L42.724 170.309C46.1258 171.727 49.9306 171.843 53.4125 170.635L62.2912 167.554L65.9899 167.208C69.1333 166.914 71.9264 165.081 73.4468 162.314Z" fill="#F5F5F5"/>
<path d="M73.4468 162.314L77.7498 161.395C82.0834 160.469 82.895 154.635 78.9786 152.562V152.562C50.2895 137.118 35.2741 147.387 28.893 159.004C27.9603 160.702 27.2981 162.877 28.599 164.313C29.3446 165.136 30.4089 165.692 31.4461 166.045C32.87 166.529 34.3634 166.824 35.7518 167.402L42.724 170.309C46.1258 171.727 49.9306 171.843 53.4125 170.635L62.2912 167.554M73.4468 162.314L64.6765 157.382M73.4468 162.314V162.314C71.9264 165.081 69.1333 166.914 65.9899 167.208L62.2912 167.554M62.2912 167.554L54.3101 162.117" stroke="#9CAFFE" stroke-width="3"/>
</g>
</g>
</g>
</svg>
