<svg width="93" height="81" viewBox="0 0 93 81" fill="none" xmlns="http://www.w3.org/2000/svg">
<g id="clickMeGroup">
<path id="Arrow 1" d="M44.1642 72.3174C44.4673 72.779 45.0873 72.9075 45.549 72.6044L53.0722 67.6646C53.5339 67.3615 53.6624 66.7415 53.3592 66.2799C53.0561 65.8182 52.4361 65.6897 51.9745 65.9928L45.2872 70.3837L40.8963 63.6964C40.5931 63.2348 39.9732 63.1062 39.5115 63.4094C39.0498 63.7125 38.9213 64.3325 39.2244 64.7941L44.1642 72.3174ZM51.0208 37.797L44.0209 71.5655L45.9793 71.9715L52.9792 38.203L51.0208 37.797Z" fill="#F5F5F5"/>
<path id="Arrow 3" d="M61.0464 79.8986C61.2128 80.4253 61.7745 80.7173 62.3012 80.551L70.8833 77.8405C71.41 77.6742 71.7021 77.1124 71.5357 76.5858C71.3694 76.0592 70.8076 75.7671 70.281 75.9334L62.6524 78.3427L60.2431 70.7141C60.0768 70.1875 59.515 69.8954 58.9884 70.0617C58.4617 70.2281 58.1696 70.7898 58.3359 71.3165L61.0464 79.8986ZM77.0221 48.5387L61.1128 79.1361L62.8872 80.0588L78.7965 49.4613L77.0221 48.5387Z" fill="#F5F5F5"/>
<path id="Arrow 2" d="M26.042 72.2648C26.5291 72.5249 27.135 72.3408 27.3951 71.8536L31.6341 63.9145C31.8942 63.4273 31.7102 62.8215 31.223 62.5613C30.7358 62.3012 30.13 62.4853 29.8698 62.9725L26.1018 70.0295L19.0448 66.2615C18.5576 66.0014 17.9518 66.1854 17.6916 66.6726C17.4315 67.1598 17.6156 67.7656 18.1028 68.0258L26.042 72.2648ZM15.5305 38.6765L25.5561 71.6734L27.4698 71.0919L17.4441 38.095L15.5305 38.6765Z" fill="#F5F5F5"/>
<g id="Click me!" filter="url(#filter0_d_93_31)">
<mask id="path-4-outside-1_93_31" maskUnits="userSpaceOnUse" x="3" y="1" width="85" height="24" fill="black">
<rect fill="white" x="3" y="1" width="85" height="24"/>
<path d="M8.38 6.43C9.74 6.43 10.53 7.41 10.75 9.37C10.75 10.99 10.37 12.01 9.61 12.43H9.43C8.85 12.39 8.56 12.18 8.56 11.8L8.68 9.55V8.44L8.5 8.23H8.2C7.56 8.23 6.81 10.01 5.95 13.57L5.77 15.82V16.48C5.77 18.56 6.7 19.78 8.56 20.14H9.82C11.9 20.14 14.42 18.8 17.38 16.12H17.5C18.04 16.12 18.35 16.46 18.43 17.14C17.97 18.34 17.43 18.94 16.81 18.94C13.95 20.98 11.38 22 9.1 22C6.82 22 5.21 20.75 4.27 18.25L4 16.12V15.73C4 12.63 4.87 9.78 6.61 7.18C7.17 6.68 7.76 6.43 8.38 6.43ZM21.28 5.47C21.84 5.67 22.12 5.98 22.12 6.4L22.42 17.83V21.52C22.42 22.2 22.13 22.54 21.55 22.54H21.16C20.8 22.3 20.62 22.02 20.62 21.7V18.22L20.35 6.34C20.35 5.84 20.66 5.55 21.28 5.47ZM24.9398 6.37C25.6998 6.53 26.0798 6.87 26.0798 7.39C25.8798 7.95 25.5598 8.23 25.1198 8.23C24.3798 8.09 24.0098 7.72 24.0098 7.12C24.2098 6.62 24.5198 6.37 24.9398 6.37ZM26.0798 10.57C26.3998 10.57 26.6698 10.86 26.8898 11.44L26.6198 13.57V14.98C26.6198 16.62 26.8998 18.77 27.4598 21.43C27.2598 21.81 26.9198 22 26.4398 22C25.6198 22 25.0798 19.6 24.8198 14.8V13.75C24.8198 11.63 25.2398 10.57 26.0798 10.57ZM32.0636 11.83L33.2936 11.65C33.7936 11.65 34.0736 11.96 34.1336 12.58C34.1336 13.12 33.4836 13.47 32.1836 13.63C31.3636 14.27 30.9536 15.09 30.9536 16.09V17.08C31.3536 19.28 32.0336 20.38 32.9936 20.38H33.2936C33.8536 20.38 34.6936 19.85 35.8136 18.79H35.9936C36.3936 18.79 36.7136 19.07 36.9536 19.63C36.6736 20.49 35.7736 21.27 34.2536 21.97C33.9736 22.09 33.6236 22.15 33.2036 22.15C31.1436 22.15 29.8036 20.53 29.1836 17.29V16.63C29.1836 14.29 30.1436 12.69 32.0636 11.83ZM39.9965 6.13H40.1765C40.4365 6.13 40.6865 6.35 40.9265 6.79L40.8065 8.83V9.97L40.9265 15.22L41.0165 15.52H41.1065C41.9665 14.72 42.7165 13.31 43.3565 11.29L44.0165 11.08C44.5765 11.16 44.8565 11.41 44.8565 11.83C44.8565 13.13 43.9265 14.88 42.0665 17.08V17.29C44.5265 20.15 46.1465 21.58 46.9265 21.58H47.1065L47.8565 21.13H48.1265C48.5465 21.13 48.8565 21.41 49.0565 21.97C49.0565 22.61 48.3465 23.05 46.9265 23.29C45.5065 23.29 43.6565 21.85 41.3765 18.97H41.1065L41.1965 20.59V22.15C41.0765 22.77 40.7665 23.08 40.2665 23.08C39.7065 22.96 39.4265 22.65 39.4265 22.15V21.97L39.3065 18.52C39.0865 18.52 38.9365 18.21 38.8565 17.59L39.2465 16.84L39.0665 10.09V8.77C39.0665 7.01 39.3765 6.13 39.9965 6.13ZM61.6516 11.5C61.7916 11 62.1116 10.75 62.6116 10.75C63.1116 10.75 63.4416 11.25 63.6016 12.25H63.7216L65.1016 11.95C65.7416 11.95 66.3616 12.55 66.9616 13.75H67.0816C67.9616 12.37 68.8616 11.68 69.7816 11.68C71.7416 12.04 72.7216 13.32 72.7216 15.52L72.7816 16.57L72.5116 22.63V23.2C72.5116 23.7 72.2016 23.99 71.5816 24.07C70.9616 24.07 70.6516 23.34 70.6516 21.88L71.0116 16.45C71.0116 14.45 70.5416 13.45 69.6016 13.45C69.0616 13.45 68.4116 14.76 67.6516 17.38C67.2716 20.38 66.9616 21.88 66.7216 21.88C66.3816 21.88 66.2116 21.95 66.2116 22.09C65.5916 22.01 65.2816 21.69 65.2816 21.13L65.6716 17.5C65.6116 15 65.3616 13.75 64.9216 13.75H64.8316C64.3316 14.13 64.0816 14.88 64.0816 16V17.59L63.9616 22.18C63.8216 22.68 63.5116 22.93 63.0316 22.93C62.6116 22.93 62.3416 22.58 62.2216 21.88L62.1016 18.34L62.2816 15.43C62.1616 13.93 61.9516 12.62 61.6516 11.5ZM77.143 11.23C77.943 11.25 79.293 12.65 81.193 15.43L81.253 15.94C81.253 16.5 79.883 16.93 77.143 17.23L77.053 17.32V17.44C77.473 19.24 77.913 20.14 78.373 20.14H78.733C79.373 20.14 80.343 19.45 81.643 18.07H81.823C82.223 18.07 82.533 18.36 82.753 18.94C82.753 19.42 81.913 20.25 80.233 21.43C79.793 21.69 79.263 21.88 78.643 22C77.023 22 75.893 20.48 75.253 17.44C74.333 17.3 73.873 16.92 73.873 16.3C73.873 15.86 74.213 15.57 74.893 15.43V15.55L75.193 15.43V14.68C75.193 12.38 75.843 11.23 77.143 11.23ZM77.323 13.39H77.053L76.933 14.5V15.43H77.053C78.173 15.39 78.733 15.27 78.733 15.07C78.213 14.29 77.743 13.73 77.323 13.39ZM84.6859 1.63C85.2259 1.85 85.4959 2.17 85.4959 2.59C85.6559 8.27 85.8859 12.37 86.1859 14.89C85.9859 15.39 85.6959 15.64 85.3159 15.64C84.5759 15.64 84.2059 14.45 84.2059 12.07C84.0259 11.19 83.8759 8 83.7559 2.5C83.7559 2 84.0659 1.71 84.6859 1.63ZM84.8659 22.27C85.0459 21.65 85.3659 21.34 85.8259 21.34C86.3059 21.34 86.6359 21.65 86.8159 22.27C86.5959 22.85 86.2859 23.14 85.8859 23.14H85.7959C85.3959 23.14 85.0859 22.85 84.8659 22.27Z"/>
</mask>
<path d="M8.38 6.43C9.74 6.43 10.53 7.41 10.75 9.37C10.75 10.99 10.37 12.01 9.61 12.43H9.43C8.85 12.39 8.56 12.18 8.56 11.8L8.68 9.55V8.44L8.5 8.23H8.2C7.56 8.23 6.81 10.01 5.95 13.57L5.77 15.82V16.48C5.77 18.56 6.7 19.78 8.56 20.14H9.82C11.9 20.14 14.42 18.8 17.38 16.12H17.5C18.04 16.12 18.35 16.46 18.43 17.14C17.97 18.34 17.43 18.94 16.81 18.94C13.95 20.98 11.38 22 9.1 22C6.82 22 5.21 20.75 4.27 18.25L4 16.12V15.73C4 12.63 4.87 9.78 6.61 7.18C7.17 6.68 7.76 6.43 8.38 6.43ZM21.28 5.47C21.84 5.67 22.12 5.98 22.12 6.4L22.42 17.83V21.52C22.42 22.2 22.13 22.54 21.55 22.54H21.16C20.8 22.3 20.62 22.02 20.62 21.7V18.22L20.35 6.34C20.35 5.84 20.66 5.55 21.28 5.47ZM24.9398 6.37C25.6998 6.53 26.0798 6.87 26.0798 7.39C25.8798 7.95 25.5598 8.23 25.1198 8.23C24.3798 8.09 24.0098 7.72 24.0098 7.12C24.2098 6.62 24.5198 6.37 24.9398 6.37ZM26.0798 10.57C26.3998 10.57 26.6698 10.86 26.8898 11.44L26.6198 13.57V14.98C26.6198 16.62 26.8998 18.77 27.4598 21.43C27.2598 21.81 26.9198 22 26.4398 22C25.6198 22 25.0798 19.6 24.8198 14.8V13.75C24.8198 11.63 25.2398 10.57 26.0798 10.57ZM32.0636 11.83L33.2936 11.65C33.7936 11.65 34.0736 11.96 34.1336 12.58C34.1336 13.12 33.4836 13.47 32.1836 13.63C31.3636 14.27 30.9536 15.09 30.9536 16.09V17.08C31.3536 19.28 32.0336 20.38 32.9936 20.38H33.2936C33.8536 20.38 34.6936 19.85 35.8136 18.79H35.9936C36.3936 18.79 36.7136 19.07 36.9536 19.63C36.6736 20.49 35.7736 21.27 34.2536 21.97C33.9736 22.09 33.6236 22.15 33.2036 22.15C31.1436 22.15 29.8036 20.53 29.1836 17.29V16.63C29.1836 14.29 30.1436 12.69 32.0636 11.83ZM39.9965 6.13H40.1765C40.4365 6.13 40.6865 6.35 40.9265 6.79L40.8065 8.83V9.97L40.9265 15.22L41.0165 15.52H41.1065C41.9665 14.72 42.7165 13.31 43.3565 11.29L44.0165 11.08C44.5765 11.16 44.8565 11.41 44.8565 11.83C44.8565 13.13 43.9265 14.88 42.0665 17.08V17.29C44.5265 20.15 46.1465 21.58 46.9265 21.58H47.1065L47.8565 21.13H48.1265C48.5465 21.13 48.8565 21.41 49.0565 21.97C49.0565 22.61 48.3465 23.05 46.9265 23.29C45.5065 23.29 43.6565 21.85 41.3765 18.97H41.1065L41.1965 20.59V22.15C41.0765 22.77 40.7665 23.08 40.2665 23.08C39.7065 22.96 39.4265 22.65 39.4265 22.15V21.97L39.3065 18.52C39.0865 18.52 38.9365 18.21 38.8565 17.59L39.2465 16.84L39.0665 10.09V8.77C39.0665 7.01 39.3765 6.13 39.9965 6.13ZM61.6516 11.5C61.7916 11 62.1116 10.75 62.6116 10.75C63.1116 10.75 63.4416 11.25 63.6016 12.25H63.7216L65.1016 11.95C65.7416 11.95 66.3616 12.55 66.9616 13.75H67.0816C67.9616 12.37 68.8616 11.68 69.7816 11.68C71.7416 12.04 72.7216 13.32 72.7216 15.52L72.7816 16.57L72.5116 22.63V23.2C72.5116 23.7 72.2016 23.99 71.5816 24.07C70.9616 24.07 70.6516 23.34 70.6516 21.88L71.0116 16.45C71.0116 14.45 70.5416 13.45 69.6016 13.45C69.0616 13.45 68.4116 14.76 67.6516 17.38C67.2716 20.38 66.9616 21.88 66.7216 21.88C66.3816 21.88 66.2116 21.95 66.2116 22.09C65.5916 22.01 65.2816 21.69 65.2816 21.13L65.6716 17.5C65.6116 15 65.3616 13.75 64.9216 13.75H64.8316C64.3316 14.13 64.0816 14.88 64.0816 16V17.59L63.9616 22.18C63.8216 22.68 63.5116 22.93 63.0316 22.93C62.6116 22.93 62.3416 22.58 62.2216 21.88L62.1016 18.34L62.2816 15.43C62.1616 13.93 61.9516 12.62 61.6516 11.5ZM77.143 11.23C77.943 11.25 79.293 12.65 81.193 15.43L81.253 15.94C81.253 16.5 79.883 16.93 77.143 17.23L77.053 17.32V17.44C77.473 19.24 77.913 20.14 78.373 20.14H78.733C79.373 20.14 80.343 19.45 81.643 18.07H81.823C82.223 18.07 82.533 18.36 82.753 18.94C82.753 19.42 81.913 20.25 80.233 21.43C79.793 21.69 79.263 21.88 78.643 22C77.023 22 75.893 20.48 75.253 17.44C74.333 17.3 73.873 16.92 73.873 16.3C73.873 15.86 74.213 15.57 74.893 15.43V15.55L75.193 15.43V14.68C75.193 12.38 75.843 11.23 77.143 11.23ZM77.323 13.39H77.053L76.933 14.5V15.43H77.053C78.173 15.39 78.733 15.27 78.733 15.07C78.213 14.29 77.743 13.73 77.323 13.39ZM84.6859 1.63C85.2259 1.85 85.4959 2.17 85.4959 2.59C85.6559 8.27 85.8859 12.37 86.1859 14.89C85.9859 15.39 85.6959 15.64 85.3159 15.64C84.5759 15.64 84.2059 14.45 84.2059 12.07C84.0259 11.19 83.8759 8 83.7559 2.5C83.7559 2 84.0659 1.71 84.6859 1.63ZM84.8659 22.27C85.0459 21.65 85.3659 21.34 85.8259 21.34C86.3059 21.34 86.6359 21.65 86.8159 22.27C86.5959 22.85 86.2859 23.14 85.8859 23.14H85.7959C85.3959 23.14 85.0859 22.85 84.8659 22.27Z" fill="#F5F5F5"/>
<path d="M10.75 9.37H11.25V9.34203L11.2469 9.31423L10.75 9.37ZM9.61 12.43V12.93H9.73897L9.85184 12.8676L9.61 12.43ZM9.43 12.43L9.3956 12.9288L9.41278 12.93H9.43V12.43ZM8.56 11.8L8.06071 11.7734L8.06 11.7867V11.8H8.56ZM8.68 9.55L9.17929 9.57663L9.18 9.56332V9.55H8.68ZM8.68 8.44H9.18V8.25504L9.05963 8.1146L8.68 8.44ZM8.5 8.23L8.87963 7.9046L8.72997 7.73H8.5V8.23ZM5.95 13.57L5.46398 13.4526L5.45473 13.4909L5.45159 13.5301L5.95 13.57ZM5.77 15.82L5.27159 15.7801L5.27 15.8V15.82H5.77ZM8.56 20.14L8.46499 20.6309L8.51206 20.64H8.56V20.14ZM17.38 16.12V15.62H17.1873L17.0444 15.7494L17.38 16.12ZM18.43 17.14L18.8969 17.319L18.941 17.2039L18.9266 17.0816L18.43 17.14ZM16.81 18.94V18.44H16.65L16.5197 18.5329L16.81 18.94ZM4.27 18.25L3.77397 18.3129L3.78135 18.3711L3.80199 18.426L4.27 18.25ZM4 16.12H3.5V16.1516L3.50397 16.1829L4 16.12ZM6.61 7.18L6.27699 6.80703L6.22972 6.84924L6.19447 6.90191L6.61 7.18ZM8.38 6.93C8.92269 6.93 9.31156 7.11697 9.60323 7.4788C9.91368 7.86391 10.1482 8.4911 10.2531 9.42577L11.2469 9.31423C11.1318 8.2889 10.8613 7.44609 10.3818 6.8512C9.88344 6.23302 9.19731 5.93 8.38 5.93V6.93ZM10.25 9.37C10.25 10.9642 9.86784 11.7162 9.36816 11.9924L9.85184 12.8676C10.8722 12.3038 11.25 11.0158 11.25 9.37H10.25ZM9.61 11.93H9.43V12.93H9.61V11.93ZM9.4644 11.9312C9.21519 11.914 9.10633 11.8633 9.07076 11.8375C9.05832 11.8285 9.0602 11.8267 9.0631 11.8326C9.06548 11.8374 9.06 11.8305 9.06 11.8H8.06C8.06 12.1388 8.20032 12.4419 8.48425 12.6475C8.73867 12.8317 9.06481 12.906 9.3956 12.9288L9.4644 11.9312ZM9.05929 11.8266L9.17929 9.57663L8.18071 9.52337L8.06071 11.7734L9.05929 11.8266ZM9.18 9.55V8.44H8.18V9.55H9.18ZM9.05963 8.1146L8.87963 7.9046L8.12037 8.55539L8.30037 8.76539L9.05963 8.1146ZM8.5 7.73H8.2V8.73H8.5V7.73ZM8.2 7.73C7.80052 7.73 7.50436 8.00109 7.3053 8.25601C7.09188 8.5293 6.89107 8.90962 6.69673 9.37086C6.30575 10.2988 5.89577 11.6652 5.46398 13.4526L6.43602 13.6874C6.86423 11.9148 7.25925 10.6112 7.61827 9.75914C7.79893 9.33038 7.95937 9.04319 8.09345 8.87149C8.24189 8.6814 8.27948 8.73 8.2 8.73V7.73ZM5.45159 13.5301L5.27159 15.7801L6.26841 15.8599L6.44841 13.6099L5.45159 13.5301ZM5.27 15.82V16.48H6.27V15.82H5.27ZM5.27 16.48C5.27 17.591 5.51837 18.5347 6.06986 19.2581C6.62568 19.9873 7.444 20.4333 8.46499 20.6309L8.65501 19.6491C7.816 19.4867 7.23932 19.1427 6.86514 18.6519C6.48663 18.1553 6.27 17.449 6.27 16.48H5.27ZM8.56 20.64H9.82V19.64H8.56V20.64ZM9.82 20.64C12.0966 20.64 14.7375 19.187 17.7156 16.4906L17.0444 15.7494C14.1025 18.413 11.7034 19.64 9.82 19.64V20.64ZM17.38 16.62H17.5V15.62H17.38V16.62ZM17.5 16.62C17.6561 16.62 17.7244 16.664 17.768 16.7119C17.8258 16.7752 17.9 16.9142 17.9334 17.1984L18.9266 17.0816C18.88 16.6858 18.7592 16.3148 18.507 16.0381C18.2406 15.746 17.8839 15.62 17.5 15.62V16.62ZM17.9631 16.961C17.7436 17.5337 17.5203 17.92 17.3084 18.1555C17.1028 18.3839 16.9385 18.44 16.81 18.44V19.44C17.3015 19.44 17.7172 19.1961 18.0516 18.8245C18.3797 18.46 18.6564 17.9463 18.8969 17.319L17.9631 16.961ZM16.5197 18.5329C13.7015 20.5431 11.2334 21.5 9.1 21.5V22.5C11.5266 22.5 14.1985 21.4169 17.1004 19.3471L16.5197 18.5329ZM9.1 21.5C8.05715 21.5 7.19605 21.2164 6.48913 20.6676C5.7765 20.1143 5.18536 19.2638 4.73801 18.074L3.80199 18.426C4.29464 19.7362 4.9785 20.7607 5.87587 21.4574C6.77895 22.1586 7.86285 22.5 9.1 22.5V21.5ZM4.76603 18.1871L4.49603 16.0571L3.50397 16.1829L3.77397 18.3129L4.76603 18.1871ZM4.5 16.12V15.73H3.5V16.12H4.5ZM4.5 15.73C4.5 12.73 5.34006 9.97661 7.02553 7.45809L6.19447 6.90191C4.39994 9.58339 3.5 12.53 3.5 15.73H4.5ZM6.94301 7.55297C7.43165 7.11668 7.90754 6.93 8.38 6.93V5.93C7.61246 5.93 6.90835 6.24332 6.27699 6.80703L6.94301 7.55297ZM21.28 5.47L21.4482 4.99913L21.3351 4.95875L21.216 4.97411L21.28 5.47ZM22.12 6.4L21.6198 6.4L21.6202 6.41312L22.12 6.4ZM22.42 17.83L22.9202 17.83L22.9198 17.8169L22.42 17.83ZM21.16 22.54L20.8827 22.956L21.0086 23.04H21.16V22.54ZM20.62 18.22H21.1201L21.1199 18.2086L20.62 18.22ZM20.35 6.34L19.8499 6.34L19.8501 6.35136L20.35 6.34ZM21.1118 5.94087C21.345 6.02413 21.4728 6.11441 21.5389 6.18764C21.5955 6.2502 21.62 6.31308 21.62 6.4H22.62C22.62 6.06692 22.5045 5.7648 22.2811 5.51736C22.0672 5.28059 21.775 5.11587 21.4482 4.99913L21.1118 5.94087ZM21.6202 6.41312L21.9202 17.8431L22.9198 17.8169L22.6198 6.38688L21.6202 6.41312ZM21.92 17.83V21.52H22.92V17.83H21.92ZM21.92 21.52C21.92 21.8007 21.8585 21.9179 21.8221 21.9605C21.7987 21.988 21.7403 22.04 21.55 22.04V23.04C21.9397 23.04 22.3163 22.922 22.5829 22.6095C22.8365 22.3121 22.92 21.9193 22.92 21.52H21.92ZM21.55 22.04H21.16V23.04H21.55V22.04ZM21.4374 22.124C21.1625 21.9407 21.12 21.797 21.12 21.7H20.12C20.12 22.243 20.4375 22.6593 20.8827 22.956L21.4374 22.124ZM21.12 21.7V18.22H20.12V21.7H21.12ZM21.1199 18.2086L20.8499 6.32864L19.8501 6.35136L20.1201 18.2314L21.1199 18.2086ZM20.85 6.34C20.85 6.20161 20.8882 6.14623 20.9241 6.11263C20.9741 6.06586 21.0911 5.99852 21.344 5.96589L21.216 4.97411C20.8489 5.02148 20.5009 5.13914 20.2409 5.38236C19.9668 5.63877 19.85 5.97839 19.85 6.34H20.85ZM24.9398 6.37L25.0428 5.88072L24.9918 5.87H24.9398V6.37ZM26.0798 7.39L26.5506 7.55817L26.5798 7.47661V7.39H26.0798ZM25.1198 8.23L25.0268 8.72128L25.0729 8.73H25.1198V8.23ZM24.0098 7.12L23.5455 6.9343L23.5098 7.02371V7.12H24.0098ZM26.8898 11.44L27.3858 11.5029L27.4015 11.3792L27.3573 11.2627L26.8898 11.44ZM26.6198 13.57L26.1237 13.5071L26.1198 13.5384V13.57H26.6198ZM27.4598 21.43L27.9022 21.6629L27.9862 21.5034L27.949 21.327L27.4598 21.43ZM24.8198 14.8H24.3198V14.8135L24.3205 14.827L24.8198 14.8ZM24.8368 6.85927C25.1723 6.92992 25.3621 7.02883 25.4614 7.11762C25.543 7.19064 25.5798 7.26903 25.5798 7.39H26.5798C26.5798 6.99097 26.4265 6.63936 26.1282 6.37238C25.8474 6.12116 25.4672 5.97008 25.0428 5.88072L24.8368 6.85927ZM25.6089 7.22183C25.5267 7.45185 25.4358 7.57783 25.3605 7.64371C25.2951 7.70097 25.2233 7.73 25.1198 7.73V8.73C25.4563 8.73 25.7645 8.61903 26.019 8.39629C26.2637 8.18217 26.4328 7.88815 26.5506 7.55817L25.6089 7.22183ZM25.2127 7.73871C24.9 7.67955 24.7299 7.58299 24.6408 7.49395C24.5635 7.41665 24.5098 7.3085 24.5098 7.12H23.5098C23.5098 7.5315 23.641 7.90834 23.9337 8.20105C24.2147 8.48201 24.5995 8.64045 25.0268 8.72128L25.2127 7.73871ZM24.474 7.30569C24.5529 7.10839 24.6373 7.00222 24.7061 6.94671C24.7671 6.89751 24.8373 6.87 24.9398 6.87V5.87C24.6223 5.87 24.3274 5.96749 24.0784 6.16829C23.8372 6.36278 23.6666 6.63161 23.5455 6.9343L24.474 7.30569ZM26.0798 11.07C26.0812 11.07 26.0828 11.0696 26.0898 11.0731C26.099 11.0776 26.122 11.0914 26.1563 11.1282C26.2294 11.2067 26.3237 11.3574 26.4223 11.6173L27.3573 11.2627C27.2359 10.9426 27.0851 10.6583 26.8882 10.4468C26.6828 10.2261 26.4104 10.07 26.0798 10.07V11.07ZM26.3937 11.3771L26.1237 13.5071L27.1158 13.6329L27.3858 11.5029L26.3937 11.3771ZM26.1198 13.57V14.98H27.1198V13.57H26.1198ZM26.1198 14.98C26.1198 16.6697 26.4074 18.8581 26.9705 21.533L27.949 21.327C27.3922 18.6819 27.1198 16.5703 27.1198 14.98H26.1198ZM27.0173 21.1971C26.9576 21.3106 26.8878 21.378 26.8109 21.421C26.7309 21.4657 26.614 21.5 26.4398 21.5V22.5C26.7455 22.5 27.0387 22.4393 27.2987 22.294C27.5617 22.147 27.7619 21.9294 27.9022 21.6629L27.0173 21.1971ZM26.4398 21.5C26.5136 21.5 26.4563 21.5577 26.3123 21.3035C26.1784 21.0672 26.0388 20.6736 25.9076 20.0902C25.647 18.9323 25.4487 17.1661 25.319 14.773L24.3205 14.827C24.4509 17.2339 24.6525 19.0677 24.932 20.3098C25.0707 20.9264 25.2361 21.4328 25.4423 21.7965C25.6382 22.1423 25.9559 22.5 26.4398 22.5V21.5ZM25.3198 14.8V13.75H24.3198V14.8H25.3198ZM25.3198 13.75C25.3198 12.7084 25.425 11.9898 25.5996 11.5492C25.6852 11.333 25.7759 11.214 25.8504 11.1514C25.9158 11.0963 25.9849 11.07 26.0798 11.07V10.07C25.7546 10.07 25.4562 10.1762 25.2066 10.3861C24.9661 10.5885 24.7943 10.867 24.6699 11.1808C24.4245 11.8002 24.3198 12.6716 24.3198 13.75H25.3198ZM32.0636 11.83L31.9912 11.3353L31.9225 11.3453L31.8592 11.3737L32.0636 11.83ZM33.2936 11.65V11.15H33.2572L33.2212 11.1553L33.2936 11.65ZM34.1336 12.58H34.6336V12.5559L34.6313 12.5318L34.1336 12.58ZM32.1836 13.63L32.1225 13.1337L31.9851 13.1507L31.876 13.2358L32.1836 13.63ZM30.9536 17.08H30.4536V17.1251L30.4617 17.1694L30.9536 17.08ZM35.8136 18.79V18.29H35.6145L35.4699 18.4269L35.8136 18.79ZM36.9536 19.63L37.429 19.7848L37.4873 19.6059L37.4132 19.433L36.9536 19.63ZM34.2536 21.97L34.4506 22.4297L34.4627 22.4242L34.2536 21.97ZM29.1836 17.29H28.6836V17.3374L28.6925 17.384L29.1836 17.29ZM32.136 12.3247L33.366 12.1447L33.2212 11.1553L31.9912 11.3353L32.136 12.3247ZM33.2936 12.15C33.4325 12.15 33.4809 12.1882 33.5075 12.2176C33.5481 12.2625 33.6114 12.375 33.6359 12.6282L34.6313 12.5318C34.5958 12.165 34.4891 11.8125 34.2496 11.5474C33.9963 11.2668 33.6547 11.15 33.2936 11.15V12.15ZM33.6336 12.58C33.6336 12.6 33.64 12.6829 33.409 12.8073C33.1656 12.9383 32.7511 13.0564 32.1225 13.1337L32.2447 14.1263C32.9161 14.0436 33.4766 13.9067 33.8831 13.6877C34.3022 13.4621 34.6336 13.1 34.6336 12.58H33.6336ZM31.876 13.2358C30.9402 13.9662 30.4536 14.9289 30.4536 16.09H31.4536C31.4536 15.2511 31.787 14.5738 32.4912 14.0242L31.876 13.2358ZM30.4536 16.09V17.08H31.4536V16.09H30.4536ZM30.4617 17.1694C30.6659 18.2927 30.9498 19.1895 31.3383 19.8179C31.734 20.458 32.2822 20.88 32.9936 20.88V19.88C32.7449 19.88 32.4732 19.752 32.1889 19.2921C31.8973 18.8205 31.6413 18.0673 31.4455 16.9906L30.4617 17.1694ZM32.9936 20.88H33.2936V19.88H32.9936V20.88ZM33.2936 20.88C33.716 20.88 34.1643 20.6868 34.6104 20.4054C35.0686 20.1163 35.5851 19.6947 36.1573 19.1531L35.4699 18.4269C34.9221 18.9453 34.4586 19.3187 34.0768 19.5596C33.6829 19.8082 33.4311 19.88 33.2936 19.88V20.88ZM35.8136 19.29H35.9936V18.29H35.8136V19.29ZM35.9936 19.29C36.0966 19.29 36.2858 19.3411 36.494 19.827L37.4132 19.433C37.1414 18.7989 36.6906 18.29 35.9936 18.29V19.29ZM36.4782 19.4752C36.2661 20.1265 35.536 20.8289 34.0444 21.5158L34.4627 22.4242C36.0112 21.7111 37.0811 20.8535 37.429 19.7848L36.4782 19.4752ZM34.0566 21.5104C33.8577 21.5957 33.5799 21.65 33.2036 21.65V22.65C33.6673 22.65 34.0895 22.5843 34.4506 22.4296L34.0566 21.5104ZM33.2036 21.65C32.3261 21.65 31.6161 21.3142 31.0389 20.6163C30.4446 19.8979 29.977 18.776 29.6747 17.196L28.6925 17.384C29.0102 19.044 29.5226 20.3521 30.2683 21.2537C31.031 22.1758 32.0211 22.65 33.2036 22.65V21.65ZM29.6836 17.29V16.63H28.6836V17.29H29.6836ZM29.6836 16.63C29.6836 15.5278 29.9094 14.6371 30.3323 13.9322C30.7531 13.231 31.389 12.68 32.268 12.2863L31.8592 11.3737C30.8182 11.84 30.0141 12.519 29.4748 13.4178C28.9377 14.3129 28.6836 15.3922 28.6836 16.63H29.6836ZM40.9265 6.79L41.4256 6.81936L41.434 6.67634L41.3654 6.55057L40.9265 6.79ZM40.8065 8.83L40.3073 8.80064L40.3065 8.81531V8.83H40.8065ZM40.8065 9.97H40.3064L40.3066 9.98142L40.8065 9.97ZM40.9265 15.22L40.4266 15.2314L40.4282 15.299L40.4476 15.3637L40.9265 15.22ZM41.0165 15.52L40.5376 15.6637L40.6445 16.02H41.0165V15.52ZM41.1065 15.52V16.02H41.3031L41.447 15.8861L41.1065 15.52ZM43.3565 11.29L43.2049 10.8135L42.9581 10.8921L42.8798 11.139L43.3565 11.29ZM44.0165 11.08L44.0872 10.585L43.9739 10.5688L43.8649 10.6035L44.0165 11.08ZM42.0665 17.08L41.6847 16.7572L41.5665 16.897V17.08H42.0665ZM42.0665 17.29H41.5665V17.4755L41.6874 17.616L42.0665 17.29ZM47.1065 21.58V22.08H47.245L47.3637 22.0087L47.1065 21.58ZM47.8565 21.13V20.63H47.718L47.5992 20.7013L47.8565 21.13ZM49.0565 21.97H49.5565V21.8834L49.5274 21.8018L49.0565 21.97ZM46.9265 23.29V23.79H46.9684L47.0098 23.783L46.9265 23.29ZM41.3765 18.97L41.7685 18.6596L41.6184 18.47H41.3765V18.97ZM41.1065 18.97V18.47H40.5779L40.6073 18.9977L41.1065 18.97ZM41.1965 20.59H41.6965V20.5761L41.6957 20.5623L41.1965 20.59ZM41.1965 22.15L41.6874 22.245L41.6965 22.1979V22.15H41.1965ZM40.2665 23.08L40.1617 23.5689L40.2135 23.58H40.2665V23.08ZM39.4265 21.97H39.9265V21.9613L39.9262 21.9526L39.4265 21.97ZM39.3065 18.52L39.8062 18.5026L39.7894 18.02H39.3065V18.52ZM38.8565 17.59L38.4129 17.3593L38.3405 17.4985L38.3606 17.654L38.8565 17.59ZM39.2465 16.84L39.6901 17.0707L39.7498 16.9559L39.7463 16.8267L39.2465 16.84ZM39.0665 10.09L38.5663 10.09L38.5667 10.1033L39.0665 10.09ZM39.9965 6.63H40.1765V5.63H39.9965V6.63ZM40.1765 6.63C40.1539 6.63 40.1686 6.61749 40.2287 6.67036C40.2935 6.72742 40.3828 6.83744 40.4875 7.02943L41.3654 6.55057C41.1172 6.09552 40.7403 5.63 40.1765 5.63V6.63ZM40.4273 6.76064L40.3073 8.80064L41.3056 8.85936L41.4256 6.81936L40.4273 6.76064ZM40.3065 8.83V9.97H41.3065V8.83H40.3065ZM40.3066 9.98142L40.4266 15.2314L41.4264 15.2086L41.3064 9.95857L40.3066 9.98142ZM40.4476 15.3637L40.5376 15.6637L41.4954 15.3763L41.4054 15.0763L40.4476 15.3637ZM41.0165 16.02H41.1065V15.02H41.0165V16.02ZM41.447 15.8861C42.4027 14.9971 43.185 13.4867 43.8331 11.441L42.8798 11.139C42.248 13.1333 41.5302 14.4429 40.7659 15.1539L41.447 15.8861ZM43.5081 11.7665L44.1681 11.5565L43.8649 10.6035L43.2049 10.8135L43.5081 11.7665ZM43.9458 11.575C44.1745 11.6077 44.2755 11.6665 44.3135 11.7005C44.3339 11.7187 44.3565 11.7436 44.3565 11.83H45.3565C45.3565 11.4964 45.239 11.1863 44.9795 10.9545C44.7375 10.7385 44.4184 10.6323 44.0872 10.585L43.9458 11.575ZM44.3565 11.83C44.3565 12.3663 44.1625 13.0455 43.7175 13.8829C43.2748 14.7158 42.601 15.6733 41.6847 16.7572L42.4483 17.4028C43.3919 16.2867 44.1132 15.2692 44.6005 14.3521C45.0855 13.4395 45.3565 12.5937 45.3565 11.83H44.3565ZM41.5665 17.08V17.29H42.5665V17.08H41.5665ZM41.6874 17.616C42.9231 19.0527 43.9604 20.1451 44.7956 20.8824C45.2127 21.2505 45.5912 21.5407 45.9281 21.7414C46.2527 21.9349 46.5952 22.08 46.9265 22.08V21.08C46.8678 21.08 46.7153 21.0464 46.4399 20.8823C46.1768 20.7256 45.8503 20.4795 45.4574 20.1326C44.6726 19.4399 43.6699 18.3873 42.4456 16.9639L41.6874 17.616ZM46.9265 22.08H47.1065V21.08H46.9265V22.08ZM47.3637 22.0087L48.1137 21.5587L47.5992 20.7013L46.8492 21.1513L47.3637 22.0087ZM47.8565 21.63H48.1265V20.63H47.8565V21.63ZM48.1265 21.63C48.2134 21.63 48.2763 21.6545 48.3388 21.7111C48.4121 21.7772 48.5024 21.905 48.5856 22.1382L49.5274 21.8018C49.4106 21.475 49.2459 21.1828 49.0091 20.9689C48.7617 20.7455 48.4596 20.63 48.1265 20.63V21.63ZM48.5565 21.97C48.5565 22.0646 48.5193 22.1947 48.2606 22.355C47.9867 22.5247 47.5288 22.6811 46.8432 22.797L47.0098 23.783C47.7442 23.6589 48.3512 23.4753 48.7874 23.205C49.2387 22.9253 49.5565 22.5154 49.5565 21.97H48.5565ZM46.9265 22.79C46.3797 22.79 45.6708 22.5079 44.7811 21.8154C43.9002 21.1298 42.896 20.0838 41.7685 18.6596L40.9845 19.2804C42.137 20.7362 43.1978 21.8502 44.1669 22.6046C45.1272 23.3521 46.0533 23.79 46.9265 23.79V22.79ZM41.3765 18.47H41.1065V19.47H41.3765V18.47ZM40.6073 18.9977L40.6973 20.6177L41.6957 20.5623L41.6057 18.9423L40.6073 18.9977ZM40.6965 20.59V22.15H41.6965V20.59H40.6965ZM40.7056 22.055C40.6566 22.3082 40.5801 22.4342 40.5204 22.4939C40.4726 22.5418 40.4041 22.58 40.2665 22.58V23.58C40.6288 23.58 40.9654 23.4632 41.2275 23.2011C41.4778 22.9508 41.6164 22.6118 41.6874 22.245L40.7056 22.055ZM40.3712 22.5911C40.1567 22.5451 40.0553 22.4752 40.0075 22.4224C39.9663 22.3767 39.9265 22.3019 39.9265 22.15H38.9265C38.9265 22.4981 39.0267 22.8283 39.2654 23.0926C39.4977 23.3498 39.8163 23.4949 40.1617 23.5689L40.3712 22.5911ZM39.9265 22.15V21.97H38.9265V22.15H39.9265ZM39.9262 21.9526L39.8062 18.5026L38.8068 18.5374L38.9268 21.9874L39.9262 21.9526ZM39.3065 18.02C39.3806 18.02 39.4413 18.0498 39.4757 18.0786C39.5017 18.1003 39.4979 18.1087 39.4791 18.0697C39.4393 17.9876 39.3901 17.8187 39.3524 17.526L38.3606 17.654C38.4028 17.9813 38.4686 18.2774 38.5789 18.5053C38.6854 18.7253 38.9089 19.02 39.3065 19.02V18.02ZM39.3001 17.8207L39.6901 17.0707L38.8029 16.6093L38.4129 17.3593L39.3001 17.8207ZM39.7463 16.8267L39.5663 10.0767L38.5667 10.1033L38.7467 16.8533L39.7463 16.8267ZM39.5665 10.09V8.77H38.5665V10.09H39.5665ZM39.5665 8.77C39.5665 7.90568 39.6444 7.31444 39.7706 6.95613C39.8329 6.77926 39.895 6.69437 39.9333 6.65818C39.96 6.63287 39.9739 6.63 39.9965 6.63V5.63C39.7091 5.63 39.4517 5.73713 39.246 5.93182C39.0517 6.11562 38.9201 6.36074 38.8274 6.62387C38.6436 7.14556 38.5665 7.87432 38.5665 8.77H39.5665ZM61.6516 11.5L61.1701 11.3652L61.1332 11.4971L61.1686 11.6294L61.6516 11.5ZM63.6016 12.25L63.1078 12.329L63.1752 12.75H63.6016V12.25ZM63.7216 12.25V12.75H63.7753L63.8278 12.7386L63.7216 12.25ZM65.1016 11.95V11.45H65.0478L64.9953 11.4614L65.1016 11.95ZM66.9616 13.75L66.5143 13.9736L66.6525 14.25H66.9616V13.75ZM67.0816 13.75V14.25H67.3557L67.5031 14.0188L67.0816 13.75ZM69.7816 11.68L69.8719 11.1882L69.8271 11.18H69.7816V11.68ZM72.7216 15.52H72.2216V15.5343L72.2224 15.5485L72.7216 15.52ZM72.7816 16.57L73.2811 16.5923L73.2822 16.5669L73.2807 16.5415L72.7816 16.57ZM72.5116 22.63L72.0121 22.6077L72.0116 22.6189V22.63H72.5116ZM71.5816 24.07V24.57H71.6137L71.6455 24.5659L71.5816 24.07ZM70.6516 21.88L70.1527 21.8469L70.1516 21.8634V21.88H70.6516ZM71.0116 16.45L71.5105 16.4831L71.5116 16.4666V16.45H71.0116ZM67.6516 17.38L67.1714 17.2407L67.1604 17.2783L67.1555 17.3172L67.6516 17.38ZM66.2116 22.09L66.1476 22.5859L66.7116 22.6587V22.09H66.2116ZM65.2816 21.13L64.7844 21.0766L64.7816 21.1032V21.13H65.2816ZM65.6716 17.5L66.1687 17.5534L66.1722 17.5208L66.1714 17.488L65.6716 17.5ZM64.8316 13.75V13.25H64.6631L64.529 13.3519L64.8316 13.75ZM64.0816 17.59L64.5816 17.6031V17.59H64.0816ZM63.9616 22.18L64.443 22.3148L64.4598 22.2551L64.4614 22.1931L63.9616 22.18ZM62.2216 21.88L61.7218 21.8969L61.723 21.9309L61.7288 21.9645L62.2216 21.88ZM62.1016 18.34L61.6025 18.3091L61.601 18.333L61.6018 18.3569L62.1016 18.34ZM62.2816 15.43L62.7806 15.4609L62.7828 15.4255L62.78 15.3901L62.2816 15.43ZM62.133 11.6348C62.1823 11.4588 62.2493 11.3746 62.3044 11.3315C62.3577 11.2899 62.4467 11.25 62.6116 11.25V10.25C62.2765 10.25 61.9554 10.3351 61.6887 10.5435C61.4239 10.7504 61.2608 11.0412 61.1701 11.3652L62.133 11.6348ZM62.6116 11.25C62.6585 11.25 62.7232 11.2586 62.8168 11.4004C62.9245 11.5637 63.0324 11.8572 63.1078 12.329L64.0953 12.171C64.0108 11.6428 63.8736 11.1863 63.6514 10.8496C63.4149 10.4914 63.0646 10.25 62.6116 10.25V11.25ZM63.6016 12.75H63.7216V11.75H63.6016V12.75ZM63.8278 12.7386L65.2078 12.4386L64.9953 11.4614L63.6153 11.7614L63.8278 12.7386ZM65.1016 12.45C65.2519 12.45 65.4489 12.5174 65.6989 12.7593C65.9522 13.0045 66.2272 13.3993 66.5143 13.9736L67.4088 13.5264C67.0959 12.9007 66.7609 12.3955 66.3943 12.0407C66.0243 11.6826 65.5912 11.45 65.1016 11.45V12.45ZM66.9616 14.25H67.0816V13.25H66.9616V14.25ZM67.5031 14.0188C68.3621 12.6719 69.1318 12.18 69.7816 12.18V11.18C68.5914 11.18 67.561 12.0681 66.66 13.4812L67.5031 14.0188ZM69.6912 12.1718C70.5793 12.3349 71.1917 12.6943 71.5896 13.214C71.9921 13.7398 72.2216 14.4903 72.2216 15.52H73.2216C73.2216 14.3497 72.961 13.3602 72.3836 12.606C71.8014 11.8457 70.9438 11.3851 69.8719 11.1882L69.6912 12.1718ZM72.2224 15.5485L72.2824 16.5985L73.2807 16.5415L73.2207 15.4915L72.2224 15.5485ZM72.2821 16.5477L72.0121 22.6077L73.0111 22.6523L73.2811 16.5923L72.2821 16.5477ZM72.0116 22.63V23.2H73.0116V22.63H72.0116ZM72.0116 23.2C72.0116 23.3384 71.9734 23.3938 71.9375 23.4274C71.8875 23.4741 71.7704 23.5415 71.5176 23.5741L71.6455 24.5659C72.0127 24.5185 72.3606 24.4009 72.6206 24.1576C72.8947 23.9012 73.0116 23.5616 73.0116 23.2H72.0116ZM71.5816 23.57C71.5326 23.57 71.5071 23.5584 71.4834 23.5398C71.4524 23.5155 71.3996 23.4574 71.3443 23.3271C71.2292 23.056 71.1516 22.5898 71.1516 21.88H70.1516C70.1516 22.6302 70.229 23.259 70.4238 23.7179C70.5235 23.9526 70.6645 24.1683 70.866 24.3264C71.0748 24.4903 71.3205 24.57 71.5816 24.57V23.57ZM71.1505 21.9131L71.5105 16.4831L70.5127 16.4169L70.1527 21.8469L71.1505 21.9131ZM71.5116 16.45C71.5116 15.4267 71.3938 14.5879 71.1116 13.9873C70.9674 13.6805 70.7712 13.4166 70.5077 13.2297C70.2394 13.0394 69.9307 12.95 69.6016 12.95V13.95C69.7425 13.95 69.8449 13.9856 69.9292 14.0453C70.0181 14.1084 70.1157 14.2195 70.2066 14.4127C70.3943 14.8121 70.5116 15.4733 70.5116 16.45H71.5116ZM69.6016 12.95C69.2573 12.95 68.9908 13.1558 68.8058 13.3594C68.6124 13.5724 68.4327 13.8646 68.2612 14.2103C67.9161 14.9056 67.5538 15.9221 67.1714 17.2407L68.1318 17.5193C68.5093 16.2179 68.852 15.2694 69.157 14.6547C69.3104 14.3454 69.442 14.1464 69.546 14.0318C69.6585 13.908 69.6758 13.95 69.6016 13.95V12.95ZM67.1555 17.3172C66.9659 18.8141 66.7953 19.9235 66.6444 20.6538C66.5683 21.0223 66.501 21.2745 66.4452 21.4266C66.4162 21.5059 66.3999 21.5307 66.4027 21.5267C66.4044 21.5242 66.424 21.4952 66.4664 21.4631C66.5117 21.429 66.5995 21.38 66.7216 21.38V22.38C67.0188 22.38 67.1806 22.1603 67.227 22.0927C67.2942 21.9949 67.3444 21.8791 67.3841 21.7709C67.4659 21.548 67.5449 21.2377 67.6237 20.8562C67.7828 20.0865 67.9572 18.9459 68.1476 17.4428L67.1555 17.3172ZM66.7216 21.38C66.5322 21.38 66.3256 21.3973 66.1487 21.4702C66.0555 21.5085 65.9443 21.573 65.8548 21.6835C65.7587 21.8022 65.7116 21.945 65.7116 22.09H66.7116C66.7116 22.165 66.6857 22.2465 66.6321 22.3127C66.5851 22.3708 66.5377 22.3915 66.5294 22.3948C66.5206 22.3985 66.5293 22.3936 66.5664 22.3885C66.6018 22.3836 66.6526 22.38 66.7216 22.38V21.38ZM66.2755 21.5941C66.0334 21.5629 65.923 21.4936 65.8732 21.4421C65.8303 21.3978 65.7816 21.3151 65.7816 21.13H64.7816C64.7816 21.5049 64.8879 21.8622 65.1549 22.1379C65.4151 22.4064 65.7697 22.5371 66.1476 22.5859L66.2755 21.5941ZM65.7787 21.1834L66.1687 17.5534L65.1744 17.4466L64.7844 21.0766L65.7787 21.1834ZM66.1714 17.488C66.1413 16.231 66.0631 15.2583 65.9294 14.5894C65.8634 14.2596 65.7769 13.966 65.6537 13.7427C65.5375 13.5322 65.3084 13.25 64.9216 13.25V14.25C64.7548 14.25 64.7219 14.124 64.7782 14.226C64.8275 14.3153 64.8897 14.4904 64.9488 14.7856C65.065 15.3667 65.1419 16.269 65.1717 17.512L66.1714 17.488ZM64.9216 13.25H64.8316V14.25H64.9216V13.25ZM64.529 13.3519C63.8342 13.88 63.5816 14.841 63.5816 16H64.5816C64.5816 14.919 64.829 14.38 65.1341 14.1481L64.529 13.3519ZM63.5816 16V17.59H64.5816V16H63.5816ZM63.5817 17.5769L63.4617 22.1669L64.4614 22.1931L64.5814 17.6031L63.5817 17.5769ZM63.4801 22.0452C63.4297 22.2253 63.3628 22.3109 63.3102 22.3533C63.2613 22.3927 63.1817 22.43 63.0316 22.43V23.43C63.3615 23.43 63.6768 23.3423 63.9379 23.1317C64.1954 22.9241 64.3535 22.6347 64.443 22.3148L63.4801 22.0452ZM63.0316 22.43C62.9858 22.43 62.9561 22.4219 62.91 22.3621C62.8462 22.2795 62.7681 22.1087 62.7144 21.7955L61.7288 21.9645C61.7951 22.3513 61.9119 22.7055 62.1182 22.9729C62.3421 23.2631 62.6574 23.43 63.0316 23.43V22.43ZM62.7213 21.8631L62.6013 18.3231L61.6018 18.3569L61.7218 21.8969L62.7213 21.8631ZM62.6006 18.3709L62.7806 15.4609L61.7825 15.3991L61.6025 18.3091L62.6006 18.3709ZM62.78 15.3901C62.6582 13.8683 62.4443 12.5271 62.1345 11.3706L61.1686 11.6294C61.4588 12.7129 61.6649 13.9917 61.7832 15.4699L62.78 15.3901ZM77.143 11.23L77.1555 10.73H77.143V11.23ZM81.193 15.43L81.6896 15.3716L81.6753 15.2494L81.6058 15.1479L81.193 15.43ZM81.253 15.94H81.753V15.9107L81.7496 15.8816L81.253 15.94ZM77.143 17.23L77.0886 16.733L76.9138 16.7521L76.7895 16.8764L77.143 17.23ZM77.053 17.32L76.6995 16.9664L76.553 17.1129V17.32H77.053ZM77.053 17.44H76.553V17.4976L76.5661 17.5536L77.053 17.44ZM81.643 18.07V17.57H81.4271L81.2791 17.7272L81.643 18.07ZM82.753 18.94H83.253V18.8484L83.2205 18.7627L82.753 18.94ZM80.233 21.43L80.4874 21.8605L80.5043 21.8505L80.5204 21.8392L80.233 21.43ZM78.643 22V22.5H78.691L78.7381 22.4909L78.643 22ZM75.253 17.44L75.7423 17.337L75.6709 16.9978L75.3283 16.9457L75.253 17.44ZM74.893 15.43H75.393V14.8166L74.7922 14.9403L74.893 15.43ZM74.893 15.55H74.393V16.2885L75.0787 16.0142L74.893 15.55ZM75.193 15.43L75.3787 15.8942L75.693 15.7685V15.43H75.193ZM77.323 13.39L77.6376 13.0014L77.5001 12.89H77.323V13.39ZM77.053 13.39V12.89H76.6042L76.5559 13.3363L77.053 13.39ZM76.933 14.5L76.4359 14.4463L76.433 14.4731V14.5H76.933ZM76.933 15.43H76.433V15.93H76.933V15.43ZM77.053 15.43V15.93H77.062L77.0709 15.9297L77.053 15.43ZM78.733 15.07H79.233V14.9186L79.1491 14.7926L78.733 15.07ZM77.1306 11.7298C77.1959 11.7315 77.3369 11.7666 77.5706 11.921C77.7975 12.0708 78.0721 12.3066 78.3956 12.6421C79.0422 13.3126 79.8364 14.3311 80.7802 15.7121L81.6058 15.1479C80.6497 13.7489 79.8189 12.6774 79.1155 11.9479C78.764 11.5834 78.4324 11.2917 78.1217 11.0865C77.818 10.8859 77.4902 10.7385 77.1555 10.7302L77.1306 11.7298ZM80.6965 15.4884L80.7565 15.9984L81.7496 15.8816L81.6896 15.3716L80.6965 15.4884ZM80.753 15.94C80.753 15.8501 80.8134 15.8508 80.7033 15.9304C80.5956 16.0082 80.3976 16.1044 80.0758 16.2054C79.4384 16.4055 78.45 16.5839 77.0886 16.733L77.1975 17.727C78.5761 17.5761 79.6426 17.3895 80.3753 17.1596C80.7385 17.0456 81.0542 16.9106 81.289 16.7409C81.5214 16.5729 81.753 16.3099 81.753 15.94H80.753ZM76.7895 16.8764L76.6995 16.9664L77.4066 17.6736L77.4966 17.5836L76.7895 16.8764ZM76.553 17.32V17.44H77.553V17.32H76.553ZM76.5661 17.5536C76.7788 18.465 77.0039 19.1836 77.2489 19.6846C77.3708 19.9341 77.5109 20.1574 77.6782 20.3248C77.8479 20.4944 78.0813 20.64 78.373 20.64V19.64C78.4348 19.64 78.4407 19.6731 78.3854 19.6177C78.3277 19.5601 78.2452 19.4459 78.1472 19.2454C77.9522 18.8464 77.7473 18.215 77.54 17.3264L76.5661 17.5536ZM78.373 20.64H78.733V19.64H78.373V20.64ZM78.733 20.64C79.2138 20.64 79.7234 20.3905 80.2304 20.0299C80.7531 19.6581 81.346 19.1145 82.007 18.4128L81.2791 17.7272C80.6401 18.4055 80.098 18.8969 79.6507 19.2151C79.1877 19.5445 78.8923 19.64 78.733 19.64V20.64ZM81.643 18.57H81.823V17.57H81.643V18.57ZM81.823 18.57C81.9087 18.57 82.0923 18.6079 82.2855 19.1173L83.2205 18.7627C82.9738 18.1121 82.5374 17.57 81.823 17.57V18.57ZM82.253 18.94C82.253 18.9219 82.257 18.9672 82.1746 19.0957C82.097 19.2169 81.9674 19.3734 81.7716 19.5668C81.3807 19.9531 80.7769 20.437 79.9457 21.0208L80.5204 21.8392C81.3692 21.243 82.0254 20.7219 82.4745 20.2782C82.6987 20.0566 82.8841 19.8419 83.0164 19.6355C83.144 19.4365 83.253 19.1981 83.253 18.94H82.253ZM79.9787 20.9995C79.598 21.2245 79.1246 21.3975 78.548 21.5091L78.7381 22.4909C79.4015 22.3625 79.9881 22.1555 80.4874 21.8605L79.9787 20.9995ZM78.643 21.5C78.0193 21.5 77.4706 21.2192 76.9818 20.5617C76.4789 19.8852 76.0558 18.8261 75.7423 17.337L74.7638 17.543C75.0903 19.0939 75.5522 20.3148 76.1793 21.1583C76.8205 22.0208 77.6468 22.5 78.643 22.5V21.5ZM75.3283 16.9457C74.9119 16.8823 74.6681 16.7732 74.5365 16.6645C74.4266 16.5737 74.373 16.4676 74.373 16.3H73.373C73.373 16.7524 73.5495 17.1463 73.8996 17.4355C74.228 17.7068 74.6742 17.8577 75.1778 17.9343L75.3283 16.9457ZM74.373 16.3C74.373 16.229 74.3919 16.1846 74.4525 16.1329C74.5324 16.0648 74.6949 15.9813 74.9939 15.9197L74.7922 14.9403C74.4112 15.0187 74.0637 15.1502 73.8036 15.3721C73.5242 15.6104 73.373 15.931 73.373 16.3H74.373ZM74.393 15.43V15.55H75.393V15.43H74.393ZM75.0787 16.0142L75.3787 15.8942L75.0074 14.9658L74.7074 15.0858L75.0787 16.0142ZM75.693 15.43V14.68H74.693V15.43H75.693ZM75.693 14.68C75.693 13.5607 75.8541 12.8016 76.1158 12.3385C76.3539 11.9173 76.6769 11.73 77.143 11.73V10.73C76.3092 10.73 75.6572 11.1177 75.2453 11.8465C74.857 12.5334 74.693 13.4993 74.693 14.68H75.693ZM77.323 12.89H77.053V13.89H77.323V12.89ZM76.5559 13.3363L76.4359 14.4463L77.4302 14.5537L77.5502 13.4437L76.5559 13.3363ZM76.433 14.5V15.43H77.433V14.5H76.433ZM76.933 15.93H77.053V14.93H76.933V15.93ZM77.0709 15.9297C77.638 15.9094 78.0936 15.8684 78.4178 15.7989C78.5755 15.7651 78.7396 15.7171 78.8761 15.6391C79.0012 15.5677 79.233 15.3912 79.233 15.07H78.233C78.233 14.9685 78.2714 14.8866 78.3121 14.8343C78.3307 14.8104 78.3481 14.7946 78.3594 14.7854C78.3707 14.7763 78.3784 14.7718 78.38 14.7709C78.3819 14.7698 78.3706 14.7763 78.3387 14.7869C78.3079 14.7972 78.2652 14.8089 78.2083 14.8211C77.9725 14.8716 77.5881 14.9106 77.0352 14.9303L77.0709 15.9297ZM79.1491 14.7926C78.6184 13.9967 78.1154 13.3882 77.6376 13.0014L77.0084 13.7786C77.3707 14.0718 77.8077 14.5833 78.317 15.3473L79.1491 14.7926ZM84.6859 1.63L84.8746 1.16695L84.7526 1.11725L84.622 1.13411L84.6859 1.63ZM85.4959 2.59H84.9957L84.9961 2.60408L85.4959 2.59ZM86.1859 14.89L86.6502 15.0757L86.6975 14.9574L86.6824 14.8309L86.1859 14.89ZM84.2059 12.07H84.7059V12.0194L84.6958 11.9698L84.2059 12.07ZM83.7559 2.5H83.2558L83.2561 2.51091L83.7559 2.5ZM84.8659 22.27L84.3858 22.1306L84.3392 22.2911L84.3984 22.4473L84.8659 22.27ZM86.8159 22.27L87.2834 22.4473L87.3427 22.2911L87.2961 22.1306L86.8159 22.27ZM84.4973 2.09305C84.7202 2.18384 84.8449 2.27873 84.9113 2.35743C84.9699 2.42692 84.9959 2.49761 84.9959 2.59H85.9959C85.9959 2.26239 85.887 1.96307 85.6756 1.71256C85.472 1.47127 85.1917 1.29616 84.8746 1.16695L84.4973 2.09305ZM84.9961 2.60408C85.1562 8.28539 85.3866 12.4049 85.6894 14.9491L86.6824 14.8309C86.3853 12.3351 86.1557 8.25461 85.9957 2.57592L84.9961 2.60408ZM85.7217 14.7043C85.5599 15.1087 85.4061 15.14 85.3159 15.14V16.14C85.9858 16.14 86.4119 15.6713 86.6502 15.0757L85.7217 14.7043ZM85.3159 15.14C85.2983 15.14 85.1319 15.1492 84.9609 14.599C84.7988 14.0779 84.7059 13.2466 84.7059 12.07H83.7059C83.7059 13.2734 83.798 14.2271 84.006 14.896C84.2049 15.5358 84.5936 16.14 85.3159 16.14V15.14ZM84.6958 11.9698C84.6152 11.5756 84.5334 10.6004 84.4579 8.99401C84.3832 7.40513 84.3158 5.23742 84.2558 2.48909L83.2561 2.51091C83.3161 5.26258 83.3837 7.43986 83.459 9.04098C83.5335 10.6246 83.6167 11.6844 83.7161 12.1702L84.6958 11.9698ZM84.2559 2.5C84.2559 2.36161 84.2941 2.30623 84.33 2.27264C84.38 2.22586 84.4971 2.15852 84.7499 2.12589L84.622 1.13411C84.2548 1.18148 83.9069 1.29914 83.6469 1.54236C83.3728 1.79877 83.2559 2.13839 83.2559 2.5H84.2559ZM85.3461 22.4094C85.4221 22.1478 85.5131 22.0049 85.5888 21.9316C85.6522 21.8702 85.7211 21.84 85.8259 21.84V20.84C85.4708 20.84 85.1496 20.9648 84.893 21.2134C84.6487 21.4501 84.4898 21.7722 84.3858 22.1306L85.3461 22.4094ZM85.8259 21.84C85.9471 21.84 86.0248 21.8746 86.0911 21.9369C86.1688 22.0099 86.2607 22.1508 86.3358 22.4094L87.2961 22.1306C87.1912 21.7692 87.0281 21.4451 86.7758 21.2081C86.5121 20.9604 86.1847 20.84 85.8259 20.84V21.84ZM86.3484 22.0927C86.1552 22.6021 85.9716 22.64 85.8859 22.64V23.64C86.6003 23.64 87.0367 23.0979 87.2834 22.4473L86.3484 22.0927ZM85.8859 22.64H85.7959V23.64H85.8859V22.64ZM85.7959 22.64C85.7103 22.64 85.5267 22.6021 85.3334 22.0927L84.3984 22.4473C84.6452 23.0979 85.0816 23.64 85.7959 23.64V22.64Z" fill="#F5F5F5" mask="url(#path-4-outside-1_93_31)"/>
</g>
</g>
<defs>
<filter id="filter0_d_93_31" x="0" y="1.62988" width="90.8159" height="30.4402" filterUnits="userSpaceOnUse" color-interpolation-filters="sRGB">
<feFlood flood-opacity="0" result="BackgroundImageFix"/>
<feColorMatrix in="SourceAlpha" type="matrix" values="0 0 0 0 0 0 0 0 0 0 0 0 0 0 0 0 0 0 127 0" result="hardAlpha"/>
<feOffset dy="4"/>
<feGaussianBlur stdDeviation="2"/>
<feComposite in2="hardAlpha" operator="out"/>
<feColorMatrix type="matrix" values="0 0 0 0 0.00784314 0 0 0 0 0 0 0 0 0 0.00392157 0 0 0 0.12 0"/>
<feBlend mode="normal" in2="BackgroundImageFix" result="effect1_dropShadow_93_31"/>
<feBlend mode="normal" in="SourceGraphic" in2="effect1_dropShadow_93_31" result="shape"/>
</filter>
</defs>
</svg>
