<svg width="472" height="189" viewBox="0 0 472 189" fill="none" xmlns="http://www.w3.org/2000/svg">
<g id="LoFiWireframeLabelAndPen">
<g id="UI/UX label">
<g id="Rectangle 27" filter="url(#filter0_d_435_131)">
<rect x="4" y="31.4741" width="301" height="42.6626" rx="10" fill="#DADFF5"/>
</g>
<path id="Lo-Fi Wireframes" d="M50.64 43.5248C51.28 43.5248 51.6933 44.5248 51.88 46.5248L52.04 48.6848C52.04 50.3115 51.7467 54.5515 51.16 61.4048H51.4V61.5248L51.56 61.4048H51.88L56.56 61.7648H56.88L58.88 61.1648H59.16C59.5867 61.4315 59.88 61.8048 60.04 62.2848C60.04 63.2982 58.9067 63.9248 56.64 64.1648L52.56 63.7648H51.8L49.88 64.2848C49.16 64.0182 48.8 63.5915 48.8 63.0048L49.64 49.2848V48.6848L49.4 44.6848C49.4 44.0182 49.8133 43.6315 50.64 43.5248ZM67.7772 48.8848C69.7505 48.8848 71.2439 50.3515 72.2572 53.2848L72.4172 54.1248C72.4172 56.9782 71.0839 59.8982 68.4172 62.8848C67.3505 63.8715 66.2705 64.3648 65.1772 64.3648C63.5772 64.3648 62.4439 63.4448 61.7772 61.6048C61.5372 60.7515 61.4172 60.0048 61.4172 59.3648V58.8848C61.4172 54.6715 62.9505 51.4715 66.0172 49.2848C66.5505 49.0182 67.1372 48.8848 67.7772 48.8848ZM63.7772 59.2848C63.7772 61.0982 64.2439 62.0048 65.1772 62.0048C67.1239 62.0048 68.7372 59.5115 70.0172 54.5248V53.7648C69.5639 52.1115 68.7239 51.2848 67.4972 51.2848C67.0172 51.2848 66.7772 51.6182 66.7772 52.2848C66.7772 52.7382 66.2439 53.0982 65.1772 53.3648C64.2439 54.9382 63.7772 56.9115 63.7772 59.2848ZM78.8697 52.9648L86.1097 52.4848C86.7764 52.4848 87.163 52.8982 87.2697 53.7248C87.2697 54.5515 86.0164 54.9648 83.5097 54.9648C81.6697 55.2315 80.043 55.3648 78.6297 55.3648C76.8964 55.1515 76.0297 54.6582 76.0297 53.8848C76.0297 53.3515 76.3897 52.9248 77.1097 52.6048L78.6297 52.9648H78.8697ZM103.028 38.9248C104.388 38.9248 105.188 39.4182 105.428 40.4048C105.428 40.8048 105.041 41.2315 104.268 41.6848L102.948 41.3248H102.788C101.294 41.3248 99.5875 43.4448 97.6675 47.6848C97.4008 48.7248 97.2675 49.7248 97.2675 50.6848V52.3248H97.4275C100.681 51.5515 102.761 51.1648 103.668 51.1648C104.841 51.3782 105.428 51.8448 105.428 52.5648C105.188 53.3115 104.801 53.6848 104.268 53.6848L103.548 53.5648C100.828 53.8048 98.8275 54.2182 97.5475 54.8048V55.0848L98.0275 61.5648C98.0275 64.6315 97.4142 66.1648 96.1875 66.1648C95.7608 66.1648 95.3742 65.8315 95.0275 65.1648C95.4542 64.0715 95.6675 62.6982 95.6675 61.0448C95.6675 59.3648 95.5075 57.4582 95.1875 55.3248L93.2675 55.5648C91.5342 55.4048 90.6675 54.8582 90.6675 53.9248C90.9342 53.1782 91.3608 52.8048 91.9475 52.8048L92.9475 53.0848H93.6675L94.9475 52.9248V50.6848C94.9475 46.5515 96.7742 42.9248 100.428 39.8048C101.254 39.2182 102.121 38.9248 103.028 38.9248ZM107.717 43.1248C108.73 43.3382 109.237 43.7915 109.237 44.4848C108.97 45.2315 108.543 45.6048 107.957 45.6048C106.97 45.4182 106.477 44.9248 106.477 44.1248C106.743 43.4582 107.157 43.1248 107.717 43.1248ZM109.237 48.7248C109.663 48.7248 110.023 49.1115 110.317 49.8848L109.957 52.7248V54.6048C109.957 56.7915 110.33 59.6582 111.077 63.2048C110.81 63.7115 110.357 63.9648 109.717 63.9648C108.623 63.9648 107.903 60.7648 107.557 54.3648V52.9648C107.557 50.1382 108.117 48.7248 109.237 48.7248ZM137.653 35.3248C139.813 35.3248 142.48 36.7382 145.653 39.5648C149.973 44.5782 152.133 49.7782 152.133 55.1648C152.133 60.5248 149.506 64.1915 144.253 66.1648L143.133 66.3248C140.306 66.3248 138.093 64.2715 136.493 60.1648H136.413C135.48 63.4982 134.226 65.1648 132.653 65.1648H132.413C130.333 65.1648 128.906 61.2448 128.133 53.4048V51.0848C128.186 48.3115 128.973 46.7248 130.493 46.3248C130.92 46.3248 131.306 46.7382 131.653 47.5648C130.88 48.6315 130.493 49.8848 130.493 51.3248V51.6848C130.493 56.6182 131.213 60.2848 132.653 62.6848C133.72 61.9115 134.506 58.7382 135.013 53.1648C135.013 48.6582 135.346 46.4048 136.013 46.4048L136.413 46.3248C137.293 46.3248 137.733 47.1915 137.733 48.9248L137.493 53.3248C137.493 56.2848 138.413 59.3648 140.253 62.5648C141.16 63.4715 142.08 63.9248 143.013 63.9248C144.533 63.9248 146.16 62.9782 147.893 61.0848C149.12 59.4582 149.733 57.4048 149.733 54.9248C149.733 49.4315 147.32 44.3915 142.493 39.8048C141.24 38.7915 139.32 37.9648 136.733 37.3248L136.413 36.5648C136.6 35.7382 137.013 35.3248 137.653 35.3248ZM154.162 43.1248C155.175 43.3382 155.682 43.7915 155.682 44.4848C155.415 45.2315 154.989 45.6048 154.402 45.6048C153.415 45.4182 152.922 44.9248 152.922 44.1248C153.189 43.4582 153.602 43.1248 154.162 43.1248ZM155.682 48.7248C156.109 48.7248 156.469 49.1115 156.762 49.8848L156.402 52.7248V54.6048C156.402 56.7915 156.775 59.6582 157.522 63.2048C157.255 63.7115 156.802 63.9648 156.162 63.9648C155.069 63.9648 154.349 60.7648 154.002 54.3648V52.9648C154.002 50.1382 154.562 48.7248 155.682 48.7248ZM164.86 48.2048C166.54 48.2048 167.54 49.3782 167.86 51.7248V52.0848C167.86 54.6715 166.527 57.0448 163.86 59.2048C165.407 60.7248 168.114 61.4848 171.98 61.4848C172.567 61.6715 172.86 62.0848 172.86 62.7248C172.86 63.4448 172.394 63.8048 171.46 63.8048C168.847 63.8048 166.1 63.1382 163.22 61.8048V62.9648C163.22 65.7115 162.634 67.0848 161.46 67.0848C160.634 67.0848 160.22 65.4982 160.22 62.3248V59.2048L160.1 58.0848L160.38 56.8048L160.1 52.9648V52.8048C160.1 52.0848 160.474 51.5915 161.22 51.3248C162.26 49.2448 163.474 48.2048 164.86 48.2048ZM162.86 56.9648C163.634 56.9648 164.5 55.5782 165.46 52.8048V51.0848L164.98 50.5648H164.62C163.447 51.3648 162.86 53.4982 162.86 56.9648ZM177.79 49.6048C178.856 49.6315 180.656 51.4982 183.19 55.2048L183.27 55.8848C183.27 56.6315 181.443 57.2048 177.79 57.6048L177.67 57.7248V57.8848C178.23 60.2848 178.816 61.4848 179.43 61.4848H179.91C180.763 61.4848 182.056 60.5648 183.79 58.7248H184.03C184.563 58.7248 184.976 59.1115 185.27 59.8848C185.27 60.5248 184.15 61.6315 181.91 63.2048C181.323 63.5515 180.616 63.8048 179.79 63.9648C177.63 63.9648 176.123 61.9382 175.27 57.8848C174.043 57.6982 173.43 57.1915 173.43 56.3648C173.43 55.7782 173.883 55.3915 174.79 55.2048V55.3648L175.19 55.2048V54.2048C175.19 51.1382 176.056 49.6048 177.79 49.6048ZM178.03 52.4848H177.67L177.51 53.9648V55.2048H177.67C179.163 55.1515 179.91 54.9915 179.91 54.7248C179.216 53.6848 178.59 52.9382 178.03 52.4848ZM193.047 45.9648C194.3 45.9648 195.167 47.2982 195.647 49.9648V50.1248C195.647 50.7382 195.234 51.0982 194.407 51.2048C193.74 51.2048 193.287 50.3782 193.047 48.7248L192.887 48.6048H192.407C191.82 49.4582 191.527 50.5782 191.527 51.9648L191.647 53.9648C192.714 53.9648 193.874 53.6848 195.127 53.1248C195.634 53.1248 196.1 53.4848 196.527 54.2048C196.527 55.2982 195.034 56.0182 192.047 56.3648L193.047 62.8848C193.047 63.4448 192.58 63.8048 191.647 63.9648C190.82 63.9648 190.407 62.6848 190.407 60.1248L189.647 56.7248L187.047 57.1248C186.487 57.1248 186.154 56.7115 186.047 55.8848C186.047 55.0848 187.127 54.5782 189.287 54.3648L189.127 51.8848C189.554 47.9382 190.86 45.9648 193.047 45.9648ZM202.868 48.2048C204.548 48.2048 205.548 49.3782 205.868 51.7248V52.0848C205.868 54.6715 204.535 57.0448 201.868 59.2048C203.415 60.7248 206.121 61.4848 209.988 61.4848C210.575 61.6715 210.868 62.0848 210.868 62.7248C210.868 63.4448 210.401 63.8048 209.468 63.8048C206.855 63.8048 204.108 63.1382 201.228 61.8048V62.9648C201.228 65.7115 200.641 67.0848 199.468 67.0848C198.641 67.0848 198.228 65.4982 198.228 62.3248V59.2048L198.108 58.0848L198.388 56.8048L198.108 52.9648V52.8048C198.108 52.0848 198.481 51.5915 199.228 51.3248C200.268 49.2448 201.481 48.2048 202.868 48.2048ZM200.868 56.9648C201.641 56.9648 202.508 55.5782 203.468 52.8048V51.0848L202.988 50.5648H202.628C201.455 51.3648 200.868 53.4982 200.868 56.9648ZM219.678 48.5248C220.851 48.5248 221.438 48.9915 221.438 49.9248L221.078 50.6848L220.838 58.0048C220.838 61.3115 221.504 63.3648 222.838 64.1648L222.918 64.7648C222.838 65.5382 222.478 65.9248 221.838 65.9248H221.598C219.598 64.5648 218.598 62.4848 218.598 59.6848H218.318C217.251 62.6715 215.958 64.1648 214.438 64.1648C213.024 63.7648 212.318 62.7115 212.318 61.0048C212.318 57.2448 213.824 53.4982 216.838 49.7648C217.851 48.9382 218.798 48.5248 219.678 48.5248ZM214.838 59.4048L214.678 60.5248V61.2848H215.078C217.078 56.2982 218.078 53.2582 218.078 52.1648H217.918C216.371 53.8982 215.344 56.3115 214.838 59.4048ZM224.517 49.9648C224.704 49.2982 225.131 48.9648 225.797 48.9648C226.464 48.9648 226.904 49.6315 227.117 50.9648H227.277L229.117 50.5648C229.971 50.5648 230.797 51.3648 231.597 52.9648H231.757C232.931 51.1248 234.131 50.2048 235.357 50.2048C237.971 50.6848 239.277 52.3915 239.277 55.3248L239.357 56.7248L238.997 64.8048V65.5648C238.997 66.2315 238.584 66.6182 237.757 66.7248C236.931 66.7248 236.517 65.7515 236.517 63.8048L236.997 56.5648C236.997 53.8982 236.371 52.5648 235.117 52.5648C234.397 52.5648 233.531 54.3115 232.517 57.8048C232.011 61.8048 231.597 63.8048 231.277 63.8048C230.824 63.8048 230.597 63.8982 230.597 64.0848C229.771 63.9782 229.357 63.5515 229.357 62.8048L229.877 57.9648C229.797 54.6315 229.464 52.9648 228.877 52.9648H228.757C228.091 53.4715 227.757 54.4715 227.757 55.9648V58.0848L227.597 64.2048C227.411 64.8715 226.997 65.2048 226.357 65.2048C225.797 65.2048 225.437 64.7382 225.277 63.8048L225.117 59.0848L225.357 55.2048C225.197 53.2048 224.917 51.4582 224.517 49.9648ZM245.173 49.6048C246.239 49.6315 248.039 51.4982 250.573 55.2048L250.653 55.8848C250.653 56.6315 248.826 57.2048 245.173 57.6048L245.053 57.7248V57.8848C245.613 60.2848 246.199 61.4848 246.813 61.4848H247.293C248.146 61.4848 249.439 60.5648 251.173 58.7248H251.413C251.946 58.7248 252.359 59.1115 252.653 59.8848C252.653 60.5248 251.533 61.6315 249.293 63.2048C248.706 63.5515 247.999 63.8048 247.173 63.9648C245.013 63.9648 243.506 61.9382 242.653 57.8848C241.426 57.6982 240.812 57.1915 240.812 56.3648C240.812 55.7782 241.266 55.3915 242.173 55.2048V55.3648L242.573 55.2048V54.2048C242.573 51.1382 243.439 49.6048 245.173 49.6048ZM245.413 52.4848H245.053L244.893 53.9648V55.2048H245.053C246.546 55.1515 247.293 54.9915 247.293 54.7248C246.599 53.6848 245.973 52.9382 245.413 52.4848ZM262.23 47.7648C262.95 47.7648 263.443 48.9782 263.71 51.4048C263.443 52.0715 263.003 52.4048 262.39 52.4048C261.963 52.3248 261.536 51.8315 261.11 50.9248L260.39 50.6848C259.136 50.6848 258.003 51.5115 256.99 53.1648V53.5248C256.99 53.9248 258.87 54.5915 262.63 55.5248C264.203 56.4582 264.99 57.5915 264.99 58.9248C264.99 61.1115 263.23 62.9782 259.71 64.5248L258.23 64.7648C255.99 64.5248 254.87 63.4048 254.87 61.4048V61.2848C254.87 60.6448 255.283 60.2715 256.11 60.1648C256.75 60.1648 257.176 60.8315 257.39 62.1648L257.71 62.4048H258.39C259.91 62.4048 261.323 61.3648 262.63 59.2848V58.7648C262.63 57.9648 260.883 57.2182 257.39 56.5248C255.55 55.7782 254.63 54.7382 254.63 53.4048C254.63 51.6715 256.083 50.0448 258.99 48.5248C260.27 48.3648 261.35 48.1115 262.23 47.7648Z" fill="#8693CB"/>
</g>
<path id="Vector 4360" d="M278.5 101.474L267.5 94.9734L459 106.474L451.5 113.474L278.5 101.474Z" fill="#D9D9D9" fill-opacity="0.5"/>
<g id="singularPen">
<path id="Vector" d="M427.133 103.353L462.868 103.862C463.914 103.877 464.795 103.084 464.889 102.042L465.377 96.6419C465.478 95.5275 464.645 94.5472 463.529 94.4668L425.325 91.7157C424.237 91.6374 423.287 92.4444 423.189 93.5303L422.632 99.6855C422.535 100.764 421.596 101.569 420.515 101.501L395.549 99.9399C394.967 99.9035 394.434 100.265 394.253 100.818C393.997 101.598 394.53 102.413 395.346 102.492L423.243 105.195C423.775 105.247 424.306 105.083 424.716 104.74L425.824 103.817C426.191 103.511 426.655 103.346 427.133 103.353Z" fill="#DADFF5"/>
<path id="Vector 259" d="M310.091 86.699L431.661 92.7805C432.751 92.8351 433.596 93.7538 433.56 94.8448L433.389 99.9562C433.352 101.076 432.403 101.946 431.284 101.887L310.29 95.4554L305.636 94.6368C305.531 94.6183 305.425 94.6083 305.319 94.6067L296.646 94.4793C296.088 94.471 295.559 94.23 295.186 93.8143L295.076 93.6913C294.812 93.3973 294.469 93.1883 294.087 93.0892C291.38 92.3875 286.714 91.1505 285.866 90.8153C285.569 90.6979 285.376 90.5286 285.257 90.3405C284.871 89.7349 285.614 89.16 286.325 89.0579L294.539 87.8776C294.799 87.8402 295.011 87.65 295.077 87.3954C295.157 87.0856 295.45 86.8796 295.768 86.9094L304.933 87.7653C305.155 87.786 305.379 87.7694 305.596 87.7162L309.514 86.7542C309.703 86.7079 309.897 86.6893 310.091 86.699Z" fill="#8693CB"/>
<path id="Vector 266" d="M294.815 93.4677L294.815 87.7366C294.554 87.7366 283.912 88.3417 284.915 90.0811C286.174 92.2644 292.209 92.9467 294.815 93.4677Z" fill="#DADFF5"/>
</g>
</g>
<defs>
<filter id="filter0_d_435_131" x="0" y="31.4741" width="309" height="50.6626" filterUnits="userSpaceOnUse" color-interpolation-filters="sRGB">
<feFlood flood-opacity="0" result="BackgroundImageFix"/>
<feColorMatrix in="SourceAlpha" type="matrix" values="0 0 0 0 0 0 0 0 0 0 0 0 0 0 0 0 0 0 127 0" result="hardAlpha"/>
<feOffset dy="4"/>
<feGaussianBlur stdDeviation="2"/>
<feComposite in2="hardAlpha" operator="out"/>
<feColorMatrix type="matrix" values="0 0 0 0 0 0 0 0 0 0 0 0 0 0 0 0 0 0 0.2 0"/>
<feBlend mode="normal" in2="BackgroundImageFix" result="effect1_dropShadow_435_131"/>
<feBlend mode="normal" in="SourceGraphic" in2="effect1_dropShadow_435_131" result="shape"/>
</filter>
</defs>
</svg>
